<?xml version="1.0" encoding="utf-8" standalone="no"?>
<!DOCTYPE svg PUBLIC "-//W3C//DTD SVG 1.1//EN"
  "http://www.w3.org/Graphics/SVG/1.1/DTD/svg11.dtd">
<svg xmlns:xlink="http://www.w3.org/1999/xlink" width="1440pt" height="576pt" viewBox="0 0 1440 576" xmlns="http://www.w3.org/2000/svg" version="1.1">
 <metadata>
  <rdf:RDF xmlns:dc="http://purl.org/dc/elements/1.1/" xmlns:cc="http://creativecommons.org/ns#" xmlns:rdf="http://www.w3.org/1999/02/22-rdf-syntax-ns#">
   <cc:Work>
    <dc:type rdf:resource="http://purl.org/dc/dcmitype/StillImage"/>
    <dc:date>2024-07-02T08:56:05.911045</dc:date>
    <dc:format>image/svg+xml</dc:format>
    <dc:creator>
     <cc:Agent>
      <dc:title>Matplotlib v3.9.0, https://matplotlib.org/</dc:title>
     </cc:Agent>
    </dc:creator>
   </cc:Work>
  </rdf:RDF>
 </metadata>
 <defs>
  <style type="text/css">*{stroke-linejoin: round; stroke-linecap: butt}</style>
 </defs>
 <g id="figure_1">
  <g id="patch_1">
   <path d="M 0 576 
L 1440 576 
L 1440 0 
L 0 0 
z
" style="fill: #ffffff"/>
  </g>
  <g id="axes_1">
   <g id="patch_2">
    <path d="M 180 512.64 
L 1296 512.64 
L 1296 69.12 
L 180 69.12 
z
" style="fill: #ffffff"/>
   </g>
   <g id="PolyCollection_1">
    <path d="M 230.727273 106.458454 
L 230.727273 473.92352 
L 231.857056 477.960501 
L 232.986839 477.466426 
L 234.116623 477.007455 
L 235.246406 477.221306 
L 236.37619 476.909629 
L 237.505973 476.210653 
L 238.635756 475.819866 
L 239.76554 479.120408 
L 240.895323 479.411759 
L 242.025106 478.73545 
L 243.15489 480.070383 
L 244.284673 481.342296 
L 245.414456 480.798652 
L 246.54424 481.615962 
L 247.674023 482.388917 
L 248.803806 483.69386 
L 249.93359 482.789618 
L 251.063373 484.74714 
L 252.193157 483.319695 
L 253.32294 482.849897 
L 254.452723 483.384558 
L 255.582507 483.877654 
L 256.71229 483.685756 
L 257.842073 484.379485 
L 258.971857 484.545013 
L 260.10164 484.528307 
L 261.231423 485.746999 
L 262.361207 485.339174 
L 263.49099 483.074775 
L 264.620773 483.663521 
L 265.750557 484.295177 
L 266.88034 484.530981 
L 268.010124 484.312513 
L 269.139907 483.848577 
L 270.26969 482.916603 
L 271.399474 482.087354 
L 272.529257 482.360006 
L 273.65904 484.117992 
L 274.788824 483.320194 
L 275.918607 482.853219 
L 277.04839 482.807187 
L 278.178174 483.549671 
L 279.307957 483.199153 
L 280.43774 484.569822 
L 281.567524 482.843355 
L 282.697307 481.307772 
L 283.827091 482.034979 
L 284.956874 482.677129 
L 286.086657 482.580317 
L 287.216441 482.967102 
L 288.346224 482.407084 
L 289.476007 480.797439 
L 290.605791 481.297676 
L 291.735574 480.217727 
L 292.865357 482.359824 
L 293.995141 481.566692 
L 295.124924 479.968588 
L 296.254707 480.885085 
L 297.384491 480.706954 
L 298.514274 480.13116 
L 299.644058 481.508887 
L 300.773841 480.761903 
L 301.903624 478.747771 
L 303.033408 480.966654 
L 304.163191 480.424022 
L 305.292974 480.595528 
L 306.422758 480.505209 
L 307.552541 480.411651 
L 308.682324 480.301952 
L 309.812108 478.15768 
L 310.941891 478.80101 
L 312.071674 480.465653 
L 313.201458 481.654305 
L 314.331241 480.373125 
L 315.461024 479.046943 
L 316.590808 479.305498 
L 317.720591 481.617157 
L 318.850375 483.516077 
L 319.980158 484.9493 
L 321.109941 485.826408 
L 322.239725 485.245616 
L 323.369508 482.838805 
L 324.499291 481.559618 
L 325.629075 480.721218 
L 326.758858 481.627702 
L 327.888641 480.301919 
L 329.018425 478.871286 
L 330.148208 479.18826 
L 331.277991 479.630575 
L 332.407775 481.426339 
L 333.537558 482.959297 
L 334.667342 481.444921 
L 335.797125 480.17774 
L 336.926908 479.464948 
L 338.056692 478.98223 
L 339.186475 481.114612 
L 340.316258 481.146363 
L 341.446042 481.148273 
L 342.575825 479.722522 
L 343.705608 479.30656 
L 344.835392 481.183195 
L 345.965175 480.914727 
L 347.094958 481.453506 
L 348.224742 481.117784 
L 349.354525 480.638637 
L 350.484309 479.942584 
L 351.614092 482.258096 
L 352.743875 483.619847 
L 353.873659 483.172733 
L 355.003442 481.380755 
L 356.133225 479.438029 
L 357.263009 480.077258 
L 358.392792 481.086631 
L 359.522575 481.994826 
L 360.652359 482.500708 
L 361.782142 481.646168 
L 362.911925 482.037652 
L 364.041709 481.412091 
L 365.171492 482.17764 
L 366.301276 482.273323 
L 367.431059 482.783092 
L 368.560842 482.327625 
L 369.690626 484.147583 
L 370.820409 483.771011 
L 371.950192 480.021362 
L 373.079976 479.33484 
L 374.209759 479.739775 
L 375.339542 479.987918 
L 376.469326 480.469473 
L 377.599109 480.691461 
L 378.728892 482.68241 
L 379.858676 481.453373 
L 380.988459 483.177499 
L 382.118243 481.413569 
L 383.248026 479.416707 
L 384.377809 478.097716 
L 385.507593 477.390802 
L 386.637376 480.233087 
L 387.767159 483.36752 
L 388.896943 484.164804 
L 390.026726 483.048371 
L 391.156509 482.236525 
L 392.286293 484.076211 
L 393.416076 483.990674 
L 394.545859 485.72928 
L 395.675643 484.95669 
L 396.805426 481.494755 
L 397.93521 478.9767 
L 399.064993 479.523683 
L 400.194776 481.029026 
L 401.32456 479.668104 
L 402.454343 478.127441 
L 403.584126 476.340843 
L 404.71391 476.035278 
L 405.843693 476.364573 
L 406.973476 476.868164 
L 408.10326 477.482318 
L 409.233043 479.030769 
L 410.362826 479.2958 
L 411.49261 479.199967 
L 412.622393 481.141813 
L 413.752177 480.627395 
L 414.88196 480.648949 
L 416.011743 479.930378 
L 417.141527 480.224137 
L 418.27131 478.322909 
L 419.401093 478.928377 
L 420.530877 479.516957 
L 421.66066 478.186159 
L 422.790443 480.144893 
L 423.920227 481.406096 
L 425.05001 480.748568 
L 426.179793 479.828484 
L 427.309577 480.480881 
L 428.43936 481.036199 
L 429.569144 483.906781 
L 430.698927 482.830352 
L 431.82871 481.906299 
L 432.958494 482.730401 
L 434.088277 483.241498 
L 435.21806 482.356137 
L 436.347844 481.557575 
L 437.477627 481.296397 
L 438.60741 482.333404 
L 439.737194 483.083991 
L 440.866977 482.690879 
L 441.99676 482.607551 
L 443.126544 481.31209 
L 444.256327 478.760774 
L 445.386111 476.206037 
L 446.515894 475.306245 
L 447.645677 477.318467 
L 448.775461 478.755244 
L 449.905244 480.842275 
L 451.035027 480.504312 
L 452.164811 480.236641 
L 453.294594 481.567854 
L 454.424377 482.137454 
L 455.554161 484.383171 
L 456.683944 485.891503 
L 457.813727 482.99138 
L 458.943511 481.089039 
L 460.073294 482.306917 
L 461.203078 483.542979 
L 462.332861 485.859703 
L 463.462644 485.424063 
L 464.592428 487.236367 
L 465.722211 486.86916 
L 466.851994 487.862127 
L 467.981778 487.222551 
L 469.111561 486.256236 
L 470.241344 487.256809 
L 471.371128 487.417338 
L 472.500911 487.421174 
L 473.630694 486.789983 
L 474.760478 486.684618 
L 475.890261 487.603972 
L 477.020045 486.344347 
L 478.149828 487.665613 
L 479.279611 487.986622 
L 480.409395 489.283743 
L 481.539178 488.280762 
L 482.668961 489.908258 
L 483.798745 489.27813 
L 484.928528 489.365345 
L 486.058311 489.231102 
L 487.188095 488.956706 
L 488.317878 490.033135 
L 489.447661 489.59072 
L 490.577445 490.10014 
L 491.707228 491.015657 
L 492.837012 489.281767 
L 493.966795 488.275399 
L 495.096578 488.143764 
L 496.226362 488.549164 
L 497.356145 489.126469 
L 498.485928 488.770288 
L 499.615712 488.707003 
L 500.745495 488.404344 
L 501.875278 490.174949 
L 503.005062 490.210519 
L 504.134845 489.999674 
L 505.264628 489.504735 
L 506.394412 488.332556 
L 507.524195 488.406054 
L 508.653979 488.140127 
L 509.783762 486.669192 
L 510.913545 485.697447 
L 512.043329 486.138267 
L 513.173112 485.86955 
L 514.302895 486.002597 
L 515.432679 485.983384 
L 516.562462 486.058476 
L 517.692245 485.952165 
L 518.822029 485.651 
L 519.951812 485.462921 
L 521.081595 485.368118 
L 522.211379 483.960684 
L 523.341162 483.3502 
L 524.470946 484.096138 
L 525.600729 484.44448 
L 526.730512 484.653715 
L 527.860296 485.075671 
L 528.990079 483.68393 
L 530.119862 482.217926 
L 531.249646 483.130753 
L 532.379429 482.142103 
L 533.509212 482.316399 
L 534.638996 482.447619 
L 535.768779 482.156982 
L 536.898562 481.374644 
L 538.028346 480.970423 
L 539.158129 481.87611 
L 540.287913 481.091746 
L 541.417696 482.339764 
L 542.547479 482.275864 
L 543.677263 482.834637 
L 544.807046 481.79122 
L 545.936829 482.06658 
L 547.066613 481.529146 
L 548.196396 482.025165 
L 549.326179 481.714767 
L 550.455963 483.043356 
L 551.585746 481.650635 
L 552.715529 481.690506 
L 553.845313 481.691817 
L 554.975096 481.097126 
L 556.10488 481.153288 
L 557.234663 480.911422 
L 558.364446 481.264614 
L 559.49423 480.827081 
L 560.624013 481.886738 
L 561.753796 481.539209 
L 562.88358 479.838797 
L 564.013363 478.1568 
L 565.143146 479.487797 
L 566.27293 480.355606 
L 567.402713 480.583871 
L 568.532496 480.549131 
L 569.66228 479.886788 
L 570.792063 479.804489 
L 571.921847 481.164663 
L 573.05163 481.403107 
L 574.181413 481.526638 
L 575.311197 482.319172 
L 576.44098 481.845024 
L 577.570763 481.755485 
L 578.700547 482.122791 
L 579.83033 481.974301 
L 580.960113 482.750013 
L 582.089897 482.760757 
L 583.21968 483.439358 
L 584.349463 482.478207 
L 585.479247 483.006176 
L 586.60903 483.20088 
L 587.738814 482.635963 
L 588.868597 482.90757 
L 589.99838 482.696376 
L 591.128164 483.712741 
L 592.257947 481.783814 
L 593.38773 482.375965 
L 594.517514 482.623708 
L 595.647297 481.003054 
L 596.77708 481.406777 
L 597.906864 481.019245 
L 599.036647 482.381029 
L 600.16643 482.338103 
L 601.296214 482.004308 
L 602.425997 481.522786 
L 603.555781 481.587914 
L 604.685564 481.657809 
L 605.815347 482.37188 
L 606.945131 482.492505 
L 608.074914 483.396896 
L 609.204697 483.723634 
L 610.334481 482.947856 
L 611.464264 482.83271 
L 612.594047 482.542339 
L 613.723831 481.250814 
L 614.853614 481.411128 
L 615.983397 483.004897 
L 617.113181 483.252259 
L 618.242964 485.078561 
L 619.372748 484.502518 
L 620.502531 485.265543 
L 621.632314 484.507749 
L 622.762098 484.66597 
L 623.891881 485.147708 
L 625.021664 483.969485 
L 626.151448 484.867649 
L 627.281231 483.262953 
L 628.411014 484.589384 
L 629.540798 484.442787 
L 630.670581 484.835334 
L 631.800364 484.433703 
L 632.930148 484.532691 
L 634.059931 484.080545 
L 635.189715 483.622023 
L 636.319498 484.490911 
L 637.449281 483.809138 
L 638.579065 484.077589 
L 639.708848 484.013956 
L 640.838631 483.281286 
L 641.968415 483.507824 
L 643.098198 483.704704 
L 644.227981 484.540845 
L 645.357765 485.903659 
L 646.487548 484.93565 
L 647.617331 486.260304 
L 648.747115 484.7215 
L 649.876898 483.143241 
L 651.006682 483.484028 
L 652.136465 483.879929 
L 653.266248 484.433969 
L 654.396032 483.491533 
L 655.525815 483.637832 
L 656.655598 481.887053 
L 657.785382 481.462689 
L 658.915165 482.709096 
L 660.044948 483.985045 
L 661.174732 483.191514 
L 662.304515 483.991122 
L 663.434298 482.583223 
L 664.564082 482.447304 
L 665.693865 482.349611 
L 666.823649 483.116788 
L 667.953432 483.948744 
L 669.083215 483.933201 
L 670.212999 482.557119 
L 671.342782 483.982836 
L 672.472565 482.422627 
L 673.602349 481.873403 
L 674.732132 480.908002 
L 675.861915 481.633282 
L 676.991699 482.453963 
L 678.121482 482.295924 
L 679.251265 481.232597 
L 680.381049 480.059373 
L 681.510832 479.655135 
L 682.640616 480.015567 
L 683.770399 480.715224 
L 684.900182 481.380722 
L 686.029966 480.479619 
L 687.159749 479.447129 
L 688.289532 478.451821 
L 689.419316 478.822398 
L 690.549099 480.030678 
L 691.678882 479.579462 
L 692.808666 480.720322 
L 693.938449 481.434426 
L 695.068232 479.807993 
L 696.198016 477.340486 
L 697.327799 477.199967 
L 698.457583 478.782677 
L 699.587366 479.052208 
L 700.717149 478.854514 
L 701.846933 479.393559 
L 702.976716 477.908542 
L 704.106499 476.892558 
L 705.236283 478.125847 
L 706.366066 478.403514 
L 707.495849 479.755817 
L 708.625633 478.539633 
L 709.755416 478.073438 
L 710.885199 478.032189 
L 712.014983 479.069445 
L 713.144766 479.840474 
L 714.27455 478.953236 
L 715.404333 479.096363 
L 716.534116 478.656472 
L 717.6639 476.355739 
L 718.793683 478.227392 
L 719.923466 479.418268 
L 721.05325 481.061623 
L 722.183033 481.544639 
L 723.312816 480.627943 
L 724.4426 481.000546 
L 725.572383 481.03062 
L 726.702166 482.182091 
L 727.83195 482.752421 
L 728.961733 482.854713 
L 730.091517 482.199875 
L 731.2213 481.822689 
L 732.351083 482.160519 
L 733.480867 482.343185 
L 734.61065 482.88751 
L 735.740433 482.71886 
L 736.870217 483.882653 
L 738 483.853775 
L 739.129783 483.90703 
L 740.259567 483.830344 
L 741.38935 482.550742 
L 742.519133 483.061839 
L 743.648917 482.928493 
L 744.7787 483.038458 
L 745.908483 481.960418 
L 747.038267 479.821211 
L 748.16805 480.355622 
L 749.297834 482.260836 
L 750.427617 480.986564 
L 751.5574 481.196945 
L 752.687184 481.750768 
L 753.816967 481.763489 
L 754.94675 482.06756 
L 756.076534 481.436551 
L 757.206317 481.53167 
L 758.3361 482.59229 
L 759.465884 482.518427 
L 760.595667 483.049401 
L 761.72545 482.449745 
L 762.855234 481.016438 
L 763.985017 481.001161 
L 765.114801 482.074634 
L 766.244584 482.029565 
L 767.374367 481.883084 
L 768.504151 481.973304 
L 769.633934 480.808383 
L 770.763717 480.826317 
L 771.893501 481.323648 
L 773.023284 481.05513 
L 774.153067 481.772174 
L 775.282851 481.447827 
L 776.412634 480.833723 
L 777.542417 481.952198 
L 778.672201 481.099003 
L 779.801984 480.850661 
L 780.931768 480.424205 
L 782.061551 480.520071 
L 783.191334 482.020963 
L 784.321118 481.666875 
L 785.450901 479.359633 
L 786.580684 478.683208 
L 787.710468 478.366848 
L 788.840251 480.123356 
L 789.970034 479.887718 
L 791.099818 480.497786 
L 792.229601 479.353439 
L 793.359384 479.323764 
L 794.489168 479.012951 
L 795.618951 480.90488 
L 796.748735 480.952921 
L 797.878518 480.712716 
L 799.008301 480.156916 
L 800.138085 480.214904 
L 801.267868 479.202657 
L 802.397651 479.685607 
L 803.527435 479.718072 
L 804.657218 478.863498 
L 805.787001 479.451729 
L 806.916785 479.853875 
L 808.046568 479.335073 
L 809.176351 480.498815 
L 810.306135 479.653292 
L 811.435918 478.048164 
L 812.565702 477.42981 
L 813.695485 480.113874 
L 814.825268 479.053669 
L 815.955052 478.307034 
L 817.084835 477.377999 
L 818.214618 477.007887 
L 819.344402 476.136923 
L 820.474185 476.584984 
L 821.603968 478.676582 
L 822.733752 478.516717 
L 823.863535 478.229634 
L 824.993318 478.180281 
L 826.123102 477.622887 
L 827.252885 478.439217 
L 828.382669 478.633406 
L 829.512452 479.197742 
L 830.642235 479.442696 
L 831.772019 479.752114 
L 832.901802 481.203039 
L 834.031585 481.057687 
L 835.161369 482.05386 
L 836.291152 481.425442 
L 837.420935 479.903211 
L 838.550719 479.913241 
L 839.680502 481.25744 
L 840.810285 483.02607 
L 841.940069 482.618477 
L 843.069852 482.980055 
L 844.199636 481.70922 
L 845.329419 481.450434 
L 846.459202 482.306137 
L 847.588986 483.997698 
L 848.718769 482.54767 
L 849.848552 482.480432 
L 850.978336 482.505242 
L 852.108119 482.174634 
L 853.237902 481.913125 
L 854.367686 481.658822 
L 855.497469 481.742416 
L 856.627252 482.200606 
L 857.757036 482.252001 
L 858.886819 481.764867 
L 860.016603 482.482226 
L 861.146386 482.173439 
L 862.276169 483.41762 
L 863.405953 481.553955 
L 864.535736 481.429461 
L 865.665519 480.787111 
L 866.795303 481.656248 
L 867.925086 481.932271 
L 869.054869 480.644283 
L 870.184653 481.176469 
L 871.314436 480.332955 
L 872.444219 480.245957 
L 873.574003 481.519979 
L 874.703786 480.769674 
L 875.83357 479.974616 
L 876.963353 481.827172 
L 878.093136 481.541202 
L 879.22292 480.218308 
L 880.352703 481.097176 
L 881.482486 480.872399 
L 882.61227 480.147451 
L 883.742053 480.482409 
L 884.871836 481.375657 
L 886.00162 480.756705 
L 887.131403 481.286318 
L 888.261186 480.411153 
L 889.39097 480.837742 
L 890.520753 478.969112 
L 891.650537 479.821643 
L 892.78032 479.684295 
L 893.910103 480.548251 
L 895.039887 480.270102 
L 896.16967 479.884214 
L 897.299453 479.602112 
L 898.429237 478.219653 
L 899.55902 479.291349 
L 900.688803 479.05611 
L 901.818587 479.055545 
L 902.94837 480.09212 
L 904.078153 478.604662 
L 905.207937 479.20656 
L 906.33772 477.231253 
L 907.467504 477.362772 
L 908.597287 477.361526 
L 909.72707 478.298913 
L 910.856854 478.60594 
L 911.986637 479.306494 
L 913.11642 478.959995 
L 914.246204 478.950762 
L 915.375987 477.731107 
L 916.50577 477.383462 
L 917.635554 478.728857 
L 918.765337 479.759254 
L 919.89512 478.645894 
L 921.024904 479.296713 
L 922.154687 478.800014 
L 923.284471 477.255912 
L 924.414254 477.991256 
L 925.544037 480.030163 
L 926.673821 481.533646 
L 927.803604 480.16145 
L 928.933387 481.010709 
L 930.063171 480.670371 
L 931.192954 481.500534 
L 932.322737 480.966471 
L 933.452521 481.361094 
L 934.582304 481.865698 
L 935.712087 482.518576 
L 936.841871 481.836638 
L 937.971654 482.323689 
L 939.101438 481.817873 
L 940.231221 481.229276 
L 941.361004 481.536104 
L 942.490788 484.330448 
L 943.620571 485.674896 
L 944.750354 485.086681 
L 945.880138 484.330431 
L 947.009921 483.242162 
L 948.139704 481.827471 
L 949.269488 483.420908 
L 950.399271 484.789717 
L 951.529054 484.306435 
L 952.658838 484.074816 
L 953.788621 483.239057 
L 954.918405 484.286226 
L 956.048188 484.807037 
L 957.177971 483.243723 
L 958.307755 484.765024 
L 959.437538 483.805551 
L 960.567321 483.318217 
L 961.697105 483.339207 
L 962.826888 482.160735 
L 963.956671 481.530973 
L 965.086455 481.505831 
L 966.216238 482.137321 
L 967.346021 482.167444 
L 968.475805 481.104782 
L 969.605588 481.969917 
L 970.735372 481.351961 
L 971.865155 480.639833 
L 972.994938 481.443592 
L 974.124722 482.139297 
L 975.254505 481.887186 
L 976.384288 480.736977 
L 977.514072 480.890217 
L 978.643855 480.472262 
L 979.773638 480.925039 
L 980.903422 480.154807 
L 982.033205 481.685125 
L 983.162988 479.751649 
L 984.292772 480.945531 
L 985.422555 479.942484 
L 986.552339 478.515421 
L 987.682122 477.991305 
L 988.811905 478.200391 
L 989.941689 479.467837 
L 991.071472 479.267105 
L 992.201255 478.865574 
L 993.331039 479.23846 
L 994.460822 477.700602 
L 995.590605 477.261143 
L 996.720389 478.428689 
L 997.850172 478.785417 
L 998.979955 478.091987 
L 1000.109739 477.477402 
L 1001.239522 477.375043 
L 1002.369306 477.707876 
L 1003.499089 477.076668 
L 1004.628872 477.860301 
L 1005.758656 478.269288 
L 1006.888439 478.766984 
L 1008.018222 478.852787 
L 1009.148006 478.59141 
L 1010.277789 477.059398 
L 1011.407572 477.785625 
L 1012.537356 479.15719 
L 1013.667139 479.466974 
L 1014.796922 479.178197 
L 1015.926706 479.189107 
L 1017.056489 478.161101 
L 1018.186273 478.261417 
L 1019.316056 480.655143 
L 1020.445839 481.1864 
L 1021.575623 481.093739 
L 1022.705406 481.100962 
L 1023.835189 480.260504 
L 1024.964973 480.307748 
L 1026.094756 480.892608 
L 1027.224539 481.069262 
L 1028.354323 483.080271 
L 1029.484106 482.205737 
L 1030.613889 482.304742 
L 1031.743673 483.130255 
L 1032.873456 482.267262 
L 1034.00324 482.503066 
L 1035.133023 481.439208 
L 1036.262806 482.860808 
L 1037.39259 482.290594 
L 1038.522373 483.100647 
L 1039.652156 483.028029 
L 1040.78194 482.654379 
L 1041.911723 481.842931 
L 1043.041506 483.004067 
L 1044.17129 481.696152 
L 1045.301073 481.650585 
L 1046.430856 482.060751 
L 1047.56064 481.862028 
L 1048.690423 481.90537 
L 1049.820207 481.781589 
L 1050.94999 481.23464 
L 1052.079773 482.194761 
L 1053.209557 482.013325 
L 1054.33934 482.788622 
L 1055.469123 482.522279 
L 1056.598907 482.534767 
L 1057.72869 481.32662 
L 1058.858473 481.856449 
L 1059.988257 481.044071 
L 1061.11804 482.202449 
L 1062.247823 482.135893 
L 1063.377607 482.301105 
L 1064.50739 481.439673 
L 1065.637174 480.227674 
L 1066.766957 480.690896 
L 1067.89674 481.76392 
L 1069.026524 481.279061 
L 1070.156307 481.60809 
L 1071.28609 481.920116 
L 1072.415874 481.592962 
L 1073.545657 481.291648 
L 1074.67544 481.203105 
L 1075.805224 481.78418 
L 1076.935007 480.435796 
L 1078.06479 480.71974 
L 1079.194574 481.187047 
L 1080.324357 480.160071 
L 1081.454141 479.674099 
L 1082.583924 480.459675 
L 1083.713707 480.893787 
L 1084.843491 480.235429 
L 1085.973274 481.718121 
L 1087.103057 479.917475 
L 1088.232841 478.509858 
L 1089.362624 478.34991 
L 1090.492407 479.401031 
L 1091.622191 479.6193 
L 1092.751974 478.680418 
L 1093.881757 479.08703 
L 1095.011541 477.74866 
L 1096.141324 478.967185 
L 1097.271108 478.701707 
L 1098.400891 480.593153 
L 1099.530674 480.394431 
L 1100.660458 481.986838 
L 1101.790241 481.503938 
L 1102.920024 480.729339 
L 1104.049808 480.501489 
L 1105.179591 482.365951 
L 1106.309374 481.954208 
L 1107.439158 482.212612 
L 1108.568941 481.877654 
L 1109.698724 482.351587 
L 1110.828508 481.210993 
L 1111.958291 481.755451 
L 1113.088075 482.427144 
L 1114.217858 483.60819 
L 1115.347641 482.546956 
L 1116.477425 483.913207 
L 1117.607208 483.293857 
L 1118.736991 481.493493 
L 1119.866775 481.530175 
L 1120.996558 481.793014 
L 1122.126341 481.811679 
L 1123.256125 481.303007 
L 1124.385908 481.705816 
L 1125.515691 480.515969 
L 1126.645475 480.060618 
L 1127.775258 480.226761 
L 1128.905042 481.331187 
L 1130.034825 481.321971 
L 1131.164608 481.292595 
L 1132.294392 480.216631 
L 1133.424175 480.786048 
L 1134.553958 479.748112 
L 1135.683742 478.701125 
L 1136.813525 479.065609 
L 1137.943308 478.667897 
L 1139.073092 480.142104 
L 1140.202875 479.55002 
L 1141.332658 478.27241 
L 1142.462442 478.608265 
L 1143.592225 480.123189 
L 1144.722009 478.677744 
L 1145.851792 480.419588 
L 1146.981575 480.452169 
L 1148.111359 478.025945 
L 1149.241142 477.607825 
L 1150.370925 478.078968 
L 1151.500709 478.622928 
L 1152.630492 478.303679 
L 1153.760275 477.708357 
L 1154.890059 477.018996 
L 1156.019842 476.458098 
L 1157.149625 476.529404 
L 1158.279409 476.554047 
L 1159.409192 476.635931 
L 1160.538976 475.569515 
L 1161.668759 476.094711 
L 1162.798542 476.473043 
L 1163.928326 475.313452 
L 1165.058109 476.025331 
L 1166.187892 476.508663 
L 1167.317676 476.520802 
L 1168.447459 475.36141 
L 1169.577242 476.031741 
L 1170.707026 475.892849 
L 1171.836809 478.160453 
L 1172.966592 479.012951 
L 1174.096376 479.864038 
L 1175.226159 479.164812 
L 1176.355942 478.440246 
L 1177.485726 479.188127 
L 1178.615509 480.280115 
L 1179.745293 480.24511 
L 1180.875076 477.464416 
L 1182.004859 477.210163 
L 1183.134643 476.967866 
L 1184.264426 476.910875 
L 1185.394209 476.72552 
L 1186.523993 476.874773 
L 1187.653776 473.760135 
L 1188.783559 472.986282 
L 1189.913343 472.314258 
L 1191.043126 475.198622 
L 1192.172909 474.278223 
L 1193.302693 475.464533 
L 1194.432476 474.849964 
L 1195.56226 474.018589 
L 1196.692043 472.893655 
L 1197.821826 475.662957 
L 1198.95161 475.397711 
L 1200.081393 473.761546 
L 1201.211176 472.391309 
L 1202.34096 473.064646 
L 1203.470743 474.98145 
L 1204.600526 474.693736 
L 1205.73031 476.313676 
L 1206.860093 479.592033 
L 1207.989876 481.261608 
L 1209.11966 480.930802 
L 1210.249443 481.416641 
L 1211.379227 483.492978 
L 1212.50901 486.224402 
L 1213.638793 487.336035 
L 1214.768577 487.182099 
L 1215.89836 487.142809 
L 1217.028143 488.804397 
L 1218.157927 488.020066 
L 1219.28771 487.508255 
L 1220.417493 488.998869 
L 1221.547277 489.462738 
L 1222.67706 489.665347 
L 1223.806843 491.899142 
L 1224.936627 492.183618 
L 1226.06641 491.999956 
L 1227.196194 490.434948 
L 1228.325977 490.912584 
L 1229.45576 492.48 
L 1230.585544 492.144162 
L 1231.715327 491.199999 
L 1232.84511 491.469547 
L 1233.974894 491.165941 
L 1235.104677 490.672346 
L 1236.23446 489.637565 
L 1237.364244 489.755152 
L 1238.494027 490.443982 
L 1239.62381 490.331593 
L 1240.753594 489.569382 
L 1241.883377 489.335853 
L 1243.013161 489.769782 
L 1244.142944 488.518476 
L 1245.272727 488.081774 
L 1245.272727 126.175688 
L 1245.272727 126.175688 
L 1244.142944 125.914377 
L 1243.013161 127.706454 
L 1241.883377 126.962277 
L 1240.753594 126.682633 
L 1239.62381 127.484831 
L 1238.494027 127.239496 
L 1237.364244 126.691667 
L 1236.23446 126.027065 
L 1235.104677 127.301569 
L 1233.974894 128.560563 
L 1232.84511 128.394968 
L 1231.715327 128.110476 
L 1230.585544 130.069741 
L 1229.45576 131.152414 
L 1228.325977 127.972315 
L 1227.196194 127.20469 
L 1226.06641 129.77937 
L 1224.936627 129.211149 
L 1223.806843 129.151335 
L 1222.67706 125.261831 
L 1221.547277 123.39795 
L 1220.417493 121.510388 
L 1219.28771 117.466914 
L 1218.157927 118.028825 
L 1217.028143 118.289605 
L 1215.89836 115.468857 
L 1214.768577 114.727237 
L 1213.638793 115.066131 
L 1212.50901 112.240335 
L 1211.379227 105.995614 
L 1210.249443 102.448491 
L 1209.11966 102.057521 
L 1207.989876 103.066829 
L 1206.860093 100.161524 
L 1205.73031 95.049161 
L 1204.600526 92.165112 
L 1203.470743 91.785501 
L 1202.34096 89.499796 
L 1201.211176 89.28 
L 1200.081393 92.853228 
L 1198.95161 96.697862 
L 1197.821826 98.854805 
L 1196.692043 93.901725 
L 1195.56226 96.376306 
L 1194.432476 97.881266 
L 1193.302693 99.530234 
L 1192.172909 98.591668 
L 1191.043126 99.638039 
L 1189.913343 95.175233 
L 1188.783559 96.412639 
L 1187.653776 98.708507 
L 1186.523993 104.653823 
L 1185.394209 104.325491 
L 1184.264426 105.586876 
L 1183.134643 106.192527 
L 1182.004859 107.076792 
L 1180.875076 107.703466 
L 1179.745293 113.442936 
L 1178.615509 112.72649 
L 1177.485726 112.094436 
L 1176.355942 110.569647 
L 1175.226159 112.513635 
L 1174.096376 112.847713 
L 1172.966592 112.035485 
L 1171.836809 110.656696 
L 1170.707026 106.819201 
L 1169.577242 107.626315 
L 1168.447459 105.566816 
L 1167.317676 107.816386 
L 1166.187892 108.168332 
L 1165.058109 107.303131 
L 1163.928326 106.667257 
L 1162.798542 108.410945 
L 1161.668759 107.509044 
L 1160.538976 106.916545 
L 1159.409192 108.057305 
L 1158.279409 107.917018 
L 1157.149625 108.196197 
L 1156.019842 108.285005 
L 1154.890059 108.610647 
L 1153.760275 109.871202 
L 1152.630492 111.441591 
L 1151.500709 111.316415 
L 1150.370925 110.906615 
L 1149.241142 109.040375 
L 1148.111359 109.479137 
L 1146.981575 113.084049 
L 1145.851792 113.58196 
L 1144.722009 111.156368 
L 1143.592225 113.264721 
L 1142.462442 109.847356 
L 1141.332658 110.248024 
L 1140.202875 112.843064 
L 1139.073092 113.209656 
L 1137.943308 110.490138 
L 1136.813525 111.231061 
L 1135.683742 109.841644 
L 1134.553958 112.272518 
L 1133.424175 113.734967 
L 1132.294392 112.546748 
L 1131.164608 114.679678 
L 1130.034825 114.915814 
L 1128.905042 115.338169 
L 1127.775258 113.255123 
L 1126.645475 112.679462 
L 1125.515691 113.448648 
L 1124.385908 115.858399 
L 1123.256125 115.91642 
L 1122.126341 115.506785 
L 1120.996558 115.96099 
L 1119.866775 115.283735 
L 1118.736991 115.519738 
L 1117.607208 118.564931 
L 1116.477425 119.344711 
L 1115.347641 117.585713 
L 1114.217858 119.770421 
L 1113.088075 116.83217 
L 1111.958291 116.489125 
L 1110.828508 115.296588 
L 1109.698724 117.632409 
L 1108.568941 116.635357 
L 1107.439158 116.771957 
L 1106.309374 116.927687 
L 1105.179591 116.835856 
L 1104.049808 114.050546 
L 1102.920024 113.929356 
L 1101.790241 115.429003 
L 1100.660458 117.21115 
L 1099.530674 113.41703 
L 1098.400891 113.515105 
L 1097.271108 111.048894 
L 1096.141324 111.850561 
L 1095.011541 108.796534 
L 1093.881757 111.060618 
L 1092.751974 110.378015 
L 1091.622191 112.350466 
L 1090.492407 111.48729 
L 1089.362624 109.773892 
L 1088.232841 109.573492 
L 1087.103057 111.836214 
L 1085.973274 115.211134 
L 1084.843491 113.329916 
L 1083.713707 114.52325 
L 1082.583924 113.484816 
L 1081.454141 111.935185 
L 1080.324357 113.11457 
L 1079.194574 114.711628 
L 1078.06479 113.76343 
L 1076.935007 112.717158 
L 1075.805224 115.860358 
L 1074.67544 114.615313 
L 1073.545657 114.630391 
L 1072.415874 115.208875 
L 1071.28609 114.996253 
L 1070.156307 114.48406 
L 1069.026524 114.182895 
L 1067.89674 115.957935 
L 1066.766957 114.045598 
L 1065.637174 112.428447 
L 1064.50739 114.866793 
L 1063.377607 116.528913 
L 1062.247823 116.513436 
L 1061.11804 116.525126 
L 1059.988257 114.330356 
L 1058.858473 114.884063 
L 1057.72869 113.988141 
L 1056.598907 117.158742 
L 1055.469123 117.487937 
L 1054.33934 117.794848 
L 1053.209557 115.572545 
L 1052.079773 116.625858 
L 1050.94999 115.259091 
L 1049.820207 115.979522 
L 1048.690423 116.084073 
L 1047.56064 115.945779 
L 1046.430856 115.798684 
L 1045.301073 115.098213 
L 1044.17129 115.283203 
L 1043.041506 117.724406 
L 1041.911723 115.627543 
L 1040.78194 116.95977 
L 1039.652156 118.433545 
L 1038.522373 118.008367 
L 1037.39259 116.992815 
L 1036.262806 118.526073 
L 1035.133023 114.941121 
L 1034.00324 117.830152 
L 1032.873456 116.762259 
L 1031.743673 118.364929 
L 1030.613889 117.815871 
L 1029.484106 117.121345 
L 1028.354323 119.124019 
L 1027.224539 115.288916 
L 1026.094756 115.034447 
L 1024.964973 113.784951 
L 1023.835189 114.177382 
L 1022.705406 115.578622 
L 1021.575623 115.307714 
L 1020.445839 115.166098 
L 1019.316056 114.345434 
L 1018.186273 110.731156 
L 1017.056489 109.838588 
L 1015.926706 111.961555 
L 1014.796922 111.868396 
L 1013.667139 112.054947 
L 1012.537356 112.148936 
L 1011.407572 109.33327 
L 1010.277789 108.355879 
L 1009.148006 110.567555 
L 1008.018222 111.577527 
L 1006.888439 111.376695 
L 1005.758656 110.830227 
L 1004.628872 109.201785 
L 1003.499089 107.576863 
L 1002.369306 108.629379 
L 1001.239522 108.315627 
L 1000.109739 108.083941 
L 998.979955 108.283146 
L 997.850172 110.264962 
L 996.720389 110.152972 
L 995.590605 107.279584 
L 994.460822 108.855817 
L 993.331039 111.352118 
L 992.201255 110.611262 
L 991.071472 111.361417 
L 989.941689 111.637308 
L 988.811905 109.745263 
L 987.682122 109.365652 
L 986.552339 109.227258 
L 985.422555 112.438477 
L 984.292772 114.330621 
L 983.162988 111.641061 
L 982.033205 114.932586 
L 980.903422 112.524562 
L 979.773638 113.382756 
L 978.643855 112.384475 
L 977.514072 113.125431 
L 976.384288 113.151203 
L 975.254505 114.796816 
L 974.124722 115.683273 
L 972.994938 114.369546 
L 971.865155 112.951533 
L 970.735372 113.626996 
L 969.605588 115.30788 
L 968.475805 113.64772 
L 967.346021 116.298356 
L 966.216238 116.158202 
L 965.086455 115.154076 
L 963.956671 115.112029 
L 962.826888 116.373282 
L 961.697105 118.227532 
L 960.567321 118.346729 
L 959.437538 118.693527 
L 958.307755 120.412339 
L 957.177971 117.946227 
L 956.048188 121.035459 
L 954.918405 120.188458 
L 953.788621 118.212287 
L 952.658838 120.016553 
L 951.529054 120.428181 
L 950.399271 121.649579 
L 949.269488 119.52369 
L 948.139704 116.247542 
L 947.009921 118.542147 
L 945.880138 120.959304 
L 944.750354 122.495717 
L 943.620571 123.742124 
L 942.490788 120.749572 
L 941.361004 116.033027 
L 940.231221 115.33953 
L 939.101438 116.856414 
L 937.971654 117.899565 
L 936.841871 117.14197 
L 935.712087 117.795545 
L 934.582304 116.732933 
L 933.452521 116.153021 
L 932.322737 115.357996 
L 931.192954 116.106358 
L 930.063171 115.211997 
L 928.933387 114.863671 
L 927.803604 114.244138 
L 926.673821 115.874075 
L 925.544037 112.989594 
L 924.414254 109.865291 
L 923.284471 108.378264 
L 922.154687 111.018605 
L 921.024904 111.999284 
L 919.89512 111.401936 
L 918.765337 113.395443 
L 917.635554 111.491408 
L 916.50577 108.738745 
L 915.375987 109.440445 
L 914.246204 111.235146 
L 913.11642 110.773933 
L 911.986637 112.043887 
L 910.856854 110.951517 
L 909.72707 110.32843 
L 908.597287 108.86515 
L 907.467504 109.391059 
L 906.33772 108.8969 
L 905.207937 111.787758 
L 904.078153 110.856564 
L 902.94837 112.562756 
L 901.818587 111.202764 
L 900.688803 110.894393 
L 899.55902 111.768262 
L 898.429237 109.535962 
L 897.299453 112.721541 
L 896.16967 112.902845 
L 895.039887 113.224369 
L 893.910103 113.656421 
L 892.78032 112.520776 
L 891.650537 113.699995 
L 890.520753 110.437398 
L 889.39097 114.349353 
L 888.261186 113.978543 
L 887.131403 115.361417 
L 886.00162 114.99074 
L 884.871836 115.385662 
L 883.742053 113.578307 
L 882.61227 112.920049 
L 881.482486 114.458088 
L 880.352703 114.933283 
L 879.22292 113.05004 
L 878.093136 115.158792 
L 876.963353 116.225224 
L 875.83357 112.838846 
L 874.703786 114.683364 
L 873.574003 115.548765 
L 872.444219 113.491624 
L 871.314436 113.715406 
L 870.184653 115.564972 
L 869.054869 114.354335 
L 867.925086 117.184846 
L 866.795303 116.669 
L 865.665519 115.356336 
L 864.535736 115.130794 
L 863.405953 115.570552 
L 862.276169 119.846243 
L 861.146386 118.032014 
L 860.016603 117.686146 
L 858.886819 116.547943 
L 857.757036 117.147118 
L 856.627252 117.149542 
L 855.497469 116.045946 
L 854.367686 116.600019 
L 853.237902 117.233203 
L 852.108119 117.999134 
L 850.978336 118.454933 
L 849.848552 118.25533 
L 848.718769 118.166887 
L 847.588986 120.650833 
L 846.459202 117.861172 
L 845.329419 116.554884 
L 844.199636 117.170233 
L 843.069852 118.892632 
L 841.940069 119.303562 
L 840.810285 120.147807 
L 839.680502 115.840365 
L 838.550719 113.952106 
L 837.420935 114.05493 
L 836.291152 116.423166 
L 835.161369 117.52447 
L 834.031585 115.308743 
L 832.901802 115.553149 
L 831.772019 112.949873 
L 830.642235 112.322734 
L 829.512452 112.098786 
L 828.382669 111.333918 
L 827.252885 110.624115 
L 826.123102 110.307772 
L 824.993318 110.461078 
L 823.863535 110.968189 
L 822.733752 111.265834 
L 821.603968 111.034945 
L 820.474185 107.935185 
L 819.344402 107.473873 
L 818.214618 108.734162 
L 817.084835 109.290593 
L 815.955052 111.67135 
L 814.825268 112.334325 
L 813.695485 114.466026 
L 812.565702 109.393683 
L 811.435918 109.74347 
L 810.306135 113.393085 
L 809.176351 114.707177 
L 808.046568 113.257414 
L 806.916785 113.704778 
L 805.787001 113.083816 
L 804.657218 111.985268 
L 803.527435 113.684651 
L 802.397651 113.36625 
L 801.267868 112.814103 
L 800.138085 113.817632 
L 799.008301 114.006839 
L 797.878518 114.688047 
L 796.748735 115.255239 
L 795.618951 115.612067 
L 794.489168 111.43827 
L 793.359384 112.094801 
L 792.229601 113.005602 
L 791.099818 114.786886 
L 789.970034 114.080071 
L 788.840251 115.053178 
L 787.710468 111.442587 
L 786.580684 111.999649 
L 785.450901 113.088399 
L 784.321118 116.615131 
L 783.191334 117.770105 
L 782.061551 115.039628 
L 780.931768 114.905817 
L 779.801984 115.834254 
L 778.672201 115.480083 
L 777.542417 117.527659 
L 776.412634 115.929505 
L 775.282851 116.17338 
L 774.153067 116.546116 
L 773.023284 115.141654 
L 771.893501 115.795861 
L 770.763717 116.46043 
L 769.633934 115.225946 
L 768.504151 117.98834 
L 767.374367 117.810424 
L 766.244584 118.255928 
L 765.114801 117.89362 
L 763.985017 116.084306 
L 762.855234 115.793802 
L 761.72545 118.84039 
L 760.595667 119.642256 
L 759.465884 119.661785 
L 758.3361 119.117576 
L 757.206317 118.020921 
L 756.076534 117.583654 
L 754.94675 118.633048 
L 753.816967 118.243639 
L 752.687184 117.571033 
L 751.5574 117.000753 
L 750.427617 116.309582 
L 749.297834 118.431818 
L 748.16805 115.945248 
L 747.038267 113.912252 
L 745.908483 118.088474 
L 744.7787 119.980552 
L 743.648917 121.153129 
L 742.519133 121.009986 
L 741.38935 119.908416 
L 740.259567 122.431452 
L 739.129783 121.868644 
L 738 121.755857 
L 736.870217 122.407739 
L 735.740433 119.779487 
L 734.61065 119.447303 
L 733.480867 119.843022 
L 732.351083 118.923054 
L 731.2213 117.943571 
L 730.091517 118.443076 
L 728.961733 120.260395 
L 727.83195 119.453181 
L 726.702166 118.890739 
L 725.572383 117.64297 
L 724.4426 117.261765 
L 723.312816 116.567571 
L 722.183033 118.475558 
L 721.05325 117.118688 
L 719.923466 114.17074 
L 718.793683 113.490163 
L 717.6639 109.830883 
L 716.534116 112.611544 
L 715.404333 113.860907 
L 714.27455 114.460679 
L 713.144766 115.218972 
L 712.014983 114.597645 
L 710.885199 113.3342 
L 709.755416 112.504967 
L 708.625633 113.765024 
L 707.495849 115.45627 
L 706.366066 113.001152 
L 705.236283 112.779762 
L 704.106499 111.203595 
L 702.976716 111.522561 
L 701.846933 115.21492 
L 700.717149 114.351844 
L 699.587366 113.952007 
L 698.457583 114.232248 
L 697.327799 111.920738 
L 696.198016 111.769923 
L 695.068232 115.553215 
L 693.938449 119.525085 
L 692.808666 117.907004 
L 691.678882 115.342021 
L 690.549099 116.358702 
L 689.419316 114.465661 
L 688.289532 113.36708 
L 687.159749 114.624413 
L 686.029966 116.207024 
L 684.900182 118.3092 
L 683.770399 116.944592 
L 682.640616 115.883241 
L 681.510832 115.935816 
L 680.381049 116.719748 
L 679.251265 118.095249 
L 678.121482 120.329708 
L 676.991699 120.567604 
L 675.861915 118.976625 
L 674.732132 117.95825 
L 673.602349 119.945082 
L 672.472565 120.447942 
L 671.342782 124.053385 
L 670.212999 121.098462 
L 669.083215 123.670519 
L 667.953432 123.831065 
L 666.823649 123.449029 
L 665.693865 121.136523 
L 664.564082 121.417993 
L 663.434298 121.201087 
L 662.304515 123.406684 
L 661.174732 121.744831 
L 660.044948 124.449038 
L 658.915165 121.618759 
L 657.785382 118.754305 
L 656.655598 120.952596 
L 655.525815 124.497627 
L 654.396032 124.377533 
L 653.266248 126.40269 
L 652.136465 125.374751 
L 651.006682 124.698625 
L 649.876898 122.954472 
L 648.747115 125.803981 
L 647.617331 129.001749 
L 646.487548 126.676522 
L 645.357765 127.873343 
L 644.227981 125.724106 
L 643.098198 124.071718 
L 641.968415 124.696864 
L 640.838631 123.69111 
L 639.708848 124.519413 
L 638.579065 124.366307 
L 637.449281 123.873111 
L 636.319498 125.461434 
L 635.189715 124.842963 
L 634.059931 125.335229 
L 632.930148 126.333776 
L 631.800364 126.067749 
L 630.670581 126.108899 
L 629.540798 125.822247 
L 628.411014 126.899639 
L 627.281231 123.828275 
L 626.151448 125.588868 
L 625.021664 124.829745 
L 623.891881 126.687283 
L 622.762098 124.860898 
L 621.632314 125.147848 
L 620.502531 126.79542 
L 619.372748 124.984147 
L 618.242964 125.869342 
L 617.113181 122.400133 
L 615.983397 122.019725 
L 614.853614 120.535123 
L 613.723831 119.362513 
L 612.594047 121.836163 
L 611.464264 122.246994 
L 610.334481 122.422286 
L 609.204697 122.641185 
L 608.074914 122.707243 
L 606.945131 121.413011 
L 605.815347 121.569306 
L 604.685564 120.575243 
L 603.555781 120.445949 
L 602.425997 120.462024 
L 601.296214 121.345292 
L 600.16643 122.278844 
L 599.036647 121.686311 
L 597.906864 119.110468 
L 596.77708 119.917582 
L 595.647297 119.302765 
L 594.517514 122.064129 
L 593.38773 122.029224 
L 592.257947 121.570934 
L 591.128164 123.909976 
L 589.99838 122.08751 
L 588.868597 123.430995 
L 587.738814 123.235444 
L 586.60903 123.66577 
L 585.479247 123.411467 
L 584.349463 122.441084 
L 583.21968 123.935217 
L 582.089897 122.870778 
L 580.960113 122.840755 
L 579.83033 121.863629 
L 578.700547 121.594414 
L 577.570763 120.934329 
L 576.44098 121.635099 
L 575.311197 122.162569 
L 574.181413 121.071793 
L 573.05163 120.448042 
L 571.921847 120.142426 
L 570.792063 117.324203 
L 569.66228 116.88036 
L 568.532496 118.223646 
L 567.402713 118.215011 
L 566.27293 117.206633 
L 565.143146 116.449403 
L 564.013363 114.248821 
L 562.88358 116.468799 
L 561.753796 119.586925 
L 560.624013 121.039611 
L 559.49423 118.89964 
L 558.364446 119.647437 
L 557.234663 119.891976 
L 556.10488 119.05248 
L 554.975096 119.298646 
L 553.845313 121.063125 
L 552.715529 120.725061 
L 551.585746 121.312081 
L 550.455963 123.682874 
L 549.326179 120.825394 
L 548.196396 121.428654 
L 547.066613 120.621208 
L 545.936829 121.33307 
L 544.807046 121.419355 
L 543.677263 122.414913 
L 542.547479 121.818495 
L 541.417696 120.77913 
L 540.287913 118.476388 
L 539.158129 121.37226 
L 538.028346 119.337571 
L 536.898562 120.808656 
L 535.768779 121.967682 
L 534.638996 122.542313 
L 533.509212 122.253237 
L 532.379429 121.958582 
L 531.249646 123.928841 
L 530.119862 122.026866 
L 528.990079 124.808356 
L 527.860296 127.041719 
L 526.730512 127.23003 
L 525.600729 127.169585 
L 524.470946 124.856049 
L 523.341162 124.177398 
L 522.211379 124.856115 
L 521.081595 128.118812 
L 519.951812 127.689151 
L 518.822029 128.172582 
L 517.692245 128.498855 
L 516.562462 129.205204 
L 515.432679 128.218614 
L 514.302895 128.568534 
L 513.173112 128.181018 
L 512.043329 128.985741 
L 510.913545 128.03203 
L 509.783762 129.692787 
L 508.653979 132.475175 
L 507.524195 132.404434 
L 506.394412 132.188357 
L 505.264628 133.295308 
L 504.134845 133.865987 
L 503.005062 135.01216 
L 501.875278 134.6641 
L 500.745495 130.81548 
L 499.615712 132.380787 
L 498.485928 131.317676 
L 497.356145 131.973045 
L 496.226362 130.727369 
L 495.096578 129.629618 
L 493.966795 129.555788 
L 492.837012 130.847397 
L 491.707228 134.02537 
L 490.577445 132.56043 
L 489.447661 131.813263 
L 488.317878 132.136946 
L 487.188095 130.62687 
L 486.058311 130.257887 
L 484.928528 130.385088 
L 483.798745 129.88691 
L 482.668961 131.330031 
L 481.539178 128.460927 
L 480.409395 129.895346 
L 479.279611 127.184663 
L 478.149828 126.106441 
L 477.020045 124.103103 
L 475.890261 126.047689 
L 474.760478 124.191081 
L 473.630694 125.229848 
L 472.500911 125.78505 
L 471.371128 125.557682 
L 470.241344 125.42427 
L 469.111561 122.639292 
L 467.981778 124.140134 
L 466.851994 124.647744 
L 465.722211 121.907403 
L 464.592428 122.311557 
L 463.462644 118.204383 
L 462.332861 118.723085 
L 461.203078 114.205679 
L 460.073294 112.123463 
L 458.943511 109.866586 
L 457.813727 113.969974 
L 456.683944 119.39237 
L 455.554161 117.156218 
L 454.424377 111.781946 
L 453.294594 111.054042 
L 452.164811 108.501679 
L 451.035027 108.193274 
L 449.905244 110.246397 
L 448.775461 106.290569 
L 447.645677 104.397195 
L 446.515894 101.416068 
L 445.386111 104.642398 
L 444.256327 109.139014 
L 443.126544 114.745836 
L 441.99676 116.833764 
L 440.866977 117.730118 
L 439.737194 118.861977 
L 438.60741 117.105935 
L 437.477627 115.252648 
L 436.347844 117.21746 
L 435.21806 117.535497 
L 434.088277 118.189438 
L 432.958494 117.632509 
L 431.82871 116.528248 
L 430.698927 118.787317 
L 429.569144 120.947946 
L 428.43936 115.420733 
L 427.309577 114.415312 
L 426.179793 113.602917 
L 425.05001 114.503854 
L 423.920227 115.558131 
L 422.790443 114.695221 
L 421.66066 110.571275 
L 420.530877 113.203113 
L 419.401093 110.804986 
L 418.27131 109.726332 
L 417.141527 112.960168 
L 416.011743 113.339813 
L 414.88196 114.323315 
L 413.752177 114.663504 
L 412.622393 114.258718 
L 411.49261 112.669034 
L 410.362826 111.818246 
L 409.233043 111.8127 
L 408.10326 110.483429 
L 406.973476 110.087611 
L 405.843693 109.108592 
L 404.71391 108.504602 
L 403.584126 109.851873 
L 402.454343 113.902787 
L 401.32456 115.063075 
L 400.194776 116.73838 
L 399.064993 115.330563 
L 397.93521 113.836562 
L 396.805426 116.230205 
L 395.675643 123.420567 
L 394.545859 125.662698 
L 393.416076 121.231376 
L 392.286293 120.659069 
L 391.156509 118.819998 
L 390.026726 118.072765 
L 388.896943 122.12411 
L 387.767159 122.077613 
L 386.637376 116.214662 
L 385.507593 110.388643 
L 384.377809 113.491325 
L 383.248026 113.943704 
L 382.118243 118.570776 
L 380.988459 121.301818 
L 379.858676 118.480772 
L 378.728892 119.5665 
L 377.599109 115.543717 
L 376.469326 117.201818 
L 375.339542 116.705533 
L 374.209759 115.707352 
L 373.079976 115.816253 
L 371.950192 117.41972 
L 370.820409 123.064536 
L 369.690626 122.594256 
L 368.560842 118.355563 
L 367.431059 120.947481 
L 366.301276 122.045929 
L 365.171492 122.731089 
L 364.041709 120.051692 
L 362.911925 120.143024 
L 361.782142 118.786321 
L 360.652359 117.885118 
L 359.522575 118.644506 
L 358.392792 118.686353 
L 357.263009 118.316838 
L 356.133225 116.104731 
L 355.003442 118.831954 
L 353.873659 121.741775 
L 352.743875 123.284664 
L 351.614092 121.16359 
L 350.484309 118.728931 
L 349.354525 119.380547 
L 348.224742 118.736702 
L 347.094958 119.226378 
L 345.965175 118.409167 
L 344.835392 119.650559 
L 343.705608 116.648342 
L 342.575825 117.010617 
L 341.446042 118.565661 
L 340.316258 117.504178 
L 339.186475 117.998636 
L 338.056692 113.068705 
L 336.926908 115.011829 
L 335.797125 117.546158 
L 334.667342 120.255479 
L 333.537558 121.85898 
L 332.407775 118.2179 
L 331.277991 114.370609 
L 330.148208 114.125671 
L 329.018425 113.696143 
L 327.888641 116.554386 
L 326.758858 118.263832 
L 325.629075 117.556653 
L 324.499291 118.107571 
L 323.369508 121.175248 
L 322.239725 124.196063 
L 321.109941 126.096145 
L 319.980158 125.099691 
L 318.850375 121.491292 
L 317.720591 116.959205 
L 316.590808 114.821227 
L 315.461024 115.649596 
L 314.331241 117.215235 
L 313.201458 118.172367 
L 312.071674 115.907087 
L 310.941891 112.776839 
L 309.812108 112.595038 
L 308.682324 116.382947 
L 307.552541 117.508828 
L 306.422758 117.858183 
L 305.292974 118.031217 
L 304.163191 116.671325 
L 303.033408 117.473158 
L 301.903624 114.855468 
L 300.773841 119.289081 
L 299.644058 118.859719 
L 298.514274 116.297493 
L 297.384491 117.615139 
L 296.254707 118.096112 
L 295.124924 116.434325 
L 293.995141 118.601231 
L 292.865357 121.133002 
L 291.735574 116.464781 
L 290.605791 118.520759 
L 289.476007 118.175256 
L 288.346224 121.460172 
L 287.216441 121.961538 
L 286.086657 121.383851 
L 284.956874 120.69165 
L 283.827091 120.271487 
L 282.697307 119.030262 
L 281.567524 121.237454 
L 280.43774 123.444811 
L 279.307957 122.104415 
L 278.178174 122.403056 
L 277.04839 120.597927 
L 275.918607 121.105835 
L 274.788824 121.692688 
L 273.65904 123.07523 
L 272.529257 120.259531 
L 271.399474 119.749331 
L 270.26969 120.166339 
L 269.139907 122.157255 
L 268.010124 123.203594 
L 266.88034 123.487455 
L 265.750557 122.528597 
L 264.620773 121.784021 
L 263.49099 120.132828 
L 262.361207 124.205429 
L 261.231423 125.164321 
L 260.10164 122.50319 
L 258.971857 122.827603 
L 257.842073 122.405082 
L 256.71229 120.680923 
L 255.582507 120.951998 
L 254.452723 119.775768 
L 253.32294 118.971344 
L 252.193157 119.565337 
L 251.063373 123.60476 
L 249.93359 120.029307 
L 248.803806 120.48039 
L 247.674023 119.316382 
L 246.54424 117.509592 
L 245.414456 116.447477 
L 244.284673 117.861039 
L 243.15489 114.739326 
L 242.025106 112.845521 
L 240.895323 112.787002 
L 239.76554 112.821077 
L 238.635756 106.701133 
L 237.505973 107.817316 
L 236.37619 109.411551 
L 235.246406 110.211823 
L 234.116623 110.3822 
L 232.986839 112.10596 
L 231.857056 113.275017 
L 230.727273 106.458454 
z
" clip-path="url(#p4b20f58111)" style="fill: #1f77b4; fill-opacity: 0.3"/>
   </g>
   <g id="matplotlib.axis_1">
    <g id="xtick_1">
     <g id="line2d_1">
      <defs>
       <path id="m3b1087b0dc" d="M 0 0 
L 0 3.5 
" style="stroke: #000000; stroke-width: 0.8"/>
      </defs>
      <g>
       <use xlink:href="#m3b1087b0dc" x="230.727273" y="512.64" style="stroke: #000000; stroke-width: 0.8"/>
      </g>
     </g>
     <g id="text_1">
      <!-- 0 -->
      <g transform="translate(227.546023 527.238438) scale(0.1 -0.1)">
       <defs>
        <path id="DejaVuSans-30" d="M 2034 4250 
Q 1547 4250 1301 3770 
Q 1056 3291 1056 2328 
Q 1056 1369 1301 889 
Q 1547 409 2034 409 
Q 2525 409 2770 889 
Q 3016 1369 3016 2328 
Q 3016 3291 2770 3770 
Q 2525 4250 2034 4250 
z
M 2034 4750 
Q 2819 4750 3233 4129 
Q 3647 3509 3647 2328 
Q 3647 1150 3233 529 
Q 2819 -91 2034 -91 
Q 1250 -91 836 529 
Q 422 1150 422 2328 
Q 422 3509 836 4129 
Q 1250 4750 2034 4750 
z
" transform="scale(0.015625)"/>
       </defs>
       <use xlink:href="#DejaVuSans-30"/>
      </g>
     </g>
    </g>
    <g id="xtick_2">
     <g id="line2d_2">
      <g>
       <use xlink:href="#m3b1087b0dc" x="456.683944" y="512.64" style="stroke: #000000; stroke-width: 0.8"/>
      </g>
     </g>
     <g id="text_2">
      <!-- 200 -->
      <g transform="translate(447.140194 527.238438) scale(0.1 -0.1)">
       <defs>
        <path id="DejaVuSans-32" d="M 1228 531 
L 3431 531 
L 3431 0 
L 469 0 
L 469 531 
Q 828 903 1448 1529 
Q 2069 2156 2228 2338 
Q 2531 2678 2651 2914 
Q 2772 3150 2772 3378 
Q 2772 3750 2511 3984 
Q 2250 4219 1831 4219 
Q 1534 4219 1204 4116 
Q 875 4013 500 3803 
L 500 4441 
Q 881 4594 1212 4672 
Q 1544 4750 1819 4750 
Q 2544 4750 2975 4387 
Q 3406 4025 3406 3419 
Q 3406 3131 3298 2873 
Q 3191 2616 2906 2266 
Q 2828 2175 2409 1742 
Q 1991 1309 1228 531 
z
" transform="scale(0.015625)"/>
       </defs>
       <use xlink:href="#DejaVuSans-32"/>
       <use xlink:href="#DejaVuSans-30" x="63.623047"/>
       <use xlink:href="#DejaVuSans-30" x="127.246094"/>
      </g>
     </g>
    </g>
    <g id="xtick_3">
     <g id="line2d_3">
      <g>
       <use xlink:href="#m3b1087b0dc" x="682.640616" y="512.64" style="stroke: #000000; stroke-width: 0.8"/>
      </g>
     </g>
     <g id="text_3">
      <!-- 400 -->
      <g transform="translate(673.096866 527.238438) scale(0.1 -0.1)">
       <defs>
        <path id="DejaVuSans-34" d="M 2419 4116 
L 825 1625 
L 2419 1625 
L 2419 4116 
z
M 2253 4666 
L 3047 4666 
L 3047 1625 
L 3713 1625 
L 3713 1100 
L 3047 1100 
L 3047 0 
L 2419 0 
L 2419 1100 
L 313 1100 
L 313 1709 
L 2253 4666 
z
" transform="scale(0.015625)"/>
       </defs>
       <use xlink:href="#DejaVuSans-34"/>
       <use xlink:href="#DejaVuSans-30" x="63.623047"/>
       <use xlink:href="#DejaVuSans-30" x="127.246094"/>
      </g>
     </g>
    </g>
    <g id="xtick_4">
     <g id="line2d_4">
      <g>
       <use xlink:href="#m3b1087b0dc" x="908.597287" y="512.64" style="stroke: #000000; stroke-width: 0.8"/>
      </g>
     </g>
     <g id="text_4">
      <!-- 600 -->
      <g transform="translate(899.053537 527.238438) scale(0.1 -0.1)">
       <defs>
        <path id="DejaVuSans-36" d="M 2113 2584 
Q 1688 2584 1439 2293 
Q 1191 2003 1191 1497 
Q 1191 994 1439 701 
Q 1688 409 2113 409 
Q 2538 409 2786 701 
Q 3034 994 3034 1497 
Q 3034 2003 2786 2293 
Q 2538 2584 2113 2584 
z
M 3366 4563 
L 3366 3988 
Q 3128 4100 2886 4159 
Q 2644 4219 2406 4219 
Q 1781 4219 1451 3797 
Q 1122 3375 1075 2522 
Q 1259 2794 1537 2939 
Q 1816 3084 2150 3084 
Q 2853 3084 3261 2657 
Q 3669 2231 3669 1497 
Q 3669 778 3244 343 
Q 2819 -91 2113 -91 
Q 1303 -91 875 529 
Q 447 1150 447 2328 
Q 447 3434 972 4092 
Q 1497 4750 2381 4750 
Q 2619 4750 2861 4703 
Q 3103 4656 3366 4563 
z
" transform="scale(0.015625)"/>
       </defs>
       <use xlink:href="#DejaVuSans-36"/>
       <use xlink:href="#DejaVuSans-30" x="63.623047"/>
       <use xlink:href="#DejaVuSans-30" x="127.246094"/>
      </g>
     </g>
    </g>
    <g id="xtick_5">
     <g id="line2d_5">
      <g>
       <use xlink:href="#m3b1087b0dc" x="1134.553958" y="512.64" style="stroke: #000000; stroke-width: 0.8"/>
      </g>
     </g>
     <g id="text_5">
      <!-- 800 -->
      <g transform="translate(1125.010208 527.238438) scale(0.1 -0.1)">
       <defs>
        <path id="DejaVuSans-38" d="M 2034 2216 
Q 1584 2216 1326 1975 
Q 1069 1734 1069 1313 
Q 1069 891 1326 650 
Q 1584 409 2034 409 
Q 2484 409 2743 651 
Q 3003 894 3003 1313 
Q 3003 1734 2745 1975 
Q 2488 2216 2034 2216 
z
M 1403 2484 
Q 997 2584 770 2862 
Q 544 3141 544 3541 
Q 544 4100 942 4425 
Q 1341 4750 2034 4750 
Q 2731 4750 3128 4425 
Q 3525 4100 3525 3541 
Q 3525 3141 3298 2862 
Q 3072 2584 2669 2484 
Q 3125 2378 3379 2068 
Q 3634 1759 3634 1313 
Q 3634 634 3220 271 
Q 2806 -91 2034 -91 
Q 1263 -91 848 271 
Q 434 634 434 1313 
Q 434 1759 690 2068 
Q 947 2378 1403 2484 
z
M 1172 3481 
Q 1172 3119 1398 2916 
Q 1625 2713 2034 2713 
Q 2441 2713 2670 2916 
Q 2900 3119 2900 3481 
Q 2900 3844 2670 4047 
Q 2441 4250 2034 4250 
Q 1625 4250 1398 4047 
Q 1172 3844 1172 3481 
z
" transform="scale(0.015625)"/>
       </defs>
       <use xlink:href="#DejaVuSans-38"/>
       <use xlink:href="#DejaVuSans-30" x="63.623047"/>
       <use xlink:href="#DejaVuSans-30" x="127.246094"/>
      </g>
     </g>
    </g>
    <g id="text_6">
     <!-- Frame -->
     <g transform="translate(722.420313 540.916563) scale(0.1 -0.1)">
      <defs>
       <path id="DejaVuSans-46" d="M 628 4666 
L 3309 4666 
L 3309 4134 
L 1259 4134 
L 1259 2759 
L 3109 2759 
L 3109 2228 
L 1259 2228 
L 1259 0 
L 628 0 
L 628 4666 
z
" transform="scale(0.015625)"/>
       <path id="DejaVuSans-72" d="M 2631 2963 
Q 2534 3019 2420 3045 
Q 2306 3072 2169 3072 
Q 1681 3072 1420 2755 
Q 1159 2438 1159 1844 
L 1159 0 
L 581 0 
L 581 3500 
L 1159 3500 
L 1159 2956 
Q 1341 3275 1631 3429 
Q 1922 3584 2338 3584 
Q 2397 3584 2469 3576 
Q 2541 3569 2628 3553 
L 2631 2963 
z
" transform="scale(0.015625)"/>
       <path id="DejaVuSans-61" d="M 2194 1759 
Q 1497 1759 1228 1600 
Q 959 1441 959 1056 
Q 959 750 1161 570 
Q 1363 391 1709 391 
Q 2188 391 2477 730 
Q 2766 1069 2766 1631 
L 2766 1759 
L 2194 1759 
z
M 3341 1997 
L 3341 0 
L 2766 0 
L 2766 531 
Q 2569 213 2275 61 
Q 1981 -91 1556 -91 
Q 1019 -91 701 211 
Q 384 513 384 1019 
Q 384 1609 779 1909 
Q 1175 2209 1959 2209 
L 2766 2209 
L 2766 2266 
Q 2766 2663 2505 2880 
Q 2244 3097 1772 3097 
Q 1472 3097 1187 3025 
Q 903 2953 641 2809 
L 641 3341 
Q 956 3463 1253 3523 
Q 1550 3584 1831 3584 
Q 2591 3584 2966 3190 
Q 3341 2797 3341 1997 
z
" transform="scale(0.015625)"/>
       <path id="DejaVuSans-6d" d="M 3328 2828 
Q 3544 3216 3844 3400 
Q 4144 3584 4550 3584 
Q 5097 3584 5394 3201 
Q 5691 2819 5691 2113 
L 5691 0 
L 5113 0 
L 5113 2094 
Q 5113 2597 4934 2840 
Q 4756 3084 4391 3084 
Q 3944 3084 3684 2787 
Q 3425 2491 3425 1978 
L 3425 0 
L 2847 0 
L 2847 2094 
Q 2847 2600 2669 2842 
Q 2491 3084 2119 3084 
Q 1678 3084 1418 2786 
Q 1159 2488 1159 1978 
L 1159 0 
L 581 0 
L 581 3500 
L 1159 3500 
L 1159 2956 
Q 1356 3278 1631 3431 
Q 1906 3584 2284 3584 
Q 2666 3584 2933 3390 
Q 3200 3197 3328 2828 
z
" transform="scale(0.015625)"/>
       <path id="DejaVuSans-65" d="M 3597 1894 
L 3597 1613 
L 953 1613 
Q 991 1019 1311 708 
Q 1631 397 2203 397 
Q 2534 397 2845 478 
Q 3156 559 3463 722 
L 3463 178 
Q 3153 47 2828 -22 
Q 2503 -91 2169 -91 
Q 1331 -91 842 396 
Q 353 884 353 1716 
Q 353 2575 817 3079 
Q 1281 3584 2069 3584 
Q 2775 3584 3186 3129 
Q 3597 2675 3597 1894 
z
M 3022 2063 
Q 3016 2534 2758 2815 
Q 2500 3097 2075 3097 
Q 1594 3097 1305 2825 
Q 1016 2553 972 2059 
L 3022 2063 
z
" transform="scale(0.015625)"/>
      </defs>
      <use xlink:href="#DejaVuSans-46"/>
      <use xlink:href="#DejaVuSans-72" x="50.269531"/>
      <use xlink:href="#DejaVuSans-61" x="91.382812"/>
      <use xlink:href="#DejaVuSans-6d" x="152.662109"/>
      <use xlink:href="#DejaVuSans-65" x="250.074219"/>
     </g>
    </g>
   </g>
   <g id="matplotlib.axis_2">
    <g id="ytick_1">
     <g id="line2d_6">
      <defs>
       <path id="mdddf55b0e3" d="M 0 0 
L -3.5 0 
" style="stroke: #000000; stroke-width: 0.8"/>
      </defs>
      <g>
       <use xlink:href="#mdddf55b0e3" x="180" y="503.848446" style="stroke: #000000; stroke-width: 0.8"/>
      </g>
     </g>
     <g id="text_7">
      <!-- 0.0001 -->
      <g transform="translate(138.009375 507.647664) scale(0.1 -0.1)">
       <defs>
        <path id="DejaVuSans-2e" d="M 684 794 
L 1344 794 
L 1344 0 
L 684 0 
L 684 794 
z
" transform="scale(0.015625)"/>
        <path id="DejaVuSans-31" d="M 794 531 
L 1825 531 
L 1825 4091 
L 703 3866 
L 703 4441 
L 1819 4666 
L 2450 4666 
L 2450 531 
L 3481 531 
L 3481 0 
L 794 0 
L 794 531 
z
" transform="scale(0.015625)"/>
       </defs>
       <use xlink:href="#DejaVuSans-30"/>
       <use xlink:href="#DejaVuSans-2e" x="63.623047"/>
       <use xlink:href="#DejaVuSans-30" x="95.410156"/>
       <use xlink:href="#DejaVuSans-30" x="159.033203"/>
       <use xlink:href="#DejaVuSans-30" x="222.65625"/>
       <use xlink:href="#DejaVuSans-31" x="286.279297"/>
      </g>
     </g>
    </g>
    <g id="ytick_2">
     <g id="line2d_7">
      <g>
       <use xlink:href="#mdddf55b0e3" x="180" y="446.790954" style="stroke: #000000; stroke-width: 0.8"/>
      </g>
     </g>
     <g id="text_8">
      <!-- 0.0002 -->
      <g transform="translate(138.009375 450.590173) scale(0.1 -0.1)">
       <use xlink:href="#DejaVuSans-30"/>
       <use xlink:href="#DejaVuSans-2e" x="63.623047"/>
       <use xlink:href="#DejaVuSans-30" x="95.410156"/>
       <use xlink:href="#DejaVuSans-30" x="159.033203"/>
       <use xlink:href="#DejaVuSans-30" x="222.65625"/>
       <use xlink:href="#DejaVuSans-32" x="286.279297"/>
      </g>
     </g>
    </g>
    <g id="ytick_3">
     <g id="line2d_8">
      <g>
       <use xlink:href="#mdddf55b0e3" x="180" y="389.733463" style="stroke: #000000; stroke-width: 0.8"/>
      </g>
     </g>
     <g id="text_9">
      <!-- 0.0003 -->
      <g transform="translate(138.009375 393.532681) scale(0.1 -0.1)">
       <defs>
        <path id="DejaVuSans-33" d="M 2597 2516 
Q 3050 2419 3304 2112 
Q 3559 1806 3559 1356 
Q 3559 666 3084 287 
Q 2609 -91 1734 -91 
Q 1441 -91 1130 -33 
Q 819 25 488 141 
L 488 750 
Q 750 597 1062 519 
Q 1375 441 1716 441 
Q 2309 441 2620 675 
Q 2931 909 2931 1356 
Q 2931 1769 2642 2001 
Q 2353 2234 1838 2234 
L 1294 2234 
L 1294 2753 
L 1863 2753 
Q 2328 2753 2575 2939 
Q 2822 3125 2822 3475 
Q 2822 3834 2567 4026 
Q 2313 4219 1838 4219 
Q 1578 4219 1281 4162 
Q 984 4106 628 3988 
L 628 4550 
Q 988 4650 1302 4700 
Q 1616 4750 1894 4750 
Q 2613 4750 3031 4423 
Q 3450 4097 3450 3541 
Q 3450 3153 3228 2886 
Q 3006 2619 2597 2516 
z
" transform="scale(0.015625)"/>
       </defs>
       <use xlink:href="#DejaVuSans-30"/>
       <use xlink:href="#DejaVuSans-2e" x="63.623047"/>
       <use xlink:href="#DejaVuSans-30" x="95.410156"/>
       <use xlink:href="#DejaVuSans-30" x="159.033203"/>
       <use xlink:href="#DejaVuSans-30" x="222.65625"/>
       <use xlink:href="#DejaVuSans-33" x="286.279297"/>
      </g>
     </g>
    </g>
    <g id="ytick_4">
     <g id="line2d_9">
      <g>
       <use xlink:href="#mdddf55b0e3" x="180" y="332.675971" style="stroke: #000000; stroke-width: 0.8"/>
      </g>
     </g>
     <g id="text_10">
      <!-- 0.0004 -->
      <g transform="translate(138.009375 336.47519) scale(0.1 -0.1)">
       <use xlink:href="#DejaVuSans-30"/>
       <use xlink:href="#DejaVuSans-2e" x="63.623047"/>
       <use xlink:href="#DejaVuSans-30" x="95.410156"/>
       <use xlink:href="#DejaVuSans-30" x="159.033203"/>
       <use xlink:href="#DejaVuSans-30" x="222.65625"/>
       <use xlink:href="#DejaVuSans-34" x="286.279297"/>
      </g>
     </g>
    </g>
    <g id="ytick_5">
     <g id="line2d_10">
      <g>
       <use xlink:href="#mdddf55b0e3" x="180" y="275.61848" style="stroke: #000000; stroke-width: 0.8"/>
      </g>
     </g>
     <g id="text_11">
      <!-- 0.0005 -->
      <g transform="translate(138.009375 279.417698) scale(0.1 -0.1)">
       <defs>
        <path id="DejaVuSans-35" d="M 691 4666 
L 3169 4666 
L 3169 4134 
L 1269 4134 
L 1269 2991 
Q 1406 3038 1543 3061 
Q 1681 3084 1819 3084 
Q 2600 3084 3056 2656 
Q 3513 2228 3513 1497 
Q 3513 744 3044 326 
Q 2575 -91 1722 -91 
Q 1428 -91 1123 -41 
Q 819 9 494 109 
L 494 744 
Q 775 591 1075 516 
Q 1375 441 1709 441 
Q 2250 441 2565 725 
Q 2881 1009 2881 1497 
Q 2881 1984 2565 2268 
Q 2250 2553 1709 2553 
Q 1456 2553 1204 2497 
Q 953 2441 691 2322 
L 691 4666 
z
" transform="scale(0.015625)"/>
       </defs>
       <use xlink:href="#DejaVuSans-30"/>
       <use xlink:href="#DejaVuSans-2e" x="63.623047"/>
       <use xlink:href="#DejaVuSans-30" x="95.410156"/>
       <use xlink:href="#DejaVuSans-30" x="159.033203"/>
       <use xlink:href="#DejaVuSans-30" x="222.65625"/>
       <use xlink:href="#DejaVuSans-35" x="286.279297"/>
      </g>
     </g>
    </g>
    <g id="ytick_6">
     <g id="line2d_11">
      <g>
       <use xlink:href="#mdddf55b0e3" x="180" y="218.560988" style="stroke: #000000; stroke-width: 0.8"/>
      </g>
     </g>
     <g id="text_12">
      <!-- 0.0006 -->
      <g transform="translate(138.009375 222.360207) scale(0.1 -0.1)">
       <use xlink:href="#DejaVuSans-30"/>
       <use xlink:href="#DejaVuSans-2e" x="63.623047"/>
       <use xlink:href="#DejaVuSans-30" x="95.410156"/>
       <use xlink:href="#DejaVuSans-30" x="159.033203"/>
       <use xlink:href="#DejaVuSans-30" x="222.65625"/>
       <use xlink:href="#DejaVuSans-36" x="286.279297"/>
      </g>
     </g>
    </g>
    <g id="ytick_7">
     <g id="line2d_12">
      <g>
       <use xlink:href="#mdddf55b0e3" x="180" y="161.503497" style="stroke: #000000; stroke-width: 0.8"/>
      </g>
     </g>
     <g id="text_13">
      <!-- 0.0007 -->
      <g transform="translate(138.009375 165.302715) scale(0.1 -0.1)">
       <defs>
        <path id="DejaVuSans-37" d="M 525 4666 
L 3525 4666 
L 3525 4397 
L 1831 0 
L 1172 0 
L 2766 4134 
L 525 4134 
L 525 4666 
z
" transform="scale(0.015625)"/>
       </defs>
       <use xlink:href="#DejaVuSans-30"/>
       <use xlink:href="#DejaVuSans-2e" x="63.623047"/>
       <use xlink:href="#DejaVuSans-30" x="95.410156"/>
       <use xlink:href="#DejaVuSans-30" x="159.033203"/>
       <use xlink:href="#DejaVuSans-30" x="222.65625"/>
       <use xlink:href="#DejaVuSans-37" x="286.279297"/>
      </g>
     </g>
    </g>
    <g id="ytick_8">
     <g id="line2d_13">
      <g>
       <use xlink:href="#mdddf55b0e3" x="180" y="104.446005" style="stroke: #000000; stroke-width: 0.8"/>
      </g>
     </g>
     <g id="text_14">
      <!-- 0.0008 -->
      <g transform="translate(138.009375 108.245224) scale(0.1 -0.1)">
       <use xlink:href="#DejaVuSans-30"/>
       <use xlink:href="#DejaVuSans-2e" x="63.623047"/>
       <use xlink:href="#DejaVuSans-30" x="95.410156"/>
       <use xlink:href="#DejaVuSans-30" x="159.033203"/>
       <use xlink:href="#DejaVuSans-30" x="222.65625"/>
       <use xlink:href="#DejaVuSans-38" x="286.279297"/>
      </g>
     </g>
    </g>
    <g id="text_15">
     <!-- Motion magnitude -->
     <g transform="translate(131.929688 336.465937) rotate(-90) scale(0.1 -0.1)">
      <defs>
       <path id="DejaVuSans-4d" d="M 628 4666 
L 1569 4666 
L 2759 1491 
L 3956 4666 
L 4897 4666 
L 4897 0 
L 4281 0 
L 4281 4097 
L 3078 897 
L 2444 897 
L 1241 4097 
L 1241 0 
L 628 0 
L 628 4666 
z
" transform="scale(0.015625)"/>
       <path id="DejaVuSans-6f" d="M 1959 3097 
Q 1497 3097 1228 2736 
Q 959 2375 959 1747 
Q 959 1119 1226 758 
Q 1494 397 1959 397 
Q 2419 397 2687 759 
Q 2956 1122 2956 1747 
Q 2956 2369 2687 2733 
Q 2419 3097 1959 3097 
z
M 1959 3584 
Q 2709 3584 3137 3096 
Q 3566 2609 3566 1747 
Q 3566 888 3137 398 
Q 2709 -91 1959 -91 
Q 1206 -91 779 398 
Q 353 888 353 1747 
Q 353 2609 779 3096 
Q 1206 3584 1959 3584 
z
" transform="scale(0.015625)"/>
       <path id="DejaVuSans-74" d="M 1172 4494 
L 1172 3500 
L 2356 3500 
L 2356 3053 
L 1172 3053 
L 1172 1153 
Q 1172 725 1289 603 
Q 1406 481 1766 481 
L 2356 481 
L 2356 0 
L 1766 0 
Q 1100 0 847 248 
Q 594 497 594 1153 
L 594 3053 
L 172 3053 
L 172 3500 
L 594 3500 
L 594 4494 
L 1172 4494 
z
" transform="scale(0.015625)"/>
       <path id="DejaVuSans-69" d="M 603 3500 
L 1178 3500 
L 1178 0 
L 603 0 
L 603 3500 
z
M 603 4863 
L 1178 4863 
L 1178 4134 
L 603 4134 
L 603 4863 
z
" transform="scale(0.015625)"/>
       <path id="DejaVuSans-6e" d="M 3513 2113 
L 3513 0 
L 2938 0 
L 2938 2094 
Q 2938 2591 2744 2837 
Q 2550 3084 2163 3084 
Q 1697 3084 1428 2787 
Q 1159 2491 1159 1978 
L 1159 0 
L 581 0 
L 581 3500 
L 1159 3500 
L 1159 2956 
Q 1366 3272 1645 3428 
Q 1925 3584 2291 3584 
Q 2894 3584 3203 3211 
Q 3513 2838 3513 2113 
z
" transform="scale(0.015625)"/>
       <path id="DejaVuSans-20" transform="scale(0.015625)"/>
       <path id="DejaVuSans-67" d="M 2906 1791 
Q 2906 2416 2648 2759 
Q 2391 3103 1925 3103 
Q 1463 3103 1205 2759 
Q 947 2416 947 1791 
Q 947 1169 1205 825 
Q 1463 481 1925 481 
Q 2391 481 2648 825 
Q 2906 1169 2906 1791 
z
M 3481 434 
Q 3481 -459 3084 -895 
Q 2688 -1331 1869 -1331 
Q 1566 -1331 1297 -1286 
Q 1028 -1241 775 -1147 
L 775 -588 
Q 1028 -725 1275 -790 
Q 1522 -856 1778 -856 
Q 2344 -856 2625 -561 
Q 2906 -266 2906 331 
L 2906 616 
Q 2728 306 2450 153 
Q 2172 0 1784 0 
Q 1141 0 747 490 
Q 353 981 353 1791 
Q 353 2603 747 3093 
Q 1141 3584 1784 3584 
Q 2172 3584 2450 3431 
Q 2728 3278 2906 2969 
L 2906 3500 
L 3481 3500 
L 3481 434 
z
" transform="scale(0.015625)"/>
       <path id="DejaVuSans-75" d="M 544 1381 
L 544 3500 
L 1119 3500 
L 1119 1403 
Q 1119 906 1312 657 
Q 1506 409 1894 409 
Q 2359 409 2629 706 
Q 2900 1003 2900 1516 
L 2900 3500 
L 3475 3500 
L 3475 0 
L 2900 0 
L 2900 538 
Q 2691 219 2414 64 
Q 2138 -91 1772 -91 
Q 1169 -91 856 284 
Q 544 659 544 1381 
z
M 1991 3584 
L 1991 3584 
z
" transform="scale(0.015625)"/>
       <path id="DejaVuSans-64" d="M 2906 2969 
L 2906 4863 
L 3481 4863 
L 3481 0 
L 2906 0 
L 2906 525 
Q 2725 213 2448 61 
Q 2172 -91 1784 -91 
Q 1150 -91 751 415 
Q 353 922 353 1747 
Q 353 2572 751 3078 
Q 1150 3584 1784 3584 
Q 2172 3584 2448 3432 
Q 2725 3281 2906 2969 
z
M 947 1747 
Q 947 1113 1208 752 
Q 1469 391 1925 391 
Q 2381 391 2643 752 
Q 2906 1113 2906 1747 
Q 2906 2381 2643 2742 
Q 2381 3103 1925 3103 
Q 1469 3103 1208 2742 
Q 947 2381 947 1747 
z
" transform="scale(0.015625)"/>
      </defs>
      <use xlink:href="#DejaVuSans-4d"/>
      <use xlink:href="#DejaVuSans-6f" x="86.279297"/>
      <use xlink:href="#DejaVuSans-74" x="147.460938"/>
      <use xlink:href="#DejaVuSans-69" x="186.669922"/>
      <use xlink:href="#DejaVuSans-6f" x="214.453125"/>
      <use xlink:href="#DejaVuSans-6e" x="275.634766"/>
      <use xlink:href="#DejaVuSans-20" x="339.013672"/>
      <use xlink:href="#DejaVuSans-6d" x="370.800781"/>
      <use xlink:href="#DejaVuSans-61" x="468.212891"/>
      <use xlink:href="#DejaVuSans-67" x="529.492188"/>
      <use xlink:href="#DejaVuSans-6e" x="592.96875"/>
      <use xlink:href="#DejaVuSans-69" x="656.347656"/>
      <use xlink:href="#DejaVuSans-74" x="684.130859"/>
      <use xlink:href="#DejaVuSans-75" x="723.339844"/>
      <use xlink:href="#DejaVuSans-64" x="786.71875"/>
      <use xlink:href="#DejaVuSans-65" x="850.195312"/>
     </g>
    </g>
   </g>
   <g id="line2d_14">
    <path d="M 230.727273 290.190987 
L 231.857056 295.617751 
L 232.986839 294.786193 
L 234.116623 293.694819 
L 235.246406 293.716573 
L 236.37619 293.16059 
L 237.505973 292.013985 
L 238.635756 291.260491 
L 239.76554 295.970743 
L 240.895323 296.099372 
L 242.025106 295.790485 
L 243.15489 297.404863 
L 244.284673 299.601676 
L 245.414456 298.623056 
L 246.54424 299.562785 
L 248.803806 302.087133 
L 249.93359 301.409462 
L 251.063373 304.175941 
L 252.193157 301.442508 
L 253.32294 300.910621 
L 254.452723 301.580171 
L 255.582507 302.414834 
L 256.71229 302.183348 
L 257.842073 303.392275 
L 258.971857 303.686299 
L 260.10164 303.51574 
L 261.231423 305.45566 
L 262.361207 304.77231 
L 263.49099 301.603801 
L 264.620773 302.723771 
L 266.88034 304.009218 
L 268.010124 303.758054 
L 269.139907 303.002916 
L 270.26969 301.541479 
L 271.399474 300.918342 
L 272.529257 301.309777 
L 273.65904 303.596611 
L 274.788824 302.506433 
L 275.918607 301.979527 
L 277.04839 301.702557 
L 278.178174 302.976363 
L 279.307957 302.651784 
L 280.43774 304.007308 
L 282.697307 300.169017 
L 283.827091 301.153233 
L 284.956874 301.68439 
L 286.086657 301.982084 
L 287.216441 302.46432 
L 288.346224 301.933628 
L 289.476007 299.486348 
L 290.605791 299.909218 
L 291.735574 298.341254 
L 292.865357 301.746413 
L 293.995141 300.083962 
L 295.124924 298.201465 
L 296.254707 299.490599 
L 297.384491 299.161055 
L 298.514274 298.214318 
L 299.644058 300.184311 
L 300.773841 300.025492 
L 301.903624 296.80162 
L 303.033408 299.219906 
L 304.163191 298.547665 
L 305.292974 299.313381 
L 307.552541 298.960239 
L 308.682324 298.342449 
L 309.812108 295.376367 
L 310.941891 295.788925 
L 312.071674 298.18637 
L 313.201458 299.913336 
L 314.331241 298.79418 
L 315.461024 297.34827 
L 316.590808 297.063362 
L 317.720591 299.288173 
L 318.850375 302.503676 
L 319.980158 305.024504 
L 321.109941 305.961277 
L 322.239725 304.720848 
L 323.369508 302.007026 
L 324.499291 299.833594 
L 325.629075 299.138936 
L 326.758858 299.945767 
L 327.888641 298.428153 
L 329.018425 296.283714 
L 331.277991 297.000592 
L 333.537558 302.409138 
L 334.667342 300.850208 
L 335.797125 298.861949 
L 336.926908 297.238388 
L 338.056692 296.025459 
L 339.186475 299.556624 
L 340.316258 299.32527 
L 341.446042 299.856975 
L 342.575825 298.366578 
L 343.705608 297.977451 
L 344.835392 300.416877 
L 345.965175 299.661939 
L 347.094958 300.339942 
L 348.224742 299.927252 
L 349.354525 300.009584 
L 350.484309 299.335749 
L 351.614092 301.710843 
L 352.743875 303.452256 
L 353.873659 302.457246 
L 356.133225 297.771389 
L 357.263009 299.19704 
L 358.392792 299.886501 
L 359.522575 300.319666 
L 360.652359 300.192913 
L 361.782142 300.216244 
L 362.911925 301.090346 
L 364.041709 300.731891 
L 365.171492 302.454356 
L 367.431059 301.865278 
L 368.560842 300.341602 
L 369.690626 303.37092 
L 370.820409 303.417765 
L 371.950192 298.720549 
L 373.079976 297.575538 
L 374.209759 297.723564 
L 375.339542 298.346717 
L 376.469326 298.835645 
L 377.599109 298.117589 
L 378.728892 301.124455 
L 379.858676 299.967073 
L 380.988459 302.239658 
L 382.118243 299.992164 
L 383.248026 296.680197 
L 384.377809 295.794521 
L 385.507593 293.889723 
L 387.767159 302.722559 
L 388.896943 303.144448 
L 390.026726 300.560568 
L 391.156509 300.528269 
L 392.286293 302.36764 
L 393.416076 302.611033 
L 394.545859 305.695997 
L 395.675643 304.188628 
L 396.805426 298.86248 
L 397.93521 296.406631 
L 399.064993 297.427131 
L 400.194776 298.883703 
L 402.454343 296.015114 
L 403.584126 293.096358 
L 404.71391 292.269932 
L 405.843693 292.736591 
L 406.973476 293.477896 
L 408.10326 293.982865 
L 409.233043 295.421735 
L 410.362826 295.557023 
L 411.49261 295.934492 
L 412.622393 297.700265 
L 414.88196 297.486132 
L 416.011743 296.635096 
L 417.141527 296.592153 
L 418.27131 294.024612 
L 419.401093 294.866682 
L 420.530877 296.360035 
L 421.66066 294.378717 
L 422.790443 297.420057 
L 423.920227 298.482122 
L 426.179793 296.715701 
L 428.43936 298.228466 
L 429.569144 302.427355 
L 431.82871 299.217266 
L 432.958494 300.181455 
L 434.088277 300.715468 
L 435.21806 299.945817 
L 436.347844 299.387526 
L 437.477627 298.274531 
L 438.60741 299.719661 
L 439.737194 300.972976 
L 440.866977 300.210499 
L 441.99676 299.720657 
L 443.126544 298.028963 
L 444.256327 293.949902 
L 445.386111 290.424217 
L 446.515894 288.361165 
L 447.645677 290.857831 
L 448.775461 292.522906 
L 449.905244 295.544336 
L 451.035027 294.348793 
L 452.164811 294.369169 
L 453.294594 296.310948 
L 454.424377 296.959708 
L 455.554161 300.769686 
L 456.683944 302.641937 
L 457.813727 298.480677 
L 458.943511 295.477813 
L 461.203078 298.874337 
L 462.332861 302.291403 
L 463.462644 301.814232 
L 464.592428 304.77397 
L 465.722211 304.388281 
L 466.851994 306.254936 
L 467.981778 305.681351 
L 469.111561 304.447764 
L 470.241344 306.340539 
L 472.500911 306.603112 
L 474.760478 305.437842 
L 475.890261 306.82583 
L 477.020045 305.223725 
L 478.149828 306.886027 
L 479.279611 307.585651 
L 480.409395 309.589536 
L 481.539178 308.370845 
L 482.668961 310.619136 
L 483.798745 309.582529 
L 484.928528 309.875208 
L 486.058311 309.744486 
L 487.188095 309.79178 
L 488.317878 311.085032 
L 489.447661 310.702 
L 490.577445 311.330285 
L 491.707228 312.520514 
L 492.837012 310.064582 
L 493.966795 308.915602 
L 495.096578 308.886691 
L 496.226362 309.638258 
L 497.356145 310.549757 
L 498.485928 310.04399 
L 499.615712 310.543895 
L 500.745495 309.609912 
L 501.875278 312.419533 
L 503.005062 312.611348 
L 504.134845 311.93283 
L 505.264628 311.40003 
L 506.394412 310.260465 
L 507.524195 310.405236 
L 508.653979 310.307643 
L 509.783762 308.180989 
L 510.913545 306.864738 
L 512.043329 307.562004 
L 513.173112 307.025284 
L 514.302895 307.285565 
L 515.432679 307.10099 
L 516.562462 307.631848 
L 518.822029 306.911799 
L 519.951812 306.576028 
L 521.081595 306.743465 
L 522.211379 304.408391 
L 523.341162 303.763799 
L 524.470946 304.476093 
L 525.600729 305.807041 
L 527.860296 306.058687 
L 528.990079 304.246151 
L 530.119862 302.122388 
L 531.249646 303.529789 
L 532.379429 302.050351 
L 534.638996 302.494958 
L 535.768779 302.062341 
L 538.028346 300.153989 
L 539.158129 301.624193 
L 540.287913 299.784059 
L 541.417696 301.559447 
L 543.677263 302.624766 
L 544.807046 301.605296 
L 545.936829 301.699817 
L 547.066613 301.075185 
L 548.196396 301.726901 
L 549.326179 301.270072 
L 550.455963 303.363115 
L 551.585746 301.481366 
L 552.715529 301.207784 
L 553.845313 301.377463 
L 554.975096 300.197895 
L 556.10488 300.102876 
L 557.234663 300.401699 
L 558.364446 300.456034 
L 559.49423 299.863352 
L 560.624013 301.463182 
L 561.753796 300.563075 
L 562.88358 298.15379 
L 564.013363 296.20281 
L 565.143146 297.9686 
L 566.27293 298.781128 
L 567.402713 299.399433 
L 568.532496 299.38638 
L 569.66228 298.383566 
L 570.792063 298.564338 
L 571.921847 300.653544 
L 574.181413 301.299216 
L 575.311197 302.240871 
L 577.570763 301.344899 
L 578.700547 301.858603 
L 579.83033 301.918965 
L 580.960113 302.795375 
L 582.089897 302.815768 
L 583.21968 303.687296 
L 584.349463 302.459637 
L 585.479247 303.20883 
L 586.60903 303.433325 
L 587.738814 302.935695 
L 588.868597 303.169274 
L 589.99838 302.391935 
L 591.128164 303.811359 
L 592.257947 301.677382 
L 593.38773 302.202594 
L 594.517514 302.343927 
L 595.647297 300.152909 
L 596.77708 300.66218 
L 597.906864 300.064848 
L 599.036647 302.033679 
L 600.16643 302.308473 
L 602.425997 300.992405 
L 604.685564 301.116517 
L 605.815347 301.970593 
L 606.945131 301.952758 
L 608.074914 303.05207 
L 609.204697 303.18241 
L 610.334481 302.685062 
L 611.464264 302.539844 
L 612.594047 302.189243 
L 613.723831 300.306663 
L 614.853614 300.973125 
L 615.983397 302.512311 
L 617.113181 302.826196 
L 618.242964 305.473943 
L 619.372748 304.743332 
L 620.502531 306.03049 
L 621.632314 304.827807 
L 622.762098 304.763426 
L 623.891881 305.917503 
L 625.021664 304.399607 
L 626.151448 305.228258 
L 627.281231 303.545614 
L 628.411014 305.744503 
L 629.540798 305.132509 
L 630.670581 305.472116 
L 631.800364 305.250726 
L 632.930148 305.433225 
L 634.059931 304.707879 
L 635.189715 304.232485 
L 636.319498 304.976181 
L 637.449281 303.841133 
L 638.579065 304.22194 
L 639.708848 304.266693 
L 640.838631 303.486198 
L 641.968415 304.102344 
L 643.098198 303.888211 
L 644.227981 305.132475 
L 645.357765 306.888501 
L 646.487548 305.806094 
L 647.617331 307.631018 
L 649.876898 303.048865 
L 651.006682 304.091334 
L 652.136465 304.62734 
L 653.266248 305.41833 
L 654.396032 303.934541 
L 655.525815 304.067721 
L 656.655598 301.419824 
L 657.785382 300.108505 
L 660.044948 304.217041 
L 661.174732 302.468173 
L 662.304515 303.698903 
L 663.434298 301.892163 
L 664.564082 301.932648 
L 665.693865 301.743075 
L 666.823649 303.282909 
L 667.953432 303.889905 
L 669.083215 303.80186 
L 670.212999 301.827799 
L 671.342782 304.018119 
L 672.472565 301.435285 
L 673.602349 300.909242 
L 674.732132 299.433126 
L 675.861915 300.304953 
L 676.991699 301.510775 
L 678.121482 301.312816 
L 679.251265 299.663932 
L 680.381049 298.38956 
L 681.510832 297.795467 
L 682.640616 297.949404 
L 684.900182 299.844953 
L 686.029966 298.343313 
L 687.159749 297.035763 
L 688.289532 295.90945 
L 689.419316 296.64403 
L 690.549099 298.19469 
L 691.678882 297.460742 
L 692.808666 299.313663 
L 693.938449 300.479747 
L 695.068232 297.680604 
L 696.198016 294.555205 
L 697.327799 294.560352 
L 698.457583 296.507462 
L 700.717149 296.603179 
L 701.846933 297.304231 
L 702.976716 294.715551 
L 704.106499 294.048077 
L 705.236283 295.452804 
L 706.366066 295.702341 
L 707.495849 297.606043 
L 708.625633 296.152328 
L 709.755416 295.289203 
L 710.885199 295.683195 
L 712.014983 296.833553 
L 713.144766 297.529723 
L 714.27455 296.706949 
L 715.404333 296.478635 
L 716.534116 295.634008 
L 717.6639 293.093303 
L 718.793683 295.858769 
L 719.923466 296.794496 
L 721.05325 299.090164 
L 722.183033 300.010098 
L 723.312816 298.597765 
L 724.4426 299.131164 
L 725.572383 299.336795 
L 726.702166 300.536423 
L 728.961733 301.557554 
L 730.091517 300.321476 
L 731.2213 299.88313 
L 733.480867 301.093103 
L 735.740433 301.249182 
L 736.870217 303.145196 
L 738 302.804808 
L 739.129783 302.887837 
L 740.259567 303.130898 
L 741.38935 301.22957 
L 742.519133 302.035921 
L 743.648917 302.040803 
L 744.7787 301.509496 
L 745.908483 300.024446 
L 747.038267 296.866731 
L 748.16805 298.150435 
L 749.297834 300.346318 
L 750.427617 298.648081 
L 754.94675 300.350304 
L 756.076534 299.510094 
L 757.206317 299.776287 
L 758.3361 300.854941 
L 760.595667 301.345828 
L 761.72545 300.645059 
L 762.855234 298.40512 
L 763.985017 298.542733 
L 765.114801 299.984127 
L 766.244584 300.142747 
L 767.374367 299.846763 
L 768.504151 299.980822 
L 769.633934 298.017156 
L 770.763717 298.643382 
L 771.893501 298.559754 
L 773.023284 298.098392 
L 774.153067 299.159145 
L 776.412634 298.381623 
L 777.542417 299.739937 
L 778.672201 298.289543 
L 779.801984 298.342449 
L 780.931768 297.665011 
L 782.061551 297.779858 
L 783.191334 299.895534 
L 784.321118 299.141011 
L 785.450901 296.224016 
L 786.580684 295.341428 
L 787.710468 294.904726 
L 788.840251 297.588259 
L 789.970034 296.983903 
L 791.099818 297.642344 
L 792.229601 296.179529 
L 794.489168 295.225602 
L 795.618951 298.258473 
L 796.748735 298.104088 
L 797.878518 297.700382 
L 799.008301 297.081878 
L 800.138085 297.016268 
L 801.267868 296.008372 
L 802.397651 296.525928 
L 803.527435 296.701353 
L 804.657218 295.424391 
L 805.787001 296.267773 
L 806.916785 296.779335 
L 808.046568 296.296252 
L 809.176351 297.602988 
L 810.306135 296.523188 
L 811.435918 293.895817 
L 812.565702 293.411754 
L 813.695485 297.28995 
L 814.825268 295.693989 
L 815.955052 294.989184 
L 817.084835 293.334288 
L 818.214618 292.871016 
L 819.344402 291.805398 
L 820.474185 292.260084 
L 821.603968 294.855772 
L 822.733752 294.891275 
L 826.123102 293.965329 
L 829.512452 295.648272 
L 830.642235 295.882715 
L 831.772019 296.351002 
L 832.901802 298.378086 
L 834.031585 298.183215 
L 835.161369 299.789157 
L 836.291152 298.924304 
L 837.420935 296.97907 
L 838.550719 296.932674 
L 839.680502 298.548894 
L 840.810285 301.586946 
L 841.940069 300.96102 
L 843.069852 300.936343 
L 844.199636 299.439735 
L 845.329419 299.002667 
L 846.459202 300.083663 
L 847.588986 302.324266 
L 848.718769 300.357278 
L 850.978336 300.480079 
L 852.108119 300.086884 
L 854.367686 299.12942 
L 855.497469 298.894181 
L 856.627252 299.675074 
L 857.757036 299.699551 
L 858.886819 299.156405 
L 860.016603 300.084194 
L 861.146386 300.102726 
L 862.276169 301.631932 
L 863.405953 298.562245 
L 865.665519 298.071723 
L 866.795303 299.162616 
L 867.925086 299.558567 
L 869.054869 297.499317 
L 870.184653 298.370713 
L 871.314436 297.024189 
L 872.444219 296.868791 
L 873.574003 298.534381 
L 874.703786 297.726519 
L 875.83357 296.406731 
L 876.963353 299.026198 
L 878.093136 298.350005 
L 879.22292 296.634182 
L 880.352703 298.01523 
L 881.482486 297.665244 
L 882.61227 296.53375 
L 883.742053 297.03035 
L 884.871836 298.38066 
L 886.00162 297.873731 
L 887.131403 298.323867 
L 888.261186 297.194848 
L 889.39097 297.593556 
L 890.520753 294.703263 
L 891.650537 296.760819 
L 892.78032 296.102527 
L 893.910103 297.102336 
L 896.16967 296.393529 
L 897.299453 296.161827 
L 898.429237 293.877816 
L 899.55902 295.529806 
L 900.688803 294.975251 
L 901.818587 295.129155 
L 902.94837 296.327438 
L 904.078153 294.730613 
L 905.207937 295.497159 
L 906.33772 293.064076 
L 907.467504 293.376915 
L 908.597287 293.113346 
L 909.72707 294.313672 
L 910.856854 294.778737 
L 911.986637 295.675191 
L 913.11642 294.866964 
L 914.246204 295.092954 
L 915.375987 293.585784 
L 916.50577 293.061104 
L 917.635554 295.110141 
L 918.765337 296.57734 
L 919.89512 295.023923 
L 921.024904 295.648007 
L 922.154687 294.909309 
L 923.284471 292.817097 
L 924.414254 293.928282 
L 925.544037 296.50987 
L 926.673821 298.703861 
L 927.803604 297.202785 
L 928.933387 297.937182 
L 930.063171 297.941184 
L 931.192954 298.803446 
L 932.322737 298.162225 
L 934.582304 299.299315 
L 935.712087 300.157061 
L 936.841871 299.489304 
L 937.971654 300.111627 
L 939.101438 299.337144 
L 940.231221 298.284412 
L 941.361004 298.784565 
L 942.490788 302.54001 
L 943.620571 304.70851 
L 944.750354 303.791199 
L 945.880138 302.644876 
L 948.139704 299.037507 
L 949.269488 301.472299 
L 950.399271 303.219657 
L 951.529054 302.367308 
L 952.658838 302.045685 
L 953.788621 300.725681 
L 954.918405 302.237334 
L 956.048188 302.921248 
L 957.177971 300.594975 
L 958.307755 302.588682 
L 959.437538 301.249547 
L 960.567321 300.832473 
L 961.697105 300.78337 
L 962.826888 299.267017 
L 963.956671 298.321509 
L 965.086455 298.329945 
L 966.216238 299.14777 
L 967.346021 299.232908 
L 968.475805 297.376251 
L 969.605588 298.638898 
L 970.735372 297.48947 
L 971.865155 296.795691 
L 974.124722 298.911285 
L 975.254505 298.342001 
L 976.384288 296.944098 
L 977.514072 297.007815 
L 978.643855 296.428369 
L 979.773638 297.153898 
L 980.903422 296.339693 
L 982.033205 298.308856 
L 983.162988 295.696363 
L 984.292772 297.638076 
L 985.422555 296.190472 
L 986.552339 293.87134 
L 987.682122 293.678479 
L 988.811905 293.972819 
L 989.941689 295.552573 
L 991.071472 295.314261 
L 992.201255 294.738418 
L 993.331039 295.295297 
L 994.460822 293.27821 
L 995.590605 292.270363 
L 996.720389 294.290822 
L 997.850172 294.525198 
L 998.979955 293.187558 
L 1000.109739 292.780663 
L 1001.239522 292.845343 
L 1002.369306 293.168627 
L 1003.499089 292.326757 
L 1004.628872 293.531035 
L 1005.758656 294.549758 
L 1006.888439 295.071831 
L 1008.018222 295.215157 
L 1009.148006 294.579482 
L 1010.277789 292.70763 
L 1011.407572 293.559448 
L 1012.537356 295.653072 
L 1013.667139 295.76096 
L 1014.796922 295.523296 
L 1015.926706 295.575323 
L 1017.056489 293.999853 
L 1018.186273 294.496287 
L 1019.316056 297.500297 
L 1020.445839 298.176257 
L 1021.575623 298.200718 
L 1022.705406 298.339792 
L 1023.835189 297.218943 
L 1024.964973 297.046341 
L 1026.094756 297.963536 
L 1027.224539 298.17908 
L 1028.354323 301.102137 
L 1029.484106 299.663533 
L 1030.613889 300.060315 
L 1031.743673 300.747584 
L 1032.873456 299.514761 
L 1034.00324 300.166609 
L 1035.133023 298.190173 
L 1036.262806 300.693432 
L 1037.39259 299.641696 
L 1038.522373 300.554507 
L 1039.652156 300.730779 
L 1040.78194 299.807075 
L 1041.911723 298.735246 
L 1043.041506 300.364236 
L 1044.17129 298.489677 
L 1045.301073 298.374399 
L 1046.430856 298.929718 
L 1047.56064 298.903895 
L 1048.690423 298.994713 
L 1049.820207 298.880547 
L 1050.94999 298.246866 
L 1052.079773 299.410309 
L 1053.209557 298.792935 
L 1054.33934 300.291735 
L 1055.469123 300.0051 
L 1056.598907 299.846746 
L 1057.72869 297.657372 
L 1058.858473 298.370248 
L 1059.988257 297.687213 
L 1061.11804 299.36378 
L 1062.247823 299.324656 
L 1063.377607 299.415009 
L 1064.50739 298.153242 
L 1065.637174 296.328069 
L 1066.766957 297.368247 
L 1067.89674 298.860919 
L 1069.026524 297.73097 
L 1071.28609 298.458193 
L 1072.415874 298.400919 
L 1073.545657 297.961028 
L 1074.67544 297.909201 
L 1075.805224 298.822277 
L 1076.935007 296.576477 
L 1079.194574 297.949338 
L 1080.324357 296.637321 
L 1081.454141 295.804634 
L 1082.583924 296.972245 
L 1083.713707 297.708519 
L 1084.843491 296.782672 
L 1085.973274 298.464636 
L 1087.103057 295.876836 
L 1088.232841 294.041683 
L 1089.362624 294.061893 
L 1090.492407 295.444153 
L 1091.622191 295.984874 
L 1092.751974 294.529216 
L 1093.881757 295.073824 
L 1095.011541 293.272597 
L 1096.141324 295.408882 
L 1097.271108 294.8753 
L 1098.400891 297.054129 
L 1099.530674 296.905739 
L 1100.660458 299.598986 
L 1102.920024 297.329356 
L 1104.049808 297.276017 
L 1105.179591 299.600895 
L 1106.309374 299.440947 
L 1107.439158 299.492293 
L 1108.568941 299.256505 
L 1109.698724 299.991998 
L 1110.828508 298.25379 
L 1111.958291 299.122296 
L 1113.088075 299.629657 
L 1114.217858 301.689305 
L 1115.347641 300.066326 
L 1116.477425 301.628959 
L 1117.607208 300.929402 
L 1118.736991 298.506615 
L 1119.866775 298.406963 
L 1120.996558 298.876994 
L 1122.126341 298.65924 
L 1123.256125 298.609705 
L 1124.385908 298.782108 
L 1125.515691 296.982309 
L 1126.645475 296.370032 
L 1127.775258 296.740942 
L 1128.905042 298.334678 
L 1131.164608 297.986136 
L 1132.294392 296.381689 
L 1133.424175 297.260508 
L 1134.553958 296.010315 
L 1135.683742 294.271393 
L 1136.813525 295.148335 
L 1137.943308 294.579018 
L 1139.073092 296.67588 
L 1140.202875 296.19655 
L 1141.332658 294.260217 
L 1142.462442 294.227819 
L 1143.592225 296.693964 
L 1144.722009 294.917048 
L 1145.851792 297.000774 
L 1146.981575 296.768109 
L 1148.111359 293.752541 
L 1149.241142 293.324108 
L 1150.370925 294.492783 
L 1151.500709 294.969672 
L 1152.630492 294.872643 
L 1154.890059 292.814822 
L 1156.019842 292.371543 
L 1157.149625 292.362792 
L 1158.279409 292.235524 
L 1159.409192 292.346618 
L 1160.538976 291.243039 
L 1162.798542 292.441986 
L 1163.928326 290.990363 
L 1166.187892 292.338498 
L 1167.317676 292.168602 
L 1168.447459 290.464105 
L 1169.577242 291.829028 
L 1170.707026 291.356025 
L 1171.836809 294.408574 
L 1172.966592 295.52421 
L 1174.096376 296.355867 
L 1175.226159 295.839224 
L 1176.355942 294.504939 
L 1177.485726 295.641281 
L 1178.615509 296.503294 
L 1179.745293 296.844031 
L 1180.875076 292.583933 
L 1182.004859 292.143478 
L 1183.134643 291.580188 
L 1184.264426 291.248867 
L 1185.394209 290.525514 
L 1186.523993 290.764307 
L 1187.653776 286.234329 
L 1188.783559 284.699461 
L 1189.913343 283.744754 
L 1191.043126 287.418331 
L 1192.172909 286.434945 
L 1193.302693 287.497375 
L 1195.56226 285.197456 
L 1196.692043 283.39769 
L 1197.821826 287.258881 
L 1198.95161 286.047778 
L 1201.211176 280.835646 
L 1202.34096 281.282213 
L 1203.470743 283.383475 
L 1204.600526 283.429424 
L 1205.73031 285.681418 
L 1206.860093 289.87677 
L 1207.989876 292.164218 
L 1209.11966 291.494153 
L 1210.249443 291.932566 
L 1211.379227 294.744296 
L 1212.50901 299.23236 
L 1213.638793 301.201075 
L 1214.768577 300.95466 
L 1215.89836 301.305841 
L 1217.028143 303.546992 
L 1219.28771 302.487585 
L 1220.417493 305.254629 
L 1222.67706 307.463581 
L 1223.806843 310.525247 
L 1226.06641 310.889663 
L 1227.196194 308.819819 
L 1228.325977 309.442441 
L 1229.45576 311.816207 
L 1230.585544 311.106952 
L 1231.715327 309.655246 
L 1232.84511 309.932266 
L 1233.974894 309.863252 
L 1235.104677 308.986958 
L 1236.23446 307.832315 
L 1237.364244 308.223418 
L 1238.494027 308.841739 
L 1239.62381 308.908212 
L 1240.753594 308.126007 
L 1241.883377 308.149056 
L 1243.013161 308.738118 
L 1244.142944 307.216435 
L 1245.272727 307.128722 
L 1245.272727 307.128722 
" clip-path="url(#p4b20f58111)" style="fill: none; stroke: #1f77b4; stroke-width: 1.5; stroke-linecap: square"/>
   </g>
   <g id="patch_3">
    <path d="M 180 512.64 
L 180 69.12 
" style="fill: none; stroke: #000000; stroke-width: 0.8; stroke-linejoin: miter; stroke-linecap: square"/>
   </g>
   <g id="patch_4">
    <path d="M 1296 512.64 
L 1296 69.12 
" style="fill: none; stroke: #000000; stroke-width: 0.8; stroke-linejoin: miter; stroke-linecap: square"/>
   </g>
   <g id="patch_5">
    <path d="M 180 512.64 
L 1296 512.64 
" style="fill: none; stroke: #000000; stroke-width: 0.8; stroke-linejoin: miter; stroke-linecap: square"/>
   </g>
   <g id="patch_6">
    <path d="M 180 69.12 
L 1296 69.12 
" style="fill: none; stroke: #000000; stroke-width: 0.8; stroke-linejoin: miter; stroke-linecap: square"/>
   </g>
   <g id="text_16">
    <!-- Motion magnitude in the ROI -->
    <g transform="translate(651.598125 63.12) scale(0.12 -0.12)">
     <defs>
      <path id="DejaVuSans-68" d="M 3513 2113 
L 3513 0 
L 2938 0 
L 2938 2094 
Q 2938 2591 2744 2837 
Q 2550 3084 2163 3084 
Q 1697 3084 1428 2787 
Q 1159 2491 1159 1978 
L 1159 0 
L 581 0 
L 581 4863 
L 1159 4863 
L 1159 2956 
Q 1366 3272 1645 3428 
Q 1925 3584 2291 3584 
Q 2894 3584 3203 3211 
Q 3513 2838 3513 2113 
z
" transform="scale(0.015625)"/>
      <path id="DejaVuSans-52" d="M 2841 2188 
Q 3044 2119 3236 1894 
Q 3428 1669 3622 1275 
L 4263 0 
L 3584 0 
L 2988 1197 
Q 2756 1666 2539 1819 
Q 2322 1972 1947 1972 
L 1259 1972 
L 1259 0 
L 628 0 
L 628 4666 
L 2053 4666 
Q 2853 4666 3247 4331 
Q 3641 3997 3641 3322 
Q 3641 2881 3436 2590 
Q 3231 2300 2841 2188 
z
M 1259 4147 
L 1259 2491 
L 2053 2491 
Q 2509 2491 2742 2702 
Q 2975 2913 2975 3322 
Q 2975 3731 2742 3939 
Q 2509 4147 2053 4147 
L 1259 4147 
z
" transform="scale(0.015625)"/>
      <path id="DejaVuSans-4f" d="M 2522 4238 
Q 1834 4238 1429 3725 
Q 1025 3213 1025 2328 
Q 1025 1447 1429 934 
Q 1834 422 2522 422 
Q 3209 422 3611 934 
Q 4013 1447 4013 2328 
Q 4013 3213 3611 3725 
Q 3209 4238 2522 4238 
z
M 2522 4750 
Q 3503 4750 4090 4092 
Q 4678 3434 4678 2328 
Q 4678 1225 4090 567 
Q 3503 -91 2522 -91 
Q 1538 -91 948 565 
Q 359 1222 359 2328 
Q 359 3434 948 4092 
Q 1538 4750 2522 4750 
z
" transform="scale(0.015625)"/>
      <path id="DejaVuSans-49" d="M 628 4666 
L 1259 4666 
L 1259 0 
L 628 0 
L 628 4666 
z
" transform="scale(0.015625)"/>
     </defs>
     <use xlink:href="#DejaVuSans-4d"/>
     <use xlink:href="#DejaVuSans-6f" x="86.279297"/>
     <use xlink:href="#DejaVuSans-74" x="147.460938"/>
     <use xlink:href="#DejaVuSans-69" x="186.669922"/>
     <use xlink:href="#DejaVuSans-6f" x="214.453125"/>
     <use xlink:href="#DejaVuSans-6e" x="275.634766"/>
     <use xlink:href="#DejaVuSans-20" x="339.013672"/>
     <use xlink:href="#DejaVuSans-6d" x="370.800781"/>
     <use xlink:href="#DejaVuSans-61" x="468.212891"/>
     <use xlink:href="#DejaVuSans-67" x="529.492188"/>
     <use xlink:href="#DejaVuSans-6e" x="592.96875"/>
     <use xlink:href="#DejaVuSans-69" x="656.347656"/>
     <use xlink:href="#DejaVuSans-74" x="684.130859"/>
     <use xlink:href="#DejaVuSans-75" x="723.339844"/>
     <use xlink:href="#DejaVuSans-64" x="786.71875"/>
     <use xlink:href="#DejaVuSans-65" x="850.195312"/>
     <use xlink:href="#DejaVuSans-20" x="911.71875"/>
     <use xlink:href="#DejaVuSans-69" x="943.505859"/>
     <use xlink:href="#DejaVuSans-6e" x="971.289062"/>
     <use xlink:href="#DejaVuSans-20" x="1034.667969"/>
     <use xlink:href="#DejaVuSans-74" x="1066.455078"/>
     <use xlink:href="#DejaVuSans-68" x="1105.664062"/>
     <use xlink:href="#DejaVuSans-65" x="1169.042969"/>
     <use xlink:href="#DejaVuSans-20" x="1230.566406"/>
     <use xlink:href="#DejaVuSans-52" x="1262.353516"/>
     <use xlink:href="#DejaVuSans-4f" x="1331.835938"/>
     <use xlink:href="#DejaVuSans-49" x="1410.546875"/>
    </g>
   </g>
  </g>
 </g>
 <defs>
  <clipPath id="p4b20f58111">
   <rect x="180" y="69.12" width="1116" height="443.52"/>
  </clipPath>
 </defs>
</svg>
