<?xml version="1.0" encoding="utf-8" standalone="no"?>
<!DOCTYPE svg PUBLIC "-//W3C//DTD SVG 1.1//EN"
  "http://www.w3.org/Graphics/SVG/1.1/DTD/svg11.dtd">
<svg xmlns:xlink="http://www.w3.org/1999/xlink" width="864pt" height="432pt" viewBox="0 0 864 432" xmlns="http://www.w3.org/2000/svg" version="1.1">
 <metadata>
  <rdf:RDF xmlns:dc="http://purl.org/dc/elements/1.1/" xmlns:cc="http://creativecommons.org/ns#" xmlns:rdf="http://www.w3.org/1999/02/22-rdf-syntax-ns#">
   <cc:Work>
    <dc:type rdf:resource="http://purl.org/dc/dcmitype/StillImage"/>
    <dc:date>2024-09-09T08:49:23.460322</dc:date>
    <dc:format>image/svg+xml</dc:format>
    <dc:creator>
     <cc:Agent>
      <dc:title>Matplotlib v3.9.1, https://matplotlib.org/</dc:title>
     </cc:Agent>
    </dc:creator>
   </cc:Work>
  </rdf:RDF>
 </metadata>
 <defs>
  <style type="text/css">*{stroke-linejoin: round; stroke-linecap: butt}</style>
 </defs>
 <g id="figure_1">
  <g id="patch_1">
   <path d="M 0 432 
L 864 432 
L 864 0 
L 0 0 
z
" style="fill: #ffffff"/>
  </g>
  <g id="axes_1">
   <g id="patch_2">
    <path d="M 56.09 390.04 
L 853.2 390.04 
L 853.2 26.88 
L 56.09 26.88 
z
" style="fill: #ffffff"/>
   </g>
   <g id="matplotlib.axis_1">
    <g id="xtick_1">
     <g id="line2d_1">
      <path d="M 56.09 390.04 
L 56.09 26.88 
" clip-path="url(#pc2ccff5f28)" style="fill: none; stroke: #cccccc; stroke-width: 0.8; stroke-linecap: round"/>
     </g>
     <g id="text_1">
      <!-- 0 -->
      <g style="fill: #262626" transform="translate(52.90875 404.638438) scale(0.1 -0.1)">
       <defs>
        <path id="DejaVuSans-30" d="M 2034 4250 
Q 1547 4250 1301 3770 
Q 1056 3291 1056 2328 
Q 1056 1369 1301 889 
Q 1547 409 2034 409 
Q 2525 409 2770 889 
Q 3016 1369 3016 2328 
Q 3016 3291 2770 3770 
Q 2525 4250 2034 4250 
z
M 2034 4750 
Q 2819 4750 3233 4129 
Q 3647 3509 3647 2328 
Q 3647 1150 3233 529 
Q 2819 -91 2034 -91 
Q 1250 -91 836 529 
Q 422 1150 422 2328 
Q 422 3509 836 4129 
Q 1250 4750 2034 4750 
z
" transform="scale(0.015625)"/>
       </defs>
       <use xlink:href="#DejaVuSans-30"/>
      </g>
     </g>
    </g>
    <g id="xtick_2">
     <g id="line2d_2">
      <path d="M 144.657778 390.04 
L 144.657778 26.88 
" clip-path="url(#pc2ccff5f28)" style="fill: none; stroke: #cccccc; stroke-width: 0.8; stroke-linecap: round"/>
     </g>
     <g id="text_2">
      <!-- 1 -->
      <g style="fill: #262626" transform="translate(141.476528 404.638438) scale(0.1 -0.1)">
       <defs>
        <path id="DejaVuSans-31" d="M 794 531 
L 1825 531 
L 1825 4091 
L 703 3866 
L 703 4441 
L 1819 4666 
L 2450 4666 
L 2450 531 
L 3481 531 
L 3481 0 
L 794 0 
L 794 531 
z
" transform="scale(0.015625)"/>
       </defs>
       <use xlink:href="#DejaVuSans-31"/>
      </g>
     </g>
    </g>
    <g id="xtick_3">
     <g id="line2d_3">
      <path d="M 233.225556 390.04 
L 233.225556 26.88 
" clip-path="url(#pc2ccff5f28)" style="fill: none; stroke: #cccccc; stroke-width: 0.8; stroke-linecap: round"/>
     </g>
     <g id="text_3">
      <!-- 2 -->
      <g style="fill: #262626" transform="translate(230.044306 404.638438) scale(0.1 -0.1)">
       <defs>
        <path id="DejaVuSans-32" d="M 1228 531 
L 3431 531 
L 3431 0 
L 469 0 
L 469 531 
Q 828 903 1448 1529 
Q 2069 2156 2228 2338 
Q 2531 2678 2651 2914 
Q 2772 3150 2772 3378 
Q 2772 3750 2511 3984 
Q 2250 4219 1831 4219 
Q 1534 4219 1204 4116 
Q 875 4013 500 3803 
L 500 4441 
Q 881 4594 1212 4672 
Q 1544 4750 1819 4750 
Q 2544 4750 2975 4387 
Q 3406 4025 3406 3419 
Q 3406 3131 3298 2873 
Q 3191 2616 2906 2266 
Q 2828 2175 2409 1742 
Q 1991 1309 1228 531 
z
" transform="scale(0.015625)"/>
       </defs>
       <use xlink:href="#DejaVuSans-32"/>
      </g>
     </g>
    </g>
    <g id="xtick_4">
     <g id="line2d_4">
      <path d="M 321.793333 390.04 
L 321.793333 26.88 
" clip-path="url(#pc2ccff5f28)" style="fill: none; stroke: #cccccc; stroke-width: 0.8; stroke-linecap: round"/>
     </g>
     <g id="text_4">
      <!-- 3 -->
      <g style="fill: #262626" transform="translate(318.612083 404.638438) scale(0.1 -0.1)">
       <defs>
        <path id="DejaVuSans-33" d="M 2597 2516 
Q 3050 2419 3304 2112 
Q 3559 1806 3559 1356 
Q 3559 666 3084 287 
Q 2609 -91 1734 -91 
Q 1441 -91 1130 -33 
Q 819 25 488 141 
L 488 750 
Q 750 597 1062 519 
Q 1375 441 1716 441 
Q 2309 441 2620 675 
Q 2931 909 2931 1356 
Q 2931 1769 2642 2001 
Q 2353 2234 1838 2234 
L 1294 2234 
L 1294 2753 
L 1863 2753 
Q 2328 2753 2575 2939 
Q 2822 3125 2822 3475 
Q 2822 3834 2567 4026 
Q 2313 4219 1838 4219 
Q 1578 4219 1281 4162 
Q 984 4106 628 3988 
L 628 4550 
Q 988 4650 1302 4700 
Q 1616 4750 1894 4750 
Q 2613 4750 3031 4423 
Q 3450 4097 3450 3541 
Q 3450 3153 3228 2886 
Q 3006 2619 2597 2516 
z
" transform="scale(0.015625)"/>
       </defs>
       <use xlink:href="#DejaVuSans-33"/>
      </g>
     </g>
    </g>
    <g id="xtick_5">
     <g id="line2d_5">
      <path d="M 410.361111 390.04 
L 410.361111 26.88 
" clip-path="url(#pc2ccff5f28)" style="fill: none; stroke: #cccccc; stroke-width: 0.8; stroke-linecap: round"/>
     </g>
     <g id="text_5">
      <!-- 4 -->
      <g style="fill: #262626" transform="translate(407.179861 404.638438) scale(0.1 -0.1)">
       <defs>
        <path id="DejaVuSans-34" d="M 2419 4116 
L 825 1625 
L 2419 1625 
L 2419 4116 
z
M 2253 4666 
L 3047 4666 
L 3047 1625 
L 3713 1625 
L 3713 1100 
L 3047 1100 
L 3047 0 
L 2419 0 
L 2419 1100 
L 313 1100 
L 313 1709 
L 2253 4666 
z
" transform="scale(0.015625)"/>
       </defs>
       <use xlink:href="#DejaVuSans-34"/>
      </g>
     </g>
    </g>
    <g id="xtick_6">
     <g id="line2d_6">
      <path d="M 498.928889 390.04 
L 498.928889 26.88 
" clip-path="url(#pc2ccff5f28)" style="fill: none; stroke: #cccccc; stroke-width: 0.8; stroke-linecap: round"/>
     </g>
     <g id="text_6">
      <!-- 5 -->
      <g style="fill: #262626" transform="translate(495.747639 404.638438) scale(0.1 -0.1)">
       <defs>
        <path id="DejaVuSans-35" d="M 691 4666 
L 3169 4666 
L 3169 4134 
L 1269 4134 
L 1269 2991 
Q 1406 3038 1543 3061 
Q 1681 3084 1819 3084 
Q 2600 3084 3056 2656 
Q 3513 2228 3513 1497 
Q 3513 744 3044 326 
Q 2575 -91 1722 -91 
Q 1428 -91 1123 -41 
Q 819 9 494 109 
L 494 744 
Q 775 591 1075 516 
Q 1375 441 1709 441 
Q 2250 441 2565 725 
Q 2881 1009 2881 1497 
Q 2881 1984 2565 2268 
Q 2250 2553 1709 2553 
Q 1456 2553 1204 2497 
Q 953 2441 691 2322 
L 691 4666 
z
" transform="scale(0.015625)"/>
       </defs>
       <use xlink:href="#DejaVuSans-35"/>
      </g>
     </g>
    </g>
    <g id="xtick_7">
     <g id="line2d_7">
      <path d="M 587.496667 390.04 
L 587.496667 26.88 
" clip-path="url(#pc2ccff5f28)" style="fill: none; stroke: #cccccc; stroke-width: 0.8; stroke-linecap: round"/>
     </g>
     <g id="text_7">
      <!-- 6 -->
      <g style="fill: #262626" transform="translate(584.315417 404.638438) scale(0.1 -0.1)">
       <defs>
        <path id="DejaVuSans-36" d="M 2113 2584 
Q 1688 2584 1439 2293 
Q 1191 2003 1191 1497 
Q 1191 994 1439 701 
Q 1688 409 2113 409 
Q 2538 409 2786 701 
Q 3034 994 3034 1497 
Q 3034 2003 2786 2293 
Q 2538 2584 2113 2584 
z
M 3366 4563 
L 3366 3988 
Q 3128 4100 2886 4159 
Q 2644 4219 2406 4219 
Q 1781 4219 1451 3797 
Q 1122 3375 1075 2522 
Q 1259 2794 1537 2939 
Q 1816 3084 2150 3084 
Q 2853 3084 3261 2657 
Q 3669 2231 3669 1497 
Q 3669 778 3244 343 
Q 2819 -91 2113 -91 
Q 1303 -91 875 529 
Q 447 1150 447 2328 
Q 447 3434 972 4092 
Q 1497 4750 2381 4750 
Q 2619 4750 2861 4703 
Q 3103 4656 3366 4563 
z
" transform="scale(0.015625)"/>
       </defs>
       <use xlink:href="#DejaVuSans-36"/>
      </g>
     </g>
    </g>
    <g id="xtick_8">
     <g id="line2d_8">
      <path d="M 676.064444 390.04 
L 676.064444 26.88 
" clip-path="url(#pc2ccff5f28)" style="fill: none; stroke: #cccccc; stroke-width: 0.8; stroke-linecap: round"/>
     </g>
     <g id="text_8">
      <!-- 7 -->
      <g style="fill: #262626" transform="translate(672.883194 404.638438) scale(0.1 -0.1)">
       <defs>
        <path id="DejaVuSans-37" d="M 525 4666 
L 3525 4666 
L 3525 4397 
L 1831 0 
L 1172 0 
L 2766 4134 
L 525 4134 
L 525 4666 
z
" transform="scale(0.015625)"/>
       </defs>
       <use xlink:href="#DejaVuSans-37"/>
      </g>
     </g>
    </g>
    <g id="xtick_9">
     <g id="line2d_9">
      <path d="M 764.632222 390.04 
L 764.632222 26.88 
" clip-path="url(#pc2ccff5f28)" style="fill: none; stroke: #cccccc; stroke-width: 0.8; stroke-linecap: round"/>
     </g>
     <g id="text_9">
      <!-- 8 -->
      <g style="fill: #262626" transform="translate(761.450972 404.638438) scale(0.1 -0.1)">
       <defs>
        <path id="DejaVuSans-38" d="M 2034 2216 
Q 1584 2216 1326 1975 
Q 1069 1734 1069 1313 
Q 1069 891 1326 650 
Q 1584 409 2034 409 
Q 2484 409 2743 651 
Q 3003 894 3003 1313 
Q 3003 1734 2745 1975 
Q 2488 2216 2034 2216 
z
M 1403 2484 
Q 997 2584 770 2862 
Q 544 3141 544 3541 
Q 544 4100 942 4425 
Q 1341 4750 2034 4750 
Q 2731 4750 3128 4425 
Q 3525 4100 3525 3541 
Q 3525 3141 3298 2862 
Q 3072 2584 2669 2484 
Q 3125 2378 3379 2068 
Q 3634 1759 3634 1313 
Q 3634 634 3220 271 
Q 2806 -91 2034 -91 
Q 1263 -91 848 271 
Q 434 634 434 1313 
Q 434 1759 690 2068 
Q 947 2378 1403 2484 
z
M 1172 3481 
Q 1172 3119 1398 2916 
Q 1625 2713 2034 2713 
Q 2441 2713 2670 2916 
Q 2900 3119 2900 3481 
Q 2900 3844 2670 4047 
Q 2441 4250 2034 4250 
Q 1625 4250 1398 4047 
Q 1172 3844 1172 3481 
z
" transform="scale(0.015625)"/>
       </defs>
       <use xlink:href="#DejaVuSans-38"/>
      </g>
     </g>
    </g>
    <g id="xtick_10">
     <g id="line2d_10">
      <path d="M 853.2 390.04 
L 853.2 26.88 
" clip-path="url(#pc2ccff5f28)" style="fill: none; stroke: #cccccc; stroke-width: 0.8; stroke-linecap: round"/>
     </g>
     <g id="text_10">
      <!-- 9 -->
      <g style="fill: #262626" transform="translate(850.01875 404.638438) scale(0.1 -0.1)">
       <defs>
        <path id="DejaVuSans-39" d="M 703 97 
L 703 672 
Q 941 559 1184 500 
Q 1428 441 1663 441 
Q 2288 441 2617 861 
Q 2947 1281 2994 2138 
Q 2813 1869 2534 1725 
Q 2256 1581 1919 1581 
Q 1219 1581 811 2004 
Q 403 2428 403 3163 
Q 403 3881 828 4315 
Q 1253 4750 1959 4750 
Q 2769 4750 3195 4129 
Q 3622 3509 3622 2328 
Q 3622 1225 3098 567 
Q 2575 -91 1691 -91 
Q 1453 -91 1209 -44 
Q 966 3 703 97 
z
M 1959 2075 
Q 2384 2075 2632 2365 
Q 2881 2656 2881 3163 
Q 2881 3666 2632 3958 
Q 2384 4250 1959 4250 
Q 1534 4250 1286 3958 
Q 1038 3666 1038 3163 
Q 1038 2656 1286 2365 
Q 1534 2075 1959 2075 
z
" transform="scale(0.015625)"/>
       </defs>
       <use xlink:href="#DejaVuSans-39"/>
      </g>
     </g>
    </g>
    <g id="text_11">
     <!-- MAE (BPM) -->
     <g style="fill: #262626" transform="translate(427.50125 418.316562) scale(0.1 -0.1)">
      <defs>
       <path id="DejaVuSans-4d" d="M 628 4666 
L 1569 4666 
L 2759 1491 
L 3956 4666 
L 4897 4666 
L 4897 0 
L 4281 0 
L 4281 4097 
L 3078 897 
L 2444 897 
L 1241 4097 
L 1241 0 
L 628 0 
L 628 4666 
z
" transform="scale(0.015625)"/>
       <path id="DejaVuSans-41" d="M 2188 4044 
L 1331 1722 
L 3047 1722 
L 2188 4044 
z
M 1831 4666 
L 2547 4666 
L 4325 0 
L 3669 0 
L 3244 1197 
L 1141 1197 
L 716 0 
L 50 0 
L 1831 4666 
z
" transform="scale(0.015625)"/>
       <path id="DejaVuSans-45" d="M 628 4666 
L 3578 4666 
L 3578 4134 
L 1259 4134 
L 1259 2753 
L 3481 2753 
L 3481 2222 
L 1259 2222 
L 1259 531 
L 3634 531 
L 3634 0 
L 628 0 
L 628 4666 
z
" transform="scale(0.015625)"/>
       <path id="DejaVuSans-20" transform="scale(0.015625)"/>
       <path id="DejaVuSans-28" d="M 1984 4856 
Q 1566 4138 1362 3434 
Q 1159 2731 1159 2009 
Q 1159 1288 1364 580 
Q 1569 -128 1984 -844 
L 1484 -844 
Q 1016 -109 783 600 
Q 550 1309 550 2009 
Q 550 2706 781 3412 
Q 1013 4119 1484 4856 
L 1984 4856 
z
" transform="scale(0.015625)"/>
       <path id="DejaVuSans-42" d="M 1259 2228 
L 1259 519 
L 2272 519 
Q 2781 519 3026 730 
Q 3272 941 3272 1375 
Q 3272 1813 3026 2020 
Q 2781 2228 2272 2228 
L 1259 2228 
z
M 1259 4147 
L 1259 2741 
L 2194 2741 
Q 2656 2741 2882 2914 
Q 3109 3088 3109 3444 
Q 3109 3797 2882 3972 
Q 2656 4147 2194 4147 
L 1259 4147 
z
M 628 4666 
L 2241 4666 
Q 2963 4666 3353 4366 
Q 3744 4066 3744 3513 
Q 3744 3084 3544 2831 
Q 3344 2578 2956 2516 
Q 3422 2416 3680 2098 
Q 3938 1781 3938 1306 
Q 3938 681 3513 340 
Q 3088 0 2303 0 
L 628 0 
L 628 4666 
z
" transform="scale(0.015625)"/>
       <path id="DejaVuSans-50" d="M 1259 4147 
L 1259 2394 
L 2053 2394 
Q 2494 2394 2734 2622 
Q 2975 2850 2975 3272 
Q 2975 3691 2734 3919 
Q 2494 4147 2053 4147 
L 1259 4147 
z
M 628 4666 
L 2053 4666 
Q 2838 4666 3239 4311 
Q 3641 3956 3641 3272 
Q 3641 2581 3239 2228 
Q 2838 1875 2053 1875 
L 1259 1875 
L 1259 0 
L 628 0 
L 628 4666 
z
" transform="scale(0.015625)"/>
       <path id="DejaVuSans-29" d="M 513 4856 
L 1013 4856 
Q 1481 4119 1714 3412 
Q 1947 2706 1947 2009 
Q 1947 1309 1714 600 
Q 1481 -109 1013 -844 
L 513 -844 
Q 928 -128 1133 580 
Q 1338 1288 1338 2009 
Q 1338 2731 1133 3434 
Q 928 4138 513 4856 
z
" transform="scale(0.015625)"/>
      </defs>
      <use xlink:href="#DejaVuSans-4d"/>
      <use xlink:href="#DejaVuSans-41" x="86.279297"/>
      <use xlink:href="#DejaVuSans-45" x="154.6875"/>
      <use xlink:href="#DejaVuSans-20" x="217.871094"/>
      <use xlink:href="#DejaVuSans-28" x="249.658203"/>
      <use xlink:href="#DejaVuSans-42" x="288.671875"/>
      <use xlink:href="#DejaVuSans-50" x="357.275391"/>
      <use xlink:href="#DejaVuSans-4d" x="417.578125"/>
      <use xlink:href="#DejaVuSans-29" x="503.857422"/>
     </g>
    </g>
   </g>
   <g id="matplotlib.axis_2">
    <g id="ytick_1">
     <g id="line2d_11">
      <path d="M 56.09 390.04 
L 853.2 390.04 
" clip-path="url(#pc2ccff5f28)" style="fill: none; stroke: #cccccc; stroke-width: 0.8; stroke-linecap: round"/>
     </g>
     <g id="text_12">
      <!-- 0.0 -->
      <g style="fill: #262626" transform="translate(33.186875 393.839219) scale(0.1 -0.1)">
       <defs>
        <path id="DejaVuSans-2e" d="M 684 794 
L 1344 794 
L 1344 0 
L 684 0 
L 684 794 
z
" transform="scale(0.015625)"/>
       </defs>
       <use xlink:href="#DejaVuSans-30"/>
       <use xlink:href="#DejaVuSans-2e" x="63.623047"/>
       <use xlink:href="#DejaVuSans-30" x="95.410156"/>
      </g>
     </g>
    </g>
    <g id="ytick_2">
     <g id="line2d_12">
      <path d="M 56.09 317.408 
L 853.2 317.408 
" clip-path="url(#pc2ccff5f28)" style="fill: none; stroke: #cccccc; stroke-width: 0.8; stroke-linecap: round"/>
     </g>
     <g id="text_13">
      <!-- 0.2 -->
      <g style="fill: #262626" transform="translate(33.186875 321.207219) scale(0.1 -0.1)">
       <use xlink:href="#DejaVuSans-30"/>
       <use xlink:href="#DejaVuSans-2e" x="63.623047"/>
       <use xlink:href="#DejaVuSans-32" x="95.410156"/>
      </g>
     </g>
    </g>
    <g id="ytick_3">
     <g id="line2d_13">
      <path d="M 56.09 244.776 
L 853.2 244.776 
" clip-path="url(#pc2ccff5f28)" style="fill: none; stroke: #cccccc; stroke-width: 0.8; stroke-linecap: round"/>
     </g>
     <g id="text_14">
      <!-- 0.4 -->
      <g style="fill: #262626" transform="translate(33.186875 248.575219) scale(0.1 -0.1)">
       <use xlink:href="#DejaVuSans-30"/>
       <use xlink:href="#DejaVuSans-2e" x="63.623047"/>
       <use xlink:href="#DejaVuSans-34" x="95.410156"/>
      </g>
     </g>
    </g>
    <g id="ytick_4">
     <g id="line2d_14">
      <path d="M 56.09 172.144 
L 853.2 172.144 
" clip-path="url(#pc2ccff5f28)" style="fill: none; stroke: #cccccc; stroke-width: 0.8; stroke-linecap: round"/>
     </g>
     <g id="text_15">
      <!-- 0.6 -->
      <g style="fill: #262626" transform="translate(33.186875 175.943219) scale(0.1 -0.1)">
       <use xlink:href="#DejaVuSans-30"/>
       <use xlink:href="#DejaVuSans-2e" x="63.623047"/>
       <use xlink:href="#DejaVuSans-36" x="95.410156"/>
      </g>
     </g>
    </g>
    <g id="ytick_5">
     <g id="line2d_15">
      <path d="M 56.09 99.512 
L 853.2 99.512 
" clip-path="url(#pc2ccff5f28)" style="fill: none; stroke: #cccccc; stroke-width: 0.8; stroke-linecap: round"/>
     </g>
     <g id="text_16">
      <!-- 0.8 -->
      <g style="fill: #262626" transform="translate(33.186875 103.311219) scale(0.1 -0.1)">
       <use xlink:href="#DejaVuSans-30"/>
       <use xlink:href="#DejaVuSans-2e" x="63.623047"/>
       <use xlink:href="#DejaVuSans-38" x="95.410156"/>
      </g>
     </g>
    </g>
    <g id="ytick_6">
     <g id="line2d_16">
      <path d="M 56.09 26.88 
L 853.2 26.88 
" clip-path="url(#pc2ccff5f28)" style="fill: none; stroke: #cccccc; stroke-width: 0.8; stroke-linecap: round"/>
     </g>
     <g id="text_17">
      <!-- 1.0 -->
      <g style="fill: #262626" transform="translate(33.186875 30.679219) scale(0.1 -0.1)">
       <use xlink:href="#DejaVuSans-31"/>
       <use xlink:href="#DejaVuSans-2e" x="63.623047"/>
       <use xlink:href="#DejaVuSans-30" x="95.410156"/>
      </g>
     </g>
    </g>
    <g id="text_18">
     <!-- Correlation -->
     <g style="fill: #262626" transform="translate(27.107187 236.02875) rotate(-90) scale(0.1 -0.1)">
      <defs>
       <path id="DejaVuSans-43" d="M 4122 4306 
L 4122 3641 
Q 3803 3938 3442 4084 
Q 3081 4231 2675 4231 
Q 1875 4231 1450 3742 
Q 1025 3253 1025 2328 
Q 1025 1406 1450 917 
Q 1875 428 2675 428 
Q 3081 428 3442 575 
Q 3803 722 4122 1019 
L 4122 359 
Q 3791 134 3420 21 
Q 3050 -91 2638 -91 
Q 1578 -91 968 557 
Q 359 1206 359 2328 
Q 359 3453 968 4101 
Q 1578 4750 2638 4750 
Q 3056 4750 3426 4639 
Q 3797 4528 4122 4306 
z
" transform="scale(0.015625)"/>
       <path id="DejaVuSans-6f" d="M 1959 3097 
Q 1497 3097 1228 2736 
Q 959 2375 959 1747 
Q 959 1119 1226 758 
Q 1494 397 1959 397 
Q 2419 397 2687 759 
Q 2956 1122 2956 1747 
Q 2956 2369 2687 2733 
Q 2419 3097 1959 3097 
z
M 1959 3584 
Q 2709 3584 3137 3096 
Q 3566 2609 3566 1747 
Q 3566 888 3137 398 
Q 2709 -91 1959 -91 
Q 1206 -91 779 398 
Q 353 888 353 1747 
Q 353 2609 779 3096 
Q 1206 3584 1959 3584 
z
" transform="scale(0.015625)"/>
       <path id="DejaVuSans-72" d="M 2631 2963 
Q 2534 3019 2420 3045 
Q 2306 3072 2169 3072 
Q 1681 3072 1420 2755 
Q 1159 2438 1159 1844 
L 1159 0 
L 581 0 
L 581 3500 
L 1159 3500 
L 1159 2956 
Q 1341 3275 1631 3429 
Q 1922 3584 2338 3584 
Q 2397 3584 2469 3576 
Q 2541 3569 2628 3553 
L 2631 2963 
z
" transform="scale(0.015625)"/>
       <path id="DejaVuSans-65" d="M 3597 1894 
L 3597 1613 
L 953 1613 
Q 991 1019 1311 708 
Q 1631 397 2203 397 
Q 2534 397 2845 478 
Q 3156 559 3463 722 
L 3463 178 
Q 3153 47 2828 -22 
Q 2503 -91 2169 -91 
Q 1331 -91 842 396 
Q 353 884 353 1716 
Q 353 2575 817 3079 
Q 1281 3584 2069 3584 
Q 2775 3584 3186 3129 
Q 3597 2675 3597 1894 
z
M 3022 2063 
Q 3016 2534 2758 2815 
Q 2500 3097 2075 3097 
Q 1594 3097 1305 2825 
Q 1016 2553 972 2059 
L 3022 2063 
z
" transform="scale(0.015625)"/>
       <path id="DejaVuSans-6c" d="M 603 4863 
L 1178 4863 
L 1178 0 
L 603 0 
L 603 4863 
z
" transform="scale(0.015625)"/>
       <path id="DejaVuSans-61" d="M 2194 1759 
Q 1497 1759 1228 1600 
Q 959 1441 959 1056 
Q 959 750 1161 570 
Q 1363 391 1709 391 
Q 2188 391 2477 730 
Q 2766 1069 2766 1631 
L 2766 1759 
L 2194 1759 
z
M 3341 1997 
L 3341 0 
L 2766 0 
L 2766 531 
Q 2569 213 2275 61 
Q 1981 -91 1556 -91 
Q 1019 -91 701 211 
Q 384 513 384 1019 
Q 384 1609 779 1909 
Q 1175 2209 1959 2209 
L 2766 2209 
L 2766 2266 
Q 2766 2663 2505 2880 
Q 2244 3097 1772 3097 
Q 1472 3097 1187 3025 
Q 903 2953 641 2809 
L 641 3341 
Q 956 3463 1253 3523 
Q 1550 3584 1831 3584 
Q 2591 3584 2966 3190 
Q 3341 2797 3341 1997 
z
" transform="scale(0.015625)"/>
       <path id="DejaVuSans-74" d="M 1172 4494 
L 1172 3500 
L 2356 3500 
L 2356 3053 
L 1172 3053 
L 1172 1153 
Q 1172 725 1289 603 
Q 1406 481 1766 481 
L 2356 481 
L 2356 0 
L 1766 0 
Q 1100 0 847 248 
Q 594 497 594 1153 
L 594 3053 
L 172 3053 
L 172 3500 
L 594 3500 
L 594 4494 
L 1172 4494 
z
" transform="scale(0.015625)"/>
       <path id="DejaVuSans-69" d="M 603 3500 
L 1178 3500 
L 1178 0 
L 603 0 
L 603 3500 
z
M 603 4863 
L 1178 4863 
L 1178 4134 
L 603 4134 
L 603 4863 
z
" transform="scale(0.015625)"/>
       <path id="DejaVuSans-6e" d="M 3513 2113 
L 3513 0 
L 2938 0 
L 2938 2094 
Q 2938 2591 2744 2837 
Q 2550 3084 2163 3084 
Q 1697 3084 1428 2787 
Q 1159 2491 1159 1978 
L 1159 0 
L 581 0 
L 581 3500 
L 1159 3500 
L 1159 2956 
Q 1366 3272 1645 3428 
Q 1925 3584 2291 3584 
Q 2894 3584 3203 3211 
Q 3513 2838 3513 2113 
z
" transform="scale(0.015625)"/>
      </defs>
      <use xlink:href="#DejaVuSans-43"/>
      <use xlink:href="#DejaVuSans-6f" x="69.824219"/>
      <use xlink:href="#DejaVuSans-72" x="131.005859"/>
      <use xlink:href="#DejaVuSans-72" x="170.369141"/>
      <use xlink:href="#DejaVuSans-65" x="209.232422"/>
      <use xlink:href="#DejaVuSans-6c" x="270.755859"/>
      <use xlink:href="#DejaVuSans-61" x="298.539062"/>
      <use xlink:href="#DejaVuSans-74" x="359.818359"/>
      <use xlink:href="#DejaVuSans-69" x="399.027344"/>
      <use xlink:href="#DejaVuSans-6f" x="426.810547"/>
      <use xlink:href="#DejaVuSans-6e" x="487.992188"/>
     </g>
    </g>
   </g>
   <g id="PathCollection_1">
    <path d="M 292.388831 250.502734 
C 294.485446 250.502734 296.496471 249.66974 297.979001 248.18721 
C 299.461531 246.70468 300.294525 244.693655 300.294525 242.59704 
C 300.294525 240.500425 299.461531 238.4894 297.979001 237.00687 
C 296.496471 235.52434 294.485446 234.691346 292.388831 234.691346 
C 290.292217 234.691346 288.281192 235.52434 286.798661 237.00687 
C 285.316131 238.4894 284.483137 240.500425 284.483137 242.59704 
C 284.483137 244.693655 285.316131 246.70468 286.798661 248.18721 
C 288.281192 249.66974 290.292217 250.502734 292.388831 250.502734 
z
" clip-path="url(#pc2ccff5f28)" style="fill: #1f77b4; stroke: #ffffff; stroke-width: 1.264911"/>
    <path d="M 261.51138 171.697014 
L 265.464227 167.744167 
L 269.417074 171.697014 
L 273.369921 167.744167 
L 269.417074 163.79132 
L 273.369921 159.838473 
L 269.417074 155.885626 
L 265.464227 159.838473 
L 261.51138 155.885626 
L 257.558533 159.838473 
L 261.51138 163.79132 
L 257.558533 167.744167 
z
" clip-path="url(#pc2ccff5f28)" style="fill: #1f77b4; stroke: #ffffff; stroke-width: 1.264911"/>
    <path d="M 407.073703 359.75495 
L 407.073703 370.93529 
L 418.254043 370.93529 
L 418.254043 359.75495 
z
" clip-path="url(#pc2ccff5f28)" style="fill: #1f77b4; stroke: #ffffff; stroke-width: 1.264911"/>
    <path d="M 270.62296 182.954974 
L 275.893422 182.954974 
L 275.893422 177.684511 
L 281.163885 177.684511 
L 281.163885 172.414049 
L 275.893422 172.414049 
L 275.893422 167.143586 
L 270.62296 167.143586 
L 270.62296 172.414049 
L 265.352497 172.414049 
L 265.352497 177.684511 
L 270.62296 177.684511 
z
" clip-path="url(#pc2ccff5f28)" style="fill: #1f77b4; stroke: #ffffff; stroke-width: 1.264911"/>
    <path d="M 314.35364 253.938826 
L 306.447946 261.84452 
L 314.35364 269.750214 
L 322.259334 261.84452 
z
" clip-path="url(#pc2ccff5f28)" style="fill: #1f77b4; stroke: #ffffff; stroke-width: 1.264911"/>
    <path d="M 672.876004 276.454746 
L 670.080919 281.565355 
L 664.97031 284.36044 
L 670.080919 287.155525 
L 672.876004 292.266134 
L 675.671089 287.155525 
L 680.781699 284.36044 
L 675.671089 281.565355 
z
" clip-path="url(#pc2ccff5f28)" style="fill: #ff7f0e; stroke: #ffffff; stroke-width: 1.264911"/>
    <path d="M 377.856737 276.454746 
L 369.951043 292.266134 
L 385.762431 292.266134 
z
" clip-path="url(#pc2ccff5f28)" style="fill: #ff7f0e; stroke: #ffffff; stroke-width: 1.264911"/>
    <path d="M 480.14212 393.52883 
L 481.779443 399.119 
L 480.14212 404.70917 
L 485.73229 403.071847 
L 491.32246 404.70917 
L 489.685137 399.119 
L 491.32246 393.52883 
L 485.73229 395.166153 
z
" clip-path="url(#pc2ccff5f28)" style="fill: #ff7f0e; stroke: #ffffff; stroke-width: 1.264911"/>
    <path d="M 396.45597 320.229454 
L 404.361664 304.418066 
L 388.550276 304.418066 
z
" clip-path="url(#pc2ccff5f28)" style="fill: #ff7f0e; stroke: #ffffff; stroke-width: 1.264911"/>
    <path d="M 354.684682 325.451028 
L 355.214263 330.321136 
L 350.731835 332.29756 
L 355.214263 334.273984 
L 354.684682 339.144092 
L 358.637529 336.250407 
L 362.590376 339.144092 
L 362.060795 334.273984 
L 366.543223 332.29756 
L 362.060795 330.321136 
L 362.590376 325.451028 
L 358.637529 328.344713 
z
" clip-path="url(#pc2ccff5f28)" style="fill: #1f77b4; stroke: #ffffff; stroke-width: 1.264911"/>
    <path d="M 415.619313 266.619108 
L 411.666466 273.46564 
L 415.619313 280.312172 
L 423.525007 280.312172 
L 427.477854 273.46564 
L 423.525007 266.619108 
z
" clip-path="url(#pc2ccff5f28)" style="fill: #ff7f0e; stroke: #ffffff; stroke-width: 1.264911"/>
    <path d="M 354.297708 258.659906 
L 351.974283 263.36768 
L 346.778946 264.122606 
L 350.538327 267.787097 
L 349.650857 272.961441 
L 354.297708 270.518447 
L 358.944558 272.961441 
L 358.057089 267.787097 
L 361.81647 264.122606 
L 356.621133 263.36768 
z
" clip-path="url(#pc2ccff5f28)" style="fill: #1f77b4; stroke: #ffffff; stroke-width: 1.264911"/>
    <path d="M 439.057071 230.696586 
L 431.538309 236.159286 
L 434.410221 244.998121 
L 443.703922 244.998121 
L 446.575833 236.159286 
z
" clip-path="url(#pc2ccff5f28)" style="fill: #ff7f0e; stroke: #ffffff; stroke-width: 1.264911"/>
    <path d="M 405.248171 323.722136 
L 405.587863 328.38036 
L 400.970841 329.085738 
L 404.824582 331.724511 
L 402.497403 335.77404 
L 406.963247 334.406312 
L 408.678323 338.750614 
L 410.393399 334.406312 
L 414.859244 335.77404 
L 412.532064 331.724511 
L 416.385805 329.085738 
L 411.768784 328.38036 
L 412.108475 323.722136 
L 408.678323 326.892073 
z
" clip-path="url(#pc2ccff5f28)" style="fill: #1f77b4; stroke: #ffffff; stroke-width: 1.264911"/>
    <path d="M 467.422751 412.696336 
L 463.145421 418.059938 
L 464.671983 424.74824 
L 470.852903 427.724814 
L 477.033824 424.74824 
L 478.560385 418.059938 
L 474.283055 412.696336 
z
" clip-path="url(#pc2ccff5f28)" style="fill: #ff7f0e; stroke: #ffffff; stroke-width: 1.264911"/>
    <path d="M 446.408197 300.423306 
L 444.431773 304.905734 
L 439.561665 304.376153 
L 442.45535 308.329 
L 439.561665 312.281847 
L 444.431773 311.752266 
L 446.408197 316.234694 
L 448.38462 311.752266 
L 453.254729 312.281847 
L 450.361044 308.329 
L 453.254729 304.376153 
L 448.38462 304.905734 
z
" clip-path="url(#pc2ccff5f28)" style="fill: #ff7f0e; stroke: #ffffff; stroke-width: 1.264911"/>
    <path d="M 480.329656 421.718746 
L 473.483124 425.671593 
L 473.483124 433.577287 
L 480.329656 437.530134 
L 487.176188 433.577287 
L 487.176188 425.671593 
z
" clip-path="url(#pc2ccff5f28)" style="fill: #ff7f0e; stroke: #ffffff; stroke-width: 1.264911"/>
   </g>
   <g id="line2d_17"/>
   <g id="line2d_18"/>
   <g id="line2d_19"/>
   <g id="line2d_20"/>
   <g id="line2d_21"/>
   <g id="line2d_22"/>
   <g id="line2d_23"/>
   <g id="line2d_24"/>
   <g id="line2d_25"/>
   <g id="line2d_26"/>
   <g id="line2d_27"/>
   <g id="line2d_28"/>
   <g id="line2d_29"/>
   <g id="line2d_30"/>
   <g id="line2d_31"/>
   <g id="line2d_32"/>
   <g id="line2d_33"/>
   <g id="line2d_34"/>
   <g id="line2d_35"/>
   <g id="line2d_36"/>
   <g id="line2d_37"/>
   <g id="patch_3">
    <path d="M 56.09 390.04 
L 56.09 26.88 
" style="fill: none; stroke: #cccccc; stroke-width: 0.8; stroke-linejoin: miter; stroke-linecap: square"/>
   </g>
   <g id="patch_4">
    <path d="M 853.2 390.04 
L 853.2 26.88 
" style="fill: none; stroke: #cccccc; stroke-width: 0.8; stroke-linejoin: miter; stroke-linecap: square"/>
   </g>
   <g id="patch_5">
    <path d="M 56.09 390.04 
L 853.2 390.04 
" style="fill: none; stroke: #cccccc; stroke-width: 0.8; stroke-linejoin: miter; stroke-linecap: square"/>
   </g>
   <g id="patch_6">
    <path d="M 56.09 26.88 
L 853.2 26.88 
" style="fill: none; stroke: #cccccc; stroke-width: 0.8; stroke-linejoin: miter; stroke-linecap: square"/>
   </g>
   <g id="text_19">
    <!-- MAE and Pearson Correlation Face vs Normal -->
    <g style="fill: #262626" transform="translate(319.9675 20.88) scale(0.12 -0.12)">
     <defs>
      <path id="DejaVuSans-64" d="M 2906 2969 
L 2906 4863 
L 3481 4863 
L 3481 0 
L 2906 0 
L 2906 525 
Q 2725 213 2448 61 
Q 2172 -91 1784 -91 
Q 1150 -91 751 415 
Q 353 922 353 1747 
Q 353 2572 751 3078 
Q 1150 3584 1784 3584 
Q 2172 3584 2448 3432 
Q 2725 3281 2906 2969 
z
M 947 1747 
Q 947 1113 1208 752 
Q 1469 391 1925 391 
Q 2381 391 2643 752 
Q 2906 1113 2906 1747 
Q 2906 2381 2643 2742 
Q 2381 3103 1925 3103 
Q 1469 3103 1208 2742 
Q 947 2381 947 1747 
z
" transform="scale(0.015625)"/>
      <path id="DejaVuSans-73" d="M 2834 3397 
L 2834 2853 
Q 2591 2978 2328 3040 
Q 2066 3103 1784 3103 
Q 1356 3103 1142 2972 
Q 928 2841 928 2578 
Q 928 2378 1081 2264 
Q 1234 2150 1697 2047 
L 1894 2003 
Q 2506 1872 2764 1633 
Q 3022 1394 3022 966 
Q 3022 478 2636 193 
Q 2250 -91 1575 -91 
Q 1294 -91 989 -36 
Q 684 19 347 128 
L 347 722 
Q 666 556 975 473 
Q 1284 391 1588 391 
Q 1994 391 2212 530 
Q 2431 669 2431 922 
Q 2431 1156 2273 1281 
Q 2116 1406 1581 1522 
L 1381 1569 
Q 847 1681 609 1914 
Q 372 2147 372 2553 
Q 372 3047 722 3315 
Q 1072 3584 1716 3584 
Q 2034 3584 2315 3537 
Q 2597 3491 2834 3397 
z
" transform="scale(0.015625)"/>
      <path id="DejaVuSans-46" d="M 628 4666 
L 3309 4666 
L 3309 4134 
L 1259 4134 
L 1259 2759 
L 3109 2759 
L 3109 2228 
L 1259 2228 
L 1259 0 
L 628 0 
L 628 4666 
z
" transform="scale(0.015625)"/>
      <path id="DejaVuSans-63" d="M 3122 3366 
L 3122 2828 
Q 2878 2963 2633 3030 
Q 2388 3097 2138 3097 
Q 1578 3097 1268 2742 
Q 959 2388 959 1747 
Q 959 1106 1268 751 
Q 1578 397 2138 397 
Q 2388 397 2633 464 
Q 2878 531 3122 666 
L 3122 134 
Q 2881 22 2623 -34 
Q 2366 -91 2075 -91 
Q 1284 -91 818 406 
Q 353 903 353 1747 
Q 353 2603 823 3093 
Q 1294 3584 2113 3584 
Q 2378 3584 2631 3529 
Q 2884 3475 3122 3366 
z
" transform="scale(0.015625)"/>
      <path id="DejaVuSans-76" d="M 191 3500 
L 800 3500 
L 1894 563 
L 2988 3500 
L 3597 3500 
L 2284 0 
L 1503 0 
L 191 3500 
z
" transform="scale(0.015625)"/>
      <path id="DejaVuSans-4e" d="M 628 4666 
L 1478 4666 
L 3547 763 
L 3547 4666 
L 4159 4666 
L 4159 0 
L 3309 0 
L 1241 3903 
L 1241 0 
L 628 0 
L 628 4666 
z
" transform="scale(0.015625)"/>
      <path id="DejaVuSans-6d" d="M 3328 2828 
Q 3544 3216 3844 3400 
Q 4144 3584 4550 3584 
Q 5097 3584 5394 3201 
Q 5691 2819 5691 2113 
L 5691 0 
L 5113 0 
L 5113 2094 
Q 5113 2597 4934 2840 
Q 4756 3084 4391 3084 
Q 3944 3084 3684 2787 
Q 3425 2491 3425 1978 
L 3425 0 
L 2847 0 
L 2847 2094 
Q 2847 2600 2669 2842 
Q 2491 3084 2119 3084 
Q 1678 3084 1418 2786 
Q 1159 2488 1159 1978 
L 1159 0 
L 581 0 
L 581 3500 
L 1159 3500 
L 1159 2956 
Q 1356 3278 1631 3431 
Q 1906 3584 2284 3584 
Q 2666 3584 2933 3390 
Q 3200 3197 3328 2828 
z
" transform="scale(0.015625)"/>
     </defs>
     <use xlink:href="#DejaVuSans-4d"/>
     <use xlink:href="#DejaVuSans-41" x="86.279297"/>
     <use xlink:href="#DejaVuSans-45" x="154.6875"/>
     <use xlink:href="#DejaVuSans-20" x="217.871094"/>
     <use xlink:href="#DejaVuSans-61" x="249.658203"/>
     <use xlink:href="#DejaVuSans-6e" x="310.9375"/>
     <use xlink:href="#DejaVuSans-64" x="374.316406"/>
     <use xlink:href="#DejaVuSans-20" x="437.792969"/>
     <use xlink:href="#DejaVuSans-50" x="469.580078"/>
     <use xlink:href="#DejaVuSans-65" x="526.257812"/>
     <use xlink:href="#DejaVuSans-61" x="587.78125"/>
     <use xlink:href="#DejaVuSans-72" x="649.060547"/>
     <use xlink:href="#DejaVuSans-73" x="690.173828"/>
     <use xlink:href="#DejaVuSans-6f" x="742.273438"/>
     <use xlink:href="#DejaVuSans-6e" x="803.455078"/>
     <use xlink:href="#DejaVuSans-20" x="866.833984"/>
     <use xlink:href="#DejaVuSans-43" x="898.621094"/>
     <use xlink:href="#DejaVuSans-6f" x="968.445312"/>
     <use xlink:href="#DejaVuSans-72" x="1029.626953"/>
     <use xlink:href="#DejaVuSans-72" x="1068.990234"/>
     <use xlink:href="#DejaVuSans-65" x="1107.853516"/>
     <use xlink:href="#DejaVuSans-6c" x="1169.376953"/>
     <use xlink:href="#DejaVuSans-61" x="1197.160156"/>
     <use xlink:href="#DejaVuSans-74" x="1258.439453"/>
     <use xlink:href="#DejaVuSans-69" x="1297.648438"/>
     <use xlink:href="#DejaVuSans-6f" x="1325.431641"/>
     <use xlink:href="#DejaVuSans-6e" x="1386.613281"/>
     <use xlink:href="#DejaVuSans-20" x="1449.992188"/>
     <use xlink:href="#DejaVuSans-46" x="1481.779297"/>
     <use xlink:href="#DejaVuSans-61" x="1530.173828"/>
     <use xlink:href="#DejaVuSans-63" x="1591.453125"/>
     <use xlink:href="#DejaVuSans-65" x="1646.433594"/>
     <use xlink:href="#DejaVuSans-20" x="1707.957031"/>
     <use xlink:href="#DejaVuSans-76" x="1739.744141"/>
     <use xlink:href="#DejaVuSans-73" x="1798.923828"/>
     <use xlink:href="#DejaVuSans-20" x="1851.023438"/>
     <use xlink:href="#DejaVuSans-4e" x="1882.810547"/>
     <use xlink:href="#DejaVuSans-6f" x="1957.615234"/>
     <use xlink:href="#DejaVuSans-72" x="2018.796875"/>
     <use xlink:href="#DejaVuSans-6d" x="2058.160156"/>
     <use xlink:href="#DejaVuSans-61" x="2155.572266"/>
     <use xlink:href="#DejaVuSans-6c" x="2216.851562"/>
    </g>
   </g>
   <g id="legend_1">
    <g id="patch_7">
     <path d="M 702.425 348.405 
L 846.2 348.405 
Q 848.2 348.405 848.2 346.405 
L 848.2 33.88 
Q 848.2 31.88 846.2 31.88 
L 702.425 31.88 
Q 700.425 31.88 700.425 33.88 
L 700.425 346.405 
Q 700.425 348.405 702.425 348.405 
z
" style="fill: #ffffff; opacity: 0.8; stroke: #cccccc; stroke-linejoin: miter"/>
    </g>
    <g id="line2d_38"/>
    <g id="text_20">
     <!-- setting -->
     <g style="fill: #262626" transform="translate(732.425 43.478437) scale(0.1 -0.1)">
      <defs>
       <path id="DejaVuSans-67" d="M 2906 1791 
Q 2906 2416 2648 2759 
Q 2391 3103 1925 3103 
Q 1463 3103 1205 2759 
Q 947 2416 947 1791 
Q 947 1169 1205 825 
Q 1463 481 1925 481 
Q 2391 481 2648 825 
Q 2906 1169 2906 1791 
z
M 3481 434 
Q 3481 -459 3084 -895 
Q 2688 -1331 1869 -1331 
Q 1566 -1331 1297 -1286 
Q 1028 -1241 775 -1147 
L 775 -588 
Q 1028 -725 1275 -790 
Q 1522 -856 1778 -856 
Q 2344 -856 2625 -561 
Q 2906 -266 2906 331 
L 2906 616 
Q 2728 306 2450 153 
Q 2172 0 1784 0 
Q 1141 0 747 490 
Q 353 981 353 1791 
Q 353 2603 747 3093 
Q 1141 3584 1784 3584 
Q 2172 3584 2450 3431 
Q 2728 3278 2906 2969 
L 2906 3500 
L 3481 3500 
L 3481 434 
z
" transform="scale(0.015625)"/>
      </defs>
      <use xlink:href="#DejaVuSans-73"/>
      <use xlink:href="#DejaVuSans-65" x="52.099609"/>
      <use xlink:href="#DejaVuSans-74" x="113.623047"/>
      <use xlink:href="#DejaVuSans-74" x="152.832031"/>
      <use xlink:href="#DejaVuSans-69" x="192.041016"/>
      <use xlink:href="#DejaVuSans-6e" x="219.824219"/>
      <use xlink:href="#DejaVuSans-67" x="283.203125"/>
     </g>
    </g>
    <g id="line2d_39">
     <defs>
      <path id="mfaa11a6b4c" d="M 0 7.905694 
C 2.096615 7.905694 4.10764 7.0727 5.59017 5.59017 
C 7.0727 4.10764 7.905694 2.096615 7.905694 0 
C 7.905694 -2.096615 7.0727 -4.10764 5.59017 -5.59017 
C 4.10764 -7.0727 2.096615 -7.905694 0 -7.905694 
C -2.096615 -7.905694 -4.10764 -7.0727 -5.59017 -5.59017 
C -7.0727 -4.10764 -7.905694 -2.096615 -7.905694 0 
C -7.905694 2.096615 -7.0727 4.10764 -5.59017 5.59017 
C -4.10764 7.0727 -2.096615 7.905694 0 7.905694 
z
" style="stroke: #ffffff; stroke-width: 1.264911"/>
     </defs>
     <g>
      <use xlink:href="#mfaa11a6b4c" x="714.425" y="54.656563" style="fill: #1f77b4; stroke: #ffffff; stroke-width: 1.264911"/>
     </g>
    </g>
    <g id="text_21">
     <!-- 101_natural_lighting -->
     <g style="fill: #262626" transform="translate(732.425 58.156563) scale(0.1 -0.1)">
      <defs>
       <path id="DejaVuSans-5f" d="M 3263 -1063 
L 3263 -1509 
L -63 -1509 
L -63 -1063 
L 3263 -1063 
z
" transform="scale(0.015625)"/>
       <path id="DejaVuSans-75" d="M 544 1381 
L 544 3500 
L 1119 3500 
L 1119 1403 
Q 1119 906 1312 657 
Q 1506 409 1894 409 
Q 2359 409 2629 706 
Q 2900 1003 2900 1516 
L 2900 3500 
L 3475 3500 
L 3475 0 
L 2900 0 
L 2900 538 
Q 2691 219 2414 64 
Q 2138 -91 1772 -91 
Q 1169 -91 856 284 
Q 544 659 544 1381 
z
M 1991 3584 
L 1991 3584 
z
" transform="scale(0.015625)"/>
       <path id="DejaVuSans-68" d="M 3513 2113 
L 3513 0 
L 2938 0 
L 2938 2094 
Q 2938 2591 2744 2837 
Q 2550 3084 2163 3084 
Q 1697 3084 1428 2787 
Q 1159 2491 1159 1978 
L 1159 0 
L 581 0 
L 581 4863 
L 1159 4863 
L 1159 2956 
Q 1366 3272 1645 3428 
Q 1925 3584 2291 3584 
Q 2894 3584 3203 3211 
Q 3513 2838 3513 2113 
z
" transform="scale(0.015625)"/>
      </defs>
      <use xlink:href="#DejaVuSans-31"/>
      <use xlink:href="#DejaVuSans-30" x="63.623047"/>
      <use xlink:href="#DejaVuSans-31" x="127.246094"/>
      <use xlink:href="#DejaVuSans-5f" x="190.869141"/>
      <use xlink:href="#DejaVuSans-6e" x="240.869141"/>
      <use xlink:href="#DejaVuSans-61" x="304.248047"/>
      <use xlink:href="#DejaVuSans-74" x="365.527344"/>
      <use xlink:href="#DejaVuSans-75" x="404.736328"/>
      <use xlink:href="#DejaVuSans-72" x="468.115234"/>
      <use xlink:href="#DejaVuSans-61" x="509.228516"/>
      <use xlink:href="#DejaVuSans-6c" x="570.507812"/>
      <use xlink:href="#DejaVuSans-5f" x="598.291016"/>
      <use xlink:href="#DejaVuSans-6c" x="648.291016"/>
      <use xlink:href="#DejaVuSans-69" x="676.074219"/>
      <use xlink:href="#DejaVuSans-67" x="703.857422"/>
      <use xlink:href="#DejaVuSans-68" x="767.333984"/>
      <use xlink:href="#DejaVuSans-74" x="830.712891"/>
      <use xlink:href="#DejaVuSans-69" x="869.921875"/>
      <use xlink:href="#DejaVuSans-6e" x="897.705078"/>
      <use xlink:href="#DejaVuSans-67" x="961.083984"/>
     </g>
    </g>
    <g id="line2d_40">
     <defs>
      <path id="mb2283fc813" d="M 0 7.905694 
C 2.096615 7.905694 4.10764 7.0727 5.59017 5.59017 
C 7.0727 4.10764 7.905694 2.096615 7.905694 0 
C 7.905694 -2.096615 7.0727 -4.10764 5.59017 -5.59017 
C 4.10764 -7.0727 2.096615 -7.905694 0 -7.905694 
C -2.096615 -7.905694 -4.10764 -7.0727 -5.59017 -5.59017 
C -7.0727 -4.10764 -7.905694 -2.096615 -7.905694 0 
C -7.905694 2.096615 -7.0727 4.10764 -5.59017 5.59017 
C -4.10764 7.0727 -2.096615 7.905694 0 7.905694 
z
" style="stroke: #ffffff; stroke-width: 1.264911"/>
     </defs>
     <g>
      <use xlink:href="#mb2283fc813" x="714.425" y="69.612813" style="fill: #ff7f0e; stroke: #ffffff; stroke-width: 1.264911"/>
     </g>
    </g>
    <g id="text_22">
     <!-- 303_normalized_face -->
     <g style="fill: #262626" transform="translate(732.425 73.112813) scale(0.1 -0.1)">
      <defs>
       <path id="DejaVuSans-7a" d="M 353 3500 
L 3084 3500 
L 3084 2975 
L 922 459 
L 3084 459 
L 3084 0 
L 275 0 
L 275 525 
L 2438 3041 
L 353 3041 
L 353 3500 
z
" transform="scale(0.015625)"/>
       <path id="DejaVuSans-66" d="M 2375 4863 
L 2375 4384 
L 1825 4384 
Q 1516 4384 1395 4259 
Q 1275 4134 1275 3809 
L 1275 3500 
L 2222 3500 
L 2222 3053 
L 1275 3053 
L 1275 0 
L 697 0 
L 697 3053 
L 147 3053 
L 147 3500 
L 697 3500 
L 697 3744 
Q 697 4328 969 4595 
Q 1241 4863 1831 4863 
L 2375 4863 
z
" transform="scale(0.015625)"/>
      </defs>
      <use xlink:href="#DejaVuSans-33"/>
      <use xlink:href="#DejaVuSans-30" x="63.623047"/>
      <use xlink:href="#DejaVuSans-33" x="127.246094"/>
      <use xlink:href="#DejaVuSans-5f" x="190.869141"/>
      <use xlink:href="#DejaVuSans-6e" x="240.869141"/>
      <use xlink:href="#DejaVuSans-6f" x="304.248047"/>
      <use xlink:href="#DejaVuSans-72" x="365.429688"/>
      <use xlink:href="#DejaVuSans-6d" x="404.792969"/>
      <use xlink:href="#DejaVuSans-61" x="502.205078"/>
      <use xlink:href="#DejaVuSans-6c" x="563.484375"/>
      <use xlink:href="#DejaVuSans-69" x="591.267578"/>
      <use xlink:href="#DejaVuSans-7a" x="619.050781"/>
      <use xlink:href="#DejaVuSans-65" x="671.541016"/>
      <use xlink:href="#DejaVuSans-64" x="733.064453"/>
      <use xlink:href="#DejaVuSans-5f" x="796.541016"/>
      <use xlink:href="#DejaVuSans-66" x="846.541016"/>
      <use xlink:href="#DejaVuSans-61" x="881.746094"/>
      <use xlink:href="#DejaVuSans-63" x="943.025391"/>
      <use xlink:href="#DejaVuSans-65" x="998.005859"/>
     </g>
    </g>
    <g id="line2d_41"/>
    <g id="text_23">
     <!-- model -->
     <g style="fill: #262626" transform="translate(732.425 88.069063) scale(0.1 -0.1)">
      <use xlink:href="#DejaVuSans-6d"/>
      <use xlink:href="#DejaVuSans-6f" x="97.412109"/>
      <use xlink:href="#DejaVuSans-64" x="158.59375"/>
      <use xlink:href="#DejaVuSans-65" x="222.070312"/>
      <use xlink:href="#DejaVuSans-6c" x="283.59375"/>
     </g>
    </g>
    <g id="line2d_42">
     <defs>
      <path id="ma91f0edf28" d="M 0 7.905694 
C 2.096615 7.905694 4.10764 7.0727 5.59017 5.59017 
C 7.0727 4.10764 7.905694 2.096615 7.905694 0 
C 7.905694 -2.096615 7.0727 -4.10764 5.59017 -5.59017 
C 4.10764 -7.0727 2.096615 -7.905694 0 -7.905694 
C -2.096615 -7.905694 -4.10764 -7.0727 -5.59017 -5.59017 
C -7.0727 -4.10764 -7.905694 -2.096615 -7.905694 0 
C -7.905694 2.096615 -7.0727 4.10764 -5.59017 5.59017 
C -4.10764 7.0727 -2.096615 7.905694 0 7.905694 
z
" style="stroke: #ffffff; stroke-width: 1.264911"/>
     </defs>
     <g>
      <use xlink:href="#ma91f0edf28" x="714.425" y="99.247187" style="fill: #333333; stroke: #ffffff; stroke-width: 1.264911"/>
     </g>
    </g>
    <g id="text_24">
     <!-- RF_20240902_123124 -->
     <g style="fill: #262626" transform="translate(732.425 102.747187) scale(0.1 -0.1)">
      <defs>
       <path id="DejaVuSans-52" d="M 2841 2188 
Q 3044 2119 3236 1894 
Q 3428 1669 3622 1275 
L 4263 0 
L 3584 0 
L 2988 1197 
Q 2756 1666 2539 1819 
Q 2322 1972 1947 1972 
L 1259 1972 
L 1259 0 
L 628 0 
L 628 4666 
L 2053 4666 
Q 2853 4666 3247 4331 
Q 3641 3997 3641 3322 
Q 3641 2881 3436 2590 
Q 3231 2300 2841 2188 
z
M 1259 4147 
L 1259 2491 
L 2053 2491 
Q 2509 2491 2742 2702 
Q 2975 2913 2975 3322 
Q 2975 3731 2742 3939 
Q 2509 4147 2053 4147 
L 1259 4147 
z
" transform="scale(0.015625)"/>
      </defs>
      <use xlink:href="#DejaVuSans-52"/>
      <use xlink:href="#DejaVuSans-46" x="69.482422"/>
      <use xlink:href="#DejaVuSans-5f" x="127.001953"/>
      <use xlink:href="#DejaVuSans-32" x="177.001953"/>
      <use xlink:href="#DejaVuSans-30" x="240.625"/>
      <use xlink:href="#DejaVuSans-32" x="304.248047"/>
      <use xlink:href="#DejaVuSans-34" x="367.871094"/>
      <use xlink:href="#DejaVuSans-30" x="431.494141"/>
      <use xlink:href="#DejaVuSans-39" x="495.117188"/>
      <use xlink:href="#DejaVuSans-30" x="558.740234"/>
      <use xlink:href="#DejaVuSans-32" x="622.363281"/>
      <use xlink:href="#DejaVuSans-5f" x="685.986328"/>
      <use xlink:href="#DejaVuSans-31" x="735.986328"/>
      <use xlink:href="#DejaVuSans-32" x="799.609375"/>
      <use xlink:href="#DejaVuSans-33" x="863.232422"/>
      <use xlink:href="#DejaVuSans-31" x="926.855469"/>
      <use xlink:href="#DejaVuSans-32" x="990.478516"/>
      <use xlink:href="#DejaVuSans-34" x="1054.101562"/>
     </g>
    </g>
    <g id="line2d_43">
     <defs>
      <path id="m4979d4d79f" d="M -3.952847 7.905694 
L 0 3.952847 
L 3.952847 7.905694 
L 7.905694 3.952847 
L 3.952847 0 
L 7.905694 -3.952847 
L 3.952847 -7.905694 
L 0 -3.952847 
L -3.952847 -7.905694 
L -7.905694 -3.952847 
L -3.952847 0 
L -7.905694 3.952847 
z
" style="stroke: #ffffff; stroke-width: 1.264911; stroke-linejoin: miter"/>
     </defs>
     <g>
      <use xlink:href="#m4979d4d79f" x="714.425" y="114.203438" style="fill: #333333; stroke: #ffffff; stroke-width: 1.264911; stroke-linejoin: miter"/>
     </g>
    </g>
    <g id="text_25">
     <!-- RF_20240902_210159 -->
     <g style="fill: #262626" transform="translate(732.425 117.703438) scale(0.1 -0.1)">
      <use xlink:href="#DejaVuSans-52"/>
      <use xlink:href="#DejaVuSans-46" x="69.482422"/>
      <use xlink:href="#DejaVuSans-5f" x="127.001953"/>
      <use xlink:href="#DejaVuSans-32" x="177.001953"/>
      <use xlink:href="#DejaVuSans-30" x="240.625"/>
      <use xlink:href="#DejaVuSans-32" x="304.248047"/>
      <use xlink:href="#DejaVuSans-34" x="367.871094"/>
      <use xlink:href="#DejaVuSans-30" x="431.494141"/>
      <use xlink:href="#DejaVuSans-39" x="495.117188"/>
      <use xlink:href="#DejaVuSans-30" x="558.740234"/>
      <use xlink:href="#DejaVuSans-32" x="622.363281"/>
      <use xlink:href="#DejaVuSans-5f" x="685.986328"/>
      <use xlink:href="#DejaVuSans-32" x="735.986328"/>
      <use xlink:href="#DejaVuSans-31" x="799.609375"/>
      <use xlink:href="#DejaVuSans-30" x="863.232422"/>
      <use xlink:href="#DejaVuSans-31" x="926.855469"/>
      <use xlink:href="#DejaVuSans-35" x="990.478516"/>
      <use xlink:href="#DejaVuSans-39" x="1054.101562"/>
     </g>
    </g>
    <g id="line2d_44">
     <defs>
      <path id="m428cf2d7bc" d="M -5.59017 -5.59017 
L -5.59017 5.59017 
L 5.59017 5.59017 
L 5.59017 -5.59017 
z
" style="stroke: #ffffff; stroke-width: 1.264911; stroke-linejoin: miter"/>
     </defs>
     <g>
      <use xlink:href="#m428cf2d7bc" x="714.425" y="129.159688" style="fill: #333333; stroke: #ffffff; stroke-width: 1.264911; stroke-linejoin: miter"/>
     </g>
    </g>
    <g id="text_26">
     <!-- RF_20240903_023334 -->
     <g style="fill: #262626" transform="translate(732.425 132.659688) scale(0.1 -0.1)">
      <use xlink:href="#DejaVuSans-52"/>
      <use xlink:href="#DejaVuSans-46" x="69.482422"/>
      <use xlink:href="#DejaVuSans-5f" x="127.001953"/>
      <use xlink:href="#DejaVuSans-32" x="177.001953"/>
      <use xlink:href="#DejaVuSans-30" x="240.625"/>
      <use xlink:href="#DejaVuSans-32" x="304.248047"/>
      <use xlink:href="#DejaVuSans-34" x="367.871094"/>
      <use xlink:href="#DejaVuSans-30" x="431.494141"/>
      <use xlink:href="#DejaVuSans-39" x="495.117188"/>
      <use xlink:href="#DejaVuSans-30" x="558.740234"/>
      <use xlink:href="#DejaVuSans-33" x="622.363281"/>
      <use xlink:href="#DejaVuSans-5f" x="685.986328"/>
      <use xlink:href="#DejaVuSans-30" x="735.986328"/>
      <use xlink:href="#DejaVuSans-32" x="799.609375"/>
      <use xlink:href="#DejaVuSans-33" x="863.232422"/>
      <use xlink:href="#DejaVuSans-33" x="926.855469"/>
      <use xlink:href="#DejaVuSans-33" x="990.478516"/>
      <use xlink:href="#DejaVuSans-34" x="1054.101562"/>
     </g>
    </g>
    <g id="line2d_45">
     <defs>
      <path id="mfe64384bd6" d="M -2.635231 7.905694 
L 2.635231 7.905694 
L 2.635231 2.635231 
L 7.905694 2.635231 
L 7.905694 -2.635231 
L 2.635231 -2.635231 
L 2.635231 -7.905694 
L -2.635231 -7.905694 
L -2.635231 -2.635231 
L -7.905694 -2.635231 
L -7.905694 2.635231 
L -2.635231 2.635231 
z
" style="stroke: #ffffff; stroke-width: 1.264911; stroke-linejoin: miter"/>
     </defs>
     <g>
      <use xlink:href="#mfe64384bd6" x="714.425" y="144.115937" style="fill: #333333; stroke: #ffffff; stroke-width: 1.264911; stroke-linejoin: miter"/>
     </g>
    </g>
    <g id="text_27">
     <!-- RF_20240903_051739 -->
     <g style="fill: #262626" transform="translate(732.425 147.615937) scale(0.1 -0.1)">
      <use xlink:href="#DejaVuSans-52"/>
      <use xlink:href="#DejaVuSans-46" x="69.482422"/>
      <use xlink:href="#DejaVuSans-5f" x="127.001953"/>
      <use xlink:href="#DejaVuSans-32" x="177.001953"/>
      <use xlink:href="#DejaVuSans-30" x="240.625"/>
      <use xlink:href="#DejaVuSans-32" x="304.248047"/>
      <use xlink:href="#DejaVuSans-34" x="367.871094"/>
      <use xlink:href="#DejaVuSans-30" x="431.494141"/>
      <use xlink:href="#DejaVuSans-39" x="495.117188"/>
      <use xlink:href="#DejaVuSans-30" x="558.740234"/>
      <use xlink:href="#DejaVuSans-33" x="622.363281"/>
      <use xlink:href="#DejaVuSans-5f" x="685.986328"/>
      <use xlink:href="#DejaVuSans-30" x="735.986328"/>
      <use xlink:href="#DejaVuSans-35" x="799.609375"/>
      <use xlink:href="#DejaVuSans-31" x="863.232422"/>
      <use xlink:href="#DejaVuSans-37" x="926.855469"/>
      <use xlink:href="#DejaVuSans-33" x="990.478516"/>
      <use xlink:href="#DejaVuSans-39" x="1054.101562"/>
     </g>
    </g>
    <g id="line2d_46">
     <defs>
      <path id="m04e503c693" d="M 0 -7.905694 
L -7.905694 -0 
L -0 7.905694 
L 7.905694 0 
z
" style="stroke: #ffffff; stroke-width: 1.264911; stroke-linejoin: miter"/>
     </defs>
     <g>
      <use xlink:href="#m04e503c693" x="714.425" y="159.072187" style="fill: #333333; stroke: #ffffff; stroke-width: 1.264911; stroke-linejoin: miter"/>
     </g>
    </g>
    <g id="text_28">
     <!-- RF_20240903_104800 -->
     <g style="fill: #262626" transform="translate(732.425 162.572187) scale(0.1 -0.1)">
      <use xlink:href="#DejaVuSans-52"/>
      <use xlink:href="#DejaVuSans-46" x="69.482422"/>
      <use xlink:href="#DejaVuSans-5f" x="127.001953"/>
      <use xlink:href="#DejaVuSans-32" x="177.001953"/>
      <use xlink:href="#DejaVuSans-30" x="240.625"/>
      <use xlink:href="#DejaVuSans-32" x="304.248047"/>
      <use xlink:href="#DejaVuSans-34" x="367.871094"/>
      <use xlink:href="#DejaVuSans-30" x="431.494141"/>
      <use xlink:href="#DejaVuSans-39" x="495.117188"/>
      <use xlink:href="#DejaVuSans-30" x="558.740234"/>
      <use xlink:href="#DejaVuSans-33" x="622.363281"/>
      <use xlink:href="#DejaVuSans-5f" x="685.986328"/>
      <use xlink:href="#DejaVuSans-31" x="735.986328"/>
      <use xlink:href="#DejaVuSans-30" x="799.609375"/>
      <use xlink:href="#DejaVuSans-34" x="863.232422"/>
      <use xlink:href="#DejaVuSans-38" x="926.855469"/>
      <use xlink:href="#DejaVuSans-30" x="990.478516"/>
      <use xlink:href="#DejaVuSans-30" x="1054.101562"/>
     </g>
    </g>
    <g id="line2d_47">
     <defs>
      <path id="mcd54939830" d="M 0 -7.905694 
L -2.795085 -2.795085 
L -7.905694 -0 
L -2.795085 2.795085 
L -0 7.905694 
L 2.795085 2.795085 
L 7.905694 0 
L 2.795085 -2.795085 
z
" style="stroke: #ffffff; stroke-width: 1.264911; stroke-linejoin: bevel"/>
     </defs>
     <g>
      <use xlink:href="#mcd54939830" x="714.425" y="174.028437" style="fill: #333333; stroke: #ffffff; stroke-width: 1.264911; stroke-linejoin: bevel"/>
     </g>
    </g>
    <g id="text_29">
     <!-- RF_20240903_230906 -->
     <g style="fill: #262626" transform="translate(732.425 177.528437) scale(0.1 -0.1)">
      <use xlink:href="#DejaVuSans-52"/>
      <use xlink:href="#DejaVuSans-46" x="69.482422"/>
      <use xlink:href="#DejaVuSans-5f" x="127.001953"/>
      <use xlink:href="#DejaVuSans-32" x="177.001953"/>
      <use xlink:href="#DejaVuSans-30" x="240.625"/>
      <use xlink:href="#DejaVuSans-32" x="304.248047"/>
      <use xlink:href="#DejaVuSans-34" x="367.871094"/>
      <use xlink:href="#DejaVuSans-30" x="431.494141"/>
      <use xlink:href="#DejaVuSans-39" x="495.117188"/>
      <use xlink:href="#DejaVuSans-30" x="558.740234"/>
      <use xlink:href="#DejaVuSans-33" x="622.363281"/>
      <use xlink:href="#DejaVuSans-5f" x="685.986328"/>
      <use xlink:href="#DejaVuSans-32" x="735.986328"/>
      <use xlink:href="#DejaVuSans-33" x="799.609375"/>
      <use xlink:href="#DejaVuSans-30" x="863.232422"/>
      <use xlink:href="#DejaVuSans-39" x="926.855469"/>
      <use xlink:href="#DejaVuSans-30" x="990.478516"/>
      <use xlink:href="#DejaVuSans-36" x="1054.101562"/>
     </g>
    </g>
    <g id="line2d_48">
     <defs>
      <path id="m046e871ec0" d="M 0 -7.905694 
L -7.905694 7.905694 
L 7.905694 7.905694 
z
" style="stroke: #ffffff; stroke-width: 1.264911; stroke-linejoin: miter"/>
     </defs>
     <g>
      <use xlink:href="#m046e871ec0" x="714.425" y="188.984688" style="fill: #333333; stroke: #ffffff; stroke-width: 1.264911; stroke-linejoin: miter"/>
     </g>
    </g>
    <g id="text_30">
     <!-- RF_20240904_001421 -->
     <g style="fill: #262626" transform="translate(732.425 192.484688) scale(0.1 -0.1)">
      <use xlink:href="#DejaVuSans-52"/>
      <use xlink:href="#DejaVuSans-46" x="69.482422"/>
      <use xlink:href="#DejaVuSans-5f" x="127.001953"/>
      <use xlink:href="#DejaVuSans-32" x="177.001953"/>
      <use xlink:href="#DejaVuSans-30" x="240.625"/>
      <use xlink:href="#DejaVuSans-32" x="304.248047"/>
      <use xlink:href="#DejaVuSans-34" x="367.871094"/>
      <use xlink:href="#DejaVuSans-30" x="431.494141"/>
      <use xlink:href="#DejaVuSans-39" x="495.117188"/>
      <use xlink:href="#DejaVuSans-30" x="558.740234"/>
      <use xlink:href="#DejaVuSans-34" x="622.363281"/>
      <use xlink:href="#DejaVuSans-5f" x="685.986328"/>
      <use xlink:href="#DejaVuSans-30" x="735.986328"/>
      <use xlink:href="#DejaVuSans-30" x="799.609375"/>
      <use xlink:href="#DejaVuSans-31" x="863.232422"/>
      <use xlink:href="#DejaVuSans-34" x="926.855469"/>
      <use xlink:href="#DejaVuSans-32" x="990.478516"/>
      <use xlink:href="#DejaVuSans-31" x="1054.101562"/>
     </g>
    </g>
    <g id="line2d_49">
     <defs>
      <path id="m72c8b933e9" d="M -5.59017 -5.59017 
L -3.952847 -0 
L -5.59017 5.59017 
L -0 3.952847 
L 5.59017 5.59017 
L 3.952847 0 
L 5.59017 -5.59017 
L 0 -3.952847 
z
" style="stroke: #ffffff; stroke-width: 1.264911; stroke-linejoin: bevel"/>
     </defs>
     <g>
      <use xlink:href="#m72c8b933e9" x="714.425" y="203.940938" style="fill: #333333; stroke: #ffffff; stroke-width: 1.264911; stroke-linejoin: bevel"/>
     </g>
    </g>
    <g id="text_31">
     <!-- RF_20240904_011940 -->
     <g style="fill: #262626" transform="translate(732.425 207.440938) scale(0.1 -0.1)">
      <use xlink:href="#DejaVuSans-52"/>
      <use xlink:href="#DejaVuSans-46" x="69.482422"/>
      <use xlink:href="#DejaVuSans-5f" x="127.001953"/>
      <use xlink:href="#DejaVuSans-32" x="177.001953"/>
      <use xlink:href="#DejaVuSans-30" x="240.625"/>
      <use xlink:href="#DejaVuSans-32" x="304.248047"/>
      <use xlink:href="#DejaVuSans-34" x="367.871094"/>
      <use xlink:href="#DejaVuSans-30" x="431.494141"/>
      <use xlink:href="#DejaVuSans-39" x="495.117188"/>
      <use xlink:href="#DejaVuSans-30" x="558.740234"/>
      <use xlink:href="#DejaVuSans-34" x="622.363281"/>
      <use xlink:href="#DejaVuSans-5f" x="685.986328"/>
      <use xlink:href="#DejaVuSans-30" x="735.986328"/>
      <use xlink:href="#DejaVuSans-31" x="799.609375"/>
      <use xlink:href="#DejaVuSans-31" x="863.232422"/>
      <use xlink:href="#DejaVuSans-39" x="926.855469"/>
      <use xlink:href="#DejaVuSans-34" x="990.478516"/>
      <use xlink:href="#DejaVuSans-30" x="1054.101562"/>
     </g>
    </g>
    <g id="line2d_50">
     <defs>
      <path id="m1bf021ff02" d="M -0 7.905694 
L 7.905694 -7.905694 
L -7.905694 -7.905694 
z
" style="stroke: #ffffff; stroke-width: 1.264911; stroke-linejoin: miter"/>
     </defs>
     <g>
      <use xlink:href="#m1bf021ff02" x="714.425" y="218.897188" style="fill: #333333; stroke: #ffffff; stroke-width: 1.264911; stroke-linejoin: miter"/>
     </g>
    </g>
    <g id="text_32">
     <!-- RF_20240904_022517 -->
     <g style="fill: #262626" transform="translate(732.425 222.397188) scale(0.1 -0.1)">
      <use xlink:href="#DejaVuSans-52"/>
      <use xlink:href="#DejaVuSans-46" x="69.482422"/>
      <use xlink:href="#DejaVuSans-5f" x="127.001953"/>
      <use xlink:href="#DejaVuSans-32" x="177.001953"/>
      <use xlink:href="#DejaVuSans-30" x="240.625"/>
      <use xlink:href="#DejaVuSans-32" x="304.248047"/>
      <use xlink:href="#DejaVuSans-34" x="367.871094"/>
      <use xlink:href="#DejaVuSans-30" x="431.494141"/>
      <use xlink:href="#DejaVuSans-39" x="495.117188"/>
      <use xlink:href="#DejaVuSans-30" x="558.740234"/>
      <use xlink:href="#DejaVuSans-34" x="622.363281"/>
      <use xlink:href="#DejaVuSans-5f" x="685.986328"/>
      <use xlink:href="#DejaVuSans-30" x="735.986328"/>
      <use xlink:href="#DejaVuSans-32" x="799.609375"/>
      <use xlink:href="#DejaVuSans-32" x="863.232422"/>
      <use xlink:href="#DejaVuSans-35" x="926.855469"/>
      <use xlink:href="#DejaVuSans-31" x="990.478516"/>
      <use xlink:href="#DejaVuSans-37" x="1054.101562"/>
     </g>
    </g>
    <g id="line2d_51">
     <defs>
      <path id="m6088c72a11" d="M -3.952847 -6.846532 
L -3.423266 -1.976424 
L -7.905694 -0 
L -3.423266 1.976424 
L -3.952847 6.846532 
L -0 3.952847 
L 3.952847 6.846532 
L 3.423266 1.976424 
L 7.905694 0 
L 3.423266 -1.976424 
L 3.952847 -6.846532 
L 0 -3.952847 
z
" style="stroke: #ffffff; stroke-width: 1.264911; stroke-linejoin: bevel"/>
     </defs>
     <g>
      <use xlink:href="#m6088c72a11" x="714.425" y="233.853438" style="fill: #333333; stroke: #ffffff; stroke-width: 1.264911; stroke-linejoin: bevel"/>
     </g>
    </g>
    <g id="text_33">
     <!-- RF_20240905_134835 -->
     <g style="fill: #262626" transform="translate(732.425 237.353438) scale(0.1 -0.1)">
      <use xlink:href="#DejaVuSans-52"/>
      <use xlink:href="#DejaVuSans-46" x="69.482422"/>
      <use xlink:href="#DejaVuSans-5f" x="127.001953"/>
      <use xlink:href="#DejaVuSans-32" x="177.001953"/>
      <use xlink:href="#DejaVuSans-30" x="240.625"/>
      <use xlink:href="#DejaVuSans-32" x="304.248047"/>
      <use xlink:href="#DejaVuSans-34" x="367.871094"/>
      <use xlink:href="#DejaVuSans-30" x="431.494141"/>
      <use xlink:href="#DejaVuSans-39" x="495.117188"/>
      <use xlink:href="#DejaVuSans-30" x="558.740234"/>
      <use xlink:href="#DejaVuSans-35" x="622.363281"/>
      <use xlink:href="#DejaVuSans-5f" x="685.986328"/>
      <use xlink:href="#DejaVuSans-31" x="735.986328"/>
      <use xlink:href="#DejaVuSans-33" x="799.609375"/>
      <use xlink:href="#DejaVuSans-34" x="863.232422"/>
      <use xlink:href="#DejaVuSans-38" x="926.855469"/>
      <use xlink:href="#DejaVuSans-33" x="990.478516"/>
      <use xlink:href="#DejaVuSans-35" x="1054.101562"/>
     </g>
    </g>
    <g id="line2d_52">
     <defs>
      <path id="mba53028316" d="M -3.952847 -6.846532 
L -7.905694 -0 
L -3.952847 6.846532 
L 3.952847 6.846532 
L 7.905694 0 
L 3.952847 -6.846532 
z
" style="stroke: #ffffff; stroke-width: 1.264911; stroke-linejoin: miter"/>
     </defs>
     <g>
      <use xlink:href="#mba53028316" x="714.425" y="248.809688" style="fill: #333333; stroke: #ffffff; stroke-width: 1.264911; stroke-linejoin: miter"/>
     </g>
    </g>
    <g id="text_34">
     <!-- RF_20240905_163112 -->
     <g style="fill: #262626" transform="translate(732.425 252.309688) scale(0.1 -0.1)">
      <use xlink:href="#DejaVuSans-52"/>
      <use xlink:href="#DejaVuSans-46" x="69.482422"/>
      <use xlink:href="#DejaVuSans-5f" x="127.001953"/>
      <use xlink:href="#DejaVuSans-32" x="177.001953"/>
      <use xlink:href="#DejaVuSans-30" x="240.625"/>
      <use xlink:href="#DejaVuSans-32" x="304.248047"/>
      <use xlink:href="#DejaVuSans-34" x="367.871094"/>
      <use xlink:href="#DejaVuSans-30" x="431.494141"/>
      <use xlink:href="#DejaVuSans-39" x="495.117188"/>
      <use xlink:href="#DejaVuSans-30" x="558.740234"/>
      <use xlink:href="#DejaVuSans-35" x="622.363281"/>
      <use xlink:href="#DejaVuSans-5f" x="685.986328"/>
      <use xlink:href="#DejaVuSans-31" x="735.986328"/>
      <use xlink:href="#DejaVuSans-36" x="799.609375"/>
      <use xlink:href="#DejaVuSans-33" x="863.232422"/>
      <use xlink:href="#DejaVuSans-31" x="926.855469"/>
      <use xlink:href="#DejaVuSans-31" x="990.478516"/>
      <use xlink:href="#DejaVuSans-32" x="1054.101562"/>
     </g>
    </g>
    <g id="line2d_53">
     <defs>
      <path id="m69bcf99bb4" d="M 0 -7.905694 
L -2.323425 -3.19792 
L -7.518762 -2.442994 
L -3.759381 1.221497 
L -4.64685 6.395841 
L -0 3.952847 
L 4.64685 6.395841 
L 3.759381 1.221497 
L 7.518762 -2.442994 
L 2.323425 -3.19792 
z
" style="stroke: #ffffff; stroke-width: 1.264911; stroke-linejoin: bevel"/>
     </defs>
     <g>
      <use xlink:href="#m69bcf99bb4" x="714.425" y="263.765938" style="fill: #333333; stroke: #ffffff; stroke-width: 1.264911; stroke-linejoin: bevel"/>
     </g>
    </g>
    <g id="text_35">
     <!-- RF_20240905_233757 -->
     <g style="fill: #262626" transform="translate(732.425 267.265938) scale(0.1 -0.1)">
      <use xlink:href="#DejaVuSans-52"/>
      <use xlink:href="#DejaVuSans-46" x="69.482422"/>
      <use xlink:href="#DejaVuSans-5f" x="127.001953"/>
      <use xlink:href="#DejaVuSans-32" x="177.001953"/>
      <use xlink:href="#DejaVuSans-30" x="240.625"/>
      <use xlink:href="#DejaVuSans-32" x="304.248047"/>
      <use xlink:href="#DejaVuSans-34" x="367.871094"/>
      <use xlink:href="#DejaVuSans-30" x="431.494141"/>
      <use xlink:href="#DejaVuSans-39" x="495.117188"/>
      <use xlink:href="#DejaVuSans-30" x="558.740234"/>
      <use xlink:href="#DejaVuSans-35" x="622.363281"/>
      <use xlink:href="#DejaVuSans-5f" x="685.986328"/>
      <use xlink:href="#DejaVuSans-32" x="735.986328"/>
      <use xlink:href="#DejaVuSans-33" x="799.609375"/>
      <use xlink:href="#DejaVuSans-33" x="863.232422"/>
      <use xlink:href="#DejaVuSans-37" x="926.855469"/>
      <use xlink:href="#DejaVuSans-35" x="990.478516"/>
      <use xlink:href="#DejaVuSans-37" x="1054.101562"/>
     </g>
    </g>
    <g id="line2d_54">
     <defs>
      <path id="m37a817982a" d="M 0 -7.905694 
L -7.518762 -2.442994 
L -4.64685 6.395841 
L 4.64685 6.395841 
L 7.518762 -2.442994 
z
" style="stroke: #ffffff; stroke-width: 1.264911; stroke-linejoin: miter"/>
     </defs>
     <g>
      <use xlink:href="#m37a817982a" x="714.425" y="278.722188" style="fill: #333333; stroke: #ffffff; stroke-width: 1.264911; stroke-linejoin: miter"/>
     </g>
    </g>
    <g id="text_36">
     <!-- RF_20240906_022111 -->
     <g style="fill: #262626" transform="translate(732.425 282.222188) scale(0.1 -0.1)">
      <use xlink:href="#DejaVuSans-52"/>
      <use xlink:href="#DejaVuSans-46" x="69.482422"/>
      <use xlink:href="#DejaVuSans-5f" x="127.001953"/>
      <use xlink:href="#DejaVuSans-32" x="177.001953"/>
      <use xlink:href="#DejaVuSans-30" x="240.625"/>
      <use xlink:href="#DejaVuSans-32" x="304.248047"/>
      <use xlink:href="#DejaVuSans-34" x="367.871094"/>
      <use xlink:href="#DejaVuSans-30" x="431.494141"/>
      <use xlink:href="#DejaVuSans-39" x="495.117188"/>
      <use xlink:href="#DejaVuSans-30" x="558.740234"/>
      <use xlink:href="#DejaVuSans-36" x="622.363281"/>
      <use xlink:href="#DejaVuSans-5f" x="685.986328"/>
      <use xlink:href="#DejaVuSans-30" x="735.986328"/>
      <use xlink:href="#DejaVuSans-32" x="799.609375"/>
      <use xlink:href="#DejaVuSans-32" x="863.232422"/>
      <use xlink:href="#DejaVuSans-31" x="926.855469"/>
      <use xlink:href="#DejaVuSans-31" x="990.478516"/>
      <use xlink:href="#DejaVuSans-31" x="1054.101562"/>
     </g>
    </g>
    <g id="line2d_55">
     <defs>
      <path id="mfb2ce3c514" d="M -3.430152 -7.122784 
L -3.09046 -2.46456 
L -7.707482 -1.759182 
L -3.853741 0.879591 
L -6.180921 4.92912 
L -1.715076 3.561392 
L -0 7.905694 
L 1.715076 3.561392 
L 6.180921 4.92912 
L 3.853741 0.879591 
L 7.707482 -1.759182 
L 3.09046 -2.46456 
L 3.430152 -7.122784 
L 0 -3.952847 
z
" style="stroke: #ffffff; stroke-width: 1.264911; stroke-linejoin: bevel"/>
     </defs>
     <g>
      <use xlink:href="#mfb2ce3c514" x="714.425" y="293.678438" style="fill: #333333; stroke: #ffffff; stroke-width: 1.264911; stroke-linejoin: bevel"/>
     </g>
    </g>
    <g id="text_37">
     <!-- RF_20240906_213402 -->
     <g style="fill: #262626" transform="translate(732.425 297.178438) scale(0.1 -0.1)">
      <use xlink:href="#DejaVuSans-52"/>
      <use xlink:href="#DejaVuSans-46" x="69.482422"/>
      <use xlink:href="#DejaVuSans-5f" x="127.001953"/>
      <use xlink:href="#DejaVuSans-32" x="177.001953"/>
      <use xlink:href="#DejaVuSans-30" x="240.625"/>
      <use xlink:href="#DejaVuSans-32" x="304.248047"/>
      <use xlink:href="#DejaVuSans-34" x="367.871094"/>
      <use xlink:href="#DejaVuSans-30" x="431.494141"/>
      <use xlink:href="#DejaVuSans-39" x="495.117188"/>
      <use xlink:href="#DejaVuSans-30" x="558.740234"/>
      <use xlink:href="#DejaVuSans-36" x="622.363281"/>
      <use xlink:href="#DejaVuSans-5f" x="685.986328"/>
      <use xlink:href="#DejaVuSans-32" x="735.986328"/>
      <use xlink:href="#DejaVuSans-31" x="799.609375"/>
      <use xlink:href="#DejaVuSans-33" x="863.232422"/>
      <use xlink:href="#DejaVuSans-34" x="926.855469"/>
      <use xlink:href="#DejaVuSans-30" x="990.478516"/>
      <use xlink:href="#DejaVuSans-32" x="1054.101562"/>
     </g>
    </g>
    <g id="line2d_56">
     <defs>
      <path id="m027c3d3cd2" d="M -3.430152 -7.122784 
L -7.707482 -1.759182 
L -6.180921 4.92912 
L -0 7.905694 
L 6.180921 4.92912 
L 7.707482 -1.759182 
L 3.430152 -7.122784 
z
" style="stroke: #ffffff; stroke-width: 1.264911; stroke-linejoin: miter"/>
     </defs>
     <g>
      <use xlink:href="#m027c3d3cd2" x="714.425" y="308.634688" style="fill: #333333; stroke: #ffffff; stroke-width: 1.264911; stroke-linejoin: miter"/>
     </g>
    </g>
    <g id="text_38">
     <!-- RF_20240907_001728 -->
     <g style="fill: #262626" transform="translate(732.425 312.134688) scale(0.1 -0.1)">
      <use xlink:href="#DejaVuSans-52"/>
      <use xlink:href="#DejaVuSans-46" x="69.482422"/>
      <use xlink:href="#DejaVuSans-5f" x="127.001953"/>
      <use xlink:href="#DejaVuSans-32" x="177.001953"/>
      <use xlink:href="#DejaVuSans-30" x="240.625"/>
      <use xlink:href="#DejaVuSans-32" x="304.248047"/>
      <use xlink:href="#DejaVuSans-34" x="367.871094"/>
      <use xlink:href="#DejaVuSans-30" x="431.494141"/>
      <use xlink:href="#DejaVuSans-39" x="495.117188"/>
      <use xlink:href="#DejaVuSans-30" x="558.740234"/>
      <use xlink:href="#DejaVuSans-37" x="622.363281"/>
      <use xlink:href="#DejaVuSans-5f" x="685.986328"/>
      <use xlink:href="#DejaVuSans-30" x="735.986328"/>
      <use xlink:href="#DejaVuSans-30" x="799.609375"/>
      <use xlink:href="#DejaVuSans-31" x="863.232422"/>
      <use xlink:href="#DejaVuSans-37" x="926.855469"/>
      <use xlink:href="#DejaVuSans-32" x="990.478516"/>
      <use xlink:href="#DejaVuSans-38" x="1054.101562"/>
     </g>
    </g>
    <g id="line2d_57">
     <defs>
      <path id="mb0b1c50b10" d="M 0 -7.905694 
L -1.976424 -3.423266 
L -6.846532 -3.952847 
L -3.952847 -0 
L -6.846532 3.952847 
L -1.976424 3.423266 
L -0 7.905694 
L 1.976424 3.423266 
L 6.846532 3.952847 
L 3.952847 0 
L 6.846532 -3.952847 
L 1.976424 -3.423266 
z
" style="stroke: #ffffff; stroke-width: 1.264911; stroke-linejoin: bevel"/>
     </defs>
     <g>
      <use xlink:href="#mb0b1c50b10" x="714.425" y="323.590938" style="fill: #333333; stroke: #ffffff; stroke-width: 1.264911; stroke-linejoin: bevel"/>
     </g>
    </g>
    <g id="text_39">
     <!-- RF_20240907_215246 -->
     <g style="fill: #262626" transform="translate(732.425 327.090938) scale(0.1 -0.1)">
      <use xlink:href="#DejaVuSans-52"/>
      <use xlink:href="#DejaVuSans-46" x="69.482422"/>
      <use xlink:href="#DejaVuSans-5f" x="127.001953"/>
      <use xlink:href="#DejaVuSans-32" x="177.001953"/>
      <use xlink:href="#DejaVuSans-30" x="240.625"/>
      <use xlink:href="#DejaVuSans-32" x="304.248047"/>
      <use xlink:href="#DejaVuSans-34" x="367.871094"/>
      <use xlink:href="#DejaVuSans-30" x="431.494141"/>
      <use xlink:href="#DejaVuSans-39" x="495.117188"/>
      <use xlink:href="#DejaVuSans-30" x="558.740234"/>
      <use xlink:href="#DejaVuSans-37" x="622.363281"/>
      <use xlink:href="#DejaVuSans-5f" x="685.986328"/>
      <use xlink:href="#DejaVuSans-32" x="735.986328"/>
      <use xlink:href="#DejaVuSans-31" x="799.609375"/>
      <use xlink:href="#DejaVuSans-35" x="863.232422"/>
      <use xlink:href="#DejaVuSans-32" x="926.855469"/>
      <use xlink:href="#DejaVuSans-34" x="990.478516"/>
      <use xlink:href="#DejaVuSans-36" x="1054.101562"/>
     </g>
    </g>
    <g id="line2d_58">
     <defs>
      <path id="m4f810778a3" d="M 0 -7.905694 
L -6.846532 -3.952847 
L -6.846532 3.952847 
L -0 7.905694 
L 6.846532 3.952847 
L 6.846532 -3.952847 
z
" style="stroke: #ffffff; stroke-width: 1.264911; stroke-linejoin: miter"/>
     </defs>
     <g>
      <use xlink:href="#m4f810778a3" x="714.425" y="338.547188" style="fill: #333333; stroke: #ffffff; stroke-width: 1.264911; stroke-linejoin: miter"/>
     </g>
    </g>
    <g id="text_40">
     <!-- RF_20240908_194112 -->
     <g style="fill: #262626" transform="translate(732.425 342.047188) scale(0.1 -0.1)">
      <use xlink:href="#DejaVuSans-52"/>
      <use xlink:href="#DejaVuSans-46" x="69.482422"/>
      <use xlink:href="#DejaVuSans-5f" x="127.001953"/>
      <use xlink:href="#DejaVuSans-32" x="177.001953"/>
      <use xlink:href="#DejaVuSans-30" x="240.625"/>
      <use xlink:href="#DejaVuSans-32" x="304.248047"/>
      <use xlink:href="#DejaVuSans-34" x="367.871094"/>
      <use xlink:href="#DejaVuSans-30" x="431.494141"/>
      <use xlink:href="#DejaVuSans-39" x="495.117188"/>
      <use xlink:href="#DejaVuSans-30" x="558.740234"/>
      <use xlink:href="#DejaVuSans-38" x="622.363281"/>
      <use xlink:href="#DejaVuSans-5f" x="685.986328"/>
      <use xlink:href="#DejaVuSans-31" x="735.986328"/>
      <use xlink:href="#DejaVuSans-39" x="799.609375"/>
      <use xlink:href="#DejaVuSans-34" x="863.232422"/>
      <use xlink:href="#DejaVuSans-31" x="926.855469"/>
      <use xlink:href="#DejaVuSans-31" x="990.478516"/>
      <use xlink:href="#DejaVuSans-32" x="1054.101562"/>
     </g>
    </g>
   </g>
  </g>
 </g>
 <defs>
  <clipPath id="pc2ccff5f28">
   <rect x="56.09" y="26.88" width="797.11" height="363.16"/>
  </clipPath>
 </defs>
</svg>
