<?xml version="1.0" encoding="utf-8" standalone="no"?>
<!DOCTYPE svg PUBLIC "-//W3C//DTD SVG 1.1//EN"
  "http://www.w3.org/Graphics/SVG/1.1/DTD/svg11.dtd">
<svg xmlns:xlink="http://www.w3.org/1999/xlink" width="864pt" height="432pt" viewBox="0 0 864 432" xmlns="http://www.w3.org/2000/svg" version="1.1">
 <metadata>
  <rdf:RDF xmlns:dc="http://purl.org/dc/elements/1.1/" xmlns:cc="http://creativecommons.org/ns#" xmlns:rdf="http://www.w3.org/1999/02/22-rdf-syntax-ns#">
   <cc:Work>
    <dc:type rdf:resource="http://purl.org/dc/dcmitype/StillImage"/>
    <dc:date>2024-09-08T15:13:52.415933</dc:date>
    <dc:format>image/svg+xml</dc:format>
    <dc:creator>
     <cc:Agent>
      <dc:title>Matplotlib v3.9.1, https://matplotlib.org/</dc:title>
     </cc:Agent>
    </dc:creator>
   </cc:Work>
  </rdf:RDF>
 </metadata>
 <defs>
  <style type="text/css">*{stroke-linejoin: round; stroke-linecap: butt}</style>
 </defs>
 <g id="figure_1">
  <g id="patch_1">
   <path d="M 0 432 
L 864 432 
L 864 0 
L 0 0 
z
" style="fill: #ffffff"/>
  </g>
  <g id="axes_1">
   <g id="patch_2">
    <path d="M 47.72 390.04 
L 853.2 390.04 
L 853.2 26.88 
L 47.72 26.88 
z
" style="fill: #ffffff"/>
   </g>
   <g id="matplotlib.axis_1">
    <g id="xtick_1">
     <g id="line2d_1">
      <path d="M 47.72 390.04 
L 47.72 26.88 
" clip-path="url(#p847f1362de)" style="fill: none; stroke: #cccccc; stroke-width: 0.8; stroke-linecap: round"/>
     </g>
     <g id="text_1">
      <!-- 0 -->
      <g style="fill: #262626" transform="translate(44.53875 404.638438) scale(0.1 -0.1)">
       <defs>
        <path id="DejaVuSans-30" d="M 2034 4250 
Q 1547 4250 1301 3770 
Q 1056 3291 1056 2328 
Q 1056 1369 1301 889 
Q 1547 409 2034 409 
Q 2525 409 2770 889 
Q 3016 1369 3016 2328 
Q 3016 3291 2770 3770 
Q 2525 4250 2034 4250 
z
M 2034 4750 
Q 2819 4750 3233 4129 
Q 3647 3509 3647 2328 
Q 3647 1150 3233 529 
Q 2819 -91 2034 -91 
Q 1250 -91 836 529 
Q 422 1150 422 2328 
Q 422 3509 836 4129 
Q 1250 4750 2034 4750 
z
" transform="scale(0.015625)"/>
       </defs>
       <use xlink:href="#DejaVuSans-30"/>
      </g>
     </g>
    </g>
    <g id="xtick_2">
     <g id="line2d_2">
      <path d="M 148.405 390.04 
L 148.405 26.88 
" clip-path="url(#p847f1362de)" style="fill: none; stroke: #cccccc; stroke-width: 0.8; stroke-linecap: round"/>
     </g>
     <g id="text_2">
      <!-- 1 -->
      <g style="fill: #262626" transform="translate(145.22375 404.638438) scale(0.1 -0.1)">
       <defs>
        <path id="DejaVuSans-31" d="M 794 531 
L 1825 531 
L 1825 4091 
L 703 3866 
L 703 4441 
L 1819 4666 
L 2450 4666 
L 2450 531 
L 3481 531 
L 3481 0 
L 794 0 
L 794 531 
z
" transform="scale(0.015625)"/>
       </defs>
       <use xlink:href="#DejaVuSans-31"/>
      </g>
     </g>
    </g>
    <g id="xtick_3">
     <g id="line2d_3">
      <path d="M 249.09 390.04 
L 249.09 26.88 
" clip-path="url(#p847f1362de)" style="fill: none; stroke: #cccccc; stroke-width: 0.8; stroke-linecap: round"/>
     </g>
     <g id="text_3">
      <!-- 2 -->
      <g style="fill: #262626" transform="translate(245.90875 404.638438) scale(0.1 -0.1)">
       <defs>
        <path id="DejaVuSans-32" d="M 1228 531 
L 3431 531 
L 3431 0 
L 469 0 
L 469 531 
Q 828 903 1448 1529 
Q 2069 2156 2228 2338 
Q 2531 2678 2651 2914 
Q 2772 3150 2772 3378 
Q 2772 3750 2511 3984 
Q 2250 4219 1831 4219 
Q 1534 4219 1204 4116 
Q 875 4013 500 3803 
L 500 4441 
Q 881 4594 1212 4672 
Q 1544 4750 1819 4750 
Q 2544 4750 2975 4387 
Q 3406 4025 3406 3419 
Q 3406 3131 3298 2873 
Q 3191 2616 2906 2266 
Q 2828 2175 2409 1742 
Q 1991 1309 1228 531 
z
" transform="scale(0.015625)"/>
       </defs>
       <use xlink:href="#DejaVuSans-32"/>
      </g>
     </g>
    </g>
    <g id="xtick_4">
     <g id="line2d_4">
      <path d="M 349.775 390.04 
L 349.775 26.88 
" clip-path="url(#p847f1362de)" style="fill: none; stroke: #cccccc; stroke-width: 0.8; stroke-linecap: round"/>
     </g>
     <g id="text_4">
      <!-- 3 -->
      <g style="fill: #262626" transform="translate(346.59375 404.638438) scale(0.1 -0.1)">
       <defs>
        <path id="DejaVuSans-33" d="M 2597 2516 
Q 3050 2419 3304 2112 
Q 3559 1806 3559 1356 
Q 3559 666 3084 287 
Q 2609 -91 1734 -91 
Q 1441 -91 1130 -33 
Q 819 25 488 141 
L 488 750 
Q 750 597 1062 519 
Q 1375 441 1716 441 
Q 2309 441 2620 675 
Q 2931 909 2931 1356 
Q 2931 1769 2642 2001 
Q 2353 2234 1838 2234 
L 1294 2234 
L 1294 2753 
L 1863 2753 
Q 2328 2753 2575 2939 
Q 2822 3125 2822 3475 
Q 2822 3834 2567 4026 
Q 2313 4219 1838 4219 
Q 1578 4219 1281 4162 
Q 984 4106 628 3988 
L 628 4550 
Q 988 4650 1302 4700 
Q 1616 4750 1894 4750 
Q 2613 4750 3031 4423 
Q 3450 4097 3450 3541 
Q 3450 3153 3228 2886 
Q 3006 2619 2597 2516 
z
" transform="scale(0.015625)"/>
       </defs>
       <use xlink:href="#DejaVuSans-33"/>
      </g>
     </g>
    </g>
    <g id="xtick_5">
     <g id="line2d_5">
      <path d="M 450.46 390.04 
L 450.46 26.88 
" clip-path="url(#p847f1362de)" style="fill: none; stroke: #cccccc; stroke-width: 0.8; stroke-linecap: round"/>
     </g>
     <g id="text_5">
      <!-- 4 -->
      <g style="fill: #262626" transform="translate(447.27875 404.638438) scale(0.1 -0.1)">
       <defs>
        <path id="DejaVuSans-34" d="M 2419 4116 
L 825 1625 
L 2419 1625 
L 2419 4116 
z
M 2253 4666 
L 3047 4666 
L 3047 1625 
L 3713 1625 
L 3713 1100 
L 3047 1100 
L 3047 0 
L 2419 0 
L 2419 1100 
L 313 1100 
L 313 1709 
L 2253 4666 
z
" transform="scale(0.015625)"/>
       </defs>
       <use xlink:href="#DejaVuSans-34"/>
      </g>
     </g>
    </g>
    <g id="xtick_6">
     <g id="line2d_6">
      <path d="M 551.145 390.04 
L 551.145 26.88 
" clip-path="url(#p847f1362de)" style="fill: none; stroke: #cccccc; stroke-width: 0.8; stroke-linecap: round"/>
     </g>
     <g id="text_6">
      <!-- 5 -->
      <g style="fill: #262626" transform="translate(547.96375 404.638438) scale(0.1 -0.1)">
       <defs>
        <path id="DejaVuSans-35" d="M 691 4666 
L 3169 4666 
L 3169 4134 
L 1269 4134 
L 1269 2991 
Q 1406 3038 1543 3061 
Q 1681 3084 1819 3084 
Q 2600 3084 3056 2656 
Q 3513 2228 3513 1497 
Q 3513 744 3044 326 
Q 2575 -91 1722 -91 
Q 1428 -91 1123 -41 
Q 819 9 494 109 
L 494 744 
Q 775 591 1075 516 
Q 1375 441 1709 441 
Q 2250 441 2565 725 
Q 2881 1009 2881 1497 
Q 2881 1984 2565 2268 
Q 2250 2553 1709 2553 
Q 1456 2553 1204 2497 
Q 953 2441 691 2322 
L 691 4666 
z
" transform="scale(0.015625)"/>
       </defs>
       <use xlink:href="#DejaVuSans-35"/>
      </g>
     </g>
    </g>
    <g id="xtick_7">
     <g id="line2d_7">
      <path d="M 651.83 390.04 
L 651.83 26.88 
" clip-path="url(#p847f1362de)" style="fill: none; stroke: #cccccc; stroke-width: 0.8; stroke-linecap: round"/>
     </g>
     <g id="text_7">
      <!-- 6 -->
      <g style="fill: #262626" transform="translate(648.64875 404.638438) scale(0.1 -0.1)">
       <defs>
        <path id="DejaVuSans-36" d="M 2113 2584 
Q 1688 2584 1439 2293 
Q 1191 2003 1191 1497 
Q 1191 994 1439 701 
Q 1688 409 2113 409 
Q 2538 409 2786 701 
Q 3034 994 3034 1497 
Q 3034 2003 2786 2293 
Q 2538 2584 2113 2584 
z
M 3366 4563 
L 3366 3988 
Q 3128 4100 2886 4159 
Q 2644 4219 2406 4219 
Q 1781 4219 1451 3797 
Q 1122 3375 1075 2522 
Q 1259 2794 1537 2939 
Q 1816 3084 2150 3084 
Q 2853 3084 3261 2657 
Q 3669 2231 3669 1497 
Q 3669 778 3244 343 
Q 2819 -91 2113 -91 
Q 1303 -91 875 529 
Q 447 1150 447 2328 
Q 447 3434 972 4092 
Q 1497 4750 2381 4750 
Q 2619 4750 2861 4703 
Q 3103 4656 3366 4563 
z
" transform="scale(0.015625)"/>
       </defs>
       <use xlink:href="#DejaVuSans-36"/>
      </g>
     </g>
    </g>
    <g id="xtick_8">
     <g id="line2d_8">
      <path d="M 752.515 390.04 
L 752.515 26.88 
" clip-path="url(#p847f1362de)" style="fill: none; stroke: #cccccc; stroke-width: 0.8; stroke-linecap: round"/>
     </g>
     <g id="text_8">
      <!-- 7 -->
      <g style="fill: #262626" transform="translate(749.33375 404.638438) scale(0.1 -0.1)">
       <defs>
        <path id="DejaVuSans-37" d="M 525 4666 
L 3525 4666 
L 3525 4397 
L 1831 0 
L 1172 0 
L 2766 4134 
L 525 4134 
L 525 4666 
z
" transform="scale(0.015625)"/>
       </defs>
       <use xlink:href="#DejaVuSans-37"/>
      </g>
     </g>
    </g>
    <g id="xtick_9">
     <g id="line2d_9">
      <path d="M 853.2 390.04 
L 853.2 26.88 
" clip-path="url(#p847f1362de)" style="fill: none; stroke: #cccccc; stroke-width: 0.8; stroke-linecap: round"/>
     </g>
     <g id="text_9">
      <!-- 8 -->
      <g style="fill: #262626" transform="translate(850.01875 404.638438) scale(0.1 -0.1)">
       <defs>
        <path id="DejaVuSans-38" d="M 2034 2216 
Q 1584 2216 1326 1975 
Q 1069 1734 1069 1313 
Q 1069 891 1326 650 
Q 1584 409 2034 409 
Q 2484 409 2743 651 
Q 3003 894 3003 1313 
Q 3003 1734 2745 1975 
Q 2488 2216 2034 2216 
z
M 1403 2484 
Q 997 2584 770 2862 
Q 544 3141 544 3541 
Q 544 4100 942 4425 
Q 1341 4750 2034 4750 
Q 2731 4750 3128 4425 
Q 3525 4100 3525 3541 
Q 3525 3141 3298 2862 
Q 3072 2584 2669 2484 
Q 3125 2378 3379 2068 
Q 3634 1759 3634 1313 
Q 3634 634 3220 271 
Q 2806 -91 2034 -91 
Q 1263 -91 848 271 
Q 434 634 434 1313 
Q 434 1759 690 2068 
Q 947 2378 1403 2484 
z
M 1172 3481 
Q 1172 3119 1398 2916 
Q 1625 2713 2034 2713 
Q 2441 2713 2670 2916 
Q 2900 3119 2900 3481 
Q 2900 3844 2670 4047 
Q 2441 4250 2034 4250 
Q 1625 4250 1398 4047 
Q 1172 3844 1172 3481 
z
" transform="scale(0.015625)"/>
       </defs>
       <use xlink:href="#DejaVuSans-38"/>
      </g>
     </g>
    </g>
    <g id="text_10">
     <!-- MAE (BPM) -->
     <g style="fill: #262626" transform="translate(423.31625 418.316562) scale(0.1 -0.1)">
      <defs>
       <path id="DejaVuSans-4d" d="M 628 4666 
L 1569 4666 
L 2759 1491 
L 3956 4666 
L 4897 4666 
L 4897 0 
L 4281 0 
L 4281 4097 
L 3078 897 
L 2444 897 
L 1241 4097 
L 1241 0 
L 628 0 
L 628 4666 
z
" transform="scale(0.015625)"/>
       <path id="DejaVuSans-41" d="M 2188 4044 
L 1331 1722 
L 3047 1722 
L 2188 4044 
z
M 1831 4666 
L 2547 4666 
L 4325 0 
L 3669 0 
L 3244 1197 
L 1141 1197 
L 716 0 
L 50 0 
L 1831 4666 
z
" transform="scale(0.015625)"/>
       <path id="DejaVuSans-45" d="M 628 4666 
L 3578 4666 
L 3578 4134 
L 1259 4134 
L 1259 2753 
L 3481 2753 
L 3481 2222 
L 1259 2222 
L 1259 531 
L 3634 531 
L 3634 0 
L 628 0 
L 628 4666 
z
" transform="scale(0.015625)"/>
       <path id="DejaVuSans-20" transform="scale(0.015625)"/>
       <path id="DejaVuSans-28" d="M 1984 4856 
Q 1566 4138 1362 3434 
Q 1159 2731 1159 2009 
Q 1159 1288 1364 580 
Q 1569 -128 1984 -844 
L 1484 -844 
Q 1016 -109 783 600 
Q 550 1309 550 2009 
Q 550 2706 781 3412 
Q 1013 4119 1484 4856 
L 1984 4856 
z
" transform="scale(0.015625)"/>
       <path id="DejaVuSans-42" d="M 1259 2228 
L 1259 519 
L 2272 519 
Q 2781 519 3026 730 
Q 3272 941 3272 1375 
Q 3272 1813 3026 2020 
Q 2781 2228 2272 2228 
L 1259 2228 
z
M 1259 4147 
L 1259 2741 
L 2194 2741 
Q 2656 2741 2882 2914 
Q 3109 3088 3109 3444 
Q 3109 3797 2882 3972 
Q 2656 4147 2194 4147 
L 1259 4147 
z
M 628 4666 
L 2241 4666 
Q 2963 4666 3353 4366 
Q 3744 4066 3744 3513 
Q 3744 3084 3544 2831 
Q 3344 2578 2956 2516 
Q 3422 2416 3680 2098 
Q 3938 1781 3938 1306 
Q 3938 681 3513 340 
Q 3088 0 2303 0 
L 628 0 
L 628 4666 
z
" transform="scale(0.015625)"/>
       <path id="DejaVuSans-50" d="M 1259 4147 
L 1259 2394 
L 2053 2394 
Q 2494 2394 2734 2622 
Q 2975 2850 2975 3272 
Q 2975 3691 2734 3919 
Q 2494 4147 2053 4147 
L 1259 4147 
z
M 628 4666 
L 2053 4666 
Q 2838 4666 3239 4311 
Q 3641 3956 3641 3272 
Q 3641 2581 3239 2228 
Q 2838 1875 2053 1875 
L 1259 1875 
L 1259 0 
L 628 0 
L 628 4666 
z
" transform="scale(0.015625)"/>
       <path id="DejaVuSans-29" d="M 513 4856 
L 1013 4856 
Q 1481 4119 1714 3412 
Q 1947 2706 1947 2009 
Q 1947 1309 1714 600 
Q 1481 -109 1013 -844 
L 513 -844 
Q 928 -128 1133 580 
Q 1338 1288 1338 2009 
Q 1338 2731 1133 3434 
Q 928 4138 513 4856 
z
" transform="scale(0.015625)"/>
      </defs>
      <use xlink:href="#DejaVuSans-4d"/>
      <use xlink:href="#DejaVuSans-41" x="86.279297"/>
      <use xlink:href="#DejaVuSans-45" x="154.6875"/>
      <use xlink:href="#DejaVuSans-20" x="217.871094"/>
      <use xlink:href="#DejaVuSans-28" x="249.658203"/>
      <use xlink:href="#DejaVuSans-42" x="288.671875"/>
      <use xlink:href="#DejaVuSans-50" x="357.275391"/>
      <use xlink:href="#DejaVuSans-4d" x="417.578125"/>
      <use xlink:href="#DejaVuSans-29" x="503.857422"/>
     </g>
    </g>
   </g>
   <g id="matplotlib.axis_2">
    <g id="ytick_1">
     <g id="line2d_10">
      <path d="M 47.72 390.04 
L 853.2 390.04 
" clip-path="url(#p847f1362de)" style="fill: none; stroke: #cccccc; stroke-width: 0.8; stroke-linecap: round"/>
     </g>
     <g id="text_11">
      <!-- 0.0 -->
      <g style="fill: #262626" transform="translate(24.816875 393.839219) scale(0.1 -0.1)">
       <defs>
        <path id="DejaVuSans-2e" d="M 684 794 
L 1344 794 
L 1344 0 
L 684 0 
L 684 794 
z
" transform="scale(0.015625)"/>
       </defs>
       <use xlink:href="#DejaVuSans-30"/>
       <use xlink:href="#DejaVuSans-2e" x="63.623047"/>
       <use xlink:href="#DejaVuSans-30" x="95.410156"/>
      </g>
     </g>
    </g>
    <g id="ytick_2">
     <g id="line2d_11">
      <path d="M 47.72 317.408 
L 853.2 317.408 
" clip-path="url(#p847f1362de)" style="fill: none; stroke: #cccccc; stroke-width: 0.8; stroke-linecap: round"/>
     </g>
     <g id="text_12">
      <!-- 0.2 -->
      <g style="fill: #262626" transform="translate(24.816875 321.207219) scale(0.1 -0.1)">
       <use xlink:href="#DejaVuSans-30"/>
       <use xlink:href="#DejaVuSans-2e" x="63.623047"/>
       <use xlink:href="#DejaVuSans-32" x="95.410156"/>
      </g>
     </g>
    </g>
    <g id="ytick_3">
     <g id="line2d_12">
      <path d="M 47.72 244.776 
L 853.2 244.776 
" clip-path="url(#p847f1362de)" style="fill: none; stroke: #cccccc; stroke-width: 0.8; stroke-linecap: round"/>
     </g>
     <g id="text_13">
      <!-- 0.4 -->
      <g style="fill: #262626" transform="translate(24.816875 248.575219) scale(0.1 -0.1)">
       <use xlink:href="#DejaVuSans-30"/>
       <use xlink:href="#DejaVuSans-2e" x="63.623047"/>
       <use xlink:href="#DejaVuSans-34" x="95.410156"/>
      </g>
     </g>
    </g>
    <g id="ytick_4">
     <g id="line2d_13">
      <path d="M 47.72 172.144 
L 853.2 172.144 
" clip-path="url(#p847f1362de)" style="fill: none; stroke: #cccccc; stroke-width: 0.8; stroke-linecap: round"/>
     </g>
     <g id="text_14">
      <!-- 0.6 -->
      <g style="fill: #262626" transform="translate(24.816875 175.943219) scale(0.1 -0.1)">
       <use xlink:href="#DejaVuSans-30"/>
       <use xlink:href="#DejaVuSans-2e" x="63.623047"/>
       <use xlink:href="#DejaVuSans-36" x="95.410156"/>
      </g>
     </g>
    </g>
    <g id="ytick_5">
     <g id="line2d_14">
      <path d="M 47.72 99.512 
L 853.2 99.512 
" clip-path="url(#p847f1362de)" style="fill: none; stroke: #cccccc; stroke-width: 0.8; stroke-linecap: round"/>
     </g>
     <g id="text_15">
      <!-- 0.8 -->
      <g style="fill: #262626" transform="translate(24.816875 103.311219) scale(0.1 -0.1)">
       <use xlink:href="#DejaVuSans-30"/>
       <use xlink:href="#DejaVuSans-2e" x="63.623047"/>
       <use xlink:href="#DejaVuSans-38" x="95.410156"/>
      </g>
     </g>
    </g>
    <g id="ytick_6">
     <g id="line2d_15">
      <path d="M 47.72 26.88 
L 853.2 26.88 
" clip-path="url(#p847f1362de)" style="fill: none; stroke: #cccccc; stroke-width: 0.8; stroke-linecap: round"/>
     </g>
     <g id="text_16">
      <!-- 1.0 -->
      <g style="fill: #262626" transform="translate(24.816875 30.679219) scale(0.1 -0.1)">
       <use xlink:href="#DejaVuSans-31"/>
       <use xlink:href="#DejaVuSans-2e" x="63.623047"/>
       <use xlink:href="#DejaVuSans-30" x="95.410156"/>
      </g>
     </g>
    </g>
    <g id="text_17">
     <!-- Correlation -->
     <g style="fill: #262626" transform="translate(18.737188 236.02875) rotate(-90) scale(0.1 -0.1)">
      <defs>
       <path id="DejaVuSans-43" d="M 4122 4306 
L 4122 3641 
Q 3803 3938 3442 4084 
Q 3081 4231 2675 4231 
Q 1875 4231 1450 3742 
Q 1025 3253 1025 2328 
Q 1025 1406 1450 917 
Q 1875 428 2675 428 
Q 3081 428 3442 575 
Q 3803 722 4122 1019 
L 4122 359 
Q 3791 134 3420 21 
Q 3050 -91 2638 -91 
Q 1578 -91 968 557 
Q 359 1206 359 2328 
Q 359 3453 968 4101 
Q 1578 4750 2638 4750 
Q 3056 4750 3426 4639 
Q 3797 4528 4122 4306 
z
" transform="scale(0.015625)"/>
       <path id="DejaVuSans-6f" d="M 1959 3097 
Q 1497 3097 1228 2736 
Q 959 2375 959 1747 
Q 959 1119 1226 758 
Q 1494 397 1959 397 
Q 2419 397 2687 759 
Q 2956 1122 2956 1747 
Q 2956 2369 2687 2733 
Q 2419 3097 1959 3097 
z
M 1959 3584 
Q 2709 3584 3137 3096 
Q 3566 2609 3566 1747 
Q 3566 888 3137 398 
Q 2709 -91 1959 -91 
Q 1206 -91 779 398 
Q 353 888 353 1747 
Q 353 2609 779 3096 
Q 1206 3584 1959 3584 
z
" transform="scale(0.015625)"/>
       <path id="DejaVuSans-72" d="M 2631 2963 
Q 2534 3019 2420 3045 
Q 2306 3072 2169 3072 
Q 1681 3072 1420 2755 
Q 1159 2438 1159 1844 
L 1159 0 
L 581 0 
L 581 3500 
L 1159 3500 
L 1159 2956 
Q 1341 3275 1631 3429 
Q 1922 3584 2338 3584 
Q 2397 3584 2469 3576 
Q 2541 3569 2628 3553 
L 2631 2963 
z
" transform="scale(0.015625)"/>
       <path id="DejaVuSans-65" d="M 3597 1894 
L 3597 1613 
L 953 1613 
Q 991 1019 1311 708 
Q 1631 397 2203 397 
Q 2534 397 2845 478 
Q 3156 559 3463 722 
L 3463 178 
Q 3153 47 2828 -22 
Q 2503 -91 2169 -91 
Q 1331 -91 842 396 
Q 353 884 353 1716 
Q 353 2575 817 3079 
Q 1281 3584 2069 3584 
Q 2775 3584 3186 3129 
Q 3597 2675 3597 1894 
z
M 3022 2063 
Q 3016 2534 2758 2815 
Q 2500 3097 2075 3097 
Q 1594 3097 1305 2825 
Q 1016 2553 972 2059 
L 3022 2063 
z
" transform="scale(0.015625)"/>
       <path id="DejaVuSans-6c" d="M 603 4863 
L 1178 4863 
L 1178 0 
L 603 0 
L 603 4863 
z
" transform="scale(0.015625)"/>
       <path id="DejaVuSans-61" d="M 2194 1759 
Q 1497 1759 1228 1600 
Q 959 1441 959 1056 
Q 959 750 1161 570 
Q 1363 391 1709 391 
Q 2188 391 2477 730 
Q 2766 1069 2766 1631 
L 2766 1759 
L 2194 1759 
z
M 3341 1997 
L 3341 0 
L 2766 0 
L 2766 531 
Q 2569 213 2275 61 
Q 1981 -91 1556 -91 
Q 1019 -91 701 211 
Q 384 513 384 1019 
Q 384 1609 779 1909 
Q 1175 2209 1959 2209 
L 2766 2209 
L 2766 2266 
Q 2766 2663 2505 2880 
Q 2244 3097 1772 3097 
Q 1472 3097 1187 3025 
Q 903 2953 641 2809 
L 641 3341 
Q 956 3463 1253 3523 
Q 1550 3584 1831 3584 
Q 2591 3584 2966 3190 
Q 3341 2797 3341 1997 
z
" transform="scale(0.015625)"/>
       <path id="DejaVuSans-74" d="M 1172 4494 
L 1172 3500 
L 2356 3500 
L 2356 3053 
L 1172 3053 
L 1172 1153 
Q 1172 725 1289 603 
Q 1406 481 1766 481 
L 2356 481 
L 2356 0 
L 1766 0 
Q 1100 0 847 248 
Q 594 497 594 1153 
L 594 3053 
L 172 3053 
L 172 3500 
L 594 3500 
L 594 4494 
L 1172 4494 
z
" transform="scale(0.015625)"/>
       <path id="DejaVuSans-69" d="M 603 3500 
L 1178 3500 
L 1178 0 
L 603 0 
L 603 3500 
z
M 603 4863 
L 1178 4863 
L 1178 4134 
L 603 4134 
L 603 4863 
z
" transform="scale(0.015625)"/>
       <path id="DejaVuSans-6e" d="M 3513 2113 
L 3513 0 
L 2938 0 
L 2938 2094 
Q 2938 2591 2744 2837 
Q 2550 3084 2163 3084 
Q 1697 3084 1428 2787 
Q 1159 2491 1159 1978 
L 1159 0 
L 581 0 
L 581 3500 
L 1159 3500 
L 1159 2956 
Q 1366 3272 1645 3428 
Q 1925 3584 2291 3584 
Q 2894 3584 3203 3211 
Q 3513 2838 3513 2113 
z
" transform="scale(0.015625)"/>
      </defs>
      <use xlink:href="#DejaVuSans-43"/>
      <use xlink:href="#DejaVuSans-6f" x="69.824219"/>
      <use xlink:href="#DejaVuSans-72" x="131.005859"/>
      <use xlink:href="#DejaVuSans-72" x="170.369141"/>
      <use xlink:href="#DejaVuSans-65" x="209.232422"/>
      <use xlink:href="#DejaVuSans-6c" x="270.755859"/>
      <use xlink:href="#DejaVuSans-61" x="298.539062"/>
      <use xlink:href="#DejaVuSans-74" x="359.818359"/>
      <use xlink:href="#DejaVuSans-69" x="399.027344"/>
      <use xlink:href="#DejaVuSans-6f" x="426.810547"/>
      <use xlink:href="#DejaVuSans-6e" x="487.992188"/>
     </g>
    </g>
   </g>
   <g id="PathCollection_1">
    <path d="M 280.324435 189.882627 
C 282.42105 189.882627 284.432075 189.049633 285.914605 187.567102 
C 287.397135 186.084572 288.230129 184.073547 288.230129 181.976932 
C 288.230129 179.880318 287.397135 177.869293 285.914605 176.386762 
C 284.432075 174.904232 282.42105 174.071238 280.324435 174.071238 
C 278.22782 174.071238 276.216795 174.904232 274.734265 176.386762 
C 273.251735 177.869293 272.418741 179.880318 272.418741 181.976932 
C 272.418741 184.073547 273.251735 186.084572 274.734265 187.567102 
C 276.216795 189.049633 278.22782 189.882627 280.324435 189.882627 
z
" clip-path="url(#p847f1362de)" style="fill: #1f77b4; stroke: #ffffff; stroke-width: 1.264911"/>
    <path d="M 237.340547 153.04988 
L 241.293394 149.097033 
L 245.246241 153.04988 
L 249.199089 149.097033 
L 245.246241 145.144185 
L 249.199089 141.191338 
L 245.246241 137.238491 
L 241.293394 141.191338 
L 237.340547 137.238491 
L 233.3877 141.191338 
L 237.340547 145.144185 
L 233.3877 149.097033 
z
" clip-path="url(#p847f1362de)" style="fill: #1f77b4; stroke: #ffffff; stroke-width: 1.264911"/>
    <path d="M 207.331698 101.248145 
L 207.331698 112.428485 
L 218.512038 112.428485 
L 218.512038 101.248145 
z
" clip-path="url(#p847f1362de)" style="fill: #1f77b4; stroke: #ffffff; stroke-width: 1.264911"/>
    <path d="M 265.015863 170.925114 
L 270.286326 170.925114 
L 270.286326 165.654651 
L 275.556789 165.654651 
L 275.556789 160.384189 
L 270.286326 160.384189 
L 270.286326 155.113726 
L 265.015863 155.113726 
L 265.015863 160.384189 
L 259.745401 160.384189 
L 259.745401 165.654651 
L 265.015863 165.654651 
z
" clip-path="url(#p847f1362de)" style="fill: #1f77b4; stroke: #ffffff; stroke-width: 1.264911"/>
    <path d="M 285.705922 155.755621 
L 277.800227 163.661315 
L 285.705922 171.56701 
L 293.611616 163.661315 
z
" clip-path="url(#p847f1362de)" style="fill: #ff7f0e; stroke: #ffffff; stroke-width: 1.264911"/>
    <path d="M 284.812817 163.079479 
L 282.017732 168.190088 
L 276.907123 170.985173 
L 282.017732 173.780258 
L 284.812817 178.890867 
L 287.607902 173.780258 
L 292.718512 170.985173 
L 287.607902 168.190088 
z
" clip-path="url(#p847f1362de)" style="fill: #2ca02c; stroke: #ffffff; stroke-width: 1.264911"/>
    <path d="M 501.215697 282.188062 
L 493.310003 297.999451 
L 509.121391 297.999451 
z
" clip-path="url(#p847f1362de)" style="fill: #d62728; stroke: #ffffff; stroke-width: 1.264911"/>
    <path d="M 529.602145 305.218755 
L 531.239468 310.808925 
L 529.602145 316.399095 
L 535.192315 314.761772 
L 540.782485 316.399095 
L 539.145162 310.808925 
L 540.782485 305.218755 
L 535.192315 306.856078 
z
" clip-path="url(#p847f1362de)" style="fill: #d62728; stroke: #ffffff; stroke-width: 1.264911"/>
    <path d="M 458.80584 306.366949 
L 466.711534 290.555561 
L 450.900146 290.555561 
z
" clip-path="url(#p847f1362de)" style="fill: #9467bd; stroke: #ffffff; stroke-width: 1.264911"/>
    <path d="M 508.936078 307.434388 
L 509.465659 312.304496 
L 504.983231 314.28092 
L 509.465659 316.257343 
L 508.936078 321.127452 
L 512.888925 318.233767 
L 516.841772 321.127452 
L 516.312191 316.257343 
L 520.794619 314.28092 
L 516.312191 312.304496 
L 516.841772 307.434388 
L 512.888925 310.328072 
z
" clip-path="url(#p847f1362de)" style="fill: #9467bd; stroke: #ffffff; stroke-width: 1.264911"/>
    <path d="M 523.671889 294.979851 
L 519.719042 301.826383 
L 523.671889 308.672915 
L 531.577583 308.672915 
L 535.53043 301.826383 
L 531.577583 294.979851 
z
" clip-path="url(#p847f1362de)" style="fill: #9467bd; stroke: #ffffff; stroke-width: 1.264911"/>
    <path d="M 508.281356 310.234732 
L 505.957931 314.942505 
L 500.762594 315.697432 
L 504.521975 319.361923 
L 503.634506 324.536267 
L 508.281356 322.093273 
L 512.928207 324.536267 
L 512.040737 319.361923 
L 515.800118 315.697432 
L 510.604782 314.942505 
z
" clip-path="url(#p847f1362de)" style="fill: #9467bd; stroke: #ffffff; stroke-width: 1.264911"/>
    <path d="M 615.47757 344.431926 
L 607.958808 349.894627 
L 610.83072 358.733461 
L 620.12442 358.733461 
L 622.996332 349.894627 
z
" clip-path="url(#p847f1362de)" style="fill: #8c564b; stroke: #ffffff; stroke-width: 1.264911"/>
   </g>
   <g id="line2d_16"/>
   <g id="line2d_17"/>
   <g id="line2d_18"/>
   <g id="line2d_19"/>
   <g id="line2d_20"/>
   <g id="line2d_21"/>
   <g id="line2d_22"/>
   <g id="line2d_23"/>
   <g id="line2d_24"/>
   <g id="line2d_25"/>
   <g id="line2d_26"/>
   <g id="line2d_27"/>
   <g id="line2d_28"/>
   <g id="line2d_29"/>
   <g id="line2d_30"/>
   <g id="line2d_31"/>
   <g id="line2d_32"/>
   <g id="line2d_33"/>
   <g id="line2d_34"/>
   <g id="line2d_35"/>
   <g id="line2d_36"/>
   <g id="patch_3">
    <path d="M 47.72 390.04 
L 47.72 26.88 
" style="fill: none; stroke: #cccccc; stroke-width: 0.8; stroke-linejoin: miter; stroke-linecap: square"/>
   </g>
   <g id="patch_4">
    <path d="M 853.2 390.04 
L 853.2 26.88 
" style="fill: none; stroke: #cccccc; stroke-width: 0.8; stroke-linejoin: miter; stroke-linecap: square"/>
   </g>
   <g id="patch_5">
    <path d="M 47.72 390.04 
L 853.2 390.04 
" style="fill: none; stroke: #cccccc; stroke-width: 0.8; stroke-linejoin: miter; stroke-linecap: square"/>
   </g>
   <g id="patch_6">
    <path d="M 47.72 26.88 
L 853.2 26.88 
" style="fill: none; stroke: #cccccc; stroke-width: 0.8; stroke-linejoin: miter; stroke-linecap: square"/>
   </g>
   <g id="text_18">
    <!-- MAE and Pearson Correlation for the different models -->
    <g style="fill: #262626" transform="translate(290.3575 20.88) scale(0.12 -0.12)">
     <defs>
      <path id="DejaVuSans-64" d="M 2906 2969 
L 2906 4863 
L 3481 4863 
L 3481 0 
L 2906 0 
L 2906 525 
Q 2725 213 2448 61 
Q 2172 -91 1784 -91 
Q 1150 -91 751 415 
Q 353 922 353 1747 
Q 353 2572 751 3078 
Q 1150 3584 1784 3584 
Q 2172 3584 2448 3432 
Q 2725 3281 2906 2969 
z
M 947 1747 
Q 947 1113 1208 752 
Q 1469 391 1925 391 
Q 2381 391 2643 752 
Q 2906 1113 2906 1747 
Q 2906 2381 2643 2742 
Q 2381 3103 1925 3103 
Q 1469 3103 1208 2742 
Q 947 2381 947 1747 
z
" transform="scale(0.015625)"/>
      <path id="DejaVuSans-73" d="M 2834 3397 
L 2834 2853 
Q 2591 2978 2328 3040 
Q 2066 3103 1784 3103 
Q 1356 3103 1142 2972 
Q 928 2841 928 2578 
Q 928 2378 1081 2264 
Q 1234 2150 1697 2047 
L 1894 2003 
Q 2506 1872 2764 1633 
Q 3022 1394 3022 966 
Q 3022 478 2636 193 
Q 2250 -91 1575 -91 
Q 1294 -91 989 -36 
Q 684 19 347 128 
L 347 722 
Q 666 556 975 473 
Q 1284 391 1588 391 
Q 1994 391 2212 530 
Q 2431 669 2431 922 
Q 2431 1156 2273 1281 
Q 2116 1406 1581 1522 
L 1381 1569 
Q 847 1681 609 1914 
Q 372 2147 372 2553 
Q 372 3047 722 3315 
Q 1072 3584 1716 3584 
Q 2034 3584 2315 3537 
Q 2597 3491 2834 3397 
z
" transform="scale(0.015625)"/>
      <path id="DejaVuSans-66" d="M 2375 4863 
L 2375 4384 
L 1825 4384 
Q 1516 4384 1395 4259 
Q 1275 4134 1275 3809 
L 1275 3500 
L 2222 3500 
L 2222 3053 
L 1275 3053 
L 1275 0 
L 697 0 
L 697 3053 
L 147 3053 
L 147 3500 
L 697 3500 
L 697 3744 
Q 697 4328 969 4595 
Q 1241 4863 1831 4863 
L 2375 4863 
z
" transform="scale(0.015625)"/>
      <path id="DejaVuSans-68" d="M 3513 2113 
L 3513 0 
L 2938 0 
L 2938 2094 
Q 2938 2591 2744 2837 
Q 2550 3084 2163 3084 
Q 1697 3084 1428 2787 
Q 1159 2491 1159 1978 
L 1159 0 
L 581 0 
L 581 4863 
L 1159 4863 
L 1159 2956 
Q 1366 3272 1645 3428 
Q 1925 3584 2291 3584 
Q 2894 3584 3203 3211 
Q 3513 2838 3513 2113 
z
" transform="scale(0.015625)"/>
      <path id="DejaVuSans-6d" d="M 3328 2828 
Q 3544 3216 3844 3400 
Q 4144 3584 4550 3584 
Q 5097 3584 5394 3201 
Q 5691 2819 5691 2113 
L 5691 0 
L 5113 0 
L 5113 2094 
Q 5113 2597 4934 2840 
Q 4756 3084 4391 3084 
Q 3944 3084 3684 2787 
Q 3425 2491 3425 1978 
L 3425 0 
L 2847 0 
L 2847 2094 
Q 2847 2600 2669 2842 
Q 2491 3084 2119 3084 
Q 1678 3084 1418 2786 
Q 1159 2488 1159 1978 
L 1159 0 
L 581 0 
L 581 3500 
L 1159 3500 
L 1159 2956 
Q 1356 3278 1631 3431 
Q 1906 3584 2284 3584 
Q 2666 3584 2933 3390 
Q 3200 3197 3328 2828 
z
" transform="scale(0.015625)"/>
     </defs>
     <use xlink:href="#DejaVuSans-4d"/>
     <use xlink:href="#DejaVuSans-41" x="86.279297"/>
     <use xlink:href="#DejaVuSans-45" x="154.6875"/>
     <use xlink:href="#DejaVuSans-20" x="217.871094"/>
     <use xlink:href="#DejaVuSans-61" x="249.658203"/>
     <use xlink:href="#DejaVuSans-6e" x="310.9375"/>
     <use xlink:href="#DejaVuSans-64" x="374.316406"/>
     <use xlink:href="#DejaVuSans-20" x="437.792969"/>
     <use xlink:href="#DejaVuSans-50" x="469.580078"/>
     <use xlink:href="#DejaVuSans-65" x="526.257812"/>
     <use xlink:href="#DejaVuSans-61" x="587.78125"/>
     <use xlink:href="#DejaVuSans-72" x="649.060547"/>
     <use xlink:href="#DejaVuSans-73" x="690.173828"/>
     <use xlink:href="#DejaVuSans-6f" x="742.273438"/>
     <use xlink:href="#DejaVuSans-6e" x="803.455078"/>
     <use xlink:href="#DejaVuSans-20" x="866.833984"/>
     <use xlink:href="#DejaVuSans-43" x="898.621094"/>
     <use xlink:href="#DejaVuSans-6f" x="968.445312"/>
     <use xlink:href="#DejaVuSans-72" x="1029.626953"/>
     <use xlink:href="#DejaVuSans-72" x="1068.990234"/>
     <use xlink:href="#DejaVuSans-65" x="1107.853516"/>
     <use xlink:href="#DejaVuSans-6c" x="1169.376953"/>
     <use xlink:href="#DejaVuSans-61" x="1197.160156"/>
     <use xlink:href="#DejaVuSans-74" x="1258.439453"/>
     <use xlink:href="#DejaVuSans-69" x="1297.648438"/>
     <use xlink:href="#DejaVuSans-6f" x="1325.431641"/>
     <use xlink:href="#DejaVuSans-6e" x="1386.613281"/>
     <use xlink:href="#DejaVuSans-20" x="1449.992188"/>
     <use xlink:href="#DejaVuSans-66" x="1481.779297"/>
     <use xlink:href="#DejaVuSans-6f" x="1516.984375"/>
     <use xlink:href="#DejaVuSans-72" x="1578.166016"/>
     <use xlink:href="#DejaVuSans-20" x="1619.279297"/>
     <use xlink:href="#DejaVuSans-74" x="1651.066406"/>
     <use xlink:href="#DejaVuSans-68" x="1690.275391"/>
     <use xlink:href="#DejaVuSans-65" x="1753.654297"/>
     <use xlink:href="#DejaVuSans-20" x="1815.177734"/>
     <use xlink:href="#DejaVuSans-64" x="1846.964844"/>
     <use xlink:href="#DejaVuSans-69" x="1910.441406"/>
     <use xlink:href="#DejaVuSans-66" x="1938.224609"/>
     <use xlink:href="#DejaVuSans-66" x="1973.429688"/>
     <use xlink:href="#DejaVuSans-65" x="2008.634766"/>
     <use xlink:href="#DejaVuSans-72" x="2070.158203"/>
     <use xlink:href="#DejaVuSans-65" x="2109.021484"/>
     <use xlink:href="#DejaVuSans-6e" x="2170.544922"/>
     <use xlink:href="#DejaVuSans-74" x="2233.923828"/>
     <use xlink:href="#DejaVuSans-20" x="2273.132812"/>
     <use xlink:href="#DejaVuSans-6d" x="2304.919922"/>
     <use xlink:href="#DejaVuSans-6f" x="2402.332031"/>
     <use xlink:href="#DejaVuSans-64" x="2463.513672"/>
     <use xlink:href="#DejaVuSans-65" x="2526.990234"/>
     <use xlink:href="#DejaVuSans-6c" x="2588.513672"/>
     <use xlink:href="#DejaVuSans-73" x="2616.296875"/>
    </g>
   </g>
   <g id="legend_1">
    <g id="patch_7">
     <path d="M 664.395313 346.18 
L 846.2 346.18 
Q 848.2 346.18 848.2 344.18 
L 848.2 33.88 
Q 848.2 31.88 846.2 31.88 
L 664.395313 31.88 
Q 662.395313 31.88 662.395313 33.88 
L 662.395313 344.18 
Q 662.395313 346.18 664.395313 346.18 
z
" style="fill: #ffffff; opacity: 0.8; stroke: #cccccc; stroke-linejoin: miter"/>
    </g>
    <g id="line2d_37"/>
    <g id="text_19">
     <!-- group -->
     <g style="fill: #262626" transform="translate(694.395313 43.478437) scale(0.1 -0.1)">
      <defs>
       <path id="DejaVuSans-67" d="M 2906 1791 
Q 2906 2416 2648 2759 
Q 2391 3103 1925 3103 
Q 1463 3103 1205 2759 
Q 947 2416 947 1791 
Q 947 1169 1205 825 
Q 1463 481 1925 481 
Q 2391 481 2648 825 
Q 2906 1169 2906 1791 
z
M 3481 434 
Q 3481 -459 3084 -895 
Q 2688 -1331 1869 -1331 
Q 1566 -1331 1297 -1286 
Q 1028 -1241 775 -1147 
L 775 -588 
Q 1028 -725 1275 -790 
Q 1522 -856 1778 -856 
Q 2344 -856 2625 -561 
Q 2906 -266 2906 331 
L 2906 616 
Q 2728 306 2450 153 
Q 2172 0 1784 0 
Q 1141 0 747 490 
Q 353 981 353 1791 
Q 353 2603 747 3093 
Q 1141 3584 1784 3584 
Q 2172 3584 2450 3431 
Q 2728 3278 2906 2969 
L 2906 3500 
L 3481 3500 
L 3481 434 
z
" transform="scale(0.015625)"/>
       <path id="DejaVuSans-75" d="M 544 1381 
L 544 3500 
L 1119 3500 
L 1119 1403 
Q 1119 906 1312 657 
Q 1506 409 1894 409 
Q 2359 409 2629 706 
Q 2900 1003 2900 1516 
L 2900 3500 
L 3475 3500 
L 3475 0 
L 2900 0 
L 2900 538 
Q 2691 219 2414 64 
Q 2138 -91 1772 -91 
Q 1169 -91 856 284 
Q 544 659 544 1381 
z
M 1991 3584 
L 1991 3584 
z
" transform="scale(0.015625)"/>
       <path id="DejaVuSans-70" d="M 1159 525 
L 1159 -1331 
L 581 -1331 
L 581 3500 
L 1159 3500 
L 1159 2969 
Q 1341 3281 1617 3432 
Q 1894 3584 2278 3584 
Q 2916 3584 3314 3078 
Q 3713 2572 3713 1747 
Q 3713 922 3314 415 
Q 2916 -91 2278 -91 
Q 1894 -91 1617 61 
Q 1341 213 1159 525 
z
M 3116 1747 
Q 3116 2381 2855 2742 
Q 2594 3103 2138 3103 
Q 1681 3103 1420 2742 
Q 1159 2381 1159 1747 
Q 1159 1113 1420 752 
Q 1681 391 2138 391 
Q 2594 391 2855 752 
Q 3116 1113 3116 1747 
z
" transform="scale(0.015625)"/>
      </defs>
      <use xlink:href="#DejaVuSans-67"/>
      <use xlink:href="#DejaVuSans-72" x="63.476562"/>
      <use xlink:href="#DejaVuSans-6f" x="102.339844"/>
      <use xlink:href="#DejaVuSans-75" x="163.521484"/>
      <use xlink:href="#DejaVuSans-70" x="226.900391"/>
     </g>
    </g>
    <g id="line2d_38">
     <defs>
      <path id="mb054b54882" d="M 0 7.905694 
C 2.096615 7.905694 4.10764 7.0727 5.59017 5.59017 
C 7.0727 4.10764 7.905694 2.096615 7.905694 0 
C 7.905694 -2.096615 7.0727 -4.10764 5.59017 -5.59017 
C 4.10764 -7.0727 2.096615 -7.905694 0 -7.905694 
C -2.096615 -7.905694 -4.10764 -7.0727 -5.59017 -5.59017 
C -7.0727 -4.10764 -7.905694 -2.096615 -7.905694 0 
C -7.905694 2.096615 -7.0727 4.10764 -5.59017 5.59017 
C -4.10764 7.0727 -2.096615 7.905694 0 7.905694 
z
" style="stroke: #ffffff; stroke-width: 1.264911"/>
     </defs>
     <g>
      <use xlink:href="#mb054b54882" x="676.395313" y="54.656563" style="fill: #1f77b4; stroke: #ffffff; stroke-width: 1.264911"/>
     </g>
    </g>
    <g id="text_20">
     <!-- Optical Flow -->
     <g style="fill: #262626" transform="translate(694.395313 58.156563) scale(0.1 -0.1)">
      <defs>
       <path id="DejaVuSans-4f" d="M 2522 4238 
Q 1834 4238 1429 3725 
Q 1025 3213 1025 2328 
Q 1025 1447 1429 934 
Q 1834 422 2522 422 
Q 3209 422 3611 934 
Q 4013 1447 4013 2328 
Q 4013 3213 3611 3725 
Q 3209 4238 2522 4238 
z
M 2522 4750 
Q 3503 4750 4090 4092 
Q 4678 3434 4678 2328 
Q 4678 1225 4090 567 
Q 3503 -91 2522 -91 
Q 1538 -91 948 565 
Q 359 1222 359 2328 
Q 359 3434 948 4092 
Q 1538 4750 2522 4750 
z
" transform="scale(0.015625)"/>
       <path id="DejaVuSans-63" d="M 3122 3366 
L 3122 2828 
Q 2878 2963 2633 3030 
Q 2388 3097 2138 3097 
Q 1578 3097 1268 2742 
Q 959 2388 959 1747 
Q 959 1106 1268 751 
Q 1578 397 2138 397 
Q 2388 397 2633 464 
Q 2878 531 3122 666 
L 3122 134 
Q 2881 22 2623 -34 
Q 2366 -91 2075 -91 
Q 1284 -91 818 406 
Q 353 903 353 1747 
Q 353 2603 823 3093 
Q 1294 3584 2113 3584 
Q 2378 3584 2631 3529 
Q 2884 3475 3122 3366 
z
" transform="scale(0.015625)"/>
       <path id="DejaVuSans-46" d="M 628 4666 
L 3309 4666 
L 3309 4134 
L 1259 4134 
L 1259 2759 
L 3109 2759 
L 3109 2228 
L 1259 2228 
L 1259 0 
L 628 0 
L 628 4666 
z
" transform="scale(0.015625)"/>
       <path id="DejaVuSans-77" d="M 269 3500 
L 844 3500 
L 1563 769 
L 2278 3500 
L 2956 3500 
L 3675 769 
L 4391 3500 
L 4966 3500 
L 4050 0 
L 3372 0 
L 2619 2869 
L 1863 0 
L 1184 0 
L 269 3500 
z
" transform="scale(0.015625)"/>
      </defs>
      <use xlink:href="#DejaVuSans-4f"/>
      <use xlink:href="#DejaVuSans-70" x="78.710938"/>
      <use xlink:href="#DejaVuSans-74" x="142.1875"/>
      <use xlink:href="#DejaVuSans-69" x="181.396484"/>
      <use xlink:href="#DejaVuSans-63" x="209.179688"/>
      <use xlink:href="#DejaVuSans-61" x="264.160156"/>
      <use xlink:href="#DejaVuSans-6c" x="325.439453"/>
      <use xlink:href="#DejaVuSans-20" x="353.222656"/>
      <use xlink:href="#DejaVuSans-46" x="385.009766"/>
      <use xlink:href="#DejaVuSans-6c" x="442.529297"/>
      <use xlink:href="#DejaVuSans-6f" x="470.3125"/>
      <use xlink:href="#DejaVuSans-77" x="531.494141"/>
     </g>
    </g>
    <g id="line2d_39">
     <defs>
      <path id="m26e191d63c" d="M 0 7.905694 
C 2.096615 7.905694 4.10764 7.0727 5.59017 5.59017 
C 7.0727 4.10764 7.905694 2.096615 7.905694 0 
C 7.905694 -2.096615 7.0727 -4.10764 5.59017 -5.59017 
C 4.10764 -7.0727 2.096615 -7.905694 0 -7.905694 
C -2.096615 -7.905694 -4.10764 -7.0727 -5.59017 -5.59017 
C -7.0727 -4.10764 -7.905694 -2.096615 -7.905694 0 
C -7.905694 2.096615 -7.0727 4.10764 -5.59017 5.59017 
C -4.10764 7.0727 -2.096615 7.905694 0 7.905694 
z
" style="stroke: #ffffff; stroke-width: 1.264911"/>
     </defs>
     <g>
      <use xlink:href="#m26e191d63c" x="676.395313" y="69.334688" style="fill: #ff7f0e; stroke: #ffffff; stroke-width: 1.264911"/>
     </g>
    </g>
    <g id="text_21">
     <!-- R-RhythmFormer -->
     <g style="fill: #262626" transform="translate(694.395313 72.834688) scale(0.1 -0.1)">
      <defs>
       <path id="DejaVuSans-52" d="M 2841 2188 
Q 3044 2119 3236 1894 
Q 3428 1669 3622 1275 
L 4263 0 
L 3584 0 
L 2988 1197 
Q 2756 1666 2539 1819 
Q 2322 1972 1947 1972 
L 1259 1972 
L 1259 0 
L 628 0 
L 628 4666 
L 2053 4666 
Q 2853 4666 3247 4331 
Q 3641 3997 3641 3322 
Q 3641 2881 3436 2590 
Q 3231 2300 2841 2188 
z
M 1259 4147 
L 1259 2491 
L 2053 2491 
Q 2509 2491 2742 2702 
Q 2975 2913 2975 3322 
Q 2975 3731 2742 3939 
Q 2509 4147 2053 4147 
L 1259 4147 
z
" transform="scale(0.015625)"/>
       <path id="DejaVuSans-2d" d="M 313 2009 
L 1997 2009 
L 1997 1497 
L 313 1497 
L 313 2009 
z
" transform="scale(0.015625)"/>
       <path id="DejaVuSans-79" d="M 2059 -325 
Q 1816 -950 1584 -1140 
Q 1353 -1331 966 -1331 
L 506 -1331 
L 506 -850 
L 844 -850 
Q 1081 -850 1212 -737 
Q 1344 -625 1503 -206 
L 1606 56 
L 191 3500 
L 800 3500 
L 1894 763 
L 2988 3500 
L 3597 3500 
L 2059 -325 
z
" transform="scale(0.015625)"/>
      </defs>
      <use xlink:href="#DejaVuSans-52"/>
      <use xlink:href="#DejaVuSans-2d" x="65.482422"/>
      <use xlink:href="#DejaVuSans-52" x="101.566406"/>
      <use xlink:href="#DejaVuSans-68" x="171.048828"/>
      <use xlink:href="#DejaVuSans-79" x="234.427734"/>
      <use xlink:href="#DejaVuSans-74" x="293.607422"/>
      <use xlink:href="#DejaVuSans-68" x="332.816406"/>
      <use xlink:href="#DejaVuSans-6d" x="396.195312"/>
      <use xlink:href="#DejaVuSans-46" x="493.607422"/>
      <use xlink:href="#DejaVuSans-6f" x="547.501953"/>
      <use xlink:href="#DejaVuSans-72" x="608.683594"/>
      <use xlink:href="#DejaVuSans-6d" x="648.046875"/>
      <use xlink:href="#DejaVuSans-65" x="745.458984"/>
      <use xlink:href="#DejaVuSans-72" x="806.982422"/>
     </g>
    </g>
    <g id="line2d_40">
     <defs>
      <path id="m474e5fbf16" d="M 0 7.905694 
C 2.096615 7.905694 4.10764 7.0727 5.59017 5.59017 
C 7.0727 4.10764 7.905694 2.096615 7.905694 0 
C 7.905694 -2.096615 7.0727 -4.10764 5.59017 -5.59017 
C 4.10764 -7.0727 2.096615 -7.905694 0 -7.905694 
C -2.096615 -7.905694 -4.10764 -7.0727 -5.59017 -5.59017 
C -7.0727 -4.10764 -7.905694 -2.096615 -7.905694 0 
C -7.905694 2.096615 -7.0727 4.10764 -5.59017 5.59017 
C -4.10764 7.0727 -2.096615 7.905694 0 7.905694 
z
" style="stroke: #ffffff; stroke-width: 1.264911"/>
     </defs>
     <g>
      <use xlink:href="#m474e5fbf16" x="676.395313" y="84.012812" style="fill: #2ca02c; stroke: #ffffff; stroke-width: 1.264911"/>
     </g>
    </g>
    <g id="text_22">
     <!-- SimpleViT -->
     <g style="fill: #262626" transform="translate(694.395313 87.512812) scale(0.1 -0.1)">
      <defs>
       <path id="DejaVuSans-53" d="M 3425 4513 
L 3425 3897 
Q 3066 4069 2747 4153 
Q 2428 4238 2131 4238 
Q 1616 4238 1336 4038 
Q 1056 3838 1056 3469 
Q 1056 3159 1242 3001 
Q 1428 2844 1947 2747 
L 2328 2669 
Q 3034 2534 3370 2195 
Q 3706 1856 3706 1288 
Q 3706 609 3251 259 
Q 2797 -91 1919 -91 
Q 1588 -91 1214 -16 
Q 841 59 441 206 
L 441 856 
Q 825 641 1194 531 
Q 1563 422 1919 422 
Q 2459 422 2753 634 
Q 3047 847 3047 1241 
Q 3047 1584 2836 1778 
Q 2625 1972 2144 2069 
L 1759 2144 
Q 1053 2284 737 2584 
Q 422 2884 422 3419 
Q 422 4038 858 4394 
Q 1294 4750 2059 4750 
Q 2388 4750 2728 4690 
Q 3069 4631 3425 4513 
z
" transform="scale(0.015625)"/>
       <path id="DejaVuSans-56" d="M 1831 0 
L 50 4666 
L 709 4666 
L 2188 738 
L 3669 4666 
L 4325 4666 
L 2547 0 
L 1831 0 
z
" transform="scale(0.015625)"/>
       <path id="DejaVuSans-54" d="M -19 4666 
L 3928 4666 
L 3928 4134 
L 2272 4134 
L 2272 0 
L 1638 0 
L 1638 4134 
L -19 4134 
L -19 4666 
z
" transform="scale(0.015625)"/>
      </defs>
      <use xlink:href="#DejaVuSans-53"/>
      <use xlink:href="#DejaVuSans-69" x="63.476562"/>
      <use xlink:href="#DejaVuSans-6d" x="91.259766"/>
      <use xlink:href="#DejaVuSans-70" x="188.671875"/>
      <use xlink:href="#DejaVuSans-6c" x="252.148438"/>
      <use xlink:href="#DejaVuSans-65" x="279.931641"/>
      <use xlink:href="#DejaVuSans-56" x="341.455078"/>
      <use xlink:href="#DejaVuSans-69" x="407.613281"/>
      <use xlink:href="#DejaVuSans-54" x="435.396484"/>
     </g>
    </g>
    <g id="line2d_41">
     <defs>
      <path id="med8aa71a18" d="M 0 7.905694 
C 2.096615 7.905694 4.10764 7.0727 5.59017 5.59017 
C 7.0727 4.10764 7.905694 2.096615 7.905694 0 
C 7.905694 -2.096615 7.0727 -4.10764 5.59017 -5.59017 
C 4.10764 -7.0727 2.096615 -7.905694 0 -7.905694 
C -2.096615 -7.905694 -4.10764 -7.0727 -5.59017 -5.59017 
C -7.0727 -4.10764 -7.905694 -2.096615 -7.905694 0 
C -7.905694 2.096615 -7.0727 4.10764 -5.59017 5.59017 
C -4.10764 7.0727 -2.096615 7.905694 0 7.905694 
z
" style="stroke: #ffffff; stroke-width: 1.264911"/>
     </defs>
     <g>
      <use xlink:href="#med8aa71a18" x="676.395313" y="98.690938" style="fill: #d62728; stroke: #ffffff; stroke-width: 1.264911"/>
     </g>
    </g>
    <g id="text_23">
     <!-- Pretrained Respiration -->
     <g style="fill: #262626" transform="translate(694.395313 102.190938) scale(0.1 -0.1)">
      <use xlink:href="#DejaVuSans-50"/>
      <use xlink:href="#DejaVuSans-72" x="58.552734"/>
      <use xlink:href="#DejaVuSans-65" x="97.416016"/>
      <use xlink:href="#DejaVuSans-74" x="158.939453"/>
      <use xlink:href="#DejaVuSans-72" x="198.148438"/>
      <use xlink:href="#DejaVuSans-61" x="239.261719"/>
      <use xlink:href="#DejaVuSans-69" x="300.541016"/>
      <use xlink:href="#DejaVuSans-6e" x="328.324219"/>
      <use xlink:href="#DejaVuSans-65" x="391.703125"/>
      <use xlink:href="#DejaVuSans-64" x="453.226562"/>
      <use xlink:href="#DejaVuSans-20" x="516.703125"/>
      <use xlink:href="#DejaVuSans-52" x="548.490234"/>
      <use xlink:href="#DejaVuSans-65" x="613.472656"/>
      <use xlink:href="#DejaVuSans-73" x="674.996094"/>
      <use xlink:href="#DejaVuSans-70" x="727.095703"/>
      <use xlink:href="#DejaVuSans-69" x="790.572266"/>
      <use xlink:href="#DejaVuSans-72" x="818.355469"/>
      <use xlink:href="#DejaVuSans-61" x="859.46875"/>
      <use xlink:href="#DejaVuSans-74" x="920.748047"/>
      <use xlink:href="#DejaVuSans-69" x="959.957031"/>
      <use xlink:href="#DejaVuSans-6f" x="987.740234"/>
      <use xlink:href="#DejaVuSans-6e" x="1048.921875"/>
     </g>
    </g>
    <g id="line2d_42">
     <defs>
      <path id="me884567204" d="M 0 7.905694 
C 2.096615 7.905694 4.10764 7.0727 5.59017 5.59017 
C 7.0727 4.10764 7.905694 2.096615 7.905694 0 
C 7.905694 -2.096615 7.0727 -4.10764 5.59017 -5.59017 
C 4.10764 -7.0727 2.096615 -7.905694 0 -7.905694 
C -2.096615 -7.905694 -4.10764 -7.0727 -5.59017 -5.59017 
C -7.0727 -4.10764 -7.905694 -2.096615 -7.905694 0 
C -7.905694 2.096615 -7.0727 4.10764 -5.59017 5.59017 
C -4.10764 7.0727 -2.096615 7.905694 0 7.905694 
z
" style="stroke: #ffffff; stroke-width: 1.264911"/>
     </defs>
     <g>
      <use xlink:href="#me884567204" x="676.395313" y="113.369062" style="fill: #9467bd; stroke: #ffffff; stroke-width: 1.264911"/>
     </g>
    </g>
    <g id="text_24">
     <!-- Pretrained rPPG -->
     <g style="fill: #262626" transform="translate(694.395313 116.869062) scale(0.1 -0.1)">
      <defs>
       <path id="DejaVuSans-47" d="M 3809 666 
L 3809 1919 
L 2778 1919 
L 2778 2438 
L 4434 2438 
L 4434 434 
Q 4069 175 3628 42 
Q 3188 -91 2688 -91 
Q 1594 -91 976 548 
Q 359 1188 359 2328 
Q 359 3472 976 4111 
Q 1594 4750 2688 4750 
Q 3144 4750 3555 4637 
Q 3966 4525 4313 4306 
L 4313 3634 
Q 3963 3931 3569 4081 
Q 3175 4231 2741 4231 
Q 1884 4231 1454 3753 
Q 1025 3275 1025 2328 
Q 1025 1384 1454 906 
Q 1884 428 2741 428 
Q 3075 428 3337 486 
Q 3600 544 3809 666 
z
" transform="scale(0.015625)"/>
      </defs>
      <use xlink:href="#DejaVuSans-50"/>
      <use xlink:href="#DejaVuSans-72" x="58.552734"/>
      <use xlink:href="#DejaVuSans-65" x="97.416016"/>
      <use xlink:href="#DejaVuSans-74" x="158.939453"/>
      <use xlink:href="#DejaVuSans-72" x="198.148438"/>
      <use xlink:href="#DejaVuSans-61" x="239.261719"/>
      <use xlink:href="#DejaVuSans-69" x="300.541016"/>
      <use xlink:href="#DejaVuSans-6e" x="328.324219"/>
      <use xlink:href="#DejaVuSans-65" x="391.703125"/>
      <use xlink:href="#DejaVuSans-64" x="453.226562"/>
      <use xlink:href="#DejaVuSans-20" x="516.703125"/>
      <use xlink:href="#DejaVuSans-72" x="548.490234"/>
      <use xlink:href="#DejaVuSans-50" x="589.603516"/>
      <use xlink:href="#DejaVuSans-50" x="649.90625"/>
      <use xlink:href="#DejaVuSans-47" x="710.208984"/>
     </g>
    </g>
    <g id="line2d_43">
     <defs>
      <path id="m9416aec037" d="M 0 7.905694 
C 2.096615 7.905694 4.10764 7.0727 5.59017 5.59017 
C 7.0727 4.10764 7.905694 2.096615 7.905694 0 
C 7.905694 -2.096615 7.0727 -4.10764 5.59017 -5.59017 
C 4.10764 -7.0727 2.096615 -7.905694 0 -7.905694 
C -2.096615 -7.905694 -4.10764 -7.0727 -5.59017 -5.59017 
C -7.0727 -4.10764 -7.905694 -2.096615 -7.905694 0 
C -7.905694 2.096615 -7.0727 4.10764 -5.59017 5.59017 
C -4.10764 7.0727 -2.096615 7.905694 0 7.905694 
z
" style="stroke: #ffffff; stroke-width: 1.264911"/>
     </defs>
     <g>
      <use xlink:href="#m9416aec037" x="676.395313" y="128.047188" style="fill: #8c564b; stroke: #ffffff; stroke-width: 1.264911"/>
     </g>
    </g>
    <g id="text_25">
     <!-- Random -->
     <g style="fill: #262626" transform="translate(694.395313 131.547188) scale(0.1 -0.1)">
      <use xlink:href="#DejaVuSans-52"/>
      <use xlink:href="#DejaVuSans-61" x="67.232422"/>
      <use xlink:href="#DejaVuSans-6e" x="128.511719"/>
      <use xlink:href="#DejaVuSans-64" x="191.890625"/>
      <use xlink:href="#DejaVuSans-6f" x="255.367188"/>
      <use xlink:href="#DejaVuSans-6d" x="316.548828"/>
     </g>
    </g>
    <g id="line2d_44"/>
    <g id="text_26">
     <!-- model -->
     <g style="fill: #262626" transform="translate(694.395313 146.225312) scale(0.1 -0.1)">
      <use xlink:href="#DejaVuSans-6d"/>
      <use xlink:href="#DejaVuSans-6f" x="97.412109"/>
      <use xlink:href="#DejaVuSans-64" x="158.59375"/>
      <use xlink:href="#DejaVuSans-65" x="222.070312"/>
      <use xlink:href="#DejaVuSans-6c" x="283.59375"/>
     </g>
    </g>
    <g id="line2d_45">
     <defs>
      <path id="md82f125c6a" d="M 0 7.905694 
C 2.096615 7.905694 4.10764 7.0727 5.59017 5.59017 
C 7.0727 4.10764 7.905694 2.096615 7.905694 0 
C 7.905694 -2.096615 7.0727 -4.10764 5.59017 -5.59017 
C 4.10764 -7.0727 2.096615 -7.905694 0 -7.905694 
C -2.096615 -7.905694 -4.10764 -7.0727 -5.59017 -5.59017 
C -7.0727 -4.10764 -7.905694 -2.096615 -7.905694 0 
C -7.905694 2.096615 -7.0727 4.10764 -5.59017 5.59017 
C -4.10764 7.0727 -2.096615 7.905694 0 7.905694 
z
" style="stroke: #ffffff; stroke-width: 1.264911"/>
     </defs>
     <g>
      <use xlink:href="#md82f125c6a" x="676.395313" y="157.403437" style="fill: #333333; stroke: #ffffff; stroke-width: 1.264911"/>
     </g>
    </g>
    <g id="text_27">
     <!-- raft_small -->
     <g style="fill: #262626" transform="translate(694.395313 160.903437) scale(0.1 -0.1)">
      <defs>
       <path id="DejaVuSans-5f" d="M 3263 -1063 
L 3263 -1509 
L -63 -1509 
L -63 -1063 
L 3263 -1063 
z
" transform="scale(0.015625)"/>
      </defs>
      <use xlink:href="#DejaVuSans-72"/>
      <use xlink:href="#DejaVuSans-61" x="41.113281"/>
      <use xlink:href="#DejaVuSans-66" x="102.392578"/>
      <use xlink:href="#DejaVuSans-74" x="135.847656"/>
      <use xlink:href="#DejaVuSans-5f" x="175.056641"/>
      <use xlink:href="#DejaVuSans-73" x="225.056641"/>
      <use xlink:href="#DejaVuSans-6d" x="277.15625"/>
      <use xlink:href="#DejaVuSans-61" x="374.568359"/>
      <use xlink:href="#DejaVuSans-6c" x="435.847656"/>
      <use xlink:href="#DejaVuSans-6c" x="463.630859"/>
     </g>
    </g>
    <g id="line2d_46">
     <defs>
      <path id="mf984afa78e" d="M -3.952847 7.905694 
L 0 3.952847 
L 3.952847 7.905694 
L 7.905694 3.952847 
L 3.952847 0 
L 7.905694 -3.952847 
L 3.952847 -7.905694 
L 0 -3.952847 
L -3.952847 -7.905694 
L -7.905694 -3.952847 
L -3.952847 0 
L -7.905694 3.952847 
z
" style="stroke: #ffffff; stroke-width: 1.264911; stroke-linejoin: miter"/>
     </defs>
     <g>
      <use xlink:href="#mf984afa78e" x="676.395313" y="172.359687" style="fill: #333333; stroke: #ffffff; stroke-width: 1.264911; stroke-linejoin: miter"/>
     </g>
    </g>
    <g id="text_28">
     <!-- FlowNet2CS -->
     <g style="fill: #262626" transform="translate(694.395313 175.859687) scale(0.1 -0.1)">
      <defs>
       <path id="DejaVuSans-4e" d="M 628 4666 
L 1478 4666 
L 3547 763 
L 3547 4666 
L 4159 4666 
L 4159 0 
L 3309 0 
L 1241 3903 
L 1241 0 
L 628 0 
L 628 4666 
z
" transform="scale(0.015625)"/>
      </defs>
      <use xlink:href="#DejaVuSans-46"/>
      <use xlink:href="#DejaVuSans-6c" x="57.519531"/>
      <use xlink:href="#DejaVuSans-6f" x="85.302734"/>
      <use xlink:href="#DejaVuSans-77" x="146.484375"/>
      <use xlink:href="#DejaVuSans-4e" x="228.271484"/>
      <use xlink:href="#DejaVuSans-65" x="303.076172"/>
      <use xlink:href="#DejaVuSans-74" x="364.599609"/>
      <use xlink:href="#DejaVuSans-32" x="403.808594"/>
      <use xlink:href="#DejaVuSans-43" x="467.431641"/>
      <use xlink:href="#DejaVuSans-53" x="537.255859"/>
     </g>
    </g>
    <g id="line2d_47">
     <defs>
      <path id="m36fa28e480" d="M -5.59017 -5.59017 
L -5.59017 5.59017 
L 5.59017 5.59017 
L 5.59017 -5.59017 
z
" style="stroke: #ffffff; stroke-width: 1.264911; stroke-linejoin: miter"/>
     </defs>
     <g>
      <use xlink:href="#m36fa28e480" x="676.395313" y="187.037812" style="fill: #333333; stroke: #ffffff; stroke-width: 1.264911; stroke-linejoin: miter"/>
     </g>
    </g>
    <g id="text_29">
     <!-- lucas_kanade -->
     <g style="fill: #262626" transform="translate(694.395313 190.537812) scale(0.1 -0.1)">
      <defs>
       <path id="DejaVuSans-6b" d="M 581 4863 
L 1159 4863 
L 1159 1991 
L 2875 3500 
L 3609 3500 
L 1753 1863 
L 3688 0 
L 2938 0 
L 1159 1709 
L 1159 0 
L 581 0 
L 581 4863 
z
" transform="scale(0.015625)"/>
      </defs>
      <use xlink:href="#DejaVuSans-6c"/>
      <use xlink:href="#DejaVuSans-75" x="27.783203"/>
      <use xlink:href="#DejaVuSans-63" x="91.162109"/>
      <use xlink:href="#DejaVuSans-61" x="146.142578"/>
      <use xlink:href="#DejaVuSans-73" x="207.421875"/>
      <use xlink:href="#DejaVuSans-5f" x="259.521484"/>
      <use xlink:href="#DejaVuSans-6b" x="309.521484"/>
      <use xlink:href="#DejaVuSans-61" x="365.681641"/>
      <use xlink:href="#DejaVuSans-6e" x="426.960938"/>
      <use xlink:href="#DejaVuSans-61" x="490.339844"/>
      <use xlink:href="#DejaVuSans-64" x="551.619141"/>
      <use xlink:href="#DejaVuSans-65" x="615.095703"/>
     </g>
    </g>
    <g id="line2d_48">
     <defs>
      <path id="mc26b20d1c9" d="M -2.635231 7.905694 
L 2.635231 7.905694 
L 2.635231 2.635231 
L 7.905694 2.635231 
L 7.905694 -2.635231 
L 2.635231 -2.635231 
L 2.635231 -7.905694 
L -2.635231 -7.905694 
L -2.635231 -2.635231 
L -7.905694 -2.635231 
L -7.905694 2.635231 
L -2.635231 2.635231 
z
" style="stroke: #ffffff; stroke-width: 1.264911; stroke-linejoin: miter"/>
     </defs>
     <g>
      <use xlink:href="#mc26b20d1c9" x="676.395313" y="201.994062" style="fill: #333333; stroke: #ffffff; stroke-width: 1.264911; stroke-linejoin: miter"/>
     </g>
    </g>
    <g id="text_30">
     <!-- pixel_intensity_rgb -->
     <g style="fill: #262626" transform="translate(694.395313 205.494062) scale(0.1 -0.1)">
      <defs>
       <path id="DejaVuSans-78" d="M 3513 3500 
L 2247 1797 
L 3578 0 
L 2900 0 
L 1881 1375 
L 863 0 
L 184 0 
L 1544 1831 
L 300 3500 
L 978 3500 
L 1906 2253 
L 2834 3500 
L 3513 3500 
z
" transform="scale(0.015625)"/>
       <path id="DejaVuSans-62" d="M 3116 1747 
Q 3116 2381 2855 2742 
Q 2594 3103 2138 3103 
Q 1681 3103 1420 2742 
Q 1159 2381 1159 1747 
Q 1159 1113 1420 752 
Q 1681 391 2138 391 
Q 2594 391 2855 752 
Q 3116 1113 3116 1747 
z
M 1159 2969 
Q 1341 3281 1617 3432 
Q 1894 3584 2278 3584 
Q 2916 3584 3314 3078 
Q 3713 2572 3713 1747 
Q 3713 922 3314 415 
Q 2916 -91 2278 -91 
Q 1894 -91 1617 61 
Q 1341 213 1159 525 
L 1159 0 
L 581 0 
L 581 4863 
L 1159 4863 
L 1159 2969 
z
" transform="scale(0.015625)"/>
      </defs>
      <use xlink:href="#DejaVuSans-70"/>
      <use xlink:href="#DejaVuSans-69" x="63.476562"/>
      <use xlink:href="#DejaVuSans-78" x="91.259766"/>
      <use xlink:href="#DejaVuSans-65" x="147.314453"/>
      <use xlink:href="#DejaVuSans-6c" x="208.837891"/>
      <use xlink:href="#DejaVuSans-5f" x="236.621094"/>
      <use xlink:href="#DejaVuSans-69" x="286.621094"/>
      <use xlink:href="#DejaVuSans-6e" x="314.404297"/>
      <use xlink:href="#DejaVuSans-74" x="377.783203"/>
      <use xlink:href="#DejaVuSans-65" x="416.992188"/>
      <use xlink:href="#DejaVuSans-6e" x="478.515625"/>
      <use xlink:href="#DejaVuSans-73" x="541.894531"/>
      <use xlink:href="#DejaVuSans-69" x="593.994141"/>
      <use xlink:href="#DejaVuSans-74" x="621.777344"/>
      <use xlink:href="#DejaVuSans-79" x="660.986328"/>
      <use xlink:href="#DejaVuSans-5f" x="720.166016"/>
      <use xlink:href="#DejaVuSans-72" x="770.166016"/>
      <use xlink:href="#DejaVuSans-67" x="809.529297"/>
      <use xlink:href="#DejaVuSans-62" x="873.005859"/>
     </g>
    </g>
    <g id="line2d_49">
     <defs>
      <path id="m0c39c78280" d="M 0 -7.905694 
L -7.905694 -0 
L -0 7.905694 
L 7.905694 0 
z
" style="stroke: #ffffff; stroke-width: 1.264911; stroke-linejoin: miter"/>
     </defs>
     <g>
      <use xlink:href="#m0c39c78280" x="676.395313" y="216.950312" style="fill: #333333; stroke: #ffffff; stroke-width: 1.264911; stroke-linejoin: miter"/>
     </g>
    </g>
    <g id="text_31">
     <!-- RF_20240902_210159 -->
     <g style="fill: #262626" transform="translate(694.395313 220.450312) scale(0.1 -0.1)">
      <defs>
       <path id="DejaVuSans-39" d="M 703 97 
L 703 672 
Q 941 559 1184 500 
Q 1428 441 1663 441 
Q 2288 441 2617 861 
Q 2947 1281 2994 2138 
Q 2813 1869 2534 1725 
Q 2256 1581 1919 1581 
Q 1219 1581 811 2004 
Q 403 2428 403 3163 
Q 403 3881 828 4315 
Q 1253 4750 1959 4750 
Q 2769 4750 3195 4129 
Q 3622 3509 3622 2328 
Q 3622 1225 3098 567 
Q 2575 -91 1691 -91 
Q 1453 -91 1209 -44 
Q 966 3 703 97 
z
M 1959 2075 
Q 2384 2075 2632 2365 
Q 2881 2656 2881 3163 
Q 2881 3666 2632 3958 
Q 2384 4250 1959 4250 
Q 1534 4250 1286 3958 
Q 1038 3666 1038 3163 
Q 1038 2656 1286 2365 
Q 1534 2075 1959 2075 
z
" transform="scale(0.015625)"/>
      </defs>
      <use xlink:href="#DejaVuSans-52"/>
      <use xlink:href="#DejaVuSans-46" x="69.482422"/>
      <use xlink:href="#DejaVuSans-5f" x="127.001953"/>
      <use xlink:href="#DejaVuSans-32" x="177.001953"/>
      <use xlink:href="#DejaVuSans-30" x="240.625"/>
      <use xlink:href="#DejaVuSans-32" x="304.248047"/>
      <use xlink:href="#DejaVuSans-34" x="367.871094"/>
      <use xlink:href="#DejaVuSans-30" x="431.494141"/>
      <use xlink:href="#DejaVuSans-39" x="495.117188"/>
      <use xlink:href="#DejaVuSans-30" x="558.740234"/>
      <use xlink:href="#DejaVuSans-32" x="622.363281"/>
      <use xlink:href="#DejaVuSans-5f" x="685.986328"/>
      <use xlink:href="#DejaVuSans-32" x="735.986328"/>
      <use xlink:href="#DejaVuSans-31" x="799.609375"/>
      <use xlink:href="#DejaVuSans-30" x="863.232422"/>
      <use xlink:href="#DejaVuSans-31" x="926.855469"/>
      <use xlink:href="#DejaVuSans-35" x="990.478516"/>
      <use xlink:href="#DejaVuSans-39" x="1054.101562"/>
     </g>
    </g>
    <g id="line2d_50">
     <defs>
      <path id="m84d44ee905" d="M 0 -7.905694 
L -2.795085 -2.795085 
L -7.905694 -0 
L -2.795085 2.795085 
L -0 7.905694 
L 2.795085 2.795085 
L 7.905694 0 
L 2.795085 -2.795085 
z
" style="stroke: #ffffff; stroke-width: 1.264911; stroke-linejoin: bevel"/>
     </defs>
     <g>
      <use xlink:href="#m84d44ee905" x="676.395313" y="231.906563" style="fill: #333333; stroke: #ffffff; stroke-width: 1.264911; stroke-linejoin: bevel"/>
     </g>
    </g>
    <g id="text_32">
     <!-- SimpleViT_20240906_131118 -->
     <g style="fill: #262626" transform="translate(694.395313 235.406563) scale(0.1 -0.1)">
      <use xlink:href="#DejaVuSans-53"/>
      <use xlink:href="#DejaVuSans-69" x="63.476562"/>
      <use xlink:href="#DejaVuSans-6d" x="91.259766"/>
      <use xlink:href="#DejaVuSans-70" x="188.671875"/>
      <use xlink:href="#DejaVuSans-6c" x="252.148438"/>
      <use xlink:href="#DejaVuSans-65" x="279.931641"/>
      <use xlink:href="#DejaVuSans-56" x="341.455078"/>
      <use xlink:href="#DejaVuSans-69" x="407.613281"/>
      <use xlink:href="#DejaVuSans-54" x="435.396484"/>
      <use xlink:href="#DejaVuSans-5f" x="496.480469"/>
      <use xlink:href="#DejaVuSans-32" x="546.480469"/>
      <use xlink:href="#DejaVuSans-30" x="610.103516"/>
      <use xlink:href="#DejaVuSans-32" x="673.726562"/>
      <use xlink:href="#DejaVuSans-34" x="737.349609"/>
      <use xlink:href="#DejaVuSans-30" x="800.972656"/>
      <use xlink:href="#DejaVuSans-39" x="864.595703"/>
      <use xlink:href="#DejaVuSans-30" x="928.21875"/>
      <use xlink:href="#DejaVuSans-36" x="991.841797"/>
      <use xlink:href="#DejaVuSans-5f" x="1055.464844"/>
      <use xlink:href="#DejaVuSans-31" x="1105.464844"/>
      <use xlink:href="#DejaVuSans-33" x="1169.087891"/>
      <use xlink:href="#DejaVuSans-31" x="1232.710938"/>
      <use xlink:href="#DejaVuSans-31" x="1296.333984"/>
      <use xlink:href="#DejaVuSans-31" x="1359.957031"/>
      <use xlink:href="#DejaVuSans-38" x="1423.580078"/>
     </g>
    </g>
    <g id="line2d_51">
     <defs>
      <path id="mf8215e8ca4" d="M 0 -7.905694 
L -7.905694 7.905694 
L 7.905694 7.905694 
z
" style="stroke: #ffffff; stroke-width: 1.264911; stroke-linejoin: miter"/>
     </defs>
     <g>
      <use xlink:href="#mf8215e8ca4" x="676.395313" y="246.862813" style="fill: #333333; stroke: #ffffff; stroke-width: 1.264911; stroke-linejoin: miter"/>
     </g>
    </g>
    <g id="text_33">
     <!-- mtts_can -->
     <g style="fill: #262626" transform="translate(694.395313 250.362813) scale(0.1 -0.1)">
      <use xlink:href="#DejaVuSans-6d"/>
      <use xlink:href="#DejaVuSans-74" x="97.412109"/>
      <use xlink:href="#DejaVuSans-74" x="136.621094"/>
      <use xlink:href="#DejaVuSans-73" x="175.830078"/>
      <use xlink:href="#DejaVuSans-5f" x="227.929688"/>
      <use xlink:href="#DejaVuSans-63" x="277.929688"/>
      <use xlink:href="#DejaVuSans-61" x="332.910156"/>
      <use xlink:href="#DejaVuSans-6e" x="394.189453"/>
     </g>
    </g>
    <g id="line2d_52">
     <defs>
      <path id="m2f04303322" d="M -5.59017 -5.59017 
L -3.952847 -0 
L -5.59017 5.59017 
L -0 3.952847 
L 5.59017 5.59017 
L 3.952847 0 
L 5.59017 -5.59017 
L 0 -3.952847 
z
" style="stroke: #ffffff; stroke-width: 1.264911; stroke-linejoin: bevel"/>
     </defs>
     <g>
      <use xlink:href="#m2f04303322" x="676.395313" y="261.819063" style="fill: #333333; stroke: #ffffff; stroke-width: 1.264911; stroke-linejoin: bevel"/>
     </g>
    </g>
    <g id="text_34">
     <!-- big_small -->
     <g style="fill: #262626" transform="translate(694.395313 265.319063) scale(0.1 -0.1)">
      <use xlink:href="#DejaVuSans-62"/>
      <use xlink:href="#DejaVuSans-69" x="63.476562"/>
      <use xlink:href="#DejaVuSans-67" x="91.259766"/>
      <use xlink:href="#DejaVuSans-5f" x="154.736328"/>
      <use xlink:href="#DejaVuSans-73" x="204.736328"/>
      <use xlink:href="#DejaVuSans-6d" x="256.835938"/>
      <use xlink:href="#DejaVuSans-61" x="354.248047"/>
      <use xlink:href="#DejaVuSans-6c" x="415.527344"/>
      <use xlink:href="#DejaVuSans-6c" x="443.310547"/>
     </g>
    </g>
    <g id="line2d_53">
     <defs>
      <path id="m028b3138f9" d="M -0 7.905694 
L 7.905694 -7.905694 
L -7.905694 -7.905694 
z
" style="stroke: #ffffff; stroke-width: 1.264911; stroke-linejoin: miter"/>
     </defs>
     <g>
      <use xlink:href="#m028b3138f9" x="676.395313" y="276.775313" style="fill: #333333; stroke: #ffffff; stroke-width: 1.264911; stroke-linejoin: miter"/>
     </g>
    </g>
    <g id="text_35">
     <!-- MMPD_intra_RhythmFormer -->
     <g style="fill: #262626" transform="translate(694.395313 280.275313) scale(0.1 -0.1)">
      <defs>
       <path id="DejaVuSans-44" d="M 1259 4147 
L 1259 519 
L 2022 519 
Q 2988 519 3436 956 
Q 3884 1394 3884 2338 
Q 3884 3275 3436 3711 
Q 2988 4147 2022 4147 
L 1259 4147 
z
M 628 4666 
L 1925 4666 
Q 3281 4666 3915 4102 
Q 4550 3538 4550 2338 
Q 4550 1131 3912 565 
Q 3275 0 1925 0 
L 628 0 
L 628 4666 
z
" transform="scale(0.015625)"/>
      </defs>
      <use xlink:href="#DejaVuSans-4d"/>
      <use xlink:href="#DejaVuSans-4d" x="86.279297"/>
      <use xlink:href="#DejaVuSans-50" x="172.558594"/>
      <use xlink:href="#DejaVuSans-44" x="232.861328"/>
      <use xlink:href="#DejaVuSans-5f" x="309.863281"/>
      <use xlink:href="#DejaVuSans-69" x="359.863281"/>
      <use xlink:href="#DejaVuSans-6e" x="387.646484"/>
      <use xlink:href="#DejaVuSans-74" x="451.025391"/>
      <use xlink:href="#DejaVuSans-72" x="490.234375"/>
      <use xlink:href="#DejaVuSans-61" x="531.347656"/>
      <use xlink:href="#DejaVuSans-5f" x="592.626953"/>
      <use xlink:href="#DejaVuSans-52" x="642.626953"/>
      <use xlink:href="#DejaVuSans-68" x="712.109375"/>
      <use xlink:href="#DejaVuSans-79" x="775.488281"/>
      <use xlink:href="#DejaVuSans-74" x="834.667969"/>
      <use xlink:href="#DejaVuSans-68" x="873.876953"/>
      <use xlink:href="#DejaVuSans-6d" x="937.255859"/>
      <use xlink:href="#DejaVuSans-46" x="1034.667969"/>
      <use xlink:href="#DejaVuSans-6f" x="1088.5625"/>
      <use xlink:href="#DejaVuSans-72" x="1149.744141"/>
      <use xlink:href="#DejaVuSans-6d" x="1189.107422"/>
      <use xlink:href="#DejaVuSans-65" x="1286.519531"/>
      <use xlink:href="#DejaVuSans-72" x="1348.042969"/>
     </g>
    </g>
    <g id="line2d_54">
     <defs>
      <path id="m55f709e69b" d="M -3.952847 -6.846532 
L -3.423266 -1.976424 
L -7.905694 -0 
L -3.423266 1.976424 
L -3.952847 6.846532 
L -0 3.952847 
L 3.952847 6.846532 
L 3.423266 1.976424 
L 7.905694 0 
L 3.423266 -1.976424 
L 3.952847 -6.846532 
L 0 -3.952847 
z
" style="stroke: #ffffff; stroke-width: 1.264911; stroke-linejoin: bevel"/>
     </defs>
     <g>
      <use xlink:href="#m55f709e69b" x="676.395313" y="291.731563" style="fill: #333333; stroke: #ffffff; stroke-width: 1.264911; stroke-linejoin: bevel"/>
     </g>
    </g>
    <g id="text_36">
     <!-- UBFC-rPPG_EfficientPhys -->
     <g style="fill: #262626" transform="translate(694.395313 295.231563) scale(0.1 -0.1)">
      <defs>
       <path id="DejaVuSans-55" d="M 556 4666 
L 1191 4666 
L 1191 1831 
Q 1191 1081 1462 751 
Q 1734 422 2344 422 
Q 2950 422 3222 751 
Q 3494 1081 3494 1831 
L 3494 4666 
L 4128 4666 
L 4128 1753 
Q 4128 841 3676 375 
Q 3225 -91 2344 -91 
Q 1459 -91 1007 375 
Q 556 841 556 1753 
L 556 4666 
z
" transform="scale(0.015625)"/>
      </defs>
      <use xlink:href="#DejaVuSans-55"/>
      <use xlink:href="#DejaVuSans-42" x="73.193359"/>
      <use xlink:href="#DejaVuSans-46" x="141.796875"/>
      <use xlink:href="#DejaVuSans-43" x="199.316406"/>
      <use xlink:href="#DejaVuSans-2d" x="269.140625"/>
      <use xlink:href="#DejaVuSans-72" x="305.224609"/>
      <use xlink:href="#DejaVuSans-50" x="346.337891"/>
      <use xlink:href="#DejaVuSans-50" x="406.640625"/>
      <use xlink:href="#DejaVuSans-47" x="466.943359"/>
      <use xlink:href="#DejaVuSans-5f" x="544.433594"/>
      <use xlink:href="#DejaVuSans-45" x="594.433594"/>
      <use xlink:href="#DejaVuSans-66" x="657.617188"/>
      <use xlink:href="#DejaVuSans-66" x="692.822266"/>
      <use xlink:href="#DejaVuSans-69" x="728.027344"/>
      <use xlink:href="#DejaVuSans-63" x="755.810547"/>
      <use xlink:href="#DejaVuSans-69" x="810.791016"/>
      <use xlink:href="#DejaVuSans-65" x="838.574219"/>
      <use xlink:href="#DejaVuSans-6e" x="900.097656"/>
      <use xlink:href="#DejaVuSans-74" x="963.476562"/>
      <use xlink:href="#DejaVuSans-50" x="1002.685547"/>
      <use xlink:href="#DejaVuSans-68" x="1062.988281"/>
      <use xlink:href="#DejaVuSans-79" x="1126.367188"/>
      <use xlink:href="#DejaVuSans-73" x="1185.546875"/>
     </g>
    </g>
    <g id="line2d_55">
     <defs>
      <path id="m258bff3457" d="M -3.952847 -6.846532 
L -7.905694 -0 
L -3.952847 6.846532 
L 3.952847 6.846532 
L 7.905694 0 
L 3.952847 -6.846532 
z
" style="stroke: #ffffff; stroke-width: 1.264911; stroke-linejoin: miter"/>
     </defs>
     <g>
      <use xlink:href="#m258bff3457" x="676.395313" y="306.687813" style="fill: #333333; stroke: #ffffff; stroke-width: 1.264911; stroke-linejoin: miter"/>
     </g>
    </g>
    <g id="text_37">
     <!-- UBFC-rPPG_TSCAN -->
     <g style="fill: #262626" transform="translate(694.395313 310.187813) scale(0.1 -0.1)">
      <use xlink:href="#DejaVuSans-55"/>
      <use xlink:href="#DejaVuSans-42" x="73.193359"/>
      <use xlink:href="#DejaVuSans-46" x="141.796875"/>
      <use xlink:href="#DejaVuSans-43" x="199.316406"/>
      <use xlink:href="#DejaVuSans-2d" x="269.140625"/>
      <use xlink:href="#DejaVuSans-72" x="305.224609"/>
      <use xlink:href="#DejaVuSans-50" x="346.337891"/>
      <use xlink:href="#DejaVuSans-50" x="406.640625"/>
      <use xlink:href="#DejaVuSans-47" x="466.943359"/>
      <use xlink:href="#DejaVuSans-5f" x="544.433594"/>
      <use xlink:href="#DejaVuSans-54" x="594.433594"/>
      <use xlink:href="#DejaVuSans-53" x="655.517578"/>
      <use xlink:href="#DejaVuSans-43" x="718.994141"/>
      <use xlink:href="#DejaVuSans-41" x="788.818359"/>
      <use xlink:href="#DejaVuSans-4e" x="857.226562"/>
     </g>
    </g>
    <g id="line2d_56">
     <defs>
      <path id="m3b4ab0b7b2" d="M 0 -7.905694 
L -2.323425 -3.19792 
L -7.518762 -2.442994 
L -3.759381 1.221497 
L -4.64685 6.395841 
L -0 3.952847 
L 4.64685 6.395841 
L 3.759381 1.221497 
L 7.518762 -2.442994 
L 2.323425 -3.19792 
z
" style="stroke: #ffffff; stroke-width: 1.264911; stroke-linejoin: bevel"/>
     </defs>
     <g>
      <use xlink:href="#m3b4ab0b7b2" x="676.395313" y="321.644063" style="fill: #333333; stroke: #ffffff; stroke-width: 1.264911; stroke-linejoin: bevel"/>
     </g>
    </g>
    <g id="text_38">
     <!-- BP4D_PseudoLabel_DeepPhys -->
     <g style="fill: #262626" transform="translate(694.395313 325.144063) scale(0.1 -0.1)">
      <defs>
       <path id="DejaVuSans-4c" d="M 628 4666 
L 1259 4666 
L 1259 531 
L 3531 531 
L 3531 0 
L 628 0 
L 628 4666 
z
" transform="scale(0.015625)"/>
      </defs>
      <use xlink:href="#DejaVuSans-42"/>
      <use xlink:href="#DejaVuSans-50" x="68.603516"/>
      <use xlink:href="#DejaVuSans-34" x="128.90625"/>
      <use xlink:href="#DejaVuSans-44" x="192.529297"/>
      <use xlink:href="#DejaVuSans-5f" x="269.53125"/>
      <use xlink:href="#DejaVuSans-50" x="319.53125"/>
      <use xlink:href="#DejaVuSans-73" x="378.083984"/>
      <use xlink:href="#DejaVuSans-65" x="430.183594"/>
      <use xlink:href="#DejaVuSans-75" x="491.707031"/>
      <use xlink:href="#DejaVuSans-64" x="555.085938"/>
      <use xlink:href="#DejaVuSans-6f" x="618.5625"/>
      <use xlink:href="#DejaVuSans-4c" x="679.744141"/>
      <use xlink:href="#DejaVuSans-61" x="735.457031"/>
      <use xlink:href="#DejaVuSans-62" x="796.736328"/>
      <use xlink:href="#DejaVuSans-65" x="860.212891"/>
      <use xlink:href="#DejaVuSans-6c" x="921.736328"/>
      <use xlink:href="#DejaVuSans-5f" x="949.519531"/>
      <use xlink:href="#DejaVuSans-44" x="999.519531"/>
      <use xlink:href="#DejaVuSans-65" x="1076.521484"/>
      <use xlink:href="#DejaVuSans-65" x="1138.044922"/>
      <use xlink:href="#DejaVuSans-70" x="1199.568359"/>
      <use xlink:href="#DejaVuSans-50" x="1263.044922"/>
      <use xlink:href="#DejaVuSans-68" x="1323.347656"/>
      <use xlink:href="#DejaVuSans-79" x="1386.726562"/>
      <use xlink:href="#DejaVuSans-73" x="1445.90625"/>
     </g>
    </g>
    <g id="line2d_57">
     <defs>
      <path id="m582320cb25" d="M 0 -7.905694 
L -7.518762 -2.442994 
L -4.64685 6.395841 
L 4.64685 6.395841 
L 7.518762 -2.442994 
z
" style="stroke: #ffffff; stroke-width: 1.264911; stroke-linejoin: miter"/>
     </defs>
     <g>
      <use xlink:href="#m582320cb25" x="676.395313" y="336.600313" style="fill: #333333; stroke: #ffffff; stroke-width: 1.264911; stroke-linejoin: miter"/>
     </g>
    </g>
    <g id="text_39">
     <!-- random -->
     <g style="fill: #262626" transform="translate(694.395313 340.100313) scale(0.1 -0.1)">
      <use xlink:href="#DejaVuSans-72"/>
      <use xlink:href="#DejaVuSans-61" x="41.113281"/>
      <use xlink:href="#DejaVuSans-6e" x="102.392578"/>
      <use xlink:href="#DejaVuSans-64" x="165.771484"/>
      <use xlink:href="#DejaVuSans-6f" x="229.248047"/>
      <use xlink:href="#DejaVuSans-6d" x="290.429688"/>
     </g>
    </g>
   </g>
  </g>
 </g>
 <defs>
  <clipPath id="p847f1362de">
   <rect x="47.72" y="26.88" width="805.48" height="363.16"/>
  </clipPath>
 </defs>
</svg>
