<?xml version="1.0" encoding="utf-8" standalone="no"?>
<!DOCTYPE svg PUBLIC "-//W3C//DTD SVG 1.1//EN"
  "http://www.w3.org/Graphics/SVG/1.1/DTD/svg11.dtd">
<svg xmlns:xlink="http://www.w3.org/1999/xlink" width="1440pt" height="576pt" viewBox="0 0 1440 576" xmlns="http://www.w3.org/2000/svg" version="1.1">
 <metadata>
  <rdf:RDF xmlns:dc="http://purl.org/dc/elements/1.1/" xmlns:cc="http://creativecommons.org/ns#" xmlns:rdf="http://www.w3.org/1999/02/22-rdf-syntax-ns#">
   <cc:Work>
    <dc:type rdf:resource="http://purl.org/dc/dcmitype/StillImage"/>
    <dc:date>2024-08-28T11:48:08.103735</dc:date>
    <dc:format>image/svg+xml</dc:format>
    <dc:creator>
     <cc:Agent>
      <dc:title>Matplotlib v3.9.2, https://matplotlib.org/</dc:title>
     </cc:Agent>
    </dc:creator>
   </cc:Work>
  </rdf:RDF>
 </metadata>
 <defs>
  <style type="text/css">*{stroke-linejoin: round; stroke-linecap: butt}</style>
 </defs>
 <g id="figure_1">
  <g id="patch_1">
   <path d="M 0 576 
L 1440 576 
L 1440 0 
L 0 0 
z
" style="fill: #ffffff"/>
  </g>
  <g id="axes_1">
   <g id="patch_2">
    <path d="M 56.09 251.44 
L 1429.2 251.44 
L 1429.2 26.88 
L 56.09 26.88 
z
" style="fill: #ffffff"/>
   </g>
   <g id="matplotlib.axis_1">
    <g id="xtick_1">
     <g id="line2d_1">
      <defs>
       <path id="ma100d290c5" d="M 0 0 
L 0 3.5 
" style="stroke: #000000; stroke-width: 0.8"/>
      </defs>
      <g>
       <use xlink:href="#ma100d290c5" x="118.504091" y="251.44" style="stroke: #000000; stroke-width: 0.8"/>
      </g>
     </g>
     <g id="text_1">
      <!-- 0 -->
      <g transform="translate(115.322841 266.038437) scale(0.1 -0.1)">
       <defs>
        <path id="DejaVuSans-30" d="M 2034 4250 
Q 1547 4250 1301 3770 
Q 1056 3291 1056 2328 
Q 1056 1369 1301 889 
Q 1547 409 2034 409 
Q 2525 409 2770 889 
Q 3016 1369 3016 2328 
Q 3016 3291 2770 3770 
Q 2525 4250 2034 4250 
z
M 2034 4750 
Q 2819 4750 3233 4129 
Q 3647 3509 3647 2328 
Q 3647 1150 3233 529 
Q 2819 -91 2034 -91 
Q 1250 -91 836 529 
Q 422 1150 422 2328 
Q 422 3509 836 4129 
Q 1250 4750 2034 4750 
z
" transform="scale(0.015625)"/>
       </defs>
       <use xlink:href="#DejaVuSans-30"/>
      </g>
     </g>
    </g>
    <g id="xtick_2">
     <g id="line2d_2">
      <g>
       <use xlink:href="#ma100d290c5" x="326.898384" y="251.44" style="stroke: #000000; stroke-width: 0.8"/>
      </g>
     </g>
     <g id="text_2">
      <!-- 100 -->
      <g transform="translate(317.354634 266.038437) scale(0.1 -0.1)">
       <defs>
        <path id="DejaVuSans-31" d="M 794 531 
L 1825 531 
L 1825 4091 
L 703 3866 
L 703 4441 
L 1819 4666 
L 2450 4666 
L 2450 531 
L 3481 531 
L 3481 0 
L 794 0 
L 794 531 
z
" transform="scale(0.015625)"/>
       </defs>
       <use xlink:href="#DejaVuSans-31"/>
       <use xlink:href="#DejaVuSans-30" x="63.623047"/>
       <use xlink:href="#DejaVuSans-30" x="127.246094"/>
      </g>
     </g>
    </g>
    <g id="xtick_3">
     <g id="line2d_3">
      <g>
       <use xlink:href="#ma100d290c5" x="535.292678" y="251.44" style="stroke: #000000; stroke-width: 0.8"/>
      </g>
     </g>
     <g id="text_3">
      <!-- 200 -->
      <g transform="translate(525.748928 266.038437) scale(0.1 -0.1)">
       <defs>
        <path id="DejaVuSans-32" d="M 1228 531 
L 3431 531 
L 3431 0 
L 469 0 
L 469 531 
Q 828 903 1448 1529 
Q 2069 2156 2228 2338 
Q 2531 2678 2651 2914 
Q 2772 3150 2772 3378 
Q 2772 3750 2511 3984 
Q 2250 4219 1831 4219 
Q 1534 4219 1204 4116 
Q 875 4013 500 3803 
L 500 4441 
Q 881 4594 1212 4672 
Q 1544 4750 1819 4750 
Q 2544 4750 2975 4387 
Q 3406 4025 3406 3419 
Q 3406 3131 3298 2873 
Q 3191 2616 2906 2266 
Q 2828 2175 2409 1742 
Q 1991 1309 1228 531 
z
" transform="scale(0.015625)"/>
       </defs>
       <use xlink:href="#DejaVuSans-32"/>
       <use xlink:href="#DejaVuSans-30" x="63.623047"/>
       <use xlink:href="#DejaVuSans-30" x="127.246094"/>
      </g>
     </g>
    </g>
    <g id="xtick_4">
     <g id="line2d_4">
      <g>
       <use xlink:href="#ma100d290c5" x="743.686971" y="251.44" style="stroke: #000000; stroke-width: 0.8"/>
      </g>
     </g>
     <g id="text_4">
      <!-- 300 -->
      <g transform="translate(734.143221 266.038437) scale(0.1 -0.1)">
       <defs>
        <path id="DejaVuSans-33" d="M 2597 2516 
Q 3050 2419 3304 2112 
Q 3559 1806 3559 1356 
Q 3559 666 3084 287 
Q 2609 -91 1734 -91 
Q 1441 -91 1130 -33 
Q 819 25 488 141 
L 488 750 
Q 750 597 1062 519 
Q 1375 441 1716 441 
Q 2309 441 2620 675 
Q 2931 909 2931 1356 
Q 2931 1769 2642 2001 
Q 2353 2234 1838 2234 
L 1294 2234 
L 1294 2753 
L 1863 2753 
Q 2328 2753 2575 2939 
Q 2822 3125 2822 3475 
Q 2822 3834 2567 4026 
Q 2313 4219 1838 4219 
Q 1578 4219 1281 4162 
Q 984 4106 628 3988 
L 628 4550 
Q 988 4650 1302 4700 
Q 1616 4750 1894 4750 
Q 2613 4750 3031 4423 
Q 3450 4097 3450 3541 
Q 3450 3153 3228 2886 
Q 3006 2619 2597 2516 
z
" transform="scale(0.015625)"/>
       </defs>
       <use xlink:href="#DejaVuSans-33"/>
       <use xlink:href="#DejaVuSans-30" x="63.623047"/>
       <use xlink:href="#DejaVuSans-30" x="127.246094"/>
      </g>
     </g>
    </g>
    <g id="xtick_5">
     <g id="line2d_5">
      <g>
       <use xlink:href="#ma100d290c5" x="952.081265" y="251.44" style="stroke: #000000; stroke-width: 0.8"/>
      </g>
     </g>
     <g id="text_5">
      <!-- 400 -->
      <g transform="translate(942.537515 266.038437) scale(0.1 -0.1)">
       <defs>
        <path id="DejaVuSans-34" d="M 2419 4116 
L 825 1625 
L 2419 1625 
L 2419 4116 
z
M 2253 4666 
L 3047 4666 
L 3047 1625 
L 3713 1625 
L 3713 1100 
L 3047 1100 
L 3047 0 
L 2419 0 
L 2419 1100 
L 313 1100 
L 313 1709 
L 2253 4666 
z
" transform="scale(0.015625)"/>
       </defs>
       <use xlink:href="#DejaVuSans-34"/>
       <use xlink:href="#DejaVuSans-30" x="63.623047"/>
       <use xlink:href="#DejaVuSans-30" x="127.246094"/>
      </g>
     </g>
    </g>
    <g id="xtick_6">
     <g id="line2d_6">
      <g>
       <use xlink:href="#ma100d290c5" x="1160.475559" y="251.44" style="stroke: #000000; stroke-width: 0.8"/>
      </g>
     </g>
     <g id="text_6">
      <!-- 500 -->
      <g transform="translate(1150.931809 266.038437) scale(0.1 -0.1)">
       <defs>
        <path id="DejaVuSans-35" d="M 691 4666 
L 3169 4666 
L 3169 4134 
L 1269 4134 
L 1269 2991 
Q 1406 3038 1543 3061 
Q 1681 3084 1819 3084 
Q 2600 3084 3056 2656 
Q 3513 2228 3513 1497 
Q 3513 744 3044 326 
Q 2575 -91 1722 -91 
Q 1428 -91 1123 -41 
Q 819 9 494 109 
L 494 744 
Q 775 591 1075 516 
Q 1375 441 1709 441 
Q 2250 441 2565 725 
Q 2881 1009 2881 1497 
Q 2881 1984 2565 2268 
Q 2250 2553 1709 2553 
Q 1456 2553 1204 2497 
Q 953 2441 691 2322 
L 691 4666 
z
" transform="scale(0.015625)"/>
       </defs>
       <use xlink:href="#DejaVuSans-35"/>
       <use xlink:href="#DejaVuSans-30" x="63.623047"/>
       <use xlink:href="#DejaVuSans-30" x="127.246094"/>
      </g>
     </g>
    </g>
    <g id="xtick_7">
     <g id="line2d_7">
      <g>
       <use xlink:href="#ma100d290c5" x="1368.869852" y="251.44" style="stroke: #000000; stroke-width: 0.8"/>
      </g>
     </g>
     <g id="text_7">
      <!-- 600 -->
      <g transform="translate(1359.326102 266.038437) scale(0.1 -0.1)">
       <defs>
        <path id="DejaVuSans-36" d="M 2113 2584 
Q 1688 2584 1439 2293 
Q 1191 2003 1191 1497 
Q 1191 994 1439 701 
Q 1688 409 2113 409 
Q 2538 409 2786 701 
Q 3034 994 3034 1497 
Q 3034 2003 2786 2293 
Q 2538 2584 2113 2584 
z
M 3366 4563 
L 3366 3988 
Q 3128 4100 2886 4159 
Q 2644 4219 2406 4219 
Q 1781 4219 1451 3797 
Q 1122 3375 1075 2522 
Q 1259 2794 1537 2939 
Q 1816 3084 2150 3084 
Q 2853 3084 3261 2657 
Q 3669 2231 3669 1497 
Q 3669 778 3244 343 
Q 2819 -91 2113 -91 
Q 1303 -91 875 529 
Q 447 1150 447 2328 
Q 447 3434 972 4092 
Q 1497 4750 2381 4750 
Q 2619 4750 2861 4703 
Q 3103 4656 3366 4563 
z
" transform="scale(0.015625)"/>
       </defs>
       <use xlink:href="#DejaVuSans-36"/>
       <use xlink:href="#DejaVuSans-30" x="63.623047"/>
       <use xlink:href="#DejaVuSans-30" x="127.246094"/>
      </g>
     </g>
    </g>
    <g id="text_8">
     <!-- Frame -->
     <g transform="translate(727.065313 279.716563) scale(0.1 -0.1)">
      <defs>
       <path id="DejaVuSans-46" d="M 628 4666 
L 3309 4666 
L 3309 4134 
L 1259 4134 
L 1259 2759 
L 3109 2759 
L 3109 2228 
L 1259 2228 
L 1259 0 
L 628 0 
L 628 4666 
z
" transform="scale(0.015625)"/>
       <path id="DejaVuSans-72" d="M 2631 2963 
Q 2534 3019 2420 3045 
Q 2306 3072 2169 3072 
Q 1681 3072 1420 2755 
Q 1159 2438 1159 1844 
L 1159 0 
L 581 0 
L 581 3500 
L 1159 3500 
L 1159 2956 
Q 1341 3275 1631 3429 
Q 1922 3584 2338 3584 
Q 2397 3584 2469 3576 
Q 2541 3569 2628 3553 
L 2631 2963 
z
" transform="scale(0.015625)"/>
       <path id="DejaVuSans-61" d="M 2194 1759 
Q 1497 1759 1228 1600 
Q 959 1441 959 1056 
Q 959 750 1161 570 
Q 1363 391 1709 391 
Q 2188 391 2477 730 
Q 2766 1069 2766 1631 
L 2766 1759 
L 2194 1759 
z
M 3341 1997 
L 3341 0 
L 2766 0 
L 2766 531 
Q 2569 213 2275 61 
Q 1981 -91 1556 -91 
Q 1019 -91 701 211 
Q 384 513 384 1019 
Q 384 1609 779 1909 
Q 1175 2209 1959 2209 
L 2766 2209 
L 2766 2266 
Q 2766 2663 2505 2880 
Q 2244 3097 1772 3097 
Q 1472 3097 1187 3025 
Q 903 2953 641 2809 
L 641 3341 
Q 956 3463 1253 3523 
Q 1550 3584 1831 3584 
Q 2591 3584 2966 3190 
Q 3341 2797 3341 1997 
z
" transform="scale(0.015625)"/>
       <path id="DejaVuSans-6d" d="M 3328 2828 
Q 3544 3216 3844 3400 
Q 4144 3584 4550 3584 
Q 5097 3584 5394 3201 
Q 5691 2819 5691 2113 
L 5691 0 
L 5113 0 
L 5113 2094 
Q 5113 2597 4934 2840 
Q 4756 3084 4391 3084 
Q 3944 3084 3684 2787 
Q 3425 2491 3425 1978 
L 3425 0 
L 2847 0 
L 2847 2094 
Q 2847 2600 2669 2842 
Q 2491 3084 2119 3084 
Q 1678 3084 1418 2786 
Q 1159 2488 1159 1978 
L 1159 0 
L 581 0 
L 581 3500 
L 1159 3500 
L 1159 2956 
Q 1356 3278 1631 3431 
Q 1906 3584 2284 3584 
Q 2666 3584 2933 3390 
Q 3200 3197 3328 2828 
z
" transform="scale(0.015625)"/>
       <path id="DejaVuSans-65" d="M 3597 1894 
L 3597 1613 
L 953 1613 
Q 991 1019 1311 708 
Q 1631 397 2203 397 
Q 2534 397 2845 478 
Q 3156 559 3463 722 
L 3463 178 
Q 3153 47 2828 -22 
Q 2503 -91 2169 -91 
Q 1331 -91 842 396 
Q 353 884 353 1716 
Q 353 2575 817 3079 
Q 1281 3584 2069 3584 
Q 2775 3584 3186 3129 
Q 3597 2675 3597 1894 
z
M 3022 2063 
Q 3016 2534 2758 2815 
Q 2500 3097 2075 3097 
Q 1594 3097 1305 2825 
Q 1016 2553 972 2059 
L 3022 2063 
z
" transform="scale(0.015625)"/>
      </defs>
      <use xlink:href="#DejaVuSans-46"/>
      <use xlink:href="#DejaVuSans-72" x="50.269531"/>
      <use xlink:href="#DejaVuSans-61" x="91.382812"/>
      <use xlink:href="#DejaVuSans-6d" x="152.662109"/>
      <use xlink:href="#DejaVuSans-65" x="250.074219"/>
     </g>
    </g>
   </g>
   <g id="matplotlib.axis_2">
    <g id="ytick_1">
     <g id="line2d_8">
      <defs>
       <path id="m36c7f4b550" d="M 0 0 
L -3.5 0 
" style="stroke: #000000; stroke-width: 0.8"/>
      </defs>
      <g>
       <use xlink:href="#m36c7f4b550" x="56.09" y="249.859771" style="stroke: #000000; stroke-width: 0.8"/>
      </g>
     </g>
     <g id="text_9">
      <!-- −2.0 -->
      <g transform="translate(24.807188 253.65899) scale(0.1 -0.1)">
       <defs>
        <path id="DejaVuSans-2212" d="M 678 2272 
L 4684 2272 
L 4684 1741 
L 678 1741 
L 678 2272 
z
" transform="scale(0.015625)"/>
        <path id="DejaVuSans-2e" d="M 684 794 
L 1344 794 
L 1344 0 
L 684 0 
L 684 794 
z
" transform="scale(0.015625)"/>
       </defs>
       <use xlink:href="#DejaVuSans-2212"/>
       <use xlink:href="#DejaVuSans-32" x="83.789062"/>
       <use xlink:href="#DejaVuSans-2e" x="147.412109"/>
       <use xlink:href="#DejaVuSans-30" x="179.199219"/>
      </g>
     </g>
    </g>
    <g id="ytick_2">
     <g id="line2d_9">
      <g>
       <use xlink:href="#m36c7f4b550" x="56.09" y="219.004391" style="stroke: #000000; stroke-width: 0.8"/>
      </g>
     </g>
     <g id="text_10">
      <!-- −1.5 -->
      <g transform="translate(24.807188 222.80361) scale(0.1 -0.1)">
       <use xlink:href="#DejaVuSans-2212"/>
       <use xlink:href="#DejaVuSans-31" x="83.789062"/>
       <use xlink:href="#DejaVuSans-2e" x="147.412109"/>
       <use xlink:href="#DejaVuSans-35" x="179.199219"/>
      </g>
     </g>
    </g>
    <g id="ytick_3">
     <g id="line2d_10">
      <g>
       <use xlink:href="#m36c7f4b550" x="56.09" y="188.149011" style="stroke: #000000; stroke-width: 0.8"/>
      </g>
     </g>
     <g id="text_11">
      <!-- −1.0 -->
      <g transform="translate(24.807188 191.94823) scale(0.1 -0.1)">
       <use xlink:href="#DejaVuSans-2212"/>
       <use xlink:href="#DejaVuSans-31" x="83.789062"/>
       <use xlink:href="#DejaVuSans-2e" x="147.412109"/>
       <use xlink:href="#DejaVuSans-30" x="179.199219"/>
      </g>
     </g>
    </g>
    <g id="ytick_4">
     <g id="line2d_11">
      <g>
       <use xlink:href="#m36c7f4b550" x="56.09" y="157.293631" style="stroke: #000000; stroke-width: 0.8"/>
      </g>
     </g>
     <g id="text_12">
      <!-- −0.5 -->
      <g transform="translate(24.807188 161.09285) scale(0.1 -0.1)">
       <use xlink:href="#DejaVuSans-2212"/>
       <use xlink:href="#DejaVuSans-30" x="83.789062"/>
       <use xlink:href="#DejaVuSans-2e" x="147.412109"/>
       <use xlink:href="#DejaVuSans-35" x="179.199219"/>
      </g>
     </g>
    </g>
    <g id="ytick_5">
     <g id="line2d_12">
      <g>
       <use xlink:href="#m36c7f4b550" x="56.09" y="126.438251" style="stroke: #000000; stroke-width: 0.8"/>
      </g>
     </g>
     <g id="text_13">
      <!-- 0.0 -->
      <g transform="translate(33.186875 130.23747) scale(0.1 -0.1)">
       <use xlink:href="#DejaVuSans-30"/>
       <use xlink:href="#DejaVuSans-2e" x="63.623047"/>
       <use xlink:href="#DejaVuSans-30" x="95.410156"/>
      </g>
     </g>
    </g>
    <g id="ytick_6">
     <g id="line2d_13">
      <g>
       <use xlink:href="#m36c7f4b550" x="56.09" y="95.582871" style="stroke: #000000; stroke-width: 0.8"/>
      </g>
     </g>
     <g id="text_14">
      <!-- 0.5 -->
      <g transform="translate(33.186875 99.38209) scale(0.1 -0.1)">
       <use xlink:href="#DejaVuSans-30"/>
       <use xlink:href="#DejaVuSans-2e" x="63.623047"/>
       <use xlink:href="#DejaVuSans-35" x="95.410156"/>
      </g>
     </g>
    </g>
    <g id="ytick_7">
     <g id="line2d_14">
      <g>
       <use xlink:href="#m36c7f4b550" x="56.09" y="64.727491" style="stroke: #000000; stroke-width: 0.8"/>
      </g>
     </g>
     <g id="text_15">
      <!-- 1.0 -->
      <g transform="translate(33.186875 68.52671) scale(0.1 -0.1)">
       <use xlink:href="#DejaVuSans-31"/>
       <use xlink:href="#DejaVuSans-2e" x="63.623047"/>
       <use xlink:href="#DejaVuSans-30" x="95.410156"/>
      </g>
     </g>
    </g>
    <g id="ytick_8">
     <g id="line2d_15">
      <g>
       <use xlink:href="#m36c7f4b550" x="56.09" y="33.872111" style="stroke: #000000; stroke-width: 0.8"/>
      </g>
     </g>
     <g id="text_16">
      <!-- 1.5 -->
      <g transform="translate(33.186875 37.67133) scale(0.1 -0.1)">
       <use xlink:href="#DejaVuSans-31"/>
       <use xlink:href="#DejaVuSans-2e" x="63.623047"/>
       <use xlink:href="#DejaVuSans-35" x="95.410156"/>
      </g>
     </g>
    </g>
    <g id="text_17">
     <!-- Normalized signal -->
     <g transform="translate(18.7275 183.894375) rotate(-90) scale(0.1 -0.1)">
      <defs>
       <path id="DejaVuSans-4e" d="M 628 4666 
L 1478 4666 
L 3547 763 
L 3547 4666 
L 4159 4666 
L 4159 0 
L 3309 0 
L 1241 3903 
L 1241 0 
L 628 0 
L 628 4666 
z
" transform="scale(0.015625)"/>
       <path id="DejaVuSans-6f" d="M 1959 3097 
Q 1497 3097 1228 2736 
Q 959 2375 959 1747 
Q 959 1119 1226 758 
Q 1494 397 1959 397 
Q 2419 397 2687 759 
Q 2956 1122 2956 1747 
Q 2956 2369 2687 2733 
Q 2419 3097 1959 3097 
z
M 1959 3584 
Q 2709 3584 3137 3096 
Q 3566 2609 3566 1747 
Q 3566 888 3137 398 
Q 2709 -91 1959 -91 
Q 1206 -91 779 398 
Q 353 888 353 1747 
Q 353 2609 779 3096 
Q 1206 3584 1959 3584 
z
" transform="scale(0.015625)"/>
       <path id="DejaVuSans-6c" d="M 603 4863 
L 1178 4863 
L 1178 0 
L 603 0 
L 603 4863 
z
" transform="scale(0.015625)"/>
       <path id="DejaVuSans-69" d="M 603 3500 
L 1178 3500 
L 1178 0 
L 603 0 
L 603 3500 
z
M 603 4863 
L 1178 4863 
L 1178 4134 
L 603 4134 
L 603 4863 
z
" transform="scale(0.015625)"/>
       <path id="DejaVuSans-7a" d="M 353 3500 
L 3084 3500 
L 3084 2975 
L 922 459 
L 3084 459 
L 3084 0 
L 275 0 
L 275 525 
L 2438 3041 
L 353 3041 
L 353 3500 
z
" transform="scale(0.015625)"/>
       <path id="DejaVuSans-64" d="M 2906 2969 
L 2906 4863 
L 3481 4863 
L 3481 0 
L 2906 0 
L 2906 525 
Q 2725 213 2448 61 
Q 2172 -91 1784 -91 
Q 1150 -91 751 415 
Q 353 922 353 1747 
Q 353 2572 751 3078 
Q 1150 3584 1784 3584 
Q 2172 3584 2448 3432 
Q 2725 3281 2906 2969 
z
M 947 1747 
Q 947 1113 1208 752 
Q 1469 391 1925 391 
Q 2381 391 2643 752 
Q 2906 1113 2906 1747 
Q 2906 2381 2643 2742 
Q 2381 3103 1925 3103 
Q 1469 3103 1208 2742 
Q 947 2381 947 1747 
z
" transform="scale(0.015625)"/>
       <path id="DejaVuSans-20" transform="scale(0.015625)"/>
       <path id="DejaVuSans-73" d="M 2834 3397 
L 2834 2853 
Q 2591 2978 2328 3040 
Q 2066 3103 1784 3103 
Q 1356 3103 1142 2972 
Q 928 2841 928 2578 
Q 928 2378 1081 2264 
Q 1234 2150 1697 2047 
L 1894 2003 
Q 2506 1872 2764 1633 
Q 3022 1394 3022 966 
Q 3022 478 2636 193 
Q 2250 -91 1575 -91 
Q 1294 -91 989 -36 
Q 684 19 347 128 
L 347 722 
Q 666 556 975 473 
Q 1284 391 1588 391 
Q 1994 391 2212 530 
Q 2431 669 2431 922 
Q 2431 1156 2273 1281 
Q 2116 1406 1581 1522 
L 1381 1569 
Q 847 1681 609 1914 
Q 372 2147 372 2553 
Q 372 3047 722 3315 
Q 1072 3584 1716 3584 
Q 2034 3584 2315 3537 
Q 2597 3491 2834 3397 
z
" transform="scale(0.015625)"/>
       <path id="DejaVuSans-67" d="M 2906 1791 
Q 2906 2416 2648 2759 
Q 2391 3103 1925 3103 
Q 1463 3103 1205 2759 
Q 947 2416 947 1791 
Q 947 1169 1205 825 
Q 1463 481 1925 481 
Q 2391 481 2648 825 
Q 2906 1169 2906 1791 
z
M 3481 434 
Q 3481 -459 3084 -895 
Q 2688 -1331 1869 -1331 
Q 1566 -1331 1297 -1286 
Q 1028 -1241 775 -1147 
L 775 -588 
Q 1028 -725 1275 -790 
Q 1522 -856 1778 -856 
Q 2344 -856 2625 -561 
Q 2906 -266 2906 331 
L 2906 616 
Q 2728 306 2450 153 
Q 2172 0 1784 0 
Q 1141 0 747 490 
Q 353 981 353 1791 
Q 353 2603 747 3093 
Q 1141 3584 1784 3584 
Q 2172 3584 2450 3431 
Q 2728 3278 2906 2969 
L 2906 3500 
L 3481 3500 
L 3481 434 
z
" transform="scale(0.015625)"/>
       <path id="DejaVuSans-6e" d="M 3513 2113 
L 3513 0 
L 2938 0 
L 2938 2094 
Q 2938 2591 2744 2837 
Q 2550 3084 2163 3084 
Q 1697 3084 1428 2787 
Q 1159 2491 1159 1978 
L 1159 0 
L 581 0 
L 581 3500 
L 1159 3500 
L 1159 2956 
Q 1366 3272 1645 3428 
Q 1925 3584 2291 3584 
Q 2894 3584 3203 3211 
Q 3513 2838 3513 2113 
z
" transform="scale(0.015625)"/>
      </defs>
      <use xlink:href="#DejaVuSans-4e"/>
      <use xlink:href="#DejaVuSans-6f" x="74.804688"/>
      <use xlink:href="#DejaVuSans-72" x="135.986328"/>
      <use xlink:href="#DejaVuSans-6d" x="175.349609"/>
      <use xlink:href="#DejaVuSans-61" x="272.761719"/>
      <use xlink:href="#DejaVuSans-6c" x="334.041016"/>
      <use xlink:href="#DejaVuSans-69" x="361.824219"/>
      <use xlink:href="#DejaVuSans-7a" x="389.607422"/>
      <use xlink:href="#DejaVuSans-65" x="442.097656"/>
      <use xlink:href="#DejaVuSans-64" x="503.621094"/>
      <use xlink:href="#DejaVuSans-20" x="567.097656"/>
      <use xlink:href="#DejaVuSans-73" x="598.884766"/>
      <use xlink:href="#DejaVuSans-69" x="650.984375"/>
      <use xlink:href="#DejaVuSans-67" x="678.767578"/>
      <use xlink:href="#DejaVuSans-6e" x="742.244141"/>
      <use xlink:href="#DejaVuSans-61" x="805.623047"/>
      <use xlink:href="#DejaVuSans-6c" x="866.902344"/>
     </g>
    </g>
   </g>
   <g id="line2d_16">
    <path d="M 118.504091 96.40583 
L 120.588034 95.412971 
L 122.671977 94.642047 
L 124.75592 94.111295 
L 126.839863 93.837037 
L 128.923806 93.833387 
L 131.007749 94.11199 
L 133.091691 94.681786 
L 135.175634 95.548804 
L 137.259577 96.71599 
L 139.34352 98.183067 
L 141.427463 99.94643 
L 143.511406 101.999085 
L 145.595349 104.330623 
L 147.679292 106.927228 
L 149.763235 109.771741 
L 151.847178 112.843751 
L 156.015064 119.573252 
L 160.18295 126.893821 
L 172.686607 149.667104 
L 176.854493 156.527001 
L 178.938436 159.650584 
L 181.022379 162.523321 
L 183.106322 165.112817 
L 185.190265 167.389225 
L 187.274208 169.325629 
L 189.358151 170.8984 
L 191.442094 172.08751 
L 193.526037 172.876812 
L 195.60998 173.254262 
L 197.693922 173.212112 
L 199.777865 172.747034 
L 201.861808 171.860215 
L 203.945751 170.557382 
L 206.029694 168.848791 
L 208.113637 166.749155 
L 210.19758 164.277522 
L 212.281523 161.457104 
L 214.365466 158.315049 
L 216.449409 154.88217 
L 220.617295 147.28351 
L 224.785181 138.967452 
L 237.288838 113.187551 
L 241.456724 105.500728 
L 243.540667 102.015281 
L 245.62461 98.817373 
L 247.708553 95.940019 
L 249.792496 93.412913 
L 251.876439 91.262131 
L 253.960382 89.509879 
L 256.044325 88.174281 
L 258.128268 87.269204 
L 260.212211 86.804131 
L 262.296153 86.784068 
L 264.380096 87.209499 
L 266.464039 88.076383 
L 268.547982 89.376194 
L 270.631925 91.096001 
L 272.715868 93.218595 
L 274.799811 95.722654 
L 276.883754 98.582949 
L 278.967697 101.770594 
L 281.05164 105.25333 
L 285.219526 112.960148 
L 289.387412 121.390976 
L 301.891069 147.534322 
L 306.058955 155.343585 
L 308.142898 158.888256 
L 310.226841 162.142706 
L 312.310784 165.072584 
L 314.394727 167.646601 
L 316.47867 169.836828 
L 318.562613 171.618958 
L 320.646556 172.972545 
L 322.730499 173.881199 
L 324.814441 174.332743 
L 326.898384 174.319342 
L 328.982327 173.837578 
L 331.06627 172.888498 
L 333.150213 171.477609 
L 335.234156 169.61484 
L 337.318099 167.31446 
L 339.402042 164.594955 
L 341.485985 161.478866 
L 343.569928 157.992588 
L 345.653871 154.166124 
L 347.737814 150.032806 
L 351.9057 140.993635 
L 356.073586 131.195355 
L 368.577243 100.810556 
L 372.745129 91.563805 
L 374.829072 87.300094 
L 376.913015 83.327947 
L 378.996958 79.683101 
L 381.080901 76.398475 
L 383.164844 73.503912 
L 385.248787 71.025965 
L 387.33273 68.987696 
L 389.416672 67.408516 
L 391.500615 66.304046 
L 393.584558 65.686011 
L 395.668501 65.562155 
L 397.752444 65.936197 
L 399.836387 66.807804 
L 401.92033 68.172593 
L 404.004273 70.022173 
L 406.088216 72.344199 
L 408.172159 75.122469 
L 410.256102 78.337037 
L 412.340045 81.964367 
L 414.423988 85.977502 
L 416.507931 90.346274 
L 418.591874 95.03753 
L 422.759759 105.241559 
L 426.927645 116.2752 
L 441.515246 156.350069 
L 445.683132 166.731212 
L 447.767075 171.529647 
L 449.851018 176.015757 
L 451.934961 180.154471 
L 454.018903 183.91354 
L 456.102846 187.263797 
L 458.186789 190.179388 
L 460.270732 192.637963 
L 462.354675 194.620845 
L 464.438618 196.11316 
L 466.522561 197.10393 
L 468.606504 197.586134 
L 470.690447 197.55674 
L 472.77439 197.016688 
L 474.858333 195.970852 
L 476.942276 194.427965 
L 479.026219 192.400505 
L 481.110162 189.904553 
L 483.194105 186.959618 
L 485.278048 183.588426 
L 487.36199 179.816688 
L 489.445933 175.672827 
L 491.529876 171.187688 
L 495.697762 161.327182 
L 499.865648 150.518213 
L 504.033534 139.06169 
L 516.537192 103.870588 
L 520.705077 92.84363 
L 524.872963 82.610159 
L 526.956906 77.862854 
L 529.040849 73.396453 
L 531.124792 69.234477 
L 533.208735 65.398441 
L 535.292678 61.907823 
L 537.376621 58.780043 
L 539.460564 56.030459 
L 541.544507 53.672361 
L 543.62845 51.716979 
L 545.712393 50.173493 
L 547.796336 49.049044 
L 549.880278 48.348751 
L 551.964221 48.075728 
L 554.048164 48.231099 
L 556.132107 48.814019 
L 558.21605 49.821686 
L 560.299993 51.249358 
L 562.383936 53.090371 
L 564.467879 55.336155 
L 566.551822 57.976246 
L 568.635765 60.998307 
L 570.719708 64.388147 
L 572.803651 68.129744 
L 574.887594 72.205276 
L 576.971537 76.59515 
L 581.139423 86.230991 
L 585.307308 96.847052 
L 589.475194 108.228673 
L 595.727023 126.215348 
L 606.146738 156.458614 
L 610.314624 167.854901 
L 614.482509 178.443717 
L 616.566452 183.354076 
L 618.650395 187.967133 
L 620.734338 192.253604 
L 622.818281 196.185798 
L 624.902224 199.737831 
L 626.986167 202.885832 
L 629.07011 205.608139 
L 631.154053 207.885486 
L 633.237996 209.701181 
L 635.321939 211.041257 
L 637.405882 211.894621 
L 639.489825 212.25317 
L 641.573768 212.1119 
L 643.657711 211.468985 
L 645.741654 210.32584 
L 647.825596 208.687165 
L 649.909539 206.56096 
L 651.993482 203.958519 
L 654.077425 200.894407 
L 656.161368 197.386397 
L 658.245311 193.455399 
L 660.329254 189.125346 
L 662.413197 184.423065 
L 664.49714 179.378112 
L 668.665026 168.390881 
L 672.832912 156.446711 
L 679.08474 137.423249 
L 687.420512 111.746282 
L 691.588398 99.528825 
L 695.756284 88.150507 
L 697.840227 82.86761 
L 699.92417 77.900577 
L 702.008113 73.280436 
L 704.092056 69.035809 
L 706.175999 65.192763 
L 708.259942 61.774668 
L 710.343885 58.802086 
L 712.427827 56.292662 
L 714.51177 54.261044 
L 716.595713 52.718806 
L 718.679656 51.6744 
L 720.763599 51.133107 
L 722.847542 51.097017 
L 724.931485 51.565014 
L 727.015428 52.532778 
L 729.099371 53.992801 
L 731.183314 55.934422 
L 733.267257 58.343868 
L 735.3512 61.204322 
L 737.435143 64.495999 
L 739.519086 68.196239 
L 741.603029 72.279625 
L 743.686971 76.71811 
L 745.770914 81.481165 
L 749.9388 91.847519 
L 754.106686 103.091824 
L 760.358515 120.913233 
L 768.694287 144.693261 
L 772.862173 155.828479 
L 777.030058 166.028641 
L 779.114001 170.684833 
L 781.197944 174.999355 
L 783.281887 178.940852 
L 785.36583 182.480619 
L 787.449773 185.592826 
L 789.533716 188.254712 
L 791.617659 190.44676 
L 793.701602 192.152852 
L 795.785545 193.360393 
L 797.869488 194.060403 
L 799.953431 194.247595 
L 802.037374 193.920411 
L 804.121317 193.081042 
L 806.20526 191.735408 
L 808.289202 189.893124 
L 810.373145 187.567423 
L 812.457088 184.775065 
L 814.541031 181.536205 
L 816.624974 177.874247 
L 818.708917 173.815655 
L 820.79286 169.389746 
L 822.876803 164.628457 
L 827.044689 154.238984 
L 831.212575 142.94462 
L 837.464404 125.011146 
L 845.800175 100.997238 
L 849.968061 89.677104 
L 854.135947 79.213108 
L 856.21989 74.385269 
L 858.303833 69.86672 
L 860.387776 65.684274 
L 862.471719 61.862137 
L 864.555662 58.42181 
L 866.639605 55.382015 
L 868.723548 52.75865 
L 870.807491 50.564754 
L 872.891433 48.810498 
L 874.975376 47.5032 
L 877.059319 46.647342 
L 879.143262 46.244622 
L 881.227205 46.294004 
L 883.311148 46.791795 
L 885.395091 47.731727 
L 887.479034 49.105053 
L 889.562977 50.900659 
L 891.64692 53.105182 
L 893.730863 55.70314 
L 895.814806 58.677068 
L 897.898749 62.007672 
L 899.982692 65.673983 
L 902.066635 69.653523 
L 904.150577 73.922468 
L 908.318463 83.227588 
L 912.486349 93.378348 
L 916.654235 104.153021 
L 924.990007 126.66396 
L 931.241836 143.500503 
L 935.409722 154.297775 
L 939.577607 164.520516 
L 943.745493 173.987207 
L 947.913379 182.535285 
L 949.997322 186.419743 
L 952.081265 190.023193 
L 954.165208 193.331464 
L 956.249151 196.331844 
L 958.333094 199.013098 
L 960.417037 201.365474 
L 962.50098 203.380701 
L 964.584923 205.051989 
L 966.668866 206.374019 
L 968.752808 207.34293 
L 970.836751 207.956313 
L 972.920694 208.213193 
L 975.004637 208.114016 
L 977.08858 207.660634 
L 979.172523 206.856292 
L 981.256466 205.70561 
L 983.340409 204.214566 
L 985.424352 202.390486 
L 987.508295 200.242017 
L 989.592238 197.779113 
L 991.676181 195.013009 
L 993.760124 191.956192 
L 995.844067 188.622376 
L 997.92801 185.026456 
L 1002.095895 177.113527 
L 1006.263781 168.358316 
L 1010.431667 158.916789 
L 1014.599553 148.956964 
L 1022.935325 128.190455 
L 1031.271097 107.476568 
L 1035.438982 97.555283 
L 1039.606868 88.118275 
L 1043.774754 79.287123 
L 1047.94264 71.162073 
L 1052.110526 63.82175 
L 1054.194469 60.464733 
L 1056.278412 57.324112 
L 1058.362355 54.404222 
L 1060.446298 51.708393 
L 1062.530241 49.239041 
L 1064.614183 46.997777 
L 1066.698126 44.985505 
L 1068.782069 43.202529 
L 1070.866012 41.648656 
L 1072.949955 40.323296 
L 1075.033898 39.22556 
L 1077.117841 38.354345 
L 1079.201784 37.708419 
L 1081.285727 37.286491 
L 1083.36967 37.087273 
L 1085.453613 37.10953 
L 1087.537556 37.35212 
L 1089.621499 37.814016 
L 1091.705442 38.494324 
L 1093.789385 39.392279 
L 1095.873328 40.507232 
L 1097.95727 41.838632 
L 1100.041213 43.385983 
L 1102.125156 45.148797 
L 1104.209099 47.126544 
L 1106.293042 49.318579 
L 1108.376985 51.724072 
L 1110.460928 54.341928 
L 1112.544871 57.170708 
L 1114.628814 60.208537 
L 1118.7967 66.901157 
L 1122.964586 74.392857 
L 1127.132472 82.644415 
L 1131.300357 91.602105 
L 1135.468243 101.19609 
L 1139.636129 111.33967 
L 1145.887958 127.355259 
L 1156.307673 155.126005 
L 1162.559501 171.645866 
L 1166.727387 182.282289 
L 1170.895273 192.439272 
L 1175.063159 201.969311 
L 1179.231045 210.732414 
L 1183.398931 218.598265 
L 1185.482874 222.157061 
L 1187.566817 225.447888 
L 1189.65076 228.457859 
L 1191.734703 231.174944 
L 1193.818645 233.588006 
L 1195.902588 235.686823 
L 1197.986531 237.462131 
L 1200.070474 238.905647 
L 1202.154417 240.010113 
L 1204.23836 240.769327 
L 1206.322303 241.178185 
L 1208.406246 241.232727 
L 1210.490189 240.930178 
L 1212.574132 240.268996 
L 1214.658075 239.248926 
L 1216.742018 237.871045 
L 1218.825961 236.137814 
L 1220.909904 234.053131 
L 1222.993847 231.622376 
L 1225.077789 228.852452 
L 1227.161732 225.751834 
L 1229.245675 222.330592 
L 1231.329618 218.600426 
L 1233.413561 214.574675 
L 1235.497504 210.268325 
L 1239.66539 200.881943 
L 1243.833276 190.593411 
L 1248.001162 179.578994 
L 1254.252991 162.133378 
L 1266.756648 126.665381 
L 1270.924534 115.513469 
L 1275.09242 105.063497 
L 1279.260306 95.510761 
L 1281.344249 91.125097 
L 1283.428192 87.025171 
L 1285.512135 83.227383 
L 1287.596078 79.745946 
L 1289.68002 76.592785 
L 1291.763963 73.777451 
L 1293.847906 71.307074 
L 1295.931849 69.186317 
L 1298.015792 67.417367 
L 1300.099735 65.999939 
L 1302.183678 64.931299 
L 1304.267621 64.206317 
L 1306.351564 63.817525 
L 1308.435507 63.755208 
L 1310.51945 64.007503 
L 1312.603393 64.560521 
L 1314.687336 65.398489 
L 1316.771279 66.503904 
L 1318.855222 67.857709 
L 1320.939165 69.439482 
L 1323.023107 71.227639 
L 1325.10705 73.199658 
L 1329.274936 77.601866 
L 1333.442822 82.455974 
L 1341.778594 92.767585 
L 1348.030423 100.349357 
L 1352.198309 105.05809 
L 1356.366194 109.361582 
L 1360.53408 113.183036 
L 1364.701966 116.476251 
L 1366.785909 117.91847 
L 1366.785909 117.91847 
" clip-path="url(#p36623ce79b)" style="fill: none; stroke: #1f77b4; stroke-width: 1.5; stroke-linecap: square"/>
   </g>
   <g id="patch_3">
    <path d="M 56.09 251.44 
L 56.09 26.88 
" style="fill: none; stroke: #000000; stroke-width: 0.8; stroke-linejoin: miter; stroke-linecap: square"/>
   </g>
   <g id="patch_4">
    <path d="M 1429.2 251.44 
L 1429.2 26.88 
" style="fill: none; stroke: #000000; stroke-width: 0.8; stroke-linejoin: miter; stroke-linecap: square"/>
   </g>
   <g id="patch_5">
    <path d="M 56.09 251.44 
L 1429.2 251.44 
" style="fill: none; stroke: #000000; stroke-width: 0.8; stroke-linejoin: miter; stroke-linecap: square"/>
   </g>
   <g id="patch_6">
    <path d="M 56.09 26.88 
L 1429.2 26.88 
" style="fill: none; stroke: #000000; stroke-width: 0.8; stroke-linejoin: miter; stroke-linecap: square"/>
   </g>
   <g id="text_18">
    <!-- Ground truth -->
    <g transform="translate(703.89625 20.88) scale(0.12 -0.12)">
     <defs>
      <path id="DejaVuSans-47" d="M 3809 666 
L 3809 1919 
L 2778 1919 
L 2778 2438 
L 4434 2438 
L 4434 434 
Q 4069 175 3628 42 
Q 3188 -91 2688 -91 
Q 1594 -91 976 548 
Q 359 1188 359 2328 
Q 359 3472 976 4111 
Q 1594 4750 2688 4750 
Q 3144 4750 3555 4637 
Q 3966 4525 4313 4306 
L 4313 3634 
Q 3963 3931 3569 4081 
Q 3175 4231 2741 4231 
Q 1884 4231 1454 3753 
Q 1025 3275 1025 2328 
Q 1025 1384 1454 906 
Q 1884 428 2741 428 
Q 3075 428 3337 486 
Q 3600 544 3809 666 
z
" transform="scale(0.015625)"/>
      <path id="DejaVuSans-75" d="M 544 1381 
L 544 3500 
L 1119 3500 
L 1119 1403 
Q 1119 906 1312 657 
Q 1506 409 1894 409 
Q 2359 409 2629 706 
Q 2900 1003 2900 1516 
L 2900 3500 
L 3475 3500 
L 3475 0 
L 2900 0 
L 2900 538 
Q 2691 219 2414 64 
Q 2138 -91 1772 -91 
Q 1169 -91 856 284 
Q 544 659 544 1381 
z
M 1991 3584 
L 1991 3584 
z
" transform="scale(0.015625)"/>
      <path id="DejaVuSans-74" d="M 1172 4494 
L 1172 3500 
L 2356 3500 
L 2356 3053 
L 1172 3053 
L 1172 1153 
Q 1172 725 1289 603 
Q 1406 481 1766 481 
L 2356 481 
L 2356 0 
L 1766 0 
Q 1100 0 847 248 
Q 594 497 594 1153 
L 594 3053 
L 172 3053 
L 172 3500 
L 594 3500 
L 594 4494 
L 1172 4494 
z
" transform="scale(0.015625)"/>
      <path id="DejaVuSans-68" d="M 3513 2113 
L 3513 0 
L 2938 0 
L 2938 2094 
Q 2938 2591 2744 2837 
Q 2550 3084 2163 3084 
Q 1697 3084 1428 2787 
Q 1159 2491 1159 1978 
L 1159 0 
L 581 0 
L 581 4863 
L 1159 4863 
L 1159 2956 
Q 1366 3272 1645 3428 
Q 1925 3584 2291 3584 
Q 2894 3584 3203 3211 
Q 3513 2838 3513 2113 
z
" transform="scale(0.015625)"/>
     </defs>
     <use xlink:href="#DejaVuSans-47"/>
     <use xlink:href="#DejaVuSans-72" x="77.490234"/>
     <use xlink:href="#DejaVuSans-6f" x="116.353516"/>
     <use xlink:href="#DejaVuSans-75" x="177.535156"/>
     <use xlink:href="#DejaVuSans-6e" x="240.914062"/>
     <use xlink:href="#DejaVuSans-64" x="304.292969"/>
     <use xlink:href="#DejaVuSans-20" x="367.769531"/>
     <use xlink:href="#DejaVuSans-74" x="399.556641"/>
     <use xlink:href="#DejaVuSans-72" x="438.765625"/>
     <use xlink:href="#DejaVuSans-75" x="479.878906"/>
     <use xlink:href="#DejaVuSans-74" x="543.257812"/>
     <use xlink:href="#DejaVuSans-68" x="582.466797"/>
    </g>
   </g>
  </g>
  <g id="axes_2">
   <g id="patch_7">
    <path d="M 56.09 534.04 
L 1429.2 534.04 
L 1429.2 309.48 
L 56.09 309.48 
z
" style="fill: #ffffff"/>
   </g>
   <g id="matplotlib.axis_3">
    <g id="xtick_8">
     <g id="line2d_17">
      <g>
       <use xlink:href="#ma100d290c5" x="118.504091" y="534.04" style="stroke: #000000; stroke-width: 0.8"/>
      </g>
     </g>
     <g id="text_19">
      <!-- 0 -->
      <g transform="translate(115.322841 548.638438) scale(0.1 -0.1)">
       <use xlink:href="#DejaVuSans-30"/>
      </g>
     </g>
    </g>
    <g id="xtick_9">
     <g id="line2d_18">
      <g>
       <use xlink:href="#ma100d290c5" x="327.24687" y="534.04" style="stroke: #000000; stroke-width: 0.8"/>
      </g>
     </g>
     <g id="text_20">
      <!-- 100 -->
      <g transform="translate(317.70312 548.638438) scale(0.1 -0.1)">
       <use xlink:href="#DejaVuSans-31"/>
       <use xlink:href="#DejaVuSans-30" x="63.623047"/>
       <use xlink:href="#DejaVuSans-30" x="127.246094"/>
      </g>
     </g>
    </g>
    <g id="xtick_10">
     <g id="line2d_19">
      <g>
       <use xlink:href="#ma100d290c5" x="535.989649" y="534.04" style="stroke: #000000; stroke-width: 0.8"/>
      </g>
     </g>
     <g id="text_21">
      <!-- 200 -->
      <g transform="translate(526.445899 548.638438) scale(0.1 -0.1)">
       <use xlink:href="#DejaVuSans-32"/>
       <use xlink:href="#DejaVuSans-30" x="63.623047"/>
       <use xlink:href="#DejaVuSans-30" x="127.246094"/>
      </g>
     </g>
    </g>
    <g id="xtick_11">
     <g id="line2d_20">
      <g>
       <use xlink:href="#ma100d290c5" x="744.732428" y="534.04" style="stroke: #000000; stroke-width: 0.8"/>
      </g>
     </g>
     <g id="text_22">
      <!-- 300 -->
      <g transform="translate(735.188678 548.638438) scale(0.1 -0.1)">
       <use xlink:href="#DejaVuSans-33"/>
       <use xlink:href="#DejaVuSans-30" x="63.623047"/>
       <use xlink:href="#DejaVuSans-30" x="127.246094"/>
      </g>
     </g>
    </g>
    <g id="xtick_12">
     <g id="line2d_21">
      <g>
       <use xlink:href="#ma100d290c5" x="953.475207" y="534.04" style="stroke: #000000; stroke-width: 0.8"/>
      </g>
     </g>
     <g id="text_23">
      <!-- 400 -->
      <g transform="translate(943.931457 548.638438) scale(0.1 -0.1)">
       <use xlink:href="#DejaVuSans-34"/>
       <use xlink:href="#DejaVuSans-30" x="63.623047"/>
       <use xlink:href="#DejaVuSans-30" x="127.246094"/>
      </g>
     </g>
    </g>
    <g id="xtick_13">
     <g id="line2d_22">
      <g>
       <use xlink:href="#ma100d290c5" x="1162.217986" y="534.04" style="stroke: #000000; stroke-width: 0.8"/>
      </g>
     </g>
     <g id="text_24">
      <!-- 500 -->
      <g transform="translate(1152.674236 548.638438) scale(0.1 -0.1)">
       <use xlink:href="#DejaVuSans-35"/>
       <use xlink:href="#DejaVuSans-30" x="63.623047"/>
       <use xlink:href="#DejaVuSans-30" x="127.246094"/>
      </g>
     </g>
    </g>
    <g id="xtick_14">
     <g id="line2d_23">
      <g>
       <use xlink:href="#ma100d290c5" x="1370.960765" y="534.04" style="stroke: #000000; stroke-width: 0.8"/>
      </g>
     </g>
     <g id="text_25">
      <!-- 600 -->
      <g transform="translate(1361.417015 548.638438) scale(0.1 -0.1)">
       <use xlink:href="#DejaVuSans-36"/>
       <use xlink:href="#DejaVuSans-30" x="63.623047"/>
       <use xlink:href="#DejaVuSans-30" x="127.246094"/>
      </g>
     </g>
    </g>
    <g id="text_26">
     <!-- Frame -->
     <g transform="translate(727.065313 562.316562) scale(0.1 -0.1)">
      <use xlink:href="#DejaVuSans-46"/>
      <use xlink:href="#DejaVuSans-72" x="50.269531"/>
      <use xlink:href="#DejaVuSans-61" x="91.382812"/>
      <use xlink:href="#DejaVuSans-6d" x="152.662109"/>
      <use xlink:href="#DejaVuSans-65" x="250.074219"/>
     </g>
    </g>
   </g>
   <g id="matplotlib.axis_4">
    <g id="ytick_9">
     <g id="line2d_24">
      <g>
       <use xlink:href="#m36c7f4b550" x="56.09" y="532.946773" style="stroke: #000000; stroke-width: 0.8"/>
      </g>
     </g>
     <g id="text_27">
      <!-- −2.5 -->
      <g transform="translate(24.807188 536.745992) scale(0.1 -0.1)">
       <use xlink:href="#DejaVuSans-2212"/>
       <use xlink:href="#DejaVuSans-32" x="83.789062"/>
       <use xlink:href="#DejaVuSans-2e" x="147.412109"/>
       <use xlink:href="#DejaVuSans-35" x="179.199219"/>
      </g>
     </g>
    </g>
    <g id="ytick_10">
     <g id="line2d_25">
      <g>
       <use xlink:href="#m36c7f4b550" x="56.09" y="502.639017" style="stroke: #000000; stroke-width: 0.8"/>
      </g>
     </g>
     <g id="text_28">
      <!-- −2.0 -->
      <g transform="translate(24.807188 506.438235) scale(0.1 -0.1)">
       <use xlink:href="#DejaVuSans-2212"/>
       <use xlink:href="#DejaVuSans-32" x="83.789062"/>
       <use xlink:href="#DejaVuSans-2e" x="147.412109"/>
       <use xlink:href="#DejaVuSans-30" x="179.199219"/>
      </g>
     </g>
    </g>
    <g id="ytick_11">
     <g id="line2d_26">
      <g>
       <use xlink:href="#m36c7f4b550" x="56.09" y="472.33126" style="stroke: #000000; stroke-width: 0.8"/>
      </g>
     </g>
     <g id="text_29">
      <!-- −1.5 -->
      <g transform="translate(24.807188 476.130479) scale(0.1 -0.1)">
       <use xlink:href="#DejaVuSans-2212"/>
       <use xlink:href="#DejaVuSans-31" x="83.789062"/>
       <use xlink:href="#DejaVuSans-2e" x="147.412109"/>
       <use xlink:href="#DejaVuSans-35" x="179.199219"/>
      </g>
     </g>
    </g>
    <g id="ytick_12">
     <g id="line2d_27">
      <g>
       <use xlink:href="#m36c7f4b550" x="56.09" y="442.023504" style="stroke: #000000; stroke-width: 0.8"/>
      </g>
     </g>
     <g id="text_30">
      <!-- −1.0 -->
      <g transform="translate(24.807188 445.822722) scale(0.1 -0.1)">
       <use xlink:href="#DejaVuSans-2212"/>
       <use xlink:href="#DejaVuSans-31" x="83.789062"/>
       <use xlink:href="#DejaVuSans-2e" x="147.412109"/>
       <use xlink:href="#DejaVuSans-30" x="179.199219"/>
      </g>
     </g>
    </g>
    <g id="ytick_13">
     <g id="line2d_28">
      <g>
       <use xlink:href="#m36c7f4b550" x="56.09" y="411.715747" style="stroke: #000000; stroke-width: 0.8"/>
      </g>
     </g>
     <g id="text_31">
      <!-- −0.5 -->
      <g transform="translate(24.807188 415.514966) scale(0.1 -0.1)">
       <use xlink:href="#DejaVuSans-2212"/>
       <use xlink:href="#DejaVuSans-30" x="83.789062"/>
       <use xlink:href="#DejaVuSans-2e" x="147.412109"/>
       <use xlink:href="#DejaVuSans-35" x="179.199219"/>
      </g>
     </g>
    </g>
    <g id="ytick_14">
     <g id="line2d_29">
      <g>
       <use xlink:href="#m36c7f4b550" x="56.09" y="381.40799" style="stroke: #000000; stroke-width: 0.8"/>
      </g>
     </g>
     <g id="text_32">
      <!-- 0.0 -->
      <g transform="translate(33.186875 385.207209) scale(0.1 -0.1)">
       <use xlink:href="#DejaVuSans-30"/>
       <use xlink:href="#DejaVuSans-2e" x="63.623047"/>
       <use xlink:href="#DejaVuSans-30" x="95.410156"/>
      </g>
     </g>
    </g>
    <g id="ytick_15">
     <g id="line2d_30">
      <g>
       <use xlink:href="#m36c7f4b550" x="56.09" y="351.100234" style="stroke: #000000; stroke-width: 0.8"/>
      </g>
     </g>
     <g id="text_33">
      <!-- 0.5 -->
      <g transform="translate(33.186875 354.899453) scale(0.1 -0.1)">
       <use xlink:href="#DejaVuSans-30"/>
       <use xlink:href="#DejaVuSans-2e" x="63.623047"/>
       <use xlink:href="#DejaVuSans-35" x="95.410156"/>
      </g>
     </g>
    </g>
    <g id="ytick_16">
     <g id="line2d_31">
      <g>
       <use xlink:href="#m36c7f4b550" x="56.09" y="320.792477" style="stroke: #000000; stroke-width: 0.8"/>
      </g>
     </g>
     <g id="text_34">
      <!-- 1.0 -->
      <g transform="translate(33.186875 324.591696) scale(0.1 -0.1)">
       <use xlink:href="#DejaVuSans-31"/>
       <use xlink:href="#DejaVuSans-2e" x="63.623047"/>
       <use xlink:href="#DejaVuSans-30" x="95.410156"/>
      </g>
     </g>
    </g>
    <g id="text_35">
     <!-- Normalized signal -->
     <g transform="translate(18.7275 466.494375) rotate(-90) scale(0.1 -0.1)">
      <use xlink:href="#DejaVuSans-4e"/>
      <use xlink:href="#DejaVuSans-6f" x="74.804688"/>
      <use xlink:href="#DejaVuSans-72" x="135.986328"/>
      <use xlink:href="#DejaVuSans-6d" x="175.349609"/>
      <use xlink:href="#DejaVuSans-61" x="272.761719"/>
      <use xlink:href="#DejaVuSans-6c" x="334.041016"/>
      <use xlink:href="#DejaVuSans-69" x="361.824219"/>
      <use xlink:href="#DejaVuSans-7a" x="389.607422"/>
      <use xlink:href="#DejaVuSans-65" x="442.097656"/>
      <use xlink:href="#DejaVuSans-64" x="503.621094"/>
      <use xlink:href="#DejaVuSans-20" x="567.097656"/>
      <use xlink:href="#DejaVuSans-73" x="598.884766"/>
      <use xlink:href="#DejaVuSans-69" x="650.984375"/>
      <use xlink:href="#DejaVuSans-67" x="678.767578"/>
      <use xlink:href="#DejaVuSans-6e" x="742.244141"/>
      <use xlink:href="#DejaVuSans-61" x="805.623047"/>
      <use xlink:href="#DejaVuSans-6c" x="866.902344"/>
     </g>
    </g>
   </g>
   <g id="line2d_32">
    <path d="M 118.504091 408.912885 
L 124.766374 436.108124 
L 128.94123 453.261294 
L 133.116085 469.18252 
L 135.203513 476.570826 
L 137.290941 483.524269 
L 139.378369 490.006875 
L 141.465797 495.986224 
L 143.553224 501.433665 
L 145.640652 506.324503 
L 147.72808 510.638139 
L 149.815508 514.358174 
L 151.902936 517.472476 
L 153.990363 519.973215 
L 156.077791 521.856847 
L 158.165219 523.12407 
L 160.252647 523.779736 
L 162.340074 523.832727 
L 164.427502 523.295812 
L 166.51493 522.18546 
L 168.602358 520.521641 
L 170.689786 518.327604 
L 172.777213 515.629647 
L 174.864641 512.456875 
L 176.952069 508.840946 
L 179.039497 504.815819 
L 181.126925 500.417474 
L 183.214352 495.683644 
L 187.389208 485.367643 
L 191.564064 474.19497 
L 197.826347 456.572892 
L 204.08863 438.939387 
L 208.263486 427.727424 
L 212.438341 417.305862 
L 214.525769 412.476981 
L 216.613197 407.943333 
L 218.700625 403.731817 
L 220.788053 399.866196 
L 222.87548 396.366904 
L 224.962908 393.25088 
L 227.050336 390.531436 
L 229.137764 388.218148 
L 231.225192 386.316791 
L 233.312619 384.829298 
L 235.400047 383.753759 
L 237.487475 383.084451 
L 239.574903 382.811909 
L 241.66233 382.923023 
L 243.749758 383.40115 
L 245.837186 384.22627 
L 247.924614 385.375159 
L 250.012042 386.821609 
L 252.099469 388.536668 
L 254.186897 390.488921 
L 256.274325 392.644783 
L 260.449181 397.424192 
L 272.973747 412.759904 
L 275.061175 415.059662 
L 277.148603 417.189606 
L 279.236031 419.117147 
L 281.323458 420.811957 
L 283.410886 422.246238 
L 285.498314 423.394961 
L 287.585742 424.236078 
L 289.67317 424.750699 
L 291.760597 424.923247 
L 293.848025 424.741582 
L 295.935453 424.197098 
L 298.022881 423.284799 
L 300.110309 422.003337 
L 302.197736 420.355028 
L 304.285164 418.345836 
L 306.372592 415.985317 
L 308.46002 413.286541 
L 310.547448 410.265989 
L 312.634875 406.943421 
L 314.722303 403.34172 
L 318.897159 395.40699 
L 323.072014 386.69982 
L 329.334298 372.795659 
L 335.596581 358.788989 
L 339.771437 349.912649 
L 343.946292 341.754303 
L 346.03372 338.030464 
L 348.121148 334.585202 
L 350.208576 331.446574 
L 352.296003 328.639737 
L 354.383431 326.186705 
L 356.470859 324.106137 
L 358.558287 322.413144 
L 360.645715 321.119129 
L 362.733142 320.231669 
L 364.82057 319.754452 
L 366.907998 319.687273 
L 368.995426 320.026083 
L 371.082853 320.763081 
L 373.170281 321.886854 
L 375.257709 323.38257 
L 377.345137 325.232222 
L 379.432565 327.414909 
L 381.519992 329.907132 
L 383.60742 332.683095 
L 385.694848 335.715003 
L 389.869704 342.427324 
L 394.044559 349.793462 
L 400.306843 361.492668 
L 406.569126 373.182994 
L 410.743981 380.555785 
L 414.918837 387.329954 
L 417.006265 390.430769 
L 419.093693 393.311671 
L 421.18112 395.953468 
L 423.268548 398.339139 
L 425.355976 400.453882 
L 427.443404 402.285141 
L 429.530832 403.822614 
L 431.618259 405.05825 
L 433.705687 405.986237 
L 435.793115 406.602985 
L 437.880543 406.907103 
L 439.967971 406.899368 
L 442.055398 406.58269 
L 444.142826 405.962066 
L 446.230254 405.044532 
L 448.317682 403.839098 
L 450.405109 402.356676 
L 452.492537 400.61 
L 454.579965 398.613534 
L 456.667393 396.383391 
L 458.754821 393.937229 
L 462.929676 388.474594 
L 467.104532 382.393598 
L 471.279387 375.879001 
L 485.891382 352.534355 
L 490.066237 346.5223 
L 494.241093 341.12926 
L 496.328521 338.710847 
L 498.415949 336.498953 
L 500.503376 334.507101 
L 502.590804 332.746882 
L 504.678232 331.22792 
L 506.76566 329.957861 
L 508.853088 328.942405 
L 510.940515 328.185357 
L 513.027943 327.688697 
L 515.115371 327.452664 
L 517.202799 327.475838 
L 519.290227 327.75524 
L 521.377654 328.286425 
L 523.465082 329.063585 
L 525.55251 330.079649 
L 527.639938 331.326374 
L 529.727365 332.794448 
L 531.814793 334.473575 
L 533.902221 336.352567 
L 535.989649 338.419442 
L 540.164504 343.065522 
L 544.33936 348.303775 
L 548.514216 354.019731 
L 552.689071 360.095507 
L 558.951355 369.623973 
L 569.388493 385.637463 
L 573.563349 391.761194 
L 577.738205 397.565256 
L 581.91306 402.953218 
L 586.087916 407.837946 
L 590.262771 412.14296 
L 592.350199 414.05726 
L 594.437627 415.803076 
L 596.525055 417.374018 
L 598.612483 418.764367 
L 600.69991 419.969045 
L 602.787338 420.983578 
L 604.874766 421.804055 
L 606.962194 422.427081 
L 609.049621 422.849752 
L 611.137049 423.069637 
L 613.224477 423.084767 
L 615.311905 422.893643 
L 617.399333 422.495251 
L 619.48676 421.889079 
L 621.574188 421.075145 
L 623.661616 420.054031 
L 625.749044 418.826929 
L 627.836472 417.395706 
L 629.923899 415.762984 
L 632.011327 413.932219 
L 634.098755 411.907784 
L 636.186183 409.695055 
L 638.273611 407.300486 
L 642.448466 401.997516 
L 646.623322 396.07501 
L 650.798177 389.630972 
L 654.973033 382.786703 
L 663.322744 368.498078 
L 669.585027 357.955258 
L 673.759883 351.376815 
L 677.934739 345.393649 
L 680.022166 342.686388 
L 682.109594 340.199503 
L 684.197022 337.954546 
L 686.28445 335.9715 
L 688.371877 334.268555 
L 690.459305 332.861907 
L 692.546733 331.765578 
L 694.634161 330.991281 
L 696.721589 330.548309 
L 698.809016 330.443469 
L 700.896444 330.681032 
L 702.983872 331.262717 
L 705.0713 332.18768 
L 707.158728 333.452524 
L 709.246155 335.051332 
L 711.333583 336.975708 
L 713.421011 339.214841 
L 715.508439 341.755579 
L 717.595867 344.582523 
L 719.683294 347.678142 
L 721.770722 351.022894 
L 725.945578 358.372503 
L 730.120433 366.440808 
L 734.295289 375.015717 
L 748.907283 405.668207 
L 753.082139 413.642048 
L 757.256995 420.866725 
L 759.344422 424.138819 
L 761.43185 427.155734 
L 763.519278 429.898476 
L 765.606706 432.349977 
L 767.694133 434.495178 
L 769.781561 436.321084 
L 771.868989 437.816817 
L 773.956417 438.973665 
L 776.043845 439.785116 
L 778.131272 440.246889 
L 780.2187 440.356954 
L 782.306128 440.115557 
L 784.393556 439.525227 
L 786.480984 438.590772 
L 788.568411 437.319266 
L 790.655839 435.720015 
L 792.743267 433.804514 
L 794.830695 431.586383 
L 796.918123 429.0813 
L 799.00555 426.306908 
L 801.092978 423.282723 
L 805.267834 416.571718 
L 809.442689 409.137266 
L 813.617545 401.189643 
L 828.229539 372.65075 
L 832.404395 365.247422 
L 836.579251 358.573018 
L 838.666678 355.566699 
L 840.754106 352.807799 
L 842.841534 350.313706 
L 844.928962 348.099455 
L 847.016389 346.177639 
L 849.103817 344.558348 
L 851.191245 343.249131 
L 853.278673 342.254974 
L 855.366101 341.578288 
L 857.453528 341.218919 
L 859.540956 341.174178 
L 861.628384 341.438899 
L 863.715812 342.005513 
L 865.80324 342.864146 
L 867.890667 344.002733 
L 869.978095 345.407151 
L 872.065523 347.061374 
L 874.152951 348.947645 
L 876.240379 351.046678 
L 878.327806 353.337889 
L 882.502662 358.409548 
L 886.677517 363.981882 
L 892.939801 372.876653 
L 901.289512 384.822961 
L 905.464368 390.48644 
L 909.639223 395.773265 
L 913.814079 400.583531 
L 917.988934 404.841413 
L 920.076362 406.746219 
L 922.16379 408.495535 
L 924.251218 410.086592 
L 926.338645 411.517951 
L 928.426073 412.789416 
L 930.513501 413.901933 
L 932.600929 414.857491 
L 934.688357 415.659021 
L 936.775784 416.31028 
L 938.863212 416.815745 
L 940.95064 417.18051 
L 943.038068 417.410182 
L 945.125496 417.510787 
L 947.212923 417.488669 
L 951.387779 417.102644 
L 955.562635 416.305483 
L 959.73749 415.149394 
L 963.912346 413.682487 
L 968.087201 411.94606 
L 972.262057 409.972212 
L 976.436912 407.782147 
L 980.611768 405.385331 
L 984.786624 402.779617 
L 988.961479 399.952676 
L 993.136335 396.884873 
L 997.31119 393.553541 
L 1001.486046 389.938106 
L 1005.660901 386.025029 
L 1009.835757 381.812032 
L 1014.010613 377.31141 
L 1018.185468 372.552166 
L 1024.447752 365.034608 
L 1041.147174 344.582171 
L 1045.322029 339.886542 
L 1049.496885 335.558593 
L 1053.671741 331.694171 
L 1055.759168 329.963897 
L 1057.846596 328.382208 
L 1059.934024 326.958831 
L 1062.021452 325.702823 
L 1064.10888 324.622501 
L 1066.196307 323.72538 
L 1068.283735 323.01811 
L 1070.371163 322.506427 
L 1072.458591 322.195113 
L 1074.546019 322.087965 
L 1076.633446 322.187787 
L 1078.720874 322.496377 
L 1080.808302 323.014524 
L 1082.89573 323.741988 
L 1084.983157 324.677481 
L 1087.070585 325.818647 
L 1089.158013 327.162043 
L 1091.245441 328.703131 
L 1093.332869 330.436273 
L 1095.420296 332.354742 
L 1097.507724 334.450737 
L 1101.68258 339.138938 
L 1105.857435 344.418572 
L 1110.032291 350.193669 
L 1114.207147 356.357216 
L 1120.46943 366.078392 
L 1132.993997 385.777279 
L 1137.168852 392.017209 
L 1141.343708 397.938661 
L 1145.518563 403.468944 
L 1149.693419 408.550172 
L 1153.868275 413.138797 
L 1158.04313 417.204342 
L 1162.217986 420.72761 
L 1164.305413 422.282511 
L 1166.392841 423.698801 
L 1168.480269 424.976429 
L 1170.567697 426.115715 
L 1172.655125 427.117305 
L 1174.742552 427.982132 
L 1176.82998 428.711382 
L 1178.917408 429.306459 
L 1181.004836 429.768951 
L 1183.092264 430.100597 
L 1185.179691 430.303252 
L 1187.267119 430.378864 
L 1189.354547 430.329444 
L 1191.441975 430.157042 
L 1193.529403 429.86373 
L 1195.61683 429.451588 
L 1197.704258 428.922693 
L 1201.879114 427.52297 
L 1206.053969 425.681347 
L 1210.228825 423.415231 
L 1214.40368 420.743495 
L 1218.578536 417.687869 
L 1222.753392 414.274751 
L 1226.928247 410.53693 
L 1231.103103 406.514773 
L 1237.365386 400.056838 
L 1245.715097 390.970809 
L 1254.064808 381.866928 
L 1260.327092 375.415166 
L 1264.501947 371.450956 
L 1268.676803 367.851452 
L 1272.851659 364.690846 
L 1277.026514 362.032614 
L 1279.113942 360.907931 
L 1281.20137 359.926068 
L 1283.288798 359.090541 
L 1285.376225 358.403702 
L 1287.463653 357.866701 
L 1289.551081 357.479464 
L 1291.638509 357.240684 
L 1293.725936 357.147825 
L 1295.813364 357.197147 
L 1297.900792 357.383742 
L 1299.98822 357.701592 
L 1302.075648 358.143639 
L 1306.250503 359.367351 
L 1310.425359 360.980683 
L 1314.600214 362.898351 
L 1320.862498 366.142132 
L 1333.387064 372.815786 
L 1337.56192 374.802979 
L 1341.736776 376.570998 
L 1345.911631 378.082442 
L 1350.086487 379.317339 
L 1354.261342 380.273392 
L 1358.436198 380.964872 
L 1362.611054 381.420192 
L 1366.785909 381.678398 
L 1366.785909 381.678398 
" clip-path="url(#p877f6d1fe8)" style="fill: none; stroke: #1f77b4; stroke-width: 1.5; stroke-linecap: square"/>
   </g>
   <g id="patch_8">
    <path d="M 56.09 534.04 
L 56.09 309.48 
" style="fill: none; stroke: #000000; stroke-width: 0.8; stroke-linejoin: miter; stroke-linecap: square"/>
   </g>
   <g id="patch_9">
    <path d="M 1429.2 534.04 
L 1429.2 309.48 
" style="fill: none; stroke: #000000; stroke-width: 0.8; stroke-linejoin: miter; stroke-linecap: square"/>
   </g>
   <g id="patch_10">
    <path d="M 56.09 534.04 
L 1429.2 534.04 
" style="fill: none; stroke: #000000; stroke-width: 0.8; stroke-linejoin: miter; stroke-linecap: square"/>
   </g>
   <g id="patch_11">
    <path d="M 56.09 309.48 
L 1429.2 309.48 
" style="fill: none; stroke: #000000; stroke-width: 0.8; stroke-linejoin: miter; stroke-linecap: square"/>
   </g>
   <g id="text_36">
    <!-- Predicted -->
    <g transform="translate(714.480625 303.48) scale(0.12 -0.12)">
     <defs>
      <path id="DejaVuSans-50" d="M 1259 4147 
L 1259 2394 
L 2053 2394 
Q 2494 2394 2734 2622 
Q 2975 2850 2975 3272 
Q 2975 3691 2734 3919 
Q 2494 4147 2053 4147 
L 1259 4147 
z
M 628 4666 
L 2053 4666 
Q 2838 4666 3239 4311 
Q 3641 3956 3641 3272 
Q 3641 2581 3239 2228 
Q 2838 1875 2053 1875 
L 1259 1875 
L 1259 0 
L 628 0 
L 628 4666 
z
" transform="scale(0.015625)"/>
      <path id="DejaVuSans-63" d="M 3122 3366 
L 3122 2828 
Q 2878 2963 2633 3030 
Q 2388 3097 2138 3097 
Q 1578 3097 1268 2742 
Q 959 2388 959 1747 
Q 959 1106 1268 751 
Q 1578 397 2138 397 
Q 2388 397 2633 464 
Q 2878 531 3122 666 
L 3122 134 
Q 2881 22 2623 -34 
Q 2366 -91 2075 -91 
Q 1284 -91 818 406 
Q 353 903 353 1747 
Q 353 2603 823 3093 
Q 1294 3584 2113 3584 
Q 2378 3584 2631 3529 
Q 2884 3475 3122 3366 
z
" transform="scale(0.015625)"/>
     </defs>
     <use xlink:href="#DejaVuSans-50"/>
     <use xlink:href="#DejaVuSans-72" x="58.552734"/>
     <use xlink:href="#DejaVuSans-65" x="97.416016"/>
     <use xlink:href="#DejaVuSans-64" x="158.939453"/>
     <use xlink:href="#DejaVuSans-69" x="222.416016"/>
     <use xlink:href="#DejaVuSans-63" x="250.199219"/>
     <use xlink:href="#DejaVuSans-74" x="305.179688"/>
     <use xlink:href="#DejaVuSans-65" x="344.388672"/>
     <use xlink:href="#DejaVuSans-64" x="405.912109"/>
    </g>
   </g>
  </g>
 </g>
 <defs>
  <clipPath id="p36623ce79b">
   <rect x="56.09" y="26.88" width="1373.11" height="224.56"/>
  </clipPath>
  <clipPath id="p877f6d1fe8">
   <rect x="56.09" y="309.48" width="1373.11" height="224.56"/>
  </clipPath>
 </defs>
</svg>
