<?xml version="1.0" encoding="utf-8" standalone="no"?>
<!DOCTYPE svg PUBLIC "-//W3C//DTD SVG 1.1//EN"
  "http://www.w3.org/Graphics/SVG/1.1/DTD/svg11.dtd">
<svg xmlns:xlink="http://www.w3.org/1999/xlink" width="1440pt" height="576pt" viewBox="0 0 1440 576" xmlns="http://www.w3.org/2000/svg" version="1.1">
 <metadata>
  <rdf:RDF xmlns:dc="http://purl.org/dc/elements/1.1/" xmlns:cc="http://creativecommons.org/ns#" xmlns:rdf="http://www.w3.org/1999/02/22-rdf-syntax-ns#">
   <cc:Work>
    <dc:type rdf:resource="http://purl.org/dc/dcmitype/StillImage"/>
    <dc:date>2024-08-28T11:48:07.584877</dc:date>
    <dc:format>image/svg+xml</dc:format>
    <dc:creator>
     <cc:Agent>
      <dc:title>Matplotlib v3.9.2, https://matplotlib.org/</dc:title>
     </cc:Agent>
    </dc:creator>
   </cc:Work>
  </rdf:RDF>
 </metadata>
 <defs>
  <style type="text/css">*{stroke-linejoin: round; stroke-linecap: butt}</style>
 </defs>
 <g id="figure_1">
  <g id="patch_1">
   <path d="M 0 576 
L 1440 576 
L 1440 0 
L 0 0 
z
" style="fill: #ffffff"/>
  </g>
  <g id="axes_1">
   <g id="patch_2">
    <path d="M 180 512.64 
L 1296 512.64 
L 1296 69.12 
L 180 69.12 
z
" style="fill: #ffffff"/>
   </g>
   <g id="PolyCollection_1">
    <path d="M 230.727273 188.11029 
L 230.727273 333.190796 
L 232.423837 459.731775 
L 234.120401 376.484629 
L 235.816966 437.724942 
L 237.51353 374.781801 
L 239.210094 410.762221 
L 240.906659 450.212684 
L 242.603223 377.854937 
L 244.299787 478.592687 
L 245.996351 472.650769 
L 247.692916 425.128256 
L 249.38948 480.203058 
L 251.086044 449.624717 
L 252.782609 437.298683 
L 254.479173 464.002031 
L 256.175737 471.603086 
L 257.872302 480.543235 
L 259.568866 467.565713 
L 261.26543 477.936814 
L 262.961995 449.835527 
L 264.658559 484.787283 
L 266.355123 478.333361 
L 268.051687 424.554862 
L 269.748252 472.271349 
L 271.444816 433.016158 
L 273.14138 452.927029 
L 274.837945 461.308243 
L 276.534509 475.924828 
L 278.231073 477.086746 
L 279.927638 436.905594 
L 281.624202 318.102761 
L 283.320766 444.370104 
L 285.01733 480.832329 
L 286.713895 467.553063 
L 288.410459 448.95263 
L 290.107023 450.35239 
L 291.803588 453.248722 
L 293.500152 469.5452 
L 295.196716 481.6182 
L 296.893281 430.55644 
L 298.589845 462.323814 
L 300.286409 473.653103 
L 301.982974 480.754565 
L 303.679538 470.477552 
L 305.376102 325.904556 
L 307.072666 430.751911 
L 308.769231 339.460465 
L 310.465795 370.296433 
L 312.162359 411.289634 
L 313.858924 428.19047 
L 315.555488 328.582187 
L 317.252052 394.438541 
L 318.948617 427.1517 
L 320.645181 440.288008 
L 322.341745 290.461466 
L 324.03831 388.936256 
L 325.734874 383.422882 
L 327.431438 469.387145 
L 329.128002 342.762315 
L 330.824567 377.608967 
L 332.521131 374.867709 
L 334.217695 405.755568 
L 335.91426 366.581808 
L 337.610824 441.732347 
L 339.307388 347.03793 
L 341.003953 397.624298 
L 342.700517 362.993078 
L 344.397081 362.188362 
L 346.093645 478.530569 
L 347.79021 430.12098 
L 349.486774 349.609217 
L 351.183338 478.419783 
L 352.879903 449.358706 
L 354.576467 451.987921 
L 356.273031 490.327391 
L 357.969596 475.252688 
L 359.66616 447.709918 
L 361.362724 479.662291 
L 363.059289 465.035503 
L 364.755853 469.548466 
L 366.452417 445.422729 
L 368.148981 468.895016 
L 369.845546 447.212501 
L 371.54211 476.992062 
L 373.238674 438.407064 
L 374.935239 480.679973 
L 376.631803 471.824659 
L 378.328367 474.279342 
L 380.024932 471.838931 
L 381.721496 470.686522 
L 383.41806 462.036259 
L 385.114625 455.712754 
L 386.811189 467.259552 
L 388.507753 474.943609 
L 390.204317 479.776156 
L 391.900882 478.805186 
L 393.597446 474.532235 
L 395.29401 484.874708 
L 396.990575 468.788758 
L 398.687139 486.403203 
L 400.383703 471.949275 
L 402.080268 477.868588 
L 403.776832 416.636839 
L 405.473396 424.03884 
L 407.16996 414.061232 
L 408.866525 312.215419 
L 410.563089 449.064554 
L 412.259653 427.93634 
L 413.956218 425.765539 
L 415.652782 308.48455 
L 417.349346 324.540132 
L 419.045911 451.053326 
L 420.742475 439.869259 
L 422.439039 418.524119 
L 424.135604 352.730443 
L 425.832168 341.95933 
L 427.528732 219.837384 
L 429.225296 338.523674 
L 430.921861 406.166746 
L 432.618425 347.234401 
L 434.314989 288.055727 
L 436.011554 237.10961 
L 437.708118 378.81974 
L 439.404682 438.555673 
L 441.101247 461.364425 
L 442.797811 413.730026 
L 444.494375 474.367478 
L 446.190939 334.269328 
L 447.887504 474.800525 
L 449.584068 360.435919 
L 451.280632 480.602596 
L 452.977197 460.695754 
L 454.673761 335.5016 
L 456.370325 479.888516 
L 458.06689 461.873899 
L 459.763454 483.299108 
L 461.460018 388.846803 
L 463.156583 462.699176 
L 464.853147 440.351372 
L 466.549711 479.468354 
L 468.246275 476.535166 
L 469.94284 479.66936 
L 471.639404 461.23651 
L 473.335968 473.641424 
L 475.032533 450.425818 
L 476.729097 471.039295 
L 478.425661 468.196525 
L 480.122226 488.917026 
L 481.81879 376.951723 
L 483.515354 477.669986 
L 485.211919 458.226824 
L 486.908483 455.750299 
L 488.605047 458.897037 
L 490.301611 424.224433 
L 491.998176 461.568549 
L 493.69474 466.86828 
L 495.391304 471.915907 
L 497.087869 482.839001 
L 498.784433 419.738353 
L 500.480997 456.150137 
L 502.177562 473.056575 
L 503.874126 464.238584 
L 505.57069 460.726032 
L 507.267254 474.525145 
L 508.963819 486.505371 
L 510.660383 474.521155 
L 512.356947 460.907231 
L 514.053512 437.908836 
L 515.750076 480.284163 
L 517.44664 470.295814 
L 519.143205 484.214101 
L 520.839769 468.011577 
L 522.536333 466.293553 
L 524.232898 454.413079 
L 525.929462 336.642477 
L 527.626026 480.693905 
L 529.32259 312.066883 
L 531.019155 471.795752 
L 532.715719 429.801082 
L 534.412283 312.12719 
L 536.108848 391.355892 
L 537.805412 392.241024 
L 539.501976 389.456414 
L 541.198541 330.013828 
L 542.895105 419.391712 
L 544.591669 305.483194 
L 546.288234 398.265331 
L 547.984798 467.182967 
L 549.681362 357.318104 
L 551.377926 398.716733 
L 553.074491 425.182825 
L 554.771055 422.575116 
L 556.467619 376.249197 
L 558.164184 437.443812 
L 559.860748 417.24611 
L 561.557312 436.88479 
L 563.253877 416.022446 
L 564.950441 401.322789 
L 566.647005 360.019414 
L 568.343569 484.707794 
L 570.040134 394.196341 
L 571.736698 344.163739 
L 573.433262 435.229772 
L 575.129827 396.252316 
L 576.826391 469.500941 
L 578.522955 390.385416 
L 580.21952 473.848241 
L 581.916084 419.400283 
L 583.612648 480.708543 
L 585.309213 390.298809 
L 587.005777 346.345276 
L 588.702341 455.033863 
L 590.398905 482.496751 
L 592.09547 477.346511 
L 593.792034 268.247252 
L 595.488598 365.009593 
L 597.185163 439.410107 
L 598.881727 443.930932 
L 600.578291 413.642848 
L 602.274856 441.404942 
L 603.97142 477.348556 
L 605.667984 455.503329 
L 607.364548 482.881805 
L 609.061113 451.561849 
L 610.757677 474.779628 
L 612.454241 480.849274 
L 614.150806 450.809125 
L 615.84737 463.367385 
L 617.543934 479.176083 
L 619.240499 471.381917 
L 620.937063 473.006022 
L 622.633627 483.261154 
L 624.330192 426.21489 
L 626.026756 411.663717 
L 627.72332 467.586501 
L 629.419884 460.934458 
L 631.116449 391.815749 
L 632.813013 463.939455 
L 634.509577 466.09357 
L 636.206142 478.895236 
L 637.902706 395.112081 
L 639.59927 432.116463 
L 641.295835 396.671309 
L 642.992399 470.037101 
L 644.688963 455.285538 
L 646.385528 432.799515 
L 648.082092 466.715264 
L 649.778656 466.172469 
L 651.47522 422.81174 
L 653.171785 432.272627 
L 654.868349 482.363125 
L 656.564913 405.81847 
L 658.261478 476.454181 
L 659.958042 459.146263 
L 661.654606 461.176665 
L 663.351171 464.829759 
L 665.047735 486.500999 
L 666.744299 468.020692 
L 668.440863 476.123937 
L 670.137428 458.134057 
L 671.833992 471.385455 
L 673.530556 481.876288 
L 675.227121 460.550366 
L 676.923685 468.831094 
L 678.620249 373.609206 
L 680.316814 451.477158 
L 682.013378 381.159948 
L 683.709942 404.057534 
L 685.406507 463.972781 
L 687.103071 329.039461 
L 688.799635 295.083972 
L 690.496199 388.251211 
L 692.192764 361.62841 
L 693.889328 334.830754 
L 695.585892 324.750744 
L 697.282457 287.445636 
L 698.979021 372.545982 
L 700.675585 414.88405 
L 702.37215 309.536147 
L 704.068714 473.337449 
L 705.765278 330.760327 
L 707.461843 381.05854 
L 709.158407 401.729794 
L 710.854971 401.288789 
L 712.551535 342.365938 
L 714.2481 409.916775 
L 715.944664 375.43393 
L 717.641228 421.631685 
L 719.337793 321.252525 
L 721.034357 475.534643 
L 722.730921 360.489559 
L 724.427486 449.87577 
L 726.12405 471.297011 
L 727.820614 360.348395 
L 729.517178 402.830691 
L 731.213743 348.649927 
L 732.910307 381.855974 
L 734.606871 465.078085 
L 736.303436 366.031305 
L 738 456.529554 
L 739.696564 482.91742 
L 741.393129 473.393239 
L 743.089693 473.057765 
L 744.786257 449.493514 
L 746.482822 480.236939 
L 748.179386 467.518525 
L 749.87595 479.308062 
L 751.572514 478.286353 
L 753.269079 472.986923 
L 754.965643 467.242889 
L 756.662207 442.260485 
L 758.358772 432.024381 
L 760.055336 485.157302 
L 761.7519 476.05223 
L 763.448465 417.645282 
L 765.145029 457.342975 
L 766.841593 479.090034 
L 768.538157 469.648083 
L 770.234722 480.081218 
L 771.931286 471.42207 
L 773.62785 479.477318 
L 775.324415 476.612659 
L 777.020979 485.237362 
L 778.717543 476.163394 
L 780.414108 456.708397 
L 782.110672 474.87643 
L 783.807236 481.591005 
L 785.503801 465.558467 
L 787.200365 468.188234 
L 788.896929 470.742492 
L 790.593493 486.233555 
L 792.290058 464.343829 
L 793.986622 476.091168 
L 795.683186 479.772364 
L 797.379751 470.021153 
L 799.076315 387.795136 
L 800.772879 405.658063 
L 802.469444 465.803322 
L 804.166008 449.064669 
L 805.862572 476.870718 
L 807.559137 474.189757 
L 809.255701 372.457599 
L 810.952265 456.249485 
L 812.648829 411.864701 
L 814.345394 332.908442 
L 816.041958 287.610569 
L 817.738522 365.638671 
L 819.435087 459.164102 
L 821.131651 335.071352 
L 822.828215 413.8936 
L 824.52478 473.724182 
L 826.221344 380.736539 
L 827.917908 326.519224 
L 829.614472 433.004703 
L 831.311037 334.041614 
L 833.007601 458.799775 
L 834.704165 368.118921 
L 836.40073 384.206085 
L 838.097294 448.007041 
L 839.793858 341.113127 
L 841.490423 388.775561 
L 843.186987 362.896477 
L 844.883551 281.673702 
L 846.580116 476.781393 
L 848.27668 384.158868 
L 849.973244 366.380529 
L 851.669808 460.440932 
L 853.366373 448.352528 
L 855.062937 438.003449 
L 856.759501 484.886144 
L 858.456066 479.814223 
L 860.15263 477.873892 
L 861.849194 482.333129 
L 863.545759 431.437091 
L 865.242323 471.125918 
L 866.938887 405.884713 
L 868.635452 458.201222 
L 870.332016 329.832908 
L 872.02858 466.969766 
L 873.725144 483.361325 
L 875.421709 453.194995 
L 877.118273 479.381907 
L 878.814837 474.766827 
L 880.511402 482.729837 
L 882.207966 464.758533 
L 883.90453 485.582891 
L 885.601095 424.452172 
L 887.297659 448.34292 
L 888.994223 472.910155 
L 890.690787 475.182973 
L 892.387352 470.454331 
L 894.083916 388.880738 
L 895.78048 461.597132 
L 897.477045 452.406394 
L 899.173609 474.624672 
L 900.870173 472.574962 
L 902.566738 472.534659 
L 904.263302 468.152962 
L 905.959866 471.286111 
L 907.656431 456.101536 
L 909.352995 478.90214 
L 911.049559 458.141614 
L 912.746123 475.74379 
L 914.442688 473.849907 
L 916.139252 475.834544 
L 917.835816 468.383689 
L 919.532381 388.4339 
L 921.228945 480.892328 
L 922.925509 455.952737 
L 924.622074 456.919707 
L 926.318638 463.519761 
L 928.015202 443.212028 
L 929.711766 353.30515 
L 931.408331 474.063903 
L 933.104895 463.117406 
L 934.801459 359.043931 
L 936.498024 380.038077 
L 938.194588 455.506444 
L 939.891152 439.520836 
L 941.587717 479.197714 
L 943.284281 478.121112 
L 944.980845 474.908712 
L 946.67741 466.623044 
L 948.373974 466.144784 
L 950.070538 475.21153 
L 951.767102 475.729005 
L 953.463667 470.493404 
L 955.160231 478.554966 
L 956.856795 472.534873 
L 958.55336 485.341818 
L 960.249924 466.651944 
L 961.946488 436.682797 
L 963.643053 472.882277 
L 965.339617 480.966811 
L 967.036181 482.09096 
L 968.732746 356.87306 
L 970.42931 416.872065 
L 972.125874 434.155676 
L 973.822438 460.88759 
L 975.519003 377.469932 
L 977.215567 387.073066 
L 978.912131 430.694758 
L 980.608696 304.550468 
L 982.30526 460.734205 
L 984.001824 359.818699 
L 985.698389 354.67992 
L 987.394953 335.807185 
L 989.091517 411.949366 
L 990.788081 387.365259 
L 992.484646 440.66377 
L 994.18121 444.344627 
L 995.877774 436.301262 
L 997.574339 275.921601 
L 999.270903 419.899357 
L 1000.967467 430.875428 
L 1002.664032 339.498759 
L 1004.360596 332.918878 
L 1006.05716 392.873615 
L 1007.753725 480.858495 
L 1009.450289 330.050058 
L 1011.146853 479.49219 
L 1012.843417 419.317996 
L 1014.539982 342.034098 
L 1016.236546 417.338672 
L 1017.93311 358.324547 
L 1019.629675 402.213946 
L 1021.326239 344.829534 
L 1023.022803 440.89508 
L 1024.719368 346.58258 
L 1026.415932 345.139195 
L 1028.112496 371.27521 
L 1029.809061 467.699659 
L 1031.505625 365.246422 
L 1033.202189 418.399884 
L 1034.898753 346.329161 
L 1036.595318 373.807575 
L 1038.291882 376.396861 
L 1039.988446 480.784401 
L 1041.685011 342.733944 
L 1043.381575 385.804986 
L 1045.078139 471.153972 
L 1046.774704 445.768838 
L 1048.471268 457.903516 
L 1050.167832 421.29655 
L 1051.864396 459.724727 
L 1053.560961 457.940509 
L 1055.257525 452.455515 
L 1056.954089 447.817317 
L 1058.650654 478.140044 
L 1060.347218 477.997012 
L 1062.043782 434.525907 
L 1063.740347 445.957533 
L 1065.436911 476.014282 
L 1067.133475 478.301215 
L 1068.83004 475.661157 
L 1070.526604 387.168359 
L 1072.223168 477.516194 
L 1073.919732 441.466054 
L 1075.616297 453.925767 
L 1077.312861 469.497422 
L 1079.009425 424.619419 
L 1080.70599 472.63482 
L 1082.402554 473.185259 
L 1084.099118 407.83778 
L 1085.795683 477.26841 
L 1087.492247 465.904621 
L 1089.188811 484.607328 
L 1090.885375 473.07088 
L 1092.58194 477.449326 
L 1094.278504 454.398605 
L 1095.975068 477.852681 
L 1097.671633 483.569603 
L 1099.368197 475.067161 
L 1101.064761 453.773059 
L 1102.761326 463.678226 
L 1104.45789 492.48 
L 1106.154454 433.300813 
L 1107.851019 475.795244 
L 1109.547583 485.016119 
L 1111.244147 450.261946 
L 1112.940711 475.271109 
L 1114.637276 447.75811 
L 1116.33384 419.641797 
L 1118.030404 438.729978 
L 1119.726969 478.877457 
L 1121.423533 454.34633 
L 1123.120097 486.790133 
L 1124.816662 473.60819 
L 1126.513226 481.248677 
L 1128.20979 455.628749 
L 1129.906355 481.812859 
L 1131.602919 477.706902 
L 1133.299483 477.082169 
L 1134.996047 468.172154 
L 1136.692612 388.42958 
L 1138.389176 468.365532 
L 1140.08574 477.1579 
L 1141.782305 374.417589 
L 1143.478869 462.020461 
L 1145.175433 478.79536 
L 1146.871998 471.35684 
L 1148.568562 371.015317 
L 1150.265126 469.012799 
L 1151.96169 480.478744 
L 1153.658255 414.527531 
L 1155.354819 473.442703 
L 1157.051383 434.057671 
L 1158.747948 463.03001 
L 1160.444512 452.579414 
L 1162.141076 463.979175 
L 1163.837641 409.041835 
L 1165.534205 407.718013 
L 1167.230769 435.960797 
L 1168.927334 412.231226 
L 1170.623898 363.457172 
L 1172.320462 371.18675 
L 1174.017026 453.926082 
L 1175.713591 407.048249 
L 1177.410155 441.303252 
L 1179.106719 431.327022 
L 1180.803284 382.493116 
L 1182.499848 421.377266 
L 1184.196412 380.939459 
L 1185.892977 351.186471 
L 1187.589541 408.536601 
L 1189.286105 409.443757 
L 1190.98267 473.072216 
L 1192.679234 399.071477 
L 1194.375798 446.868075 
L 1196.072362 433.680813 
L 1197.768927 321.798553 
L 1199.465491 334.350775 
L 1201.162055 399.752247 
L 1202.85862 385.942689 
L 1204.555184 414.960754 
L 1206.251748 471.946608 
L 1207.948313 471.436877 
L 1209.644877 485.203366 
L 1211.341441 466.809015 
L 1213.038005 449.413759 
L 1214.73457 350.669531 
L 1216.431134 481.928095 
L 1218.127698 377.901937 
L 1219.824263 480.159518 
L 1221.520827 309.913371 
L 1223.217391 486.352624 
L 1224.913956 485.428054 
L 1226.61052 432.66037 
L 1228.307084 464.363332 
L 1230.003649 459.49266 
L 1231.700213 470.740874 
L 1233.396777 453.080706 
L 1235.093341 483.198394 
L 1236.789906 439.878938 
L 1238.48647 446.621053 
L 1240.183034 471.309703 
L 1241.879599 474.259659 
L 1243.576163 476.506955 
L 1245.272727 426.296722 
L 1245.272727 343.431842 
L 1245.272727 343.431842 
L 1243.576163 391.039821 
L 1241.879599 407.562952 
L 1240.183034 375.765462 
L 1238.48647 333.884848 
L 1236.789906 322.855316 
L 1235.093341 430.212677 
L 1233.396777 349.615102 
L 1231.700213 378.063908 
L 1230.003649 373.362865 
L 1228.307084 403.702227 
L 1226.61052 341.540568 
L 1224.913956 394.02035 
L 1223.217391 403.240972 
L 1221.520827 192.185704 
L 1219.824263 406.921521 
L 1218.127698 248.955985 
L 1216.431134 396.789352 
L 1214.73457 203.843519 
L 1213.038005 347.816083 
L 1211.341441 361.68082 
L 1209.644877 423.082556 
L 1207.948313 397.076513 
L 1206.251748 402.456397 
L 1204.555184 275.689118 
L 1202.85862 289.226437 
L 1201.162055 250.867592 
L 1199.465491 240.204708 
L 1197.768927 222.244468 
L 1196.072362 284.495971 
L 1194.375798 354.229262 
L 1192.679234 254.46345 
L 1190.98267 352.401846 
L 1189.286105 269.340207 
L 1187.589541 279.540394 
L 1185.892977 269.404 
L 1184.196412 288.824688 
L 1182.499848 311.209001 
L 1180.803284 250.170066 
L 1179.106719 266.848611 
L 1177.410155 237.003586 
L 1175.713591 294.652698 
L 1174.017026 341.458262 
L 1172.320462 243.985973 
L 1170.623898 237.062098 
L 1168.927334 295.091421 
L 1167.230769 301.189669 
L 1165.534205 313.631586 
L 1163.837641 282.441226 
L 1162.141076 354.016214 
L 1160.444512 291.393577 
L 1158.747948 358.657849 
L 1157.051383 306.060748 
L 1155.354819 405.933462 
L 1153.658255 301.402499 
L 1151.96169 426.871571 
L 1150.265126 403.596946 
L 1148.568562 226.179166 
L 1146.871998 381.76088 
L 1145.175433 391.093019 
L 1143.478869 347.772994 
L 1141.782305 240.941951 
L 1140.08574 424.549901 
L 1138.389176 394.699877 
L 1136.692612 257.315732 
L 1134.996047 391.928862 
L 1133.299483 380.583388 
L 1131.602919 406.4301 
L 1129.906355 411.310147 
L 1128.20979 321.246191 
L 1126.513226 398.808796 
L 1124.816662 410.114277 
L 1123.120097 433.513854 
L 1121.423533 336.344047 
L 1119.726969 384.279847 
L 1118.030404 330.431961 
L 1116.33384 345.453241 
L 1114.637276 330.752173 
L 1112.940711 404.167526 
L 1111.244147 350.17322 
L 1109.547583 401.649751 
L 1107.851019 371.314774 
L 1106.154454 314.413007 
L 1104.45789 422.918514 
L 1102.761326 386.980779 
L 1101.064761 306.606815 
L 1099.368197 412.611809 
L 1097.671633 397.709079 
L 1095.975068 398.379874 
L 1094.278504 362.870272 
L 1092.58194 370.908191 
L 1090.885375 401.045057 
L 1089.188811 392.405213 
L 1087.492247 407.051935 
L 1085.795683 390.868497 
L 1084.099118 290.316725 
L 1082.402554 395.568662 
L 1080.70599 404.274024 
L 1079.009425 342.771366 
L 1077.312861 372.078234 
L 1075.616297 339.653269 
L 1073.919732 353.760693 
L 1072.223168 417.227912 
L 1070.526604 283.689511 
L 1068.83004 410.783817 
L 1067.133475 423.380845 
L 1065.436911 413.301733 
L 1063.740347 322.197431 
L 1062.043782 349.852982 
L 1060.347218 421.182776 
L 1058.650654 421.057554 
L 1056.954089 341.076974 
L 1055.257525 371.883097 
L 1053.560961 389.11201 
L 1051.864396 365.185077 
L 1050.167832 316.26914 
L 1048.471268 358.803897 
L 1046.774704 321.019683 
L 1045.078139 391.630945 
L 1043.381575 273.063357 
L 1041.685011 198.451462 
L 1039.988446 385.473428 
L 1038.291882 284.19822 
L 1036.595318 231.663708 
L 1034.898753 241.583811 
L 1033.202189 329.029192 
L 1031.505625 265.15218 
L 1029.809061 373.815818 
L 1028.112496 256.665743 
L 1026.415932 186.683752 
L 1024.719368 233.88613 
L 1023.022803 324.671886 
L 1021.326239 204.259511 
L 1019.629675 296.719801 
L 1017.93311 264.325682 
L 1016.236546 313.864389 
L 1014.539982 208.687534 
L 1012.843417 282.028503 
L 1011.146853 402.505402 
L 1009.450289 195.104651 
L 1007.753725 388.312466 
L 1006.05716 288.388785 
L 1004.360596 145.782209 
L 1002.664032 199.182885 
L 1000.967467 321.301896 
L 999.270903 297.762616 
L 997.574339 145.624161 
L 995.877774 351.429095 
L 994.18121 282.833347 
L 992.484646 343.621223 
L 990.788081 280.404443 
L 989.091517 309.456276 
L 987.394953 242.943863 
L 985.698389 242.654356 
L 984.001824 264.339964 
L 982.30526 354.436322 
L 980.608696 147.139211 
L 978.912131 348.886153 
L 977.215567 244.702216 
L 975.519003 262.367743 
L 973.822438 331.115859 
L 972.125874 327.786112 
L 970.42931 280.885062 
L 968.732746 227.205789 
L 967.036181 417.287481 
L 965.339617 291.203427 
L 963.643053 389.486169 
L 961.946488 320.709791 
L 960.249924 385.804948 
L 958.55336 386.461948 
L 956.856795 350.064619 
L 955.160231 400.454862 
L 953.463667 345.194451 
L 951.767102 384.84899 
L 950.070538 376.977594 
L 948.373974 348.809052 
L 946.67741 357.94899 
L 944.980845 385.18619 
L 943.284281 401.82803 
L 941.587717 394.831945 
L 939.891152 337.034547 
L 938.194588 327.577013 
L 936.498024 276.545589 
L 934.801459 255.75935 
L 933.104895 372.179335 
L 931.408331 392.607337 
L 929.711766 188.798278 
L 928.015202 356.840022 
L 926.318638 354.815277 
L 924.622074 360.370074 
L 922.925509 346.262867 
L 921.228945 409.601723 
L 919.532381 283.65082 
L 917.835816 392.882717 
L 916.139252 360.470277 
L 914.442688 407.364103 
L 912.746123 418.459844 
L 911.049559 331.220986 
L 909.352995 416.669608 
L 907.656431 356.384454 
L 905.959866 389.397793 
L 904.263302 385.999559 
L 902.566738 379.715596 
L 900.870173 378.395902 
L 899.173609 386.495217 
L 897.477045 355.673633 
L 895.78048 382.897192 
L 894.083916 287.510724 
L 892.387352 406.176272 
L 890.690787 354.794713 
L 888.994223 386.815173 
L 887.297659 345.822388 
L 885.601095 297.211498 
L 883.90453 415.806572 
L 882.207966 381.216261 
L 880.511402 417.25586 
L 878.814837 331.566005 
L 877.118273 429.938996 
L 875.421709 379.7693 
L 873.725144 420.488212 
L 872.02858 395.599296 
L 870.332016 214.516377 
L 868.635452 309.469533 
L 866.938887 299.450073 
L 865.242323 414.571556 
L 863.545759 323.547458 
L 861.849194 388.549552 
L 860.15263 412.197778 
L 858.456066 402.205331 
L 856.759501 410.452239 
L 855.062937 338.149206 
L 853.366373 371.969787 
L 851.669808 359.646087 
L 849.973244 249.450233 
L 848.27668 262.099261 
L 846.580116 377.530302 
L 844.883551 148.375906 
L 843.186987 248.397329 
L 841.490423 217.782421 
L 839.793858 233.02694 
L 838.097294 315.59555 
L 836.40073 268.829729 
L 834.704165 224.495402 
L 833.007601 325.229171 
L 831.311037 218.553202 
L 829.614472 325.291529 
L 827.917908 207.618245 
L 826.221344 278.623539 
L 824.52478 396.403282 
L 822.828215 296.305206 
L 821.131651 204.524635 
L 819.435087 314.954997 
L 817.738522 236.097038 
L 816.041958 127.721715 
L 814.345394 218.287027 
L 812.648829 271.529141 
L 810.952265 359.998824 
L 809.255701 250.934027 
L 807.559137 409.630453 
L 805.862572 368.469851 
L 804.166008 375.031963 
L 802.469444 373.541797 
L 800.772879 313.580215 
L 799.076315 253.848897 
L 797.379751 395.757332 
L 795.683186 405.27323 
L 793.986622 368.293213 
L 792.290058 377.143643 
L 790.593493 411.346031 
L 788.896929 409.513686 
L 787.200365 352.112377 
L 785.503801 386.535409 
L 783.807236 408.809115 
L 782.110672 416.242026 
L 780.414108 309.800629 
L 778.717543 411.915142 
L 777.020979 376.603986 
L 775.324415 392.846878 
L 773.62785 382.845937 
L 771.931286 409.095206 
L 770.234722 412.485132 
L 768.538157 363.859216 
L 766.841593 393.93357 
L 765.145029 381.014816 
L 763.448465 295.884586 
L 761.7519 410.853572 
L 760.055336 398.021688 
L 758.358772 342.223056 
L 756.662207 355.886488 
L 754.965643 400.861034 
L 753.269079 414.721585 
L 751.572514 406.77169 
L 749.87595 403.377771 
L 748.179386 407.927817 
L 746.482822 411.967289 
L 744.786257 352.388244 
L 743.089693 394.557328 
L 741.393129 390.711115 
L 739.696564 389.328858 
L 738 366.41258 
L 736.303436 257.207041 
L 734.606871 395.109055 
L 732.910307 246.174497 
L 731.213743 250.376396 
L 729.517178 310.576102 
L 727.820614 253.574851 
L 726.12405 337.14593 
L 724.427486 313.851915 
L 722.730921 272.391767 
L 721.034357 395.765332 
L 719.337793 138.187834 
L 717.641228 323.742403 
L 715.944664 234.474863 
L 714.2481 290.151292 
L 712.551535 224.382789 
L 710.854971 301.068249 
L 709.158407 287.512673 
L 707.461843 269.944991 
L 705.765278 198.932761 
L 704.068714 341.665489 
L 702.37215 199.177219 
L 700.675585 327.835444 
L 698.979021 228.297564 
L 697.282457 171.680152 
L 695.585892 218.320873 
L 693.889328 183.182251 
L 692.192764 245.557431 
L 690.496199 270.201704 
L 688.799635 157.204157 
L 687.103071 224.354046 
L 685.406507 359.713868 
L 683.709942 306.024595 
L 682.013378 246.037551 
L 680.316814 275.112218 
L 678.620249 220.954902 
L 676.923685 395.462292 
L 675.227121 343.183577 
L 673.530556 417.877252 
L 671.833992 383.743792 
L 670.137428 339.604475 
L 668.440863 366.071073 
L 666.744299 365.626569 
L 665.047735 419.046629 
L 663.351171 380.533299 
L 661.654606 355.795221 
L 659.958042 383.355312 
L 658.261478 390.923291 
L 656.564913 275.639465 
L 654.868349 388.907379 
L 653.171785 300.669871 
L 651.47522 318.604444 
L 649.778656 357.715237 
L 648.082092 364.991401 
L 646.385528 326.975549 
L 644.688963 377.708722 
L 642.992399 367.563252 
L 641.295835 316.841681 
L 639.59927 310.596076 
L 637.902706 260.122373 
L 636.206142 383.417978 
L 634.509577 395.307071 
L 632.813013 390.516901 
L 631.116449 277.314921 
L 629.419884 381.567229 
L 627.72332 359.058585 
L 626.026756 315.991517 
L 624.330192 266.077804 
L 622.633627 405.736748 
L 620.937063 392.838372 
L 619.240499 401.906887 
L 617.543934 408.378104 
L 615.84737 370.541531 
L 614.150806 358.471006 
L 612.454241 400.553822 
L 610.757677 396.070006 
L 609.061113 362.457421 
L 607.364548 441.125967 
L 605.667984 311.667301 
L 603.97142 414.565511 
L 602.274856 359.181544 
L 600.578291 318.214554 
L 598.881727 360.616659 
L 597.185163 329.186099 
L 595.488598 261.833855 
L 593.792034 159.642549 
L 592.09547 412.976418 
L 590.398905 384.050069 
L 588.702341 370.504083 
L 587.005777 224.370045 
L 585.309213 282.001029 
L 583.612648 392.368278 
L 581.916084 314.448571 
L 580.21952 359.472603 
L 578.522955 292.516339 
L 576.826391 376.265351 
L 575.129827 282.101771 
L 573.433262 329.872459 
L 571.736698 228.495022 
L 570.040134 254.300504 
L 568.343569 406.393107 
L 566.647005 188.557103 
L 564.950441 246.05273 
L 563.253877 275.316688 
L 561.557312 342.704316 
L 559.860748 263.34311 
L 558.164184 347.182428 
L 556.467619 226.089706 
L 554.771055 341.988163 
L 553.074491 328.961539 
L 551.377926 241.064051 
L 549.681362 255.673531 
L 547.984798 368.344571 
L 546.288234 278.782805 
L 544.591669 198.644254 
L 542.895105 181.287978 
L 541.198541 225.800789 
L 539.501976 238.351818 
L 537.805412 291.170722 
L 536.108848 283.286237 
L 534.412283 170.243408 
L 532.715719 301.672084 
L 531.019155 328.09458 
L 529.32259 192.924024 
L 527.626026 348.416675 
L 525.929462 217.834933 
L 524.232898 308.974029 
L 522.536333 391.451128 
L 520.839769 367.894348 
L 519.143205 404.403458 
L 517.44664 387.77954 
L 515.750076 383.629538 
L 514.053512 334.190419 
L 512.356947 348.810219 
L 510.660383 405.201687 
L 508.963819 330.997323 
L 507.267254 394.207347 
L 505.57069 363.131255 
L 503.874126 377.695479 
L 502.177562 362.302962 
L 500.480997 317.566578 
L 498.784433 301.127273 
L 497.087869 413.860126 
L 495.391304 371.73192 
L 493.69474 384.455651 
L 491.998176 373.302661 
L 490.301611 344.4484 
L 488.605047 344.012293 
L 486.908483 377.818271 
L 485.211919 318.18299 
L 483.515354 390.312924 
L 481.81879 267.117965 
L 480.122226 386.481615 
L 478.425661 411.939103 
L 476.729097 385.830396 
L 475.032533 359.901685 
L 473.335968 388.581923 
L 471.639404 379.934156 
L 469.94284 390.258489 
L 468.246275 406.985821 
L 466.549711 441.475925 
L 464.853147 338.946102 
L 463.156583 383.135175 
L 461.460018 267.900463 
L 459.763454 384.495497 
L 458.06689 358.982945 
L 456.370325 412.595777 
L 454.673761 237.631011 
L 452.977197 346.23574 
L 451.280632 378.560361 
L 449.584068 240.031916 
L 447.887504 395.591905 
L 446.190939 198.057726 
L 444.494375 397.98424 
L 442.797811 302.155049 
L 441.101247 362.288821 
L 439.404682 305.524283 
L 437.708118 272.055568 
L 436.011554 115.555089 
L 434.314989 177.987473 
L 432.618425 248.841372 
L 430.921861 277.885629 
L 429.225296 259.163288 
L 427.528732 89.28 
L 425.832168 217.867727 
L 424.135604 188.467822 
L 422.439039 302.984778 
L 420.742475 288.28948 
L 419.045911 346.744679 
L 417.349346 173.532759 
L 415.652782 194.199539 
L 413.956218 282.47879 
L 412.259653 337.301119 
L 410.563089 336.524659 
L 408.866525 99.656223 
L 407.16996 312.730012 
L 405.473396 291.737699 
L 403.776832 290.00841 
L 402.080268 391.876107 
L 400.383703 311.91345 
L 398.687139 407.58681 
L 396.990575 380.025373 
L 395.29401 408.296336 
L 393.597446 393.564147 
L 391.900882 379.590983 
L 390.204317 410.27189 
L 388.507753 406.560188 
L 386.811189 357.474703 
L 385.114625 277.521187 
L 383.41806 391.438384 
L 381.721496 330.87871 
L 380.024932 373.78346 
L 378.328367 378.444363 
L 376.631803 397.333137 
L 374.935239 403.40495 
L 373.238674 332.974736 
L 371.54211 378.899816 
L 369.845546 349.522821 
L 368.148981 407.432089 
L 366.452417 349.071663 
L 364.755853 390.476331 
L 363.059289 388.649691 
L 361.362724 429.028878 
L 359.66616 335.645213 
L 357.969596 422.702402 
L 356.273031 407.036551 
L 354.576467 370.865948 
L 352.879903 372.278897 
L 351.183338 400.976891 
L 349.486774 229.032012 
L 347.79021 330.816365 
L 346.093645 381.966966 
L 344.397081 274.564176 
L 342.700517 251.308763 
L 341.003953 300.275391 
L 339.307388 147.076314 
L 337.610824 328.960655 
L 335.91426 240.716186 
L 334.217695 278.74155 
L 332.521131 211.324717 
L 330.824567 255.796554 
L 329.128002 232.876404 
L 327.431438 389.795606 
L 325.734874 273.24829 
L 324.03831 262.866529 
L 322.341745 178.113651 
L 320.645181 303.911582 
L 318.948617 238.657864 
L 317.252052 271.580089 
L 315.555488 183.302557 
L 313.858924 336.764629 
L 312.162359 302.88178 
L 310.465795 253.108987 
L 308.769231 195.149368 
L 307.072666 337.769149 
L 305.376102 224.038974 
L 303.679538 358.195139 
L 301.982974 361.931353 
L 300.286409 381.962825 
L 298.589845 385.143068 
L 296.893281 337.215749 
L 295.196716 426.756374 
L 293.500152 383.360607 
L 291.803588 354.143417 
L 290.107023 333.344127 
L 288.410459 350.007159 
L 286.713895 397.419302 
L 285.01733 399.793195 
L 283.320766 343.696632 
L 281.624202 169.605189 
L 279.927638 260.690722 
L 278.231073 421.196282 
L 276.534509 395.309853 
L 274.837945 342.987516 
L 273.14138 339.154496 
L 271.444816 326.201217 
L 269.748252 373.711474 
L 268.051687 328.099888 
L 266.355123 398.504051 
L 264.658559 404.275588 
L 262.961995 367.904143 
L 261.26543 413.201837 
L 259.568866 377.400497 
L 257.872302 402.022917 
L 256.175737 398.484347 
L 254.479173 399.53061 
L 252.782609 329.321853 
L 251.086044 335.219298 
L 249.38948 391.217439 
L 247.692916 318.619675 
L 245.996351 394.870585 
L 244.299787 406.650834 
L 242.603223 282.623095 
L 240.906659 372.280397 
L 239.210094 269.178338 
L 237.51353 275.974715 
L 235.816966 372.507406 
L 234.120401 227.522245 
L 232.423837 365.822014 
L 230.727273 188.11029 
z
" clip-path="url(#p064696a78d)" style="fill: #1f77b4; fill-opacity: 0.3"/>
   </g>
   <g id="matplotlib.axis_1">
    <g id="xtick_1">
     <g id="line2d_1">
      <defs>
       <path id="m8eba5c0dc4" d="M 0 0 
L 0 3.5 
" style="stroke: #000000; stroke-width: 0.8"/>
      </defs>
      <g>
       <use xlink:href="#m8eba5c0dc4" x="230.727273" y="512.64" style="stroke: #000000; stroke-width: 0.8"/>
      </g>
     </g>
     <g id="text_1">
      <!-- 0 -->
      <g transform="translate(227.546023 527.238438) scale(0.1 -0.1)">
       <defs>
        <path id="DejaVuSans-30" d="M 2034 4250 
Q 1547 4250 1301 3770 
Q 1056 3291 1056 2328 
Q 1056 1369 1301 889 
Q 1547 409 2034 409 
Q 2525 409 2770 889 
Q 3016 1369 3016 2328 
Q 3016 3291 2770 3770 
Q 2525 4250 2034 4250 
z
M 2034 4750 
Q 2819 4750 3233 4129 
Q 3647 3509 3647 2328 
Q 3647 1150 3233 529 
Q 2819 -91 2034 -91 
Q 1250 -91 836 529 
Q 422 1150 422 2328 
Q 422 3509 836 4129 
Q 1250 4750 2034 4750 
z
" transform="scale(0.015625)"/>
       </defs>
       <use xlink:href="#DejaVuSans-30"/>
      </g>
     </g>
    </g>
    <g id="xtick_2">
     <g id="line2d_2">
      <g>
       <use xlink:href="#m8eba5c0dc4" x="400.383703" y="512.64" style="stroke: #000000; stroke-width: 0.8"/>
      </g>
     </g>
     <g id="text_2">
      <!-- 100 -->
      <g transform="translate(390.839953 527.238438) scale(0.1 -0.1)">
       <defs>
        <path id="DejaVuSans-31" d="M 794 531 
L 1825 531 
L 1825 4091 
L 703 3866 
L 703 4441 
L 1819 4666 
L 2450 4666 
L 2450 531 
L 3481 531 
L 3481 0 
L 794 0 
L 794 531 
z
" transform="scale(0.015625)"/>
       </defs>
       <use xlink:href="#DejaVuSans-31"/>
       <use xlink:href="#DejaVuSans-30" x="63.623047"/>
       <use xlink:href="#DejaVuSans-30" x="127.246094"/>
      </g>
     </g>
    </g>
    <g id="xtick_3">
     <g id="line2d_3">
      <g>
       <use xlink:href="#m8eba5c0dc4" x="570.040134" y="512.64" style="stroke: #000000; stroke-width: 0.8"/>
      </g>
     </g>
     <g id="text_3">
      <!-- 200 -->
      <g transform="translate(560.496384 527.238438) scale(0.1 -0.1)">
       <defs>
        <path id="DejaVuSans-32" d="M 1228 531 
L 3431 531 
L 3431 0 
L 469 0 
L 469 531 
Q 828 903 1448 1529 
Q 2069 2156 2228 2338 
Q 2531 2678 2651 2914 
Q 2772 3150 2772 3378 
Q 2772 3750 2511 3984 
Q 2250 4219 1831 4219 
Q 1534 4219 1204 4116 
Q 875 4013 500 3803 
L 500 4441 
Q 881 4594 1212 4672 
Q 1544 4750 1819 4750 
Q 2544 4750 2975 4387 
Q 3406 4025 3406 3419 
Q 3406 3131 3298 2873 
Q 3191 2616 2906 2266 
Q 2828 2175 2409 1742 
Q 1991 1309 1228 531 
z
" transform="scale(0.015625)"/>
       </defs>
       <use xlink:href="#DejaVuSans-32"/>
       <use xlink:href="#DejaVuSans-30" x="63.623047"/>
       <use xlink:href="#DejaVuSans-30" x="127.246094"/>
      </g>
     </g>
    </g>
    <g id="xtick_4">
     <g id="line2d_4">
      <g>
       <use xlink:href="#m8eba5c0dc4" x="739.696564" y="512.64" style="stroke: #000000; stroke-width: 0.8"/>
      </g>
     </g>
     <g id="text_4">
      <!-- 300 -->
      <g transform="translate(730.152814 527.238438) scale(0.1 -0.1)">
       <defs>
        <path id="DejaVuSans-33" d="M 2597 2516 
Q 3050 2419 3304 2112 
Q 3559 1806 3559 1356 
Q 3559 666 3084 287 
Q 2609 -91 1734 -91 
Q 1441 -91 1130 -33 
Q 819 25 488 141 
L 488 750 
Q 750 597 1062 519 
Q 1375 441 1716 441 
Q 2309 441 2620 675 
Q 2931 909 2931 1356 
Q 2931 1769 2642 2001 
Q 2353 2234 1838 2234 
L 1294 2234 
L 1294 2753 
L 1863 2753 
Q 2328 2753 2575 2939 
Q 2822 3125 2822 3475 
Q 2822 3834 2567 4026 
Q 2313 4219 1838 4219 
Q 1578 4219 1281 4162 
Q 984 4106 628 3988 
L 628 4550 
Q 988 4650 1302 4700 
Q 1616 4750 1894 4750 
Q 2613 4750 3031 4423 
Q 3450 4097 3450 3541 
Q 3450 3153 3228 2886 
Q 3006 2619 2597 2516 
z
" transform="scale(0.015625)"/>
       </defs>
       <use xlink:href="#DejaVuSans-33"/>
       <use xlink:href="#DejaVuSans-30" x="63.623047"/>
       <use xlink:href="#DejaVuSans-30" x="127.246094"/>
      </g>
     </g>
    </g>
    <g id="xtick_5">
     <g id="line2d_5">
      <g>
       <use xlink:href="#m8eba5c0dc4" x="909.352995" y="512.64" style="stroke: #000000; stroke-width: 0.8"/>
      </g>
     </g>
     <g id="text_5">
      <!-- 400 -->
      <g transform="translate(899.809245 527.238438) scale(0.1 -0.1)">
       <defs>
        <path id="DejaVuSans-34" d="M 2419 4116 
L 825 1625 
L 2419 1625 
L 2419 4116 
z
M 2253 4666 
L 3047 4666 
L 3047 1625 
L 3713 1625 
L 3713 1100 
L 3047 1100 
L 3047 0 
L 2419 0 
L 2419 1100 
L 313 1100 
L 313 1709 
L 2253 4666 
z
" transform="scale(0.015625)"/>
       </defs>
       <use xlink:href="#DejaVuSans-34"/>
       <use xlink:href="#DejaVuSans-30" x="63.623047"/>
       <use xlink:href="#DejaVuSans-30" x="127.246094"/>
      </g>
     </g>
    </g>
    <g id="xtick_6">
     <g id="line2d_6">
      <g>
       <use xlink:href="#m8eba5c0dc4" x="1079.009425" y="512.64" style="stroke: #000000; stroke-width: 0.8"/>
      </g>
     </g>
     <g id="text_6">
      <!-- 500 -->
      <g transform="translate(1069.465675 527.238438) scale(0.1 -0.1)">
       <defs>
        <path id="DejaVuSans-35" d="M 691 4666 
L 3169 4666 
L 3169 4134 
L 1269 4134 
L 1269 2991 
Q 1406 3038 1543 3061 
Q 1681 3084 1819 3084 
Q 2600 3084 3056 2656 
Q 3513 2228 3513 1497 
Q 3513 744 3044 326 
Q 2575 -91 1722 -91 
Q 1428 -91 1123 -41 
Q 819 9 494 109 
L 494 744 
Q 775 591 1075 516 
Q 1375 441 1709 441 
Q 2250 441 2565 725 
Q 2881 1009 2881 1497 
Q 2881 1984 2565 2268 
Q 2250 2553 1709 2553 
Q 1456 2553 1204 2497 
Q 953 2441 691 2322 
L 691 4666 
z
" transform="scale(0.015625)"/>
       </defs>
       <use xlink:href="#DejaVuSans-35"/>
       <use xlink:href="#DejaVuSans-30" x="63.623047"/>
       <use xlink:href="#DejaVuSans-30" x="127.246094"/>
      </g>
     </g>
    </g>
    <g id="xtick_7">
     <g id="line2d_7">
      <g>
       <use xlink:href="#m8eba5c0dc4" x="1248.665856" y="512.64" style="stroke: #000000; stroke-width: 0.8"/>
      </g>
     </g>
     <g id="text_7">
      <!-- 600 -->
      <g transform="translate(1239.122106 527.238438) scale(0.1 -0.1)">
       <defs>
        <path id="DejaVuSans-36" d="M 2113 2584 
Q 1688 2584 1439 2293 
Q 1191 2003 1191 1497 
Q 1191 994 1439 701 
Q 1688 409 2113 409 
Q 2538 409 2786 701 
Q 3034 994 3034 1497 
Q 3034 2003 2786 2293 
Q 2538 2584 2113 2584 
z
M 3366 4563 
L 3366 3988 
Q 3128 4100 2886 4159 
Q 2644 4219 2406 4219 
Q 1781 4219 1451 3797 
Q 1122 3375 1075 2522 
Q 1259 2794 1537 2939 
Q 1816 3084 2150 3084 
Q 2853 3084 3261 2657 
Q 3669 2231 3669 1497 
Q 3669 778 3244 343 
Q 2819 -91 2113 -91 
Q 1303 -91 875 529 
Q 447 1150 447 2328 
Q 447 3434 972 4092 
Q 1497 4750 2381 4750 
Q 2619 4750 2861 4703 
Q 3103 4656 3366 4563 
z
" transform="scale(0.015625)"/>
       </defs>
       <use xlink:href="#DejaVuSans-36"/>
       <use xlink:href="#DejaVuSans-30" x="63.623047"/>
       <use xlink:href="#DejaVuSans-30" x="127.246094"/>
      </g>
     </g>
    </g>
    <g id="text_8">
     <!-- Frame -->
     <g transform="translate(722.420313 540.916563) scale(0.1 -0.1)">
      <defs>
       <path id="DejaVuSans-46" d="M 628 4666 
L 3309 4666 
L 3309 4134 
L 1259 4134 
L 1259 2759 
L 3109 2759 
L 3109 2228 
L 1259 2228 
L 1259 0 
L 628 0 
L 628 4666 
z
" transform="scale(0.015625)"/>
       <path id="DejaVuSans-72" d="M 2631 2963 
Q 2534 3019 2420 3045 
Q 2306 3072 2169 3072 
Q 1681 3072 1420 2755 
Q 1159 2438 1159 1844 
L 1159 0 
L 581 0 
L 581 3500 
L 1159 3500 
L 1159 2956 
Q 1341 3275 1631 3429 
Q 1922 3584 2338 3584 
Q 2397 3584 2469 3576 
Q 2541 3569 2628 3553 
L 2631 2963 
z
" transform="scale(0.015625)"/>
       <path id="DejaVuSans-61" d="M 2194 1759 
Q 1497 1759 1228 1600 
Q 959 1441 959 1056 
Q 959 750 1161 570 
Q 1363 391 1709 391 
Q 2188 391 2477 730 
Q 2766 1069 2766 1631 
L 2766 1759 
L 2194 1759 
z
M 3341 1997 
L 3341 0 
L 2766 0 
L 2766 531 
Q 2569 213 2275 61 
Q 1981 -91 1556 -91 
Q 1019 -91 701 211 
Q 384 513 384 1019 
Q 384 1609 779 1909 
Q 1175 2209 1959 2209 
L 2766 2209 
L 2766 2266 
Q 2766 2663 2505 2880 
Q 2244 3097 1772 3097 
Q 1472 3097 1187 3025 
Q 903 2953 641 2809 
L 641 3341 
Q 956 3463 1253 3523 
Q 1550 3584 1831 3584 
Q 2591 3584 2966 3190 
Q 3341 2797 3341 1997 
z
" transform="scale(0.015625)"/>
       <path id="DejaVuSans-6d" d="M 3328 2828 
Q 3544 3216 3844 3400 
Q 4144 3584 4550 3584 
Q 5097 3584 5394 3201 
Q 5691 2819 5691 2113 
L 5691 0 
L 5113 0 
L 5113 2094 
Q 5113 2597 4934 2840 
Q 4756 3084 4391 3084 
Q 3944 3084 3684 2787 
Q 3425 2491 3425 1978 
L 3425 0 
L 2847 0 
L 2847 2094 
Q 2847 2600 2669 2842 
Q 2491 3084 2119 3084 
Q 1678 3084 1418 2786 
Q 1159 2488 1159 1978 
L 1159 0 
L 581 0 
L 581 3500 
L 1159 3500 
L 1159 2956 
Q 1356 3278 1631 3431 
Q 1906 3584 2284 3584 
Q 2666 3584 2933 3390 
Q 3200 3197 3328 2828 
z
" transform="scale(0.015625)"/>
       <path id="DejaVuSans-65" d="M 3597 1894 
L 3597 1613 
L 953 1613 
Q 991 1019 1311 708 
Q 1631 397 2203 397 
Q 2534 397 2845 478 
Q 3156 559 3463 722 
L 3463 178 
Q 3153 47 2828 -22 
Q 2503 -91 2169 -91 
Q 1331 -91 842 396 
Q 353 884 353 1716 
Q 353 2575 817 3079 
Q 1281 3584 2069 3584 
Q 2775 3584 3186 3129 
Q 3597 2675 3597 1894 
z
M 3022 2063 
Q 3016 2534 2758 2815 
Q 2500 3097 2075 3097 
Q 1594 3097 1305 2825 
Q 1016 2553 972 2059 
L 3022 2063 
z
" transform="scale(0.015625)"/>
      </defs>
      <use xlink:href="#DejaVuSans-46"/>
      <use xlink:href="#DejaVuSans-72" x="50.269531"/>
      <use xlink:href="#DejaVuSans-61" x="91.382812"/>
      <use xlink:href="#DejaVuSans-6d" x="152.662109"/>
      <use xlink:href="#DejaVuSans-65" x="250.074219"/>
     </g>
    </g>
   </g>
   <g id="matplotlib.axis_2">
    <g id="ytick_1">
     <g id="line2d_8">
      <defs>
       <path id="m897aa91e94" d="M 0 0 
L -3.5 0 
" style="stroke: #000000; stroke-width: 0.8"/>
      </defs>
      <g>
       <use xlink:href="#m897aa91e94" x="180" y="487.937768" style="stroke: #000000; stroke-width: 0.8"/>
      </g>
     </g>
     <g id="text_9">
      <!-- 0.00 -->
      <g transform="translate(150.734375 491.736987) scale(0.1 -0.1)">
       <defs>
        <path id="DejaVuSans-2e" d="M 684 794 
L 1344 794 
L 1344 0 
L 684 0 
L 684 794 
z
" transform="scale(0.015625)"/>
       </defs>
       <use xlink:href="#DejaVuSans-30"/>
       <use xlink:href="#DejaVuSans-2e" x="63.623047"/>
       <use xlink:href="#DejaVuSans-30" x="95.410156"/>
       <use xlink:href="#DejaVuSans-30" x="159.033203"/>
      </g>
     </g>
    </g>
    <g id="ytick_2">
     <g id="line2d_9">
      <g>
       <use xlink:href="#m897aa91e94" x="180" y="401.902318" style="stroke: #000000; stroke-width: 0.8"/>
      </g>
     </g>
     <g id="text_10">
      <!-- 0.05 -->
      <g transform="translate(150.734375 405.701537) scale(0.1 -0.1)">
       <use xlink:href="#DejaVuSans-30"/>
       <use xlink:href="#DejaVuSans-2e" x="63.623047"/>
       <use xlink:href="#DejaVuSans-30" x="95.410156"/>
       <use xlink:href="#DejaVuSans-35" x="159.033203"/>
      </g>
     </g>
    </g>
    <g id="ytick_3">
     <g id="line2d_10">
      <g>
       <use xlink:href="#m897aa91e94" x="180" y="315.866868" style="stroke: #000000; stroke-width: 0.8"/>
      </g>
     </g>
     <g id="text_11">
      <!-- 0.10 -->
      <g transform="translate(150.734375 319.666087) scale(0.1 -0.1)">
       <use xlink:href="#DejaVuSans-30"/>
       <use xlink:href="#DejaVuSans-2e" x="63.623047"/>
       <use xlink:href="#DejaVuSans-31" x="95.410156"/>
       <use xlink:href="#DejaVuSans-30" x="159.033203"/>
      </g>
     </g>
    </g>
    <g id="ytick_4">
     <g id="line2d_11">
      <g>
       <use xlink:href="#m897aa91e94" x="180" y="229.831418" style="stroke: #000000; stroke-width: 0.8"/>
      </g>
     </g>
     <g id="text_12">
      <!-- 0.15 -->
      <g transform="translate(150.734375 233.630637) scale(0.1 -0.1)">
       <use xlink:href="#DejaVuSans-30"/>
       <use xlink:href="#DejaVuSans-2e" x="63.623047"/>
       <use xlink:href="#DejaVuSans-31" x="95.410156"/>
       <use xlink:href="#DejaVuSans-35" x="159.033203"/>
      </g>
     </g>
    </g>
    <g id="ytick_5">
     <g id="line2d_12">
      <g>
       <use xlink:href="#m897aa91e94" x="180" y="143.795968" style="stroke: #000000; stroke-width: 0.8"/>
      </g>
     </g>
     <g id="text_13">
      <!-- 0.20 -->
      <g transform="translate(150.734375 147.595187) scale(0.1 -0.1)">
       <use xlink:href="#DejaVuSans-30"/>
       <use xlink:href="#DejaVuSans-2e" x="63.623047"/>
       <use xlink:href="#DejaVuSans-32" x="95.410156"/>
       <use xlink:href="#DejaVuSans-30" x="159.033203"/>
      </g>
     </g>
    </g>
    <g id="text_14">
     <!-- Motion magnitude -->
     <g transform="translate(144.654687 336.465937) rotate(-90) scale(0.1 -0.1)">
      <defs>
       <path id="DejaVuSans-4d" d="M 628 4666 
L 1569 4666 
L 2759 1491 
L 3956 4666 
L 4897 4666 
L 4897 0 
L 4281 0 
L 4281 4097 
L 3078 897 
L 2444 897 
L 1241 4097 
L 1241 0 
L 628 0 
L 628 4666 
z
" transform="scale(0.015625)"/>
       <path id="DejaVuSans-6f" d="M 1959 3097 
Q 1497 3097 1228 2736 
Q 959 2375 959 1747 
Q 959 1119 1226 758 
Q 1494 397 1959 397 
Q 2419 397 2687 759 
Q 2956 1122 2956 1747 
Q 2956 2369 2687 2733 
Q 2419 3097 1959 3097 
z
M 1959 3584 
Q 2709 3584 3137 3096 
Q 3566 2609 3566 1747 
Q 3566 888 3137 398 
Q 2709 -91 1959 -91 
Q 1206 -91 779 398 
Q 353 888 353 1747 
Q 353 2609 779 3096 
Q 1206 3584 1959 3584 
z
" transform="scale(0.015625)"/>
       <path id="DejaVuSans-74" d="M 1172 4494 
L 1172 3500 
L 2356 3500 
L 2356 3053 
L 1172 3053 
L 1172 1153 
Q 1172 725 1289 603 
Q 1406 481 1766 481 
L 2356 481 
L 2356 0 
L 1766 0 
Q 1100 0 847 248 
Q 594 497 594 1153 
L 594 3053 
L 172 3053 
L 172 3500 
L 594 3500 
L 594 4494 
L 1172 4494 
z
" transform="scale(0.015625)"/>
       <path id="DejaVuSans-69" d="M 603 3500 
L 1178 3500 
L 1178 0 
L 603 0 
L 603 3500 
z
M 603 4863 
L 1178 4863 
L 1178 4134 
L 603 4134 
L 603 4863 
z
" transform="scale(0.015625)"/>
       <path id="DejaVuSans-6e" d="M 3513 2113 
L 3513 0 
L 2938 0 
L 2938 2094 
Q 2938 2591 2744 2837 
Q 2550 3084 2163 3084 
Q 1697 3084 1428 2787 
Q 1159 2491 1159 1978 
L 1159 0 
L 581 0 
L 581 3500 
L 1159 3500 
L 1159 2956 
Q 1366 3272 1645 3428 
Q 1925 3584 2291 3584 
Q 2894 3584 3203 3211 
Q 3513 2838 3513 2113 
z
" transform="scale(0.015625)"/>
       <path id="DejaVuSans-20" transform="scale(0.015625)"/>
       <path id="DejaVuSans-67" d="M 2906 1791 
Q 2906 2416 2648 2759 
Q 2391 3103 1925 3103 
Q 1463 3103 1205 2759 
Q 947 2416 947 1791 
Q 947 1169 1205 825 
Q 1463 481 1925 481 
Q 2391 481 2648 825 
Q 2906 1169 2906 1791 
z
M 3481 434 
Q 3481 -459 3084 -895 
Q 2688 -1331 1869 -1331 
Q 1566 -1331 1297 -1286 
Q 1028 -1241 775 -1147 
L 775 -588 
Q 1028 -725 1275 -790 
Q 1522 -856 1778 -856 
Q 2344 -856 2625 -561 
Q 2906 -266 2906 331 
L 2906 616 
Q 2728 306 2450 153 
Q 2172 0 1784 0 
Q 1141 0 747 490 
Q 353 981 353 1791 
Q 353 2603 747 3093 
Q 1141 3584 1784 3584 
Q 2172 3584 2450 3431 
Q 2728 3278 2906 2969 
L 2906 3500 
L 3481 3500 
L 3481 434 
z
" transform="scale(0.015625)"/>
       <path id="DejaVuSans-75" d="M 544 1381 
L 544 3500 
L 1119 3500 
L 1119 1403 
Q 1119 906 1312 657 
Q 1506 409 1894 409 
Q 2359 409 2629 706 
Q 2900 1003 2900 1516 
L 2900 3500 
L 3475 3500 
L 3475 0 
L 2900 0 
L 2900 538 
Q 2691 219 2414 64 
Q 2138 -91 1772 -91 
Q 1169 -91 856 284 
Q 544 659 544 1381 
z
M 1991 3584 
L 1991 3584 
z
" transform="scale(0.015625)"/>
       <path id="DejaVuSans-64" d="M 2906 2969 
L 2906 4863 
L 3481 4863 
L 3481 0 
L 2906 0 
L 2906 525 
Q 2725 213 2448 61 
Q 2172 -91 1784 -91 
Q 1150 -91 751 415 
Q 353 922 353 1747 
Q 353 2572 751 3078 
Q 1150 3584 1784 3584 
Q 2172 3584 2448 3432 
Q 2725 3281 2906 2969 
z
M 947 1747 
Q 947 1113 1208 752 
Q 1469 391 1925 391 
Q 2381 391 2643 752 
Q 2906 1113 2906 1747 
Q 2906 2381 2643 2742 
Q 2381 3103 1925 3103 
Q 1469 3103 1208 2742 
Q 947 2381 947 1747 
z
" transform="scale(0.015625)"/>
      </defs>
      <use xlink:href="#DejaVuSans-4d"/>
      <use xlink:href="#DejaVuSans-6f" x="86.279297"/>
      <use xlink:href="#DejaVuSans-74" x="147.460938"/>
      <use xlink:href="#DejaVuSans-69" x="186.669922"/>
      <use xlink:href="#DejaVuSans-6f" x="214.453125"/>
      <use xlink:href="#DejaVuSans-6e" x="275.634766"/>
      <use xlink:href="#DejaVuSans-20" x="339.013672"/>
      <use xlink:href="#DejaVuSans-6d" x="370.800781"/>
      <use xlink:href="#DejaVuSans-61" x="468.212891"/>
      <use xlink:href="#DejaVuSans-67" x="529.492188"/>
      <use xlink:href="#DejaVuSans-6e" x="592.96875"/>
      <use xlink:href="#DejaVuSans-69" x="656.347656"/>
      <use xlink:href="#DejaVuSans-74" x="684.130859"/>
      <use xlink:href="#DejaVuSans-75" x="723.339844"/>
      <use xlink:href="#DejaVuSans-64" x="786.71875"/>
      <use xlink:href="#DejaVuSans-65" x="850.195312"/>
     </g>
    </g>
   </g>
   <g id="line2d_13">
    <path d="M 230.727273 260.650543 
L 232.423837 412.776896 
L 234.120401 302.003437 
L 235.816966 405.116175 
L 237.51353 325.378258 
L 239.210094 339.970276 
L 240.906659 411.246539 
L 242.603223 330.239016 
L 244.299787 442.62176 
L 245.996351 433.760677 
L 247.692916 371.873969 
L 249.38948 435.710247 
L 251.086044 392.422007 
L 252.782609 383.310268 
L 254.479173 431.766322 
L 256.175737 435.043715 
L 257.872302 441.283076 
L 259.568866 422.483105 
L 261.26543 445.569326 
L 262.961995 408.869832 
L 264.658559 444.531437 
L 266.355123 438.418705 
L 268.051687 376.327375 
L 269.748252 422.99141 
L 271.444816 379.608688 
L 273.14138 396.040763 
L 274.837945 402.147883 
L 276.534509 435.617339 
L 278.231073 449.141514 
L 281.624202 243.853975 
L 283.320766 394.033369 
L 285.01733 440.312764 
L 286.713895 432.486181 
L 288.410459 399.479893 
L 290.107023 391.848261 
L 291.803588 403.696066 
L 293.500152 426.452905 
L 295.196716 454.187285 
L 296.893281 383.886091 
L 298.589845 423.733441 
L 300.286409 427.807964 
L 301.982974 421.342959 
L 303.679538 414.336342 
L 305.376102 274.971772 
L 307.072666 384.260527 
L 308.769231 267.30491 
L 312.162359 357.08571 
L 313.858924 382.477546 
L 315.555488 255.942372 
L 317.252052 333.009312 
L 318.948617 332.904776 
L 320.645181 372.099798 
L 322.341745 234.287558 
L 324.03831 325.901389 
L 325.734874 328.335589 
L 327.431438 429.591374 
L 329.128002 287.81936 
L 330.824567 316.702761 
L 332.521131 293.096213 
L 334.217695 342.248555 
L 335.91426 303.648997 
L 337.610824 385.346501 
L 339.307388 247.057122 
L 341.003953 348.949845 
L 342.700517 307.150921 
L 344.397081 318.376269 
L 346.093645 430.248766 
L 347.79021 380.468672 
L 349.486774 289.320615 
L 351.183338 439.698339 
L 352.879903 410.818803 
L 354.576467 411.426933 
L 356.273031 448.681971 
L 357.969596 448.977546 
L 359.66616 391.677566 
L 361.362724 454.345584 
L 363.059289 426.842597 
L 364.755853 430.012398 
L 366.452417 397.247196 
L 368.148981 438.163552 
L 369.845546 398.367663 
L 371.54211 427.945942 
L 373.238674 385.690898 
L 374.935239 442.04246 
L 376.631803 434.578896 
L 378.328367 426.361855 
L 380.024932 422.811195 
L 381.721496 400.782613 
L 383.41806 426.737323 
L 385.114625 366.616974 
L 386.811189 412.367128 
L 388.507753 440.751897 
L 390.204317 445.024021 
L 391.900882 429.198086 
L 393.597446 434.048191 
L 395.29401 446.585522 
L 396.990575 424.407064 
L 398.687139 446.995008 
L 400.383703 391.931362 
L 402.080268 434.872346 
L 403.776832 353.322624 
L 405.473396 357.888273 
L 407.16996 363.395622 
L 408.866525 205.935814 
L 410.563089 392.79461 
L 412.259653 382.61873 
L 413.956218 354.122161 
L 415.652782 251.342045 
L 417.349346 249.036445 
L 419.045911 398.898999 
L 420.742475 364.079366 
L 422.439039 360.754452 
L 424.135604 270.599133 
L 425.832168 279.913528 
L 427.528732 154.558692 
L 429.225296 298.843481 
L 430.921861 342.026188 
L 432.618425 298.03788 
L 434.314989 233.021607 
L 436.011554 176.332349 
L 437.708118 325.437654 
L 439.404682 372.039978 
L 441.101247 411.826625 
L 442.797811 357.942541 
L 444.494375 436.175861 
L 446.190939 266.163521 
L 447.887504 435.196215 
L 449.584068 300.233917 
L 451.280632 429.581477 
L 452.977197 403.46575 
L 454.673761 286.566306 
L 456.370325 446.242147 
L 458.06689 410.428426 
L 459.763454 433.897303 
L 461.460018 328.373627 
L 463.156583 422.917174 
L 464.853147 389.648737 
L 466.549711 460.472139 
L 468.246275 441.760494 
L 469.94284 434.963924 
L 471.639404 420.585332 
L 473.335968 431.111673 
L 475.032533 405.163751 
L 476.729097 428.434844 
L 478.425661 440.067813 
L 480.122226 437.69932 
L 481.81879 322.034844 
L 483.515354 433.991455 
L 485.211919 388.204904 
L 486.908483 416.784285 
L 488.605047 401.454665 
L 490.301611 384.336416 
L 491.998176 417.435607 
L 493.69474 425.661964 
L 495.391304 421.823912 
L 497.087869 448.349564 
L 498.784433 360.432816 
L 500.480997 386.858358 
L 502.177562 417.679769 
L 503.874126 420.96703 
L 505.57069 411.928642 
L 507.267254 434.366246 
L 508.963819 408.751347 
L 510.660383 439.861422 
L 512.356947 404.858725 
L 514.053512 386.049629 
L 515.750076 431.95685 
L 517.44664 429.037679 
L 519.143205 444.308778 
L 520.839769 417.952963 
L 522.536333 428.872342 
L 524.232898 381.693554 
L 525.929462 277.238705 
L 527.626026 414.555287 
L 529.32259 252.49546 
L 531.019155 399.945166 
L 532.715719 365.73658 
L 534.412283 241.185305 
L 536.108848 337.321068 
L 537.805412 341.705873 
L 539.501976 313.904119 
L 541.198541 277.907308 
L 542.895105 300.339851 
L 544.591669 252.063724 
L 546.288234 338.524071 
L 547.984798 417.763767 
L 549.681362 306.495817 
L 551.377926 319.890395 
L 553.074491 377.072182 
L 554.771055 382.281639 
L 556.467619 301.169452 
L 558.164184 392.313118 
L 559.860748 340.294604 
L 561.557312 389.794555 
L 563.253877 345.66957 
L 564.950441 323.687763 
L 566.647005 274.288258 
L 568.343569 445.550451 
L 570.040134 324.248419 
L 571.736698 286.329387 
L 573.433262 382.551115 
L 575.129827 339.177047 
L 576.826391 422.883149 
L 578.522955 341.450878 
L 580.21952 416.660422 
L 581.916084 366.92443 
L 583.612648 436.538412 
L 585.309213 336.149922 
L 587.005777 285.357661 
L 588.702341 412.768973 
L 590.398905 433.27341 
L 592.09547 445.161464 
L 593.792034 213.9449 
L 595.488598 313.42173 
L 597.185163 384.298103 
L 598.881727 402.273797 
L 600.578291 365.928704 
L 602.274856 400.293243 
L 603.97142 445.957033 
L 605.667984 383.585315 
L 607.364548 462.003886 
L 609.061113 407.009635 
L 610.757677 435.424817 
L 612.454241 440.701548 
L 614.150806 404.640069 
L 615.84737 416.954455 
L 617.543934 443.777092 
L 619.240499 436.644404 
L 620.937063 432.922198 
L 622.633627 444.498951 
L 624.330192 346.146344 
L 626.026756 363.827614 
L 627.72332 413.322546 
L 629.419884 421.250845 
L 631.116449 334.565335 
L 632.813013 427.22818 
L 634.509577 430.700322 
L 636.206142 431.156609 
L 637.902706 327.61723 
L 639.59927 371.356273 
L 641.295835 356.756498 
L 642.992399 418.800178 
L 644.688963 416.49713 
L 646.385528 379.887529 
L 648.082092 415.853334 
L 649.778656 411.943853 
L 651.47522 370.708092 
L 653.171785 366.471246 
L 654.868349 435.635252 
L 656.564913 340.728967 
L 658.261478 433.688736 
L 661.654606 408.485941 
L 663.351171 422.681531 
L 665.047735 452.773814 
L 666.744299 416.82363 
L 668.440863 421.097508 
L 670.137428 398.869269 
L 671.833992 427.564622 
L 673.530556 449.87677 
L 675.227121 401.866971 
L 676.923685 432.146693 
L 678.620249 297.282061 
L 680.316814 363.294688 
L 682.013378 313.598753 
L 683.709942 355.041068 
L 685.406507 411.843323 
L 687.103071 276.696753 
L 688.799635 226.144064 
L 690.496199 329.226457 
L 692.192764 303.592921 
L 693.889328 259.006496 
L 695.585892 271.535808 
L 697.282457 229.5629 
L 700.675585 371.359747 
L 702.37215 254.356683 
L 704.068714 407.501466 
L 705.765278 264.846544 
L 707.461843 325.501768 
L 709.158407 344.62123 
L 710.854971 351.178522 
L 712.551535 283.374363 
L 714.2481 350.03403 
L 715.944664 304.954396 
L 717.641228 372.687044 
L 719.337793 229.720179 
L 721.034357 435.649986 
L 722.730921 316.440663 
L 724.427486 381.863846 
L 726.12405 404.221467 
L 727.820614 306.961616 
L 729.517178 356.703397 
L 731.213743 299.513161 
L 732.910307 314.015232 
L 734.606871 430.09357 
L 736.303436 311.619173 
L 738 411.471067 
L 739.696564 436.123141 
L 741.393129 432.052176 
L 743.089693 433.807548 
L 744.786257 400.940879 
L 746.482822 446.102114 
L 748.179386 437.723173 
L 749.87595 441.342915 
L 751.572514 442.529022 
L 753.269079 443.854254 
L 754.965643 434.05196 
L 756.662207 399.07349 
L 758.358772 387.123719 
L 760.055336 441.589494 
L 761.7519 443.452899 
L 763.448465 356.764934 
L 765.145029 419.178896 
L 766.841593 436.511803 
L 768.538157 416.753651 
L 770.234722 446.283175 
L 771.931286 440.258636 
L 773.62785 431.161628 
L 775.324415 434.729768 
L 777.020979 430.92067 
L 778.717543 444.039267 
L 780.414108 383.254513 
L 782.110672 445.559226 
L 783.807236 445.20006 
L 785.503801 426.046938 
L 787.200365 410.150309 
L 788.896929 440.128087 
L 790.593493 448.789793 
L 792.290058 420.743739 
L 793.986622 422.192194 
L 795.683186 442.522797 
L 797.379751 432.889244 
L 799.076315 320.82202 
L 800.772879 359.619139 
L 802.469444 419.67256 
L 804.166008 412.048319 
L 805.862572 422.670281 
L 807.559137 441.910106 
L 809.255701 311.695813 
L 810.952265 408.124153 
L 816.041958 207.666142 
L 817.738522 300.867855 
L 819.435087 387.059547 
L 821.131651 269.797993 
L 824.52478 435.06373 
L 826.221344 329.680039 
L 827.917908 267.068735 
L 829.614472 379.148119 
L 831.311037 276.297401 
L 833.007601 392.014476 
L 834.704165 296.307168 
L 836.40073 326.517904 
L 838.097294 381.801296 
L 839.793858 287.07004 
L 841.490423 303.278991 
L 843.186987 305.646909 
L 844.883551 215.024804 
L 846.580116 427.155848 
L 848.27668 323.129068 
L 849.973244 307.915381 
L 851.669808 410.043509 
L 853.366373 410.161155 
L 855.062937 388.07633 
L 856.759501 447.669191 
L 858.456066 441.009777 
L 860.15263 445.035835 
L 861.849194 435.441339 
L 863.545759 377.492277 
L 865.242323 442.848737 
L 866.938887 352.667393 
L 868.635452 383.835374 
L 870.332016 272.174643 
L 872.02858 431.284529 
L 873.725144 451.924768 
L 875.421709 416.482149 
L 877.118273 454.66045 
L 878.814837 403.166416 
L 880.511402 449.992848 
L 882.207966 422.987397 
L 883.90453 450.69473 
L 885.601095 360.831835 
L 887.297659 397.082654 
L 888.994223 429.862664 
L 890.690787 414.988843 
L 892.387352 438.315303 
L 894.083916 338.195731 
L 895.78048 422.247161 
L 897.477045 404.040015 
L 899.173609 430.559946 
L 900.870173 425.485435 
L 902.566738 426.125129 
L 904.263302 427.076259 
L 905.959866 430.34195 
L 907.656431 406.242995 
L 909.352995 447.785872 
L 911.049559 394.6813 
L 912.746123 447.101817 
L 914.442688 440.607005 
L 916.139252 418.152414 
L 917.835816 430.633201 
L 919.532381 336.04236 
L 921.228945 445.247027 
L 922.925509 401.107799 
L 924.622074 408.644887 
L 926.318638 409.167519 
L 928.015202 400.026024 
L 929.711766 271.051714 
L 931.408331 433.33562 
L 933.104895 417.648372 
L 934.801459 307.401647 
L 936.498024 328.291833 
L 938.194588 391.541728 
L 939.891152 388.277691 
L 941.587717 437.01483 
L 943.284281 439.974571 
L 944.980845 430.047449 
L 946.67741 412.286014 
L 948.373974 407.476915 
L 950.070538 426.094559 
L 951.767102 430.288996 
L 953.463667 407.843927 
L 955.160231 439.504916 
L 956.856795 411.29975 
L 958.55336 435.901882 
L 960.249924 426.228448 
L 961.946488 378.696294 
L 963.643053 431.184223 
L 965.339617 386.085116 
L 967.036181 449.689219 
L 968.732746 292.039425 
L 970.42931 348.878564 
L 972.125874 380.970894 
L 973.822438 396.001725 
L 975.519003 319.918831 
L 977.215567 315.887647 
L 978.912131 389.790452 
L 980.608696 225.844839 
L 982.30526 407.585265 
L 984.001824 312.079332 
L 985.698389 298.667138 
L 987.394953 289.375524 
L 989.091517 360.702824 
L 990.788081 333.884848 
L 992.484646 392.142493 
L 994.18121 363.58899 
L 995.877774 393.86518 
L 997.574339 210.772881 
L 999.270903 358.830986 
L 1000.967467 376.088662 
L 1002.664032 269.340822 
L 1004.360596 239.350544 
L 1006.05716 340.6312 
L 1007.753725 434.585479 
L 1009.450289 262.577355 
L 1011.146853 440.998796 
L 1012.843417 350.673249 
L 1014.539982 275.360816 
L 1016.236546 365.601531 
L 1017.93311 311.325114 
L 1019.629675 349.466874 
L 1021.326239 274.544523 
L 1023.022803 382.783483 
L 1024.719368 290.234355 
L 1026.415932 265.911474 
L 1028.112496 313.970477 
L 1029.809061 420.757739 
L 1031.505625 315.199301 
L 1033.202189 373.714538 
L 1034.898753 293.956492 
L 1036.595318 302.735641 
L 1038.291882 330.297541 
L 1039.988446 433.128913 
L 1041.685011 270.592697 
L 1043.381575 329.434172 
L 1045.078139 431.392457 
L 1046.774704 383.39426 
L 1048.471268 408.353707 
L 1050.167832 368.782845 
L 1051.864396 412.454902 
L 1053.560961 423.526259 
L 1055.257525 412.169304 
L 1056.954089 394.447144 
L 1058.650654 449.598798 
L 1060.347218 449.589894 
L 1062.043782 392.189448 
L 1063.740347 384.077479 
L 1065.436911 444.658005 
L 1067.133475 450.841032 
L 1068.83004 443.222487 
L 1070.526604 335.428935 
L 1072.223168 447.372053 
L 1073.919732 397.613375 
L 1075.616297 396.789518 
L 1077.312861 420.787828 
L 1079.009425 383.69539 
L 1080.70599 438.454422 
L 1082.402554 434.376961 
L 1084.099118 349.077252 
L 1085.795683 434.068453 
L 1087.492247 436.478278 
L 1089.188811 438.506271 
L 1090.885375 437.05797 
L 1092.58194 424.17876 
L 1094.278504 408.634439 
L 1095.975068 438.116278 
L 1097.671633 440.639341 
L 1099.368197 443.839485 
L 1101.064761 380.189934 
L 1102.761326 425.329502 
L 1104.45789 457.699257 
L 1106.154454 373.856907 
L 1107.851019 423.555009 
L 1109.547583 443.332936 
L 1111.244147 400.217584 
L 1112.940711 439.719319 
L 1114.637276 389.255142 
L 1116.33384 382.547519 
L 1118.030404 384.58097 
L 1119.726969 431.578652 
L 1121.423533 395.345192 
L 1123.120097 460.151995 
L 1124.816662 441.861236 
L 1126.513226 440.028737 
L 1128.20979 388.43747 
L 1129.906355 446.561503 
L 1131.602919 442.068501 
L 1133.299483 428.832779 
L 1134.996047 430.050507 
L 1136.692612 322.872649 
L 1138.389176 431.532704 
L 1140.08574 450.8539 
L 1141.782305 307.67977 
L 1143.478869 404.896724 
L 1145.175433 434.944187 
L 1146.871998 426.558858 
L 1148.568562 298.597242 
L 1150.265126 436.304871 
L 1151.96169 453.675157 
L 1153.658255 357.965015 
L 1155.354819 439.688083 
L 1157.051383 370.059207 
L 1158.747948 410.843931 
L 1160.444512 371.986492 
L 1162.141076 408.997695 
L 1163.837641 345.741531 
L 1165.534205 360.674799 
L 1167.230769 368.575233 
L 1168.927334 353.661323 
L 1170.623898 300.259635 
L 1172.320462 307.586361 
L 1174.017026 397.692169 
L 1175.713591 350.850477 
L 1177.410155 339.153419 
L 1179.106719 349.087816 
L 1180.803284 316.331588 
L 1182.499848 366.293134 
L 1184.196412 334.882073 
L 1185.892977 310.295236 
L 1187.589541 344.038497 
L 1189.286105 339.391979 
L 1190.98267 412.737031 
L 1192.679234 326.767463 
L 1194.375798 400.548668 
L 1196.072362 359.088392 
L 1197.768927 272.021517 
L 1199.465491 287.277741 
L 1201.162055 325.309926 
L 1202.85862 337.584563 
L 1204.555184 345.324936 
L 1206.251748 437.201502 
L 1207.948313 434.256694 
L 1209.644877 454.142959 
L 1211.341441 414.244914 
L 1213.038005 398.614921 
L 1214.73457 277.256525 
L 1216.431134 439.358723 
L 1218.127698 313.428961 
L 1219.824263 443.540519 
L 1221.520827 251.049537 
L 1223.217391 444.796798 
L 1224.913956 439.7242 
L 1226.61052 387.100469 
L 1228.307084 434.032781 
L 1230.003649 416.427766 
L 1231.700213 424.402391 
L 1233.396777 401.347904 
L 1235.093341 456.705534 
L 1236.789906 381.36713 
L 1238.48647 390.25295 
L 1240.183034 423.537586 
L 1241.879599 440.911307 
L 1243.576163 433.773388 
L 1245.272727 384.864285 
L 1245.272727 384.864285 
" clip-path="url(#p064696a78d)" style="fill: none; stroke: #1f77b4; stroke-width: 1.5; stroke-linecap: square"/>
   </g>
   <g id="patch_3">
    <path d="M 180 512.64 
L 180 69.12 
" style="fill: none; stroke: #000000; stroke-width: 0.8; stroke-linejoin: miter; stroke-linecap: square"/>
   </g>
   <g id="patch_4">
    <path d="M 1296 512.64 
L 1296 69.12 
" style="fill: none; stroke: #000000; stroke-width: 0.8; stroke-linejoin: miter; stroke-linecap: square"/>
   </g>
   <g id="patch_5">
    <path d="M 180 512.64 
L 1296 512.64 
" style="fill: none; stroke: #000000; stroke-width: 0.8; stroke-linejoin: miter; stroke-linecap: square"/>
   </g>
   <g id="patch_6">
    <path d="M 180 69.12 
L 1296 69.12 
" style="fill: none; stroke: #000000; stroke-width: 0.8; stroke-linejoin: miter; stroke-linecap: square"/>
   </g>
   <g id="text_15">
    <!-- Motion magnitude in the ROI -->
    <g transform="translate(651.598125 63.12) scale(0.12 -0.12)">
     <defs>
      <path id="DejaVuSans-68" d="M 3513 2113 
L 3513 0 
L 2938 0 
L 2938 2094 
Q 2938 2591 2744 2837 
Q 2550 3084 2163 3084 
Q 1697 3084 1428 2787 
Q 1159 2491 1159 1978 
L 1159 0 
L 581 0 
L 581 4863 
L 1159 4863 
L 1159 2956 
Q 1366 3272 1645 3428 
Q 1925 3584 2291 3584 
Q 2894 3584 3203 3211 
Q 3513 2838 3513 2113 
z
" transform="scale(0.015625)"/>
      <path id="DejaVuSans-52" d="M 2841 2188 
Q 3044 2119 3236 1894 
Q 3428 1669 3622 1275 
L 4263 0 
L 3584 0 
L 2988 1197 
Q 2756 1666 2539 1819 
Q 2322 1972 1947 1972 
L 1259 1972 
L 1259 0 
L 628 0 
L 628 4666 
L 2053 4666 
Q 2853 4666 3247 4331 
Q 3641 3997 3641 3322 
Q 3641 2881 3436 2590 
Q 3231 2300 2841 2188 
z
M 1259 4147 
L 1259 2491 
L 2053 2491 
Q 2509 2491 2742 2702 
Q 2975 2913 2975 3322 
Q 2975 3731 2742 3939 
Q 2509 4147 2053 4147 
L 1259 4147 
z
" transform="scale(0.015625)"/>
      <path id="DejaVuSans-4f" d="M 2522 4238 
Q 1834 4238 1429 3725 
Q 1025 3213 1025 2328 
Q 1025 1447 1429 934 
Q 1834 422 2522 422 
Q 3209 422 3611 934 
Q 4013 1447 4013 2328 
Q 4013 3213 3611 3725 
Q 3209 4238 2522 4238 
z
M 2522 4750 
Q 3503 4750 4090 4092 
Q 4678 3434 4678 2328 
Q 4678 1225 4090 567 
Q 3503 -91 2522 -91 
Q 1538 -91 948 565 
Q 359 1222 359 2328 
Q 359 3434 948 4092 
Q 1538 4750 2522 4750 
z
" transform="scale(0.015625)"/>
      <path id="DejaVuSans-49" d="M 628 4666 
L 1259 4666 
L 1259 0 
L 628 0 
L 628 4666 
z
" transform="scale(0.015625)"/>
     </defs>
     <use xlink:href="#DejaVuSans-4d"/>
     <use xlink:href="#DejaVuSans-6f" x="86.279297"/>
     <use xlink:href="#DejaVuSans-74" x="147.460938"/>
     <use xlink:href="#DejaVuSans-69" x="186.669922"/>
     <use xlink:href="#DejaVuSans-6f" x="214.453125"/>
     <use xlink:href="#DejaVuSans-6e" x="275.634766"/>
     <use xlink:href="#DejaVuSans-20" x="339.013672"/>
     <use xlink:href="#DejaVuSans-6d" x="370.800781"/>
     <use xlink:href="#DejaVuSans-61" x="468.212891"/>
     <use xlink:href="#DejaVuSans-67" x="529.492188"/>
     <use xlink:href="#DejaVuSans-6e" x="592.96875"/>
     <use xlink:href="#DejaVuSans-69" x="656.347656"/>
     <use xlink:href="#DejaVuSans-74" x="684.130859"/>
     <use xlink:href="#DejaVuSans-75" x="723.339844"/>
     <use xlink:href="#DejaVuSans-64" x="786.71875"/>
     <use xlink:href="#DejaVuSans-65" x="850.195312"/>
     <use xlink:href="#DejaVuSans-20" x="911.71875"/>
     <use xlink:href="#DejaVuSans-69" x="943.505859"/>
     <use xlink:href="#DejaVuSans-6e" x="971.289062"/>
     <use xlink:href="#DejaVuSans-20" x="1034.667969"/>
     <use xlink:href="#DejaVuSans-74" x="1066.455078"/>
     <use xlink:href="#DejaVuSans-68" x="1105.664062"/>
     <use xlink:href="#DejaVuSans-65" x="1169.042969"/>
     <use xlink:href="#DejaVuSans-20" x="1230.566406"/>
     <use xlink:href="#DejaVuSans-52" x="1262.353516"/>
     <use xlink:href="#DejaVuSans-4f" x="1331.835938"/>
     <use xlink:href="#DejaVuSans-49" x="1410.546875"/>
    </g>
   </g>
  </g>
 </g>
 <defs>
  <clipPath id="p064696a78d">
   <rect x="180" y="69.12" width="1116" height="443.52"/>
  </clipPath>
 </defs>
</svg>
