<?xml version="1.0" encoding="utf-8" standalone="no"?>
<!DOCTYPE svg PUBLIC "-//W3C//DTD SVG 1.1//EN"
  "http://www.w3.org/Graphics/SVG/1.1/DTD/svg11.dtd">
<svg xmlns:xlink="http://www.w3.org/1999/xlink" width="1440pt" height="360pt" viewBox="0 0 1440 360" xmlns="http://www.w3.org/2000/svg" version="1.1">
 <metadata>
  <rdf:RDF xmlns:dc="http://purl.org/dc/elements/1.1/" xmlns:cc="http://creativecommons.org/ns#" xmlns:rdf="http://www.w3.org/1999/02/22-rdf-syntax-ns#">
   <cc:Work>
    <dc:type rdf:resource="http://purl.org/dc/dcmitype/StillImage"/>
    <dc:date>2024-07-06T15:09:54.731495</dc:date>
    <dc:format>image/svg+xml</dc:format>
    <dc:creator>
     <cc:Agent>
      <dc:title>Matplotlib v3.9.0, https://matplotlib.org/</dc:title>
     </cc:Agent>
    </dc:creator>
   </cc:Work>
  </rdf:RDF>
 </metadata>
 <defs>
  <style type="text/css">*{stroke-linejoin: round; stroke-linecap: butt}</style>
 </defs>
 <g id="figure_1">
  <g id="patch_1">
   <path d="M 0 360 
L 1440 360 
L 1440 0 
L 0 0 
z
" style="fill: #ffffff"/>
  </g>
  <g id="axes_1">
   <g id="patch_2">
    <path d="M 180 320.4 
L 1296 320.4 
L 1296 43.2 
L 180 43.2 
z
" style="fill: #ffffff"/>
   </g>
   <g id="PathCollection_1">
    <defs>
     <path id="ma172a218b4" d="M 0 3 
C 0.795609 3 1.55874 2.683901 2.12132 2.12132 
C 2.683901 1.55874 3 0.795609 3 0 
C 3 -0.795609 2.683901 -1.55874 2.12132 -2.12132 
C 1.55874 -2.683901 0.795609 -3 0 -3 
C -0.795609 -3 -1.55874 -2.683901 -2.12132 -2.12132 
C -2.683901 -1.55874 -3 -0.795609 -3 0 
C -3 0.795609 -2.683901 1.55874 -2.12132 2.12132 
C -1.55874 2.683901 -0.795609 3 0 3 
z
" style="stroke: #ff0000"/>
    </defs>
    <g clip-path="url(#pba902e4701)">
     <use xlink:href="#ma172a218b4" x="256.379853" y="116.328419" style="fill: #ff0000; stroke: #ff0000"/>
     <use xlink:href="#ma172a218b4" x="282.878123" y="285.562963" style="fill: #ff0000; stroke: #ff0000"/>
     <use xlink:href="#ma172a218b4" x="300.919498" y="55.8" style="fill: #ff0000; stroke: #ff0000"/>
     <use xlink:href="#ma172a218b4" x="323.471217" y="255.581328" style="fill: #ff0000; stroke: #ff0000"/>
     <use xlink:href="#ma172a218b4" x="344.04966" y="81.831919" style="fill: #ff0000; stroke: #ff0000"/>
     <use xlink:href="#ma172a218b4" x="381.823789" y="92.998886" style="fill: #ff0000; stroke: #ff0000"/>
     <use xlink:href="#ma172a218b4" x="418.752229" y="87.373148" style="fill: #ff0000; stroke: #ff0000"/>
     <use xlink:href="#ma172a218b4" x="460.191013" y="81.435098" style="fill: #ff0000; stroke: #ff0000"/>
     <use xlink:href="#ma172a218b4" x="493.454798" y="237.008945" style="fill: #ff0000; stroke: #ff0000"/>
     <use xlink:href="#ma172a218b4" x="515.72462" y="80.249705" style="fill: #ff0000; stroke: #ff0000"/>
     <use xlink:href="#ma172a218b4" x="555.190129" y="88.765765" style="fill: #ff0000; stroke: #ff0000"/>
     <use xlink:href="#ma172a218b4" x="595.783223" y="88.734443" style="fill: #ff0000; stroke: #ff0000"/>
     <use xlink:href="#ma172a218b4" x="631.865973" y="89.049854" style="fill: #ff0000; stroke: #ff0000"/>
     <use xlink:href="#ma172a218b4" x="660.055622" y="86.691909" style="fill: #ff0000; stroke: #ff0000"/>
     <use xlink:href="#ma172a218b4" x="687.963374" y="89.260664" style="fill: #ff0000; stroke: #ff0000"/>
     <use xlink:href="#ma172a218b4" x="713.615954" y="94.782261" style="fill: #ff0000; stroke: #ff0000"/>
     <use xlink:href="#ma172a218b4" x="739.550431" y="106.274489" style="fill: #ff0000; stroke: #ff0000"/>
     <use xlink:href="#ma172a218b4" x="766.89439" y="98.762885" style="fill: #ff0000; stroke: #ff0000"/>
     <use xlink:href="#ma172a218b4" x="794.802142" y="104.078693" style="fill: #ff0000; stroke: #ff0000"/>
     <use xlink:href="#ma172a218b4" x="821.018515" y="100.62213" style="fill: #ff0000; stroke: #ff0000"/>
     <use xlink:href="#ma172a218b4" x="847.516785" y="100.293354" style="fill: #ff0000; stroke: #ff0000"/>
     <use xlink:href="#ma172a218b4" x="875.142641" y="101.002576" style="fill: #ff0000; stroke: #ff0000"/>
     <use xlink:href="#ma172a218b4" x="904.741772" y="109.566438" style="fill: #ff0000; stroke: #ff0000"/>
     <use xlink:href="#ma172a218b4" x="933.495213" y="105.764353" style="fill: #ff0000; stroke: #ff0000"/>
     <use xlink:href="#ma172a218b4" x="960.839172" y="115.279406" style="fill: #ff0000; stroke: #ff0000"/>
     <use xlink:href="#ma172a218b4" x="986.491753" y="92.606545" style="fill: #ff0000; stroke: #ff0000"/>
     <use xlink:href="#ma172a218b4" x="1014.681401" y="104.664531" style="fill: #ff0000; stroke: #ff0000"/>
     <use xlink:href="#ma172a218b4" x="1041.743464" y="103.833373" style="fill: #ff0000; stroke: #ff0000"/>
     <use xlink:href="#ma172a218b4" x="1066.832251" y="107.446482" style="fill: #ff0000; stroke: #ff0000"/>
     <use xlink:href="#ma172a218b4" x="1092.202935" y="105.029462" style="fill: #ff0000; stroke: #ff0000"/>
     <use xlink:href="#ma172a218b4" x="1115.600344" y="103.540458" style="fill: #ff0000; stroke: #ff0000"/>
     <use xlink:href="#ma172a218b4" x="1141.816717" y="107.135383" style="fill: #ff0000; stroke: #ff0000"/>
     <use xlink:href="#ma172a218b4" x="1166.905504" y="110.636594" style="fill: #ff0000; stroke: #ff0000"/>
     <use xlink:href="#ma172a218b4" x="1193.121877" y="104.949527" style="fill: #ff0000; stroke: #ff0000"/>
     <use xlink:href="#ma172a218b4" x="1216.801182" y="100.587411" style="fill: #ff0000; stroke: #ff0000"/>
     <use xlink:href="#ma172a218b4" x="1240.762383" y="150.694133" style="fill: #ff0000; stroke: #ff0000"/>
    </g>
   </g>
   <g id="matplotlib.axis_1">
    <g id="xtick_1">
     <g id="line2d_1">
      <defs>
       <path id="ma026a6d1e3" d="M 0 0 
L 0 3.5 
" style="stroke: #000000; stroke-width: 0.8"/>
      </defs>
      <g>
       <use xlink:href="#ma026a6d1e3" x="230.727273" y="320.4" style="stroke: #000000; stroke-width: 0.8"/>
      </g>
     </g>
     <g id="text_1">
      <!-- 0 -->
      <g transform="translate(227.546023 334.998438) scale(0.1 -0.1)">
       <defs>
        <path id="DejaVuSans-30" d="M 2034 4250 
Q 1547 4250 1301 3770 
Q 1056 3291 1056 2328 
Q 1056 1369 1301 889 
Q 1547 409 2034 409 
Q 2525 409 2770 889 
Q 3016 1369 3016 2328 
Q 3016 3291 2770 3770 
Q 2525 4250 2034 4250 
z
M 2034 4750 
Q 2819 4750 3233 4129 
Q 3647 3509 3647 2328 
Q 3647 1150 3233 529 
Q 2819 -91 2034 -91 
Q 1250 -91 836 529 
Q 422 1150 422 2328 
Q 422 3509 836 4129 
Q 1250 4750 2034 4750 
z
" transform="scale(0.015625)"/>
       </defs>
       <use xlink:href="#DejaVuSans-30"/>
      </g>
     </g>
    </g>
    <g id="xtick_2">
     <g id="line2d_2">
      <g>
       <use xlink:href="#ma026a6d1e3" x="371.675516" y="320.4" style="stroke: #000000; stroke-width: 0.8"/>
      </g>
     </g>
     <g id="text_2">
      <!-- 500 -->
      <g transform="translate(362.131766 334.998438) scale(0.1 -0.1)">
       <defs>
        <path id="DejaVuSans-35" d="M 691 4666 
L 3169 4666 
L 3169 4134 
L 1269 4134 
L 1269 2991 
Q 1406 3038 1543 3061 
Q 1681 3084 1819 3084 
Q 2600 3084 3056 2656 
Q 3513 2228 3513 1497 
Q 3513 744 3044 326 
Q 2575 -91 1722 -91 
Q 1428 -91 1123 -41 
Q 819 9 494 109 
L 494 744 
Q 775 591 1075 516 
Q 1375 441 1709 441 
Q 2250 441 2565 725 
Q 2881 1009 2881 1497 
Q 2881 1984 2565 2268 
Q 2250 2553 1709 2553 
Q 1456 2553 1204 2497 
Q 953 2441 691 2322 
L 691 4666 
z
" transform="scale(0.015625)"/>
       </defs>
       <use xlink:href="#DejaVuSans-35"/>
       <use xlink:href="#DejaVuSans-30" x="63.623047"/>
       <use xlink:href="#DejaVuSans-30" x="127.246094"/>
      </g>
     </g>
    </g>
    <g id="xtick_3">
     <g id="line2d_3">
      <g>
       <use xlink:href="#ma026a6d1e3" x="512.623759" y="320.4" style="stroke: #000000; stroke-width: 0.8"/>
      </g>
     </g>
     <g id="text_3">
      <!-- 1000 -->
      <g transform="translate(499.898759 334.998438) scale(0.1 -0.1)">
       <defs>
        <path id="DejaVuSans-31" d="M 794 531 
L 1825 531 
L 1825 4091 
L 703 3866 
L 703 4441 
L 1819 4666 
L 2450 4666 
L 2450 531 
L 3481 531 
L 3481 0 
L 794 0 
L 794 531 
z
" transform="scale(0.015625)"/>
       </defs>
       <use xlink:href="#DejaVuSans-31"/>
       <use xlink:href="#DejaVuSans-30" x="63.623047"/>
       <use xlink:href="#DejaVuSans-30" x="127.246094"/>
       <use xlink:href="#DejaVuSans-30" x="190.869141"/>
      </g>
     </g>
    </g>
    <g id="xtick_4">
     <g id="line2d_4">
      <g>
       <use xlink:href="#ma026a6d1e3" x="653.572002" y="320.4" style="stroke: #000000; stroke-width: 0.8"/>
      </g>
     </g>
     <g id="text_4">
      <!-- 1500 -->
      <g transform="translate(640.847002 334.998438) scale(0.1 -0.1)">
       <use xlink:href="#DejaVuSans-31"/>
       <use xlink:href="#DejaVuSans-35" x="63.623047"/>
       <use xlink:href="#DejaVuSans-30" x="127.246094"/>
       <use xlink:href="#DejaVuSans-30" x="190.869141"/>
      </g>
     </g>
    </g>
    <g id="xtick_5">
     <g id="line2d_5">
      <g>
       <use xlink:href="#ma026a6d1e3" x="794.520246" y="320.4" style="stroke: #000000; stroke-width: 0.8"/>
      </g>
     </g>
     <g id="text_5">
      <!-- 2000 -->
      <g transform="translate(781.795246 334.998438) scale(0.1 -0.1)">
       <defs>
        <path id="DejaVuSans-32" d="M 1228 531 
L 3431 531 
L 3431 0 
L 469 0 
L 469 531 
Q 828 903 1448 1529 
Q 2069 2156 2228 2338 
Q 2531 2678 2651 2914 
Q 2772 3150 2772 3378 
Q 2772 3750 2511 3984 
Q 2250 4219 1831 4219 
Q 1534 4219 1204 4116 
Q 875 4013 500 3803 
L 500 4441 
Q 881 4594 1212 4672 
Q 1544 4750 1819 4750 
Q 2544 4750 2975 4387 
Q 3406 4025 3406 3419 
Q 3406 3131 3298 2873 
Q 3191 2616 2906 2266 
Q 2828 2175 2409 1742 
Q 1991 1309 1228 531 
z
" transform="scale(0.015625)"/>
       </defs>
       <use xlink:href="#DejaVuSans-32"/>
       <use xlink:href="#DejaVuSans-30" x="63.623047"/>
       <use xlink:href="#DejaVuSans-30" x="127.246094"/>
       <use xlink:href="#DejaVuSans-30" x="190.869141"/>
      </g>
     </g>
    </g>
    <g id="xtick_6">
     <g id="line2d_6">
      <g>
       <use xlink:href="#ma026a6d1e3" x="935.468489" y="320.4" style="stroke: #000000; stroke-width: 0.8"/>
      </g>
     </g>
     <g id="text_6">
      <!-- 2500 -->
      <g transform="translate(922.743489 334.998438) scale(0.1 -0.1)">
       <use xlink:href="#DejaVuSans-32"/>
       <use xlink:href="#DejaVuSans-35" x="63.623047"/>
       <use xlink:href="#DejaVuSans-30" x="127.246094"/>
       <use xlink:href="#DejaVuSans-30" x="190.869141"/>
      </g>
     </g>
    </g>
    <g id="xtick_7">
     <g id="line2d_7">
      <g>
       <use xlink:href="#ma026a6d1e3" x="1076.416732" y="320.4" style="stroke: #000000; stroke-width: 0.8"/>
      </g>
     </g>
     <g id="text_7">
      <!-- 3000 -->
      <g transform="translate(1063.691732 334.998438) scale(0.1 -0.1)">
       <defs>
        <path id="DejaVuSans-33" d="M 2597 2516 
Q 3050 2419 3304 2112 
Q 3559 1806 3559 1356 
Q 3559 666 3084 287 
Q 2609 -91 1734 -91 
Q 1441 -91 1130 -33 
Q 819 25 488 141 
L 488 750 
Q 750 597 1062 519 
Q 1375 441 1716 441 
Q 2309 441 2620 675 
Q 2931 909 2931 1356 
Q 2931 1769 2642 2001 
Q 2353 2234 1838 2234 
L 1294 2234 
L 1294 2753 
L 1863 2753 
Q 2328 2753 2575 2939 
Q 2822 3125 2822 3475 
Q 2822 3834 2567 4026 
Q 2313 4219 1838 4219 
Q 1578 4219 1281 4162 
Q 984 4106 628 3988 
L 628 4550 
Q 988 4650 1302 4700 
Q 1616 4750 1894 4750 
Q 2613 4750 3031 4423 
Q 3450 4097 3450 3541 
Q 3450 3153 3228 2886 
Q 3006 2619 2597 2516 
z
" transform="scale(0.015625)"/>
       </defs>
       <use xlink:href="#DejaVuSans-33"/>
       <use xlink:href="#DejaVuSans-30" x="63.623047"/>
       <use xlink:href="#DejaVuSans-30" x="127.246094"/>
       <use xlink:href="#DejaVuSans-30" x="190.869141"/>
      </g>
     </g>
    </g>
    <g id="xtick_8">
     <g id="line2d_8">
      <g>
       <use xlink:href="#ma026a6d1e3" x="1217.364975" y="320.4" style="stroke: #000000; stroke-width: 0.8"/>
      </g>
     </g>
     <g id="text_8">
      <!-- 3500 -->
      <g transform="translate(1204.639975 334.998438) scale(0.1 -0.1)">
       <use xlink:href="#DejaVuSans-33"/>
       <use xlink:href="#DejaVuSans-35" x="63.623047"/>
       <use xlink:href="#DejaVuSans-30" x="127.246094"/>
       <use xlink:href="#DejaVuSans-30" x="190.869141"/>
      </g>
     </g>
    </g>
    <g id="text_9">
     <!-- Sample -->
     <g transform="translate(719.251562 348.676562) scale(0.1 -0.1)">
      <defs>
       <path id="DejaVuSans-53" d="M 3425 4513 
L 3425 3897 
Q 3066 4069 2747 4153 
Q 2428 4238 2131 4238 
Q 1616 4238 1336 4038 
Q 1056 3838 1056 3469 
Q 1056 3159 1242 3001 
Q 1428 2844 1947 2747 
L 2328 2669 
Q 3034 2534 3370 2195 
Q 3706 1856 3706 1288 
Q 3706 609 3251 259 
Q 2797 -91 1919 -91 
Q 1588 -91 1214 -16 
Q 841 59 441 206 
L 441 856 
Q 825 641 1194 531 
Q 1563 422 1919 422 
Q 2459 422 2753 634 
Q 3047 847 3047 1241 
Q 3047 1584 2836 1778 
Q 2625 1972 2144 2069 
L 1759 2144 
Q 1053 2284 737 2584 
Q 422 2884 422 3419 
Q 422 4038 858 4394 
Q 1294 4750 2059 4750 
Q 2388 4750 2728 4690 
Q 3069 4631 3425 4513 
z
" transform="scale(0.015625)"/>
       <path id="DejaVuSans-61" d="M 2194 1759 
Q 1497 1759 1228 1600 
Q 959 1441 959 1056 
Q 959 750 1161 570 
Q 1363 391 1709 391 
Q 2188 391 2477 730 
Q 2766 1069 2766 1631 
L 2766 1759 
L 2194 1759 
z
M 3341 1997 
L 3341 0 
L 2766 0 
L 2766 531 
Q 2569 213 2275 61 
Q 1981 -91 1556 -91 
Q 1019 -91 701 211 
Q 384 513 384 1019 
Q 384 1609 779 1909 
Q 1175 2209 1959 2209 
L 2766 2209 
L 2766 2266 
Q 2766 2663 2505 2880 
Q 2244 3097 1772 3097 
Q 1472 3097 1187 3025 
Q 903 2953 641 2809 
L 641 3341 
Q 956 3463 1253 3523 
Q 1550 3584 1831 3584 
Q 2591 3584 2966 3190 
Q 3341 2797 3341 1997 
z
" transform="scale(0.015625)"/>
       <path id="DejaVuSans-6d" d="M 3328 2828 
Q 3544 3216 3844 3400 
Q 4144 3584 4550 3584 
Q 5097 3584 5394 3201 
Q 5691 2819 5691 2113 
L 5691 0 
L 5113 0 
L 5113 2094 
Q 5113 2597 4934 2840 
Q 4756 3084 4391 3084 
Q 3944 3084 3684 2787 
Q 3425 2491 3425 1978 
L 3425 0 
L 2847 0 
L 2847 2094 
Q 2847 2600 2669 2842 
Q 2491 3084 2119 3084 
Q 1678 3084 1418 2786 
Q 1159 2488 1159 1978 
L 1159 0 
L 581 0 
L 581 3500 
L 1159 3500 
L 1159 2956 
Q 1356 3278 1631 3431 
Q 1906 3584 2284 3584 
Q 2666 3584 2933 3390 
Q 3200 3197 3328 2828 
z
" transform="scale(0.015625)"/>
       <path id="DejaVuSans-70" d="M 1159 525 
L 1159 -1331 
L 581 -1331 
L 581 3500 
L 1159 3500 
L 1159 2969 
Q 1341 3281 1617 3432 
Q 1894 3584 2278 3584 
Q 2916 3584 3314 3078 
Q 3713 2572 3713 1747 
Q 3713 922 3314 415 
Q 2916 -91 2278 -91 
Q 1894 -91 1617 61 
Q 1341 213 1159 525 
z
M 3116 1747 
Q 3116 2381 2855 2742 
Q 2594 3103 2138 3103 
Q 1681 3103 1420 2742 
Q 1159 2381 1159 1747 
Q 1159 1113 1420 752 
Q 1681 391 2138 391 
Q 2594 391 2855 752 
Q 3116 1113 3116 1747 
z
" transform="scale(0.015625)"/>
       <path id="DejaVuSans-6c" d="M 603 4863 
L 1178 4863 
L 1178 0 
L 603 0 
L 603 4863 
z
" transform="scale(0.015625)"/>
       <path id="DejaVuSans-65" d="M 3597 1894 
L 3597 1613 
L 953 1613 
Q 991 1019 1311 708 
Q 1631 397 2203 397 
Q 2534 397 2845 478 
Q 3156 559 3463 722 
L 3463 178 
Q 3153 47 2828 -22 
Q 2503 -91 2169 -91 
Q 1331 -91 842 396 
Q 353 884 353 1716 
Q 353 2575 817 3079 
Q 1281 3584 2069 3584 
Q 2775 3584 3186 3129 
Q 3597 2675 3597 1894 
z
M 3022 2063 
Q 3016 2534 2758 2815 
Q 2500 3097 2075 3097 
Q 1594 3097 1305 2825 
Q 1016 2553 972 2059 
L 3022 2063 
z
" transform="scale(0.015625)"/>
      </defs>
      <use xlink:href="#DejaVuSans-53"/>
      <use xlink:href="#DejaVuSans-61" x="63.476562"/>
      <use xlink:href="#DejaVuSans-6d" x="124.755859"/>
      <use xlink:href="#DejaVuSans-70" x="222.167969"/>
      <use xlink:href="#DejaVuSans-6c" x="285.644531"/>
      <use xlink:href="#DejaVuSans-65" x="313.427734"/>
     </g>
    </g>
   </g>
   <g id="matplotlib.axis_2">
    <g id="ytick_1">
     <g id="line2d_9">
      <defs>
       <path id="m6d110f7ab8" d="M 0 0 
L -3.5 0 
" style="stroke: #000000; stroke-width: 0.8"/>
      </defs>
      <g>
       <use xlink:href="#m6d110f7ab8" x="180" y="301.647398" style="stroke: #000000; stroke-width: 0.8"/>
      </g>
     </g>
     <g id="text_10">
      <!-- −1.5 -->
      <g transform="translate(148.717187 305.446617) scale(0.1 -0.1)">
       <defs>
        <path id="DejaVuSans-2212" d="M 678 2272 
L 4684 2272 
L 4684 1741 
L 678 1741 
L 678 2272 
z
" transform="scale(0.015625)"/>
        <path id="DejaVuSans-2e" d="M 684 794 
L 1344 794 
L 1344 0 
L 684 0 
L 684 794 
z
" transform="scale(0.015625)"/>
       </defs>
       <use xlink:href="#DejaVuSans-2212"/>
       <use xlink:href="#DejaVuSans-31" x="83.789062"/>
       <use xlink:href="#DejaVuSans-2e" x="147.412109"/>
       <use xlink:href="#DejaVuSans-35" x="179.199219"/>
      </g>
     </g>
    </g>
    <g id="ytick_2">
     <g id="line2d_10">
      <g>
       <use xlink:href="#m6d110f7ab8" x="180" y="267.26163" style="stroke: #000000; stroke-width: 0.8"/>
      </g>
     </g>
     <g id="text_11">
      <!-- −1.0 -->
      <g transform="translate(148.717187 271.060849) scale(0.1 -0.1)">
       <use xlink:href="#DejaVuSans-2212"/>
       <use xlink:href="#DejaVuSans-31" x="83.789062"/>
       <use xlink:href="#DejaVuSans-2e" x="147.412109"/>
       <use xlink:href="#DejaVuSans-30" x="179.199219"/>
      </g>
     </g>
    </g>
    <g id="ytick_3">
     <g id="line2d_11">
      <g>
       <use xlink:href="#m6d110f7ab8" x="180" y="232.875862" style="stroke: #000000; stroke-width: 0.8"/>
      </g>
     </g>
     <g id="text_12">
      <!-- −0.5 -->
      <g transform="translate(148.717187 236.67508) scale(0.1 -0.1)">
       <use xlink:href="#DejaVuSans-2212"/>
       <use xlink:href="#DejaVuSans-30" x="83.789062"/>
       <use xlink:href="#DejaVuSans-2e" x="147.412109"/>
       <use xlink:href="#DejaVuSans-35" x="179.199219"/>
      </g>
     </g>
    </g>
    <g id="ytick_4">
     <g id="line2d_12">
      <g>
       <use xlink:href="#m6d110f7ab8" x="180" y="198.490093" style="stroke: #000000; stroke-width: 0.8"/>
      </g>
     </g>
     <g id="text_13">
      <!-- 0.0 -->
      <g transform="translate(157.096875 202.289312) scale(0.1 -0.1)">
       <use xlink:href="#DejaVuSans-30"/>
       <use xlink:href="#DejaVuSans-2e" x="63.623047"/>
       <use xlink:href="#DejaVuSans-30" x="95.410156"/>
      </g>
     </g>
    </g>
    <g id="ytick_5">
     <g id="line2d_13">
      <g>
       <use xlink:href="#m6d110f7ab8" x="180" y="164.104325" style="stroke: #000000; stroke-width: 0.8"/>
      </g>
     </g>
     <g id="text_14">
      <!-- 0.5 -->
      <g transform="translate(157.096875 167.903544) scale(0.1 -0.1)">
       <use xlink:href="#DejaVuSans-30"/>
       <use xlink:href="#DejaVuSans-2e" x="63.623047"/>
       <use xlink:href="#DejaVuSans-35" x="95.410156"/>
      </g>
     </g>
    </g>
    <g id="ytick_6">
     <g id="line2d_14">
      <g>
       <use xlink:href="#m6d110f7ab8" x="180" y="129.718557" style="stroke: #000000; stroke-width: 0.8"/>
      </g>
     </g>
     <g id="text_15">
      <!-- 1.0 -->
      <g transform="translate(157.096875 133.517775) scale(0.1 -0.1)">
       <use xlink:href="#DejaVuSans-31"/>
       <use xlink:href="#DejaVuSans-2e" x="63.623047"/>
       <use xlink:href="#DejaVuSans-30" x="95.410156"/>
      </g>
     </g>
    </g>
    <g id="ytick_7">
     <g id="line2d_15">
      <g>
       <use xlink:href="#m6d110f7ab8" x="180" y="95.332788" style="stroke: #000000; stroke-width: 0.8"/>
      </g>
     </g>
     <g id="text_16">
      <!-- 1.5 -->
      <g transform="translate(157.096875 99.132007) scale(0.1 -0.1)">
       <use xlink:href="#DejaVuSans-31"/>
       <use xlink:href="#DejaVuSans-2e" x="63.623047"/>
       <use xlink:href="#DejaVuSans-35" x="95.410156"/>
      </g>
     </g>
    </g>
    <g id="ytick_8">
     <g id="line2d_16">
      <g>
       <use xlink:href="#m6d110f7ab8" x="180" y="60.94702" style="stroke: #000000; stroke-width: 0.8"/>
      </g>
     </g>
     <g id="text_17">
      <!-- 2.0 -->
      <g transform="translate(157.096875 64.746239) scale(0.1 -0.1)">
       <use xlink:href="#DejaVuSans-32"/>
       <use xlink:href="#DejaVuSans-2e" x="63.623047"/>
       <use xlink:href="#DejaVuSans-30" x="95.410156"/>
      </g>
     </g>
    </g>
    <g id="text_18">
     <!-- Amplitude -->
     <g transform="translate(142.6375 207.422656) rotate(-90) scale(0.1 -0.1)">
      <defs>
       <path id="DejaVuSans-41" d="M 2188 4044 
L 1331 1722 
L 3047 1722 
L 2188 4044 
z
M 1831 4666 
L 2547 4666 
L 4325 0 
L 3669 0 
L 3244 1197 
L 1141 1197 
L 716 0 
L 50 0 
L 1831 4666 
z
" transform="scale(0.015625)"/>
       <path id="DejaVuSans-69" d="M 603 3500 
L 1178 3500 
L 1178 0 
L 603 0 
L 603 3500 
z
M 603 4863 
L 1178 4863 
L 1178 4134 
L 603 4134 
L 603 4863 
z
" transform="scale(0.015625)"/>
       <path id="DejaVuSans-74" d="M 1172 4494 
L 1172 3500 
L 2356 3500 
L 2356 3053 
L 1172 3053 
L 1172 1153 
Q 1172 725 1289 603 
Q 1406 481 1766 481 
L 2356 481 
L 2356 0 
L 1766 0 
Q 1100 0 847 248 
Q 594 497 594 1153 
L 594 3053 
L 172 3053 
L 172 3500 
L 594 3500 
L 594 4494 
L 1172 4494 
z
" transform="scale(0.015625)"/>
       <path id="DejaVuSans-75" d="M 544 1381 
L 544 3500 
L 1119 3500 
L 1119 1403 
Q 1119 906 1312 657 
Q 1506 409 1894 409 
Q 2359 409 2629 706 
Q 2900 1003 2900 1516 
L 2900 3500 
L 3475 3500 
L 3475 0 
L 2900 0 
L 2900 538 
Q 2691 219 2414 64 
Q 2138 -91 1772 -91 
Q 1169 -91 856 284 
Q 544 659 544 1381 
z
M 1991 3584 
L 1991 3584 
z
" transform="scale(0.015625)"/>
       <path id="DejaVuSans-64" d="M 2906 2969 
L 2906 4863 
L 3481 4863 
L 3481 0 
L 2906 0 
L 2906 525 
Q 2725 213 2448 61 
Q 2172 -91 1784 -91 
Q 1150 -91 751 415 
Q 353 922 353 1747 
Q 353 2572 751 3078 
Q 1150 3584 1784 3584 
Q 2172 3584 2448 3432 
Q 2725 3281 2906 2969 
z
M 947 1747 
Q 947 1113 1208 752 
Q 1469 391 1925 391 
Q 2381 391 2643 752 
Q 2906 1113 2906 1747 
Q 2906 2381 2643 2742 
Q 2381 3103 1925 3103 
Q 1469 3103 1208 2742 
Q 947 2381 947 1747 
z
" transform="scale(0.015625)"/>
      </defs>
      <use xlink:href="#DejaVuSans-41"/>
      <use xlink:href="#DejaVuSans-6d" x="68.408203"/>
      <use xlink:href="#DejaVuSans-70" x="165.820312"/>
      <use xlink:href="#DejaVuSans-6c" x="229.296875"/>
      <use xlink:href="#DejaVuSans-69" x="257.080078"/>
      <use xlink:href="#DejaVuSans-74" x="284.863281"/>
      <use xlink:href="#DejaVuSans-75" x="324.072266"/>
      <use xlink:href="#DejaVuSans-64" x="387.451172"/>
      <use xlink:href="#DejaVuSans-65" x="450.927734"/>
     </g>
    </g>
   </g>
   <g id="line2d_17">
    <path d="M 230.727273 243.129884 
L 231.572962 247.482121 
L 232.136755 249.674015 
L 232.700548 251.048375 
L 232.982445 251.371368 
L 233.264341 251.42596 
L 233.546238 251.19669 
L 233.828134 250.671385 
L 234.391927 248.701422 
L 234.95572 245.489706 
L 235.519513 241.067615 
L 236.365202 232.367356 
L 237.492788 217.720025 
L 241.439339 161.912261 
L 242.566925 150.463419 
L 243.412615 143.932287 
L 244.258304 139.068831 
L 245.103994 135.64052 
L 245.949683 133.326573 
L 246.795372 131.766958 
L 247.922958 130.261212 
L 249.332441 128.397748 
L 250.460027 126.489217 
L 251.869509 123.542058 
L 254.124681 118.711937 
L 254.970371 117.372982 
L 255.534164 116.7511 
L 256.097957 116.394885 
L 256.661749 116.342384 
L 257.225542 116.628711 
L 257.789335 117.287335 
L 258.353128 118.351801 
L 258.916921 119.857526 
L 259.762611 123.029266 
L 260.6083 127.428625 
L 261.45399 133.213765 
L 262.299679 140.531831 
L 263.427265 152.838565 
L 264.554851 168.036314 
L 265.964334 190.462655 
L 270.192781 261.656411 
L 271.320367 275.971307 
L 272.166056 284.337133 
L 273.011746 290.538129 
L 273.575539 293.485261 
L 274.139332 295.535359 
L 274.703125 296.761245 
L 275.266918 297.255779 
L 275.548814 297.262062 
L 275.830711 297.126854 
L 276.394504 296.492119 
L 276.958296 295.473712 
L 278.085882 292.76699 
L 279.777261 288.615981 
L 280.622951 287.075822 
L 281.46864 286.077396 
L 282.032433 285.717407 
L 282.596226 285.571313 
L 283.441916 285.632021 
L 284.569502 285.782496 
L 285.133295 285.630117 
L 285.697088 285.142 
L 286.260881 284.164867 
L 286.824674 282.5394 
L 287.388466 280.10665 
L 287.952259 276.715373 
L 288.516052 272.230059 
L 289.361742 263.21572 
L 290.207431 251.265469 
L 291.053121 236.366175 
L 292.180707 212.368799 
L 293.872086 170.400218 
L 296.127258 114.243433 
L 297.254844 90.932785 
L 298.100533 76.904996 
L 298.946222 66.305635 
L 299.510015 61.256306 
L 300.073808 57.850019 
L 300.637601 56.080047 
L 300.919498 55.8 
L 301.201394 55.916006 
L 301.483291 56.42119 
L 301.765187 57.307624 
L 302.32898 60.187643 
L 302.892773 64.473799 
L 303.738463 73.325717 
L 304.584152 84.742632 
L 305.711738 103.182085 
L 307.403117 135.259073 
L 310.503978 194.734732 
L 311.913461 217.012771 
L 313.041047 231.357929 
L 313.886736 239.909521 
L 314.732426 246.581251 
L 315.578115 251.483471 
L 316.423805 254.803181 
L 316.987598 256.255939 
L 317.551391 257.19464 
L 318.115184 257.704375 
L 318.678976 257.870784 
L 319.242769 257.777431 
L 320.088459 257.322105 
L 322.343631 255.810645 
L 323.18932 255.586367 
L 323.753113 255.613365 
L 324.598803 255.931054 
L 325.444492 256.54831 
L 328.263457 259.068909 
L 328.82725 259.145812 
L 329.391043 258.860904 
L 329.954836 258.101796 
L 330.518629 256.752391 
L 331.082422 254.697627 
L 331.646215 251.829215 
L 332.210008 248.052204 
L 333.055697 240.526904 
L 333.901387 230.662763 
L 335.028973 213.971018 
L 336.438455 188.414751 
L 340.385006 112.486175 
L 341.230695 100.36902 
L 342.076385 91.042127 
L 342.640178 86.554077 
L 343.203971 83.533347 
L 343.767764 82.019266 
L 344.04966 81.831919 
L 344.331557 82.023502 
L 344.613453 82.591316 
L 345.177246 84.836888 
L 345.741039 88.515721 
L 346.304832 93.551162 
L 347.150522 103.425968 
L 348.278108 120.252757 
L 349.68759 145.433614 
L 353.634141 218.985559 
L 354.761727 235.694804 
L 355.889313 249.028122 
L 356.735002 256.656885 
L 357.580692 262.294085 
L 358.426381 266.098757 
L 358.990174 267.736086 
L 359.553967 268.755496 
L 360.11776 269.251963 
L 360.681553 269.322781 
L 361.245346 269.063273 
L 362.091035 268.247524 
L 363.500518 266.346535 
L 366.601379 261.776081 
L 367.447069 260.027706 
L 368.292758 257.577837 
L 369.138448 254.06521 
L 369.984137 249.126629 
L 370.829826 242.448824 
L 371.675516 233.821561 
L 372.521205 223.183199 
L 373.648791 206.093611 
L 375.34017 175.967629 
L 377.877239 129.943754 
L 379.004825 113.270995 
L 379.850514 103.574104 
L 380.414307 98.720292 
L 380.9781 95.29014 
L 381.541893 93.371426 
L 381.823789 92.998886 
L 382.105686 93.02462 
L 382.387582 93.451534 
L 382.669479 94.280533 
L 383.233272 97.137963 
L 383.797065 101.561566 
L 384.642754 110.968157 
L 385.488444 123.337666 
L 386.61603 143.438554 
L 391.126373 230.330134 
L 392.253959 245.619653 
L 393.099649 254.294465 
L 393.945338 260.595445 
L 394.509131 263.565146 
L 395.072924 265.648682 
L 395.636717 266.951918 
L 396.20051 267.593328 
L 396.764303 267.698009 
L 397.328096 267.391447 
L 397.891889 266.793113 
L 399.019475 265.13162 
L 402.684129 259.031487 
L 403.529819 256.822356 
L 404.375508 253.645508 
L 405.221198 249.11795 
L 406.066887 242.916051 
L 406.912577 234.830532 
L 407.758266 224.80565 
L 408.885852 208.64877 
L 410.577231 180.110958 
L 413.396196 131.636778 
L 414.523782 115.604374 
L 415.651368 102.80219 
L 416.497057 95.603434 
L 417.342747 90.600533 
L 417.90654 88.52868 
L 418.470333 87.494296 
L 418.752229 87.373148 
L 419.034126 87.519754 
L 419.316022 87.936878 
L 419.879815 89.59329 
L 420.443608 92.36175 
L 421.007401 96.256601 
L 421.853091 104.220308 
L 422.69878 114.690459 
L 423.826366 132.297781 
L 425.235848 159.138098 
L 430.028089 256.35611 
L 431.155675 272.54577 
L 432.001364 281.931023 
L 432.847053 288.979475 
L 433.692743 293.884089 
L 434.256536 296.112391 
L 434.820329 297.634955 
L 435.384122 298.569282 
L 435.947915 299.032675 
L 436.511708 299.135634 
L 437.075501 298.975808 
L 437.92119 298.411332 
L 439.048776 297.286385 
L 439.894466 296.18605 
L 440.740155 294.72587 
L 441.585845 292.656203 
L 442.149638 290.777148 
L 442.995327 286.940309 
L 443.841016 281.564166 
L 444.686706 274.346377 
L 445.532395 265.092621 
L 446.659981 249.528405 
L 447.787567 230.626882 
L 449.478946 198.003182 
L 452.297911 143.396339 
L 453.425497 125.230452 
L 454.553083 110.36228 
L 455.398772 101.488958 
L 456.244462 94.490202 
L 457.090151 89.203313 
L 457.935841 85.428661 
L 458.499634 83.655747 
L 459.063427 82.420631 
L 459.62722 81.687586 
L 460.191013 81.435098 
L 460.472909 81.486498 
L 461.036702 81.947792 
L 461.600495 82.90186 
L 462.164288 84.377499 
L 462.728081 86.413469 
L 463.57377 90.616427 
L 464.41946 96.331451 
L 465.265149 103.6736 
L 466.392735 116.048293 
L 467.520321 131.164903 
L 469.2117 157.595493 
L 472.594458 211.869927 
L 474.00394 230.40828 
L 475.131526 242.464569 
L 476.259112 251.960553 
L 477.104802 257.497191 
L 477.950491 261.821529 
L 478.796181 265.097026 
L 479.64187 267.486415 
L 480.48756 269.125931 
L 481.051353 269.849728 
L 481.615146 270.296381 
L 482.178939 270.470189 
L 482.742732 270.366903 
L 483.306525 269.976158 
L 483.870318 269.284646 
L 484.43411 268.279846 
L 485.2798 266.170413 
L 486.125489 263.353601 
L 487.253075 258.644017 
L 491.199626 240.841425 
L 492.045316 238.589807 
L 492.609109 237.628161 
L 493.172902 237.107848 
L 493.736695 237.012744 
L 494.300488 237.307191 
L 494.86428 237.93847 
L 495.70997 239.365921 
L 498.247038 244.243653 
L 498.810831 244.770682 
L 499.092728 244.874072 
L 499.374624 244.852256 
L 499.656521 244.691829 
L 500.220314 243.904107 
L 500.784107 242.415837 
L 501.3479 240.14614 
L 501.911693 237.032686 
L 502.757382 230.700784 
L 503.603072 222.365464 
L 504.730658 208.363415 
L 506.14014 187.203209 
L 510.650484 115.64133 
L 511.77807 102.144959 
L 512.623759 94.003645 
L 513.469449 87.687085 
L 514.315138 83.264535 
L 514.878931 81.395124 
L 515.442724 80.407467 
L 515.72462 80.249705 
L 516.006517 80.319065 
L 516.288413 80.617938 
L 516.852206 81.913781 
L 517.415999 84.155402 
L 517.979792 87.357536 
L 518.825482 93.976902 
L 519.671171 102.754804 
L 520.798757 117.637798 
L 521.926343 135.677942 
L 523.617722 166.781622 
L 527.00048 229.968052 
L 528.409962 252.015822 
L 529.819445 270.262192 
L 530.947031 282.088544 
L 532.074617 291.591818 
L 533.202203 298.927186 
L 534.047892 303.052807 
L 534.893582 305.964998 
L 535.457375 307.182512 
L 536.021167 307.765351 
L 536.303064 307.8 
L 536.58496 307.652236 
L 536.866857 307.313095 
L 537.43065 306.023778 
L 537.994443 303.858675 
L 538.558236 300.749569 
L 539.122029 296.640039 
L 539.967718 288.523117 
L 540.813408 278.05343 
L 541.940994 260.680443 
L 543.350476 234.597928 
L 547.86082 146.393269 
L 548.988406 129.380305 
L 550.115992 115.590539 
L 551.243578 104.948113 
L 552.089267 98.864237 
L 552.934957 94.2615 
L 553.780646 91.049174 
L 554.344439 89.666345 
L 554.908232 88.904693 
L 555.190129 88.765765 
L 555.472025 88.794757 
L 555.753922 88.997661 
L 556.035818 89.381115 
L 556.599611 90.718534 
L 557.163404 92.866883 
L 557.727197 95.885238 
L 558.572886 102.154523 
L 559.418576 110.610056 
L 560.264265 121.260215 
L 561.391851 138.632881 
L 562.801334 164.375472 
L 566.747885 240.247242 
L 567.87547 257.298542 
L 569.003056 270.685687 
L 569.848746 278.227184 
L 570.694435 283.764101 
L 571.540125 287.568054 
L 572.103918 289.318038 
L 572.667711 290.57674 
L 573.231504 291.462478 
L 574.077193 292.330009 
L 575.204779 293.077166 
L 576.896158 293.966733 
L 577.741847 294.178214 
L 578.30564 294.071097 
L 578.869433 293.638786 
L 579.433226 292.754791 
L 579.997019 291.28414 
L 580.560812 289.091127 
L 581.124605 286.047684 
L 581.688398 282.041948 
L 582.534088 274.046399 
L 583.379777 263.542184 
L 584.507363 245.744174 
L 585.916846 218.49602 
L 590.145293 131.869822 
L 591.272879 114.95994 
L 592.118568 105.12531 
L 592.964258 97.76695 
L 593.809947 92.751434 
L 594.37374 90.594883 
L 594.937533 89.289868 
L 595.501326 88.747261 
L 595.783223 88.734443 
L 596.065119 88.880064 
L 596.628912 89.608584 
L 597.192705 90.864736 
L 598.038395 93.626785 
L 598.884084 97.35519 
L 599.729773 102.035722 
L 600.575463 107.735549 
L 601.703049 117.143071 
L 602.830635 128.946132 
L 603.958221 143.420818 
L 605.367703 165.23549 
L 607.340979 200.633405 
L 609.59615 240.536863 
L 610.723736 257.228156 
L 611.851322 270.71416 
L 612.697012 278.642865 
L 613.542701 284.820681 
L 614.388391 289.449148 
L 615.23408 292.74405 
L 615.797873 294.28535 
L 616.361666 295.334965 
L 616.925459 295.892378 
L 617.207356 295.978571 
L 617.489252 295.928537 
L 617.771149 295.734137 
L 618.334942 294.871442 
L 618.898734 293.294615 
L 619.462527 290.889801 
L 620.02632 287.533784 
L 620.590113 283.104472 
L 621.435803 274.215635 
L 622.281492 262.421363 
L 623.127182 247.68241 
L 624.254768 223.896766 
L 625.946147 182.442624 
L 627.919422 134.704451 
L 629.047008 112.739274 
L 629.892697 100.471714 
L 630.45649 94.650174 
L 631.020283 90.850701 
L 631.30218 89.728783 
L 631.584076 89.129004 
L 631.865973 89.049854 
L 632.147869 89.486539 
L 632.429766 90.431079 
L 632.993559 93.796579 
L 633.557352 99.023666 
L 634.403041 109.985889 
L 635.248731 124.065578 
L 636.658213 152.236945 
L 640.322867 228.882595 
L 641.73235 252.309093 
L 642.859936 267.213176 
L 643.705625 276.015264 
L 644.551315 282.73381 
L 645.115108 286.032324 
L 645.678901 288.360618 
L 646.242694 289.685275 
L 646.52459 289.957731 
L 646.806487 289.961721 
L 647.088383 289.6901 
L 647.37028 289.135271 
L 647.934073 287.144221 
L 648.497866 283.924942 
L 649.061659 279.418731 
L 649.907348 270.152364 
L 650.753037 257.840546 
L 651.880623 236.93 
L 653.290106 204.988975 
L 656.672864 124.222359 
L 657.518553 108.790491 
L 658.364243 97.053362 
L 658.928036 91.57159 
L 659.491829 88.097989 
L 659.773725 87.134722 
L 660.055622 86.691909 
L 660.337518 86.769329 
L 660.619414 87.363781 
L 660.901311 88.469141 
L 661.465104 92.173946 
L 662.028897 97.779426 
L 662.874586 109.423952 
L 663.720276 124.372078 
L 665.129758 154.471382 
L 668.794413 237.319672 
L 669.921999 257.725958 
L 671.049584 274.044231 
L 671.895274 283.376326 
L 672.740963 290.133033 
L 673.304756 293.182502 
L 673.868549 295.049393 
L 674.150446 295.53302 
L 674.432342 295.712688 
L 674.714239 295.584922 
L 674.996135 295.145979 
L 675.278032 294.391933 
L 675.841825 291.922625 
L 676.405618 288.146883 
L 676.969411 283.041365 
L 677.8151 272.873002 
L 678.66079 259.753139 
L 679.788376 238.060162 
L 681.197858 205.752516 
L 684.298719 131.673791 
L 685.426305 110.786287 
L 686.271995 99.265764 
L 686.835788 93.903293 
L 687.399581 90.542826 
L 687.681477 89.638983 
L 687.963374 89.260664 
L 688.24527 89.41018 
L 688.527167 90.086922 
L 688.809063 91.28737 
L 689.372856 95.230888 
L 689.936649 101.155547 
L 690.782339 113.464179 
L 691.628028 129.328548 
L 692.755614 154.653531 
L 696.984061 256.182801 
L 698.111647 275.968373 
L 698.957337 287.111056 
L 699.52113 292.59648 
L 700.084923 296.446014 
L 700.648716 298.60799 
L 700.930612 299.043864 
L 701.212509 299.044812 
L 701.494405 298.608294 
L 701.776301 297.732709 
L 702.340094 294.66321 
L 702.903887 289.846299 
L 703.46768 283.314966 
L 704.31337 270.447104 
L 705.159059 254.224871 
L 706.286645 228.377242 
L 710.515093 124.801955 
L 711.360782 110.622488 
L 712.206471 100.696066 
L 712.770264 96.688579 
L 713.052161 95.501416 
L 713.334057 94.865648 
L 713.615954 94.782261 
L 713.89785 95.248842 
L 714.179747 96.259607 
L 714.74354 99.874083 
L 715.307333 105.514738 
L 716.153022 117.415146 
L 716.998712 132.79601 
L 718.408194 163.7506 
L 721.790952 241.4245 
L 722.918538 261.897441 
L 723.764227 274.214383 
L 724.609917 283.626956 
L 725.17371 288.201968 
L 725.737503 291.376425 
L 726.301296 293.127056 
L 726.583192 293.463415 
L 726.865089 293.438723 
L 727.146985 293.052252 
L 727.428882 292.303772 
L 727.992675 289.72269 
L 728.556468 285.706085 
L 729.120261 280.277839 
L 729.96595 269.584513 
L 730.81164 256.04782 
L 731.939226 234.246934 
L 733.630604 196.386713 
L 735.885776 146.562919 
L 737.013362 126.858521 
L 737.859052 115.951664 
L 738.422845 110.847322 
L 738.986638 107.603982 
L 739.268534 106.698699 
L 739.550431 106.274489 
L 739.832327 106.329983 
L 740.114224 106.860686 
L 740.39612 107.859053 
L 740.959913 111.213994 
L 741.523706 116.278039 
L 742.369396 126.727826 
L 743.496981 144.93505 
L 745.18836 177.708998 
L 747.725429 227.644595 
L 749.134911 250.944641 
L 750.262497 265.781065 
L 751.108187 274.259699 
L 751.953876 280.201069 
L 752.517669 282.643899 
L 752.799566 283.387454 
L 753.081462 283.803408 
L 753.363359 283.885672 
L 753.645255 283.628838 
L 753.927151 283.028319 
L 754.490944 280.782818 
L 755.054737 277.134412 
L 755.61853 272.091094 
L 756.46422 261.996476 
L 757.309909 249.103141 
L 758.437495 228.309555 
L 760.410771 186.266195 
L 762.384046 145.386808 
L 763.511632 126.126348 
L 764.357321 114.652279 
L 765.203011 106.134184 
L 765.766804 102.214776 
L 766.330597 99.751358 
L 766.612493 99.072291 
L 766.89439 98.762885 
L 767.176286 98.822706 
L 767.458183 99.250269 
L 767.740079 100.043046 
L 768.303872 102.708922 
L 768.867665 106.778962 
L 769.713355 115.382007 
L 770.559044 126.725224 
L 771.68663 145.436483 
L 773.096113 172.910591 
L 776.760767 247.123723 
L 777.888353 265.873757 
L 779.015939 281.010208 
L 779.861628 289.553695 
L 780.425421 293.760055 
L 780.989214 296.688346 
L 781.553007 298.270147 
L 781.834904 298.536544 
L 782.1168 298.443918 
L 782.398697 297.986117 
L 782.680593 297.157842 
L 783.244386 294.373819 
L 783.808179 290.072373 
L 784.371972 284.258073 
L 785.217661 272.783802 
L 786.063351 258.25393 
L 787.190937 234.948902 
L 789.164212 188.221868 
L 790.855591 149.670124 
L 791.983177 128.658689 
L 792.828867 116.667041 
L 793.39266 110.776399 
L 793.956453 106.694727 
L 794.520246 104.480033 
L 794.802142 104.078693 
L 795.084038 104.145648 
L 795.365935 104.675749 
L 795.647831 105.661247 
L 796.211624 108.95496 
L 796.775417 113.916549 
L 797.621107 124.16249 
L 798.466796 137.228745 
L 799.876279 163.375973 
L 804.104726 246.325014 
L 805.232312 263.690411 
L 806.078001 274.223745 
L 806.923691 282.198459 
L 807.487484 285.908811 
L 808.051277 288.212932 
L 808.333173 288.80836 
L 808.61507 289.018932 
L 808.896966 288.835783 
L 809.178863 288.251437 
L 809.460759 287.259982 
L 810.024552 284.041033 
L 810.588345 279.16984 
L 811.434035 268.835323 
L 812.279724 255.119233 
L 813.40731 232.441712 
L 815.098689 192.718324 
L 817.071964 146.970906 
L 818.19955 125.675582 
L 819.04524 113.499237 
L 819.609033 107.50553 
L 820.172826 103.337443 
L 820.736619 101.052552 
L 821.018515 100.62213 
L 821.300412 100.664107 
L 821.582308 101.173535 
L 821.864205 102.142991 
L 822.427998 105.42055 
L 822.991791 110.392193 
L 823.83748 120.720733 
L 824.68317 133.982454 
L 825.810756 155.085632 
L 828.065927 202.806909 
L 830.039203 242.6182 
L 831.166789 261.722667 
L 832.294375 276.831808 
L 833.140064 284.983899 
L 833.703857 288.713714 
L 834.26765 290.977748 
L 834.549547 291.536866 
L 834.831443 291.703609 
L 835.11334 291.47156 
L 835.395236 290.835581 
L 835.959029 288.338524 
L 836.522822 284.202294 
L 837.086615 278.446338 
L 837.932304 266.90236 
L 838.777994 252.18327 
L 839.90558 228.580377 
L 844.415924 127.813678 
L 845.261613 115.178606 
L 846.107303 106.231795 
L 846.671096 102.483128 
L 847.234888 100.564036 
L 847.516785 100.293354 
L 847.798681 100.478614 
L 848.080578 101.114471 
L 848.644371 103.70564 
L 849.208164 107.981383 
L 849.771957 113.82492 
L 850.617646 125.206339 
L 851.745232 144.329279 
L 853.436611 178.197423 
L 856.255576 235.457093 
L 857.665058 259.442269 
L 858.792644 274.933105 
L 859.638334 284.001914 
L 860.484023 290.622181 
L 861.047816 293.556197 
L 861.611609 295.222014 
L 861.893506 295.557095 
L 862.175402 295.548976 
L 862.457299 295.189777 
L 862.739195 294.472311 
L 863.302988 291.938479 
L 863.866781 287.911501 
L 864.430574 282.379691 
L 865.276264 271.312186 
L 866.121953 257.133775 
L 867.249539 234.170238 
L 869.222814 187.682199 
L 870.914193 149.062415 
L 872.041779 127.854179 
L 872.887469 115.56923 
L 873.733158 106.906831 
L 874.296951 103.260719 
L 874.860744 101.332336 
L 875.142641 101.002576 
L 875.424537 101.085483 
L 875.706434 101.570364 
L 875.98833 102.444321 
L 876.552123 105.297795 
L 877.115916 109.504915 
L 877.961605 117.988266 
L 879.089191 132.377117 
L 881.062467 161.843089 
L 883.881432 203.489415 
L 886.136604 233.217372 
L 888.391775 260.23852 
L 889.801258 274.673445 
L 890.646947 281.516708 
L 891.21074 284.981859 
L 891.774533 287.364619 
L 892.05643 288.096646 
L 892.338326 288.495698 
L 892.620223 288.543421 
L 892.902119 288.223217 
L 893.184016 287.520567 
L 893.747809 284.922023 
L 894.311602 280.684074 
L 894.875395 274.792928 
L 895.721084 262.962531 
L 896.566774 247.898807 
L 897.69436 223.942205 
L 901.359014 142.076 
L 902.204703 128.266907 
L 903.050393 118.01586 
L 903.614186 113.367955 
L 904.177979 110.546751 
L 904.459875 109.827374 
L 904.741772 109.566438 
L 905.023668 109.758722 
L 905.305565 110.396358 
L 905.869358 112.963561 
L 906.433151 117.15611 
L 907.27884 126.162842 
L 908.12453 137.872789 
L 909.534012 161.411012 
L 912.634873 215.684777 
L 913.762459 232.004504 
L 914.890045 245.310362 
L 915.735735 253.176502 
L 916.581424 259.224646 
L 917.427114 263.485449 
L 917.990907 265.347576 
L 918.5547 266.430331 
L 918.836596 266.678171 
L 919.118493 266.72867 
L 919.400389 266.57998 
L 919.682285 266.229793 
L 920.246078 264.913662 
L 920.809871 262.754686 
L 921.373664 259.724625 
L 922.219354 253.489406 
L 923.065043 245.179725 
L 923.910733 234.818279 
L 925.038319 218.079545 
L 926.447801 193.599558 
L 929.548663 138.50403 
L 930.676248 123.029968 
L 931.521938 114.352723 
L 932.085731 110.169128 
L 932.649524 107.350488 
L 933.213317 105.937847 
L 933.495213 105.764353 
L 933.77711 105.945869 
L 934.059006 106.480327 
L 934.622799 108.592479 
L 935.186592 112.055656 
L 935.750385 116.803377 
L 936.596075 126.139808 
L 937.723661 142.134727 
L 939.133143 166.321819 
L 944.489176 263.960202 
L 945.616762 279.242236 
L 946.462452 288.227142 
L 947.308141 294.633597 
L 947.871934 297.268816 
L 948.153831 298.052174 
L 948.435727 298.461636 
L 948.717624 298.485201 
L 948.99952 298.112184 
L 949.281417 297.333462 
L 949.84521 294.531691 
L 950.409003 290.047389 
L 950.972795 283.888137 
L 951.818485 271.640007 
L 952.664174 256.150992 
L 954.073657 225.002506 
L 957.174518 153.438908 
L 958.020208 138.332674 
L 958.865897 126.702475 
L 959.42969 121.126684 
L 959.993483 117.390636 
L 960.557276 115.520282 
L 960.839172 115.279406 
L 961.121069 115.492755 
L 961.402965 116.150474 
L 961.966758 118.747275 
L 962.530551 122.944415 
L 963.376241 131.894217 
L 964.22193 143.478855 
L 965.631413 166.843544 
L 970.141757 246.635312 
L 971.269342 262.039544 
L 972.115032 271.145493 
L 972.960721 277.639839 
L 973.524514 280.284879 
L 973.806411 281.051571 
L 974.088307 281.427124 
L 974.370204 281.397654 
L 974.6521 280.950884 
L 974.933997 280.076456 
L 975.49779 277.014631 
L 976.061583 272.17914 
L 976.625376 265.585604 
L 977.471065 252.568051 
L 978.598651 230.18656 
L 980.29003 189.844152 
L 982.263305 142.635153 
L 983.390891 120.43805 
L 984.236581 107.568952 
L 985.08227 98.523613 
L 985.646063 94.765015 
L 986.209856 92.863327 
L 986.491753 92.606545 
L 986.773649 92.806391 
L 987.055546 93.455421 
L 987.619339 96.060403 
L 988.183132 100.320031 
L 989.028821 109.51792 
L 989.874511 121.592161 
L 991.002097 141.056772 
L 992.975372 179.874113 
L 995.230544 223.522953 
L 996.640026 247.326202 
L 998.049509 267.246579 
L 999.177095 279.86026 
L 1000.022784 287.068637 
L 1000.586577 290.662384 
L 1001.15037 293.186317 
L 1001.714163 294.547567 
L 1001.99606 294.762465 
L 1002.277956 294.651205 
L 1002.559852 294.202486 
L 1002.841749 293.405634 
L 1003.405542 290.729459 
L 1003.969335 286.559454 
L 1004.533128 280.85912 
L 1005.378817 269.447842 
L 1006.224507 254.782147 
L 1007.352093 230.953835 
L 1009.325368 182.840719 
L 1011.016747 143.822404 
L 1012.144333 123.529992 
L 1012.990022 112.768432 
L 1013.553815 108.02318 
L 1014.117608 105.317261 
L 1014.399505 104.735726 
L 1014.681401 104.664531 
L 1014.963298 105.096185 
L 1015.245194 106.019722 
L 1015.808987 109.282239 
L 1016.37278 114.301872 
L 1017.21847 124.696061 
L 1018.346056 142.665614 
L 1020.037435 174.315919 
L 1022.292607 216.136058 
L 1023.702089 238.50232 
L 1024.829675 253.528637 
L 1025.957261 265.760973 
L 1026.80295 272.927396 
L 1027.64864 278.154044 
L 1028.212433 280.427733 
L 1028.776226 281.623972 
L 1029.058122 281.787453 
L 1029.340019 281.645127 
L 1029.621915 281.185594 
L 1029.903812 280.398298 
L 1030.467605 277.804109 
L 1031.031398 273.805643 
L 1031.595191 268.376846 
L 1032.44088 257.589642 
L 1033.28657 243.846395 
L 1034.414155 221.740233 
L 1036.951224 165.049404 
L 1038.360706 136.648932 
L 1039.206396 122.961028 
L 1040.052085 112.652449 
L 1040.615878 107.900058 
L 1041.179671 104.947884 
L 1041.461568 104.160363 
L 1041.743464 103.833373 
L 1042.025361 103.964562 
L 1042.307257 104.548908 
L 1042.589154 105.578822 
L 1043.152947 108.932953 
L 1043.716739 113.920085 
L 1044.562429 124.152596 
L 1045.408118 137.172352 
L 1046.817601 163.276483 
L 1051.046048 246.317001 
L 1052.173634 263.077535 
L 1053.019324 272.748666 
L 1053.583117 277.574905 
L 1054.146909 280.966071 
L 1054.710702 282.816399 
L 1054.992599 283.135032 
L 1055.274495 283.036543 
L 1055.556392 282.513293 
L 1055.838288 281.559445 
L 1056.402081 278.346925 
L 1056.965874 273.396559 
L 1057.529667 266.748195 
L 1058.375357 253.796808 
L 1059.502943 231.822186 
L 1061.194322 192.784862 
L 1063.167597 148.122194 
L 1064.295183 127.933288 
L 1065.140872 116.888454 
L 1065.704665 111.793592 
L 1066.268458 108.631574 
L 1066.550355 107.791128 
L 1066.832251 107.446482 
L 1067.114148 107.595349 
L 1067.396044 108.232445 
L 1067.677941 109.349591 
L 1068.241734 112.977526 
L 1068.805527 118.36063 
L 1069.651216 129.377712 
L 1070.778802 148.526069 
L 1072.188285 177.125209 
L 1075.571042 247.78208 
L 1076.698628 266.939156 
L 1077.544318 278.609557 
L 1078.390007 287.454337 
L 1078.9538 291.565772 
L 1079.517593 294.112212 
L 1079.79949 294.766442 
L 1080.081386 294.993327 
L 1080.363283 294.783704 
L 1080.645179 294.130125 
L 1080.927076 293.027051 
L 1081.490869 289.461009 
L 1082.054662 284.086873 
L 1082.900351 272.743837 
L 1083.746041 257.789984 
L 1084.873627 233.301354 
L 1087.128798 176.986901 
L 1088.538281 144.417821 
L 1089.38397 128.431487 
L 1090.22966 116.178648 
L 1090.793453 110.394894 
L 1091.357246 106.661739 
L 1091.639142 105.585784 
L 1091.921039 105.041823 
L 1092.202935 105.029462 
L 1092.484832 105.545122 
L 1092.766728 106.582128 
L 1093.330521 110.178637 
L 1093.894314 115.708029 
L 1094.740004 127.283296 
L 1095.585693 142.197672 
L 1096.995175 172.278134 
L 1100.377933 248.295235 
L 1101.505519 267.514678 
L 1102.351209 278.030421 
L 1102.915002 282.85378 
L 1103.478795 285.767138 
L 1103.760691 286.475245 
L 1104.042588 286.671899 
L 1104.324484 286.351107 
L 1104.606381 285.509718 
L 1105.170174 282.267663 
L 1105.733967 276.982707 
L 1106.297759 269.744937 
L 1107.143449 255.557722 
L 1108.271035 231.593416 
L 1110.24431 182.606362 
L 1111.935689 143.17639 
L 1112.781379 127.314768 
L 1113.627068 115.144587 
L 1114.190861 109.352776 
L 1114.754654 105.528394 
L 1115.036551 104.366565 
L 1115.318447 103.705167 
L 1115.600344 103.540458 
L 1115.88224 103.865748 
L 1116.164137 104.671554 
L 1116.727929 107.673792 
L 1117.291722 112.421861 
L 1118.137412 122.463033 
L 1118.983101 135.428952 
L 1120.392584 161.570375 
L 1124.902928 249.981267 
L 1126.030514 266.999953 
L 1126.876203 277.322129 
L 1127.721892 285.16563 
L 1128.285685 288.841323 
L 1128.849478 291.152931 
L 1129.131375 291.766622 
L 1129.413271 292.004027 
L 1129.695168 291.85525 
L 1129.977064 291.311668 
L 1130.258961 290.366157 
L 1130.822754 287.249702 
L 1131.386547 282.487296 
L 1131.95034 276.097849 
L 1132.796029 263.610294 
L 1133.923615 242.228397 
L 1135.333098 210.235426 
L 1137.870166 151.348509 
L 1138.997752 130.49282 
L 1139.843441 118.752454 
L 1140.407234 113.094333 
L 1140.971027 109.288152 
L 1141.53482 107.378449 
L 1141.816717 107.135383 
L 1142.098613 107.361305 
L 1142.38051 108.048577 
L 1142.944303 110.763631 
L 1143.508096 115.169703 
L 1144.353785 124.625335 
L 1145.199475 136.958609 
L 1146.327061 156.705985 
L 1148.582232 201.401635 
L 1150.555508 238.645204 
L 1151.683094 256.472496 
L 1152.528783 267.36005 
L 1153.374473 275.632767 
L 1153.938266 279.488287 
L 1154.502059 281.881513 
L 1154.783955 282.497337 
L 1155.065852 282.710763 
L 1155.347748 282.512071 
L 1155.629645 281.893174 
L 1155.911541 280.847869 
L 1156.475334 277.464127 
L 1157.039127 272.358204 
L 1157.884816 261.576306 
L 1158.730506 247.382331 
L 1159.858092 224.250156 
L 1163.804643 137.742588 
L 1164.650332 125.015169 
L 1165.496022 116.116061 
L 1166.059815 112.496562 
L 1166.341711 111.400491 
L 1166.623608 110.781467 
L 1166.905504 110.636594 
L 1167.187401 110.960048 
L 1167.469297 111.743217 
L 1168.03309 114.64124 
L 1168.596883 119.212157 
L 1169.442572 128.865172 
L 1170.288262 141.315228 
L 1171.697744 166.374029 
L 1175.926192 246.237762 
L 1177.053778 263.250887 
L 1178.181364 276.879914 
L 1179.027053 284.416847 
L 1179.590846 287.969388 
L 1180.154639 290.2201 
L 1180.436535 290.824667 
L 1180.718432 291.06554 
L 1181.000328 290.931273 
L 1181.282225 290.411456 
L 1181.564121 289.496973 
L 1182.127914 286.455657 
L 1182.691707 281.770675 
L 1183.2555 275.443177 
L 1184.10119 262.986281 
L 1184.946879 247.315447 
L 1186.356362 215.850042 
L 1189.457223 143.271423 
L 1190.302912 127.879826 
L 1191.148602 116.049211 
L 1191.712395 110.425333 
L 1192.276188 106.740219 
L 1192.558084 105.643205 
L 1192.839981 105.046736 
L 1193.121877 104.949527 
L 1193.403774 105.347224 
L 1193.68567 106.232476 
L 1194.249463 109.421851 
L 1194.813256 114.403008 
L 1195.658946 124.88677 
L 1196.504635 138.38815 
L 1197.914118 165.463668 
L 1201.296875 233.418134 
L 1202.424461 251.111423 
L 1203.270151 261.319599 
L 1203.833944 266.399799 
L 1204.397737 269.953048 
L 1204.96153 271.871285 
L 1205.243426 272.189096 
L 1205.525323 272.067494 
L 1205.807219 271.499906 
L 1206.089116 270.481878 
L 1206.652909 267.088526 
L 1207.216702 261.901792 
L 1208.062391 250.903747 
L 1208.908081 236.428706 
L 1210.035666 212.897158 
L 1213.700321 130.576713 
L 1214.54601 116.812755 
L 1215.3917 106.961203 
L 1215.955493 102.846575 
L 1216.237389 101.565414 
L 1216.519286 100.811399 
L 1216.801182 100.587411 
L 1217.083079 100.89284 
L 1217.364975 101.723647 
L 1217.928768 104.928667 
L 1218.492561 110.105652 
L 1219.338251 121.244213 
L 1220.18394 135.845731 
L 1221.311526 159.341676 
L 1226.103766 266.223284 
L 1226.949456 279.608823 
L 1227.795145 289.81127 
L 1228.358938 294.630584 
L 1228.922731 297.746329 
L 1229.204628 298.641882 
L 1229.486524 299.087019 
L 1229.768421 299.077601 
L 1230.050317 298.611659 
L 1230.332213 297.689539 
L 1230.896006 294.490516 
L 1231.459799 289.534526 
L 1232.305489 279.034901 
L 1233.151178 265.346007 
L 1234.560661 237.599067 
L 1237.097729 185.779751 
L 1238.225315 168.039248 
L 1239.071005 158.545695 
L 1239.634798 154.263554 
L 1240.198591 151.659622 
L 1240.480487 150.977092 
L 1240.762383 150.694133 
L 1241.04428 150.795881 
L 1241.326176 151.263854 
L 1241.889969 153.207997 
L 1242.453762 156.316857 
L 1243.299452 162.61511 
L 1245.272727 180.104907 
L 1245.272727 180.104907 
" clip-path="url(#pba902e4701)" style="fill: none; stroke: #1f77b4; stroke-width: 1.5; stroke-linecap: square"/>
   </g>
   <g id="patch_3">
    <path d="M 180 320.4 
L 180 43.2 
" style="fill: none; stroke: #000000; stroke-width: 0.8; stroke-linejoin: miter; stroke-linecap: square"/>
   </g>
   <g id="patch_4">
    <path d="M 1296 320.4 
L 1296 43.2 
" style="fill: none; stroke: #000000; stroke-width: 0.8; stroke-linejoin: miter; stroke-linecap: square"/>
   </g>
   <g id="patch_5">
    <path d="M 180 320.4 
L 1296 320.4 
" style="fill: none; stroke: #000000; stroke-width: 0.8; stroke-linejoin: miter; stroke-linecap: square"/>
   </g>
   <g id="patch_6">
    <path d="M 180 43.2 
L 1296 43.2 
" style="fill: none; stroke: #000000; stroke-width: 0.8; stroke-linejoin: miter; stroke-linecap: square"/>
   </g>
   <g id="text_19">
    <!-- Signal with Peaks -->
    <g transform="translate(685.6575 37.2) scale(0.12 -0.12)">
     <defs>
      <path id="DejaVuSans-67" d="M 2906 1791 
Q 2906 2416 2648 2759 
Q 2391 3103 1925 3103 
Q 1463 3103 1205 2759 
Q 947 2416 947 1791 
Q 947 1169 1205 825 
Q 1463 481 1925 481 
Q 2391 481 2648 825 
Q 2906 1169 2906 1791 
z
M 3481 434 
Q 3481 -459 3084 -895 
Q 2688 -1331 1869 -1331 
Q 1566 -1331 1297 -1286 
Q 1028 -1241 775 -1147 
L 775 -588 
Q 1028 -725 1275 -790 
Q 1522 -856 1778 -856 
Q 2344 -856 2625 -561 
Q 2906 -266 2906 331 
L 2906 616 
Q 2728 306 2450 153 
Q 2172 0 1784 0 
Q 1141 0 747 490 
Q 353 981 353 1791 
Q 353 2603 747 3093 
Q 1141 3584 1784 3584 
Q 2172 3584 2450 3431 
Q 2728 3278 2906 2969 
L 2906 3500 
L 3481 3500 
L 3481 434 
z
" transform="scale(0.015625)"/>
      <path id="DejaVuSans-6e" d="M 3513 2113 
L 3513 0 
L 2938 0 
L 2938 2094 
Q 2938 2591 2744 2837 
Q 2550 3084 2163 3084 
Q 1697 3084 1428 2787 
Q 1159 2491 1159 1978 
L 1159 0 
L 581 0 
L 581 3500 
L 1159 3500 
L 1159 2956 
Q 1366 3272 1645 3428 
Q 1925 3584 2291 3584 
Q 2894 3584 3203 3211 
Q 3513 2838 3513 2113 
z
" transform="scale(0.015625)"/>
      <path id="DejaVuSans-20" transform="scale(0.015625)"/>
      <path id="DejaVuSans-77" d="M 269 3500 
L 844 3500 
L 1563 769 
L 2278 3500 
L 2956 3500 
L 3675 769 
L 4391 3500 
L 4966 3500 
L 4050 0 
L 3372 0 
L 2619 2869 
L 1863 0 
L 1184 0 
L 269 3500 
z
" transform="scale(0.015625)"/>
      <path id="DejaVuSans-68" d="M 3513 2113 
L 3513 0 
L 2938 0 
L 2938 2094 
Q 2938 2591 2744 2837 
Q 2550 3084 2163 3084 
Q 1697 3084 1428 2787 
Q 1159 2491 1159 1978 
L 1159 0 
L 581 0 
L 581 4863 
L 1159 4863 
L 1159 2956 
Q 1366 3272 1645 3428 
Q 1925 3584 2291 3584 
Q 2894 3584 3203 3211 
Q 3513 2838 3513 2113 
z
" transform="scale(0.015625)"/>
      <path id="DejaVuSans-50" d="M 1259 4147 
L 1259 2394 
L 2053 2394 
Q 2494 2394 2734 2622 
Q 2975 2850 2975 3272 
Q 2975 3691 2734 3919 
Q 2494 4147 2053 4147 
L 1259 4147 
z
M 628 4666 
L 2053 4666 
Q 2838 4666 3239 4311 
Q 3641 3956 3641 3272 
Q 3641 2581 3239 2228 
Q 2838 1875 2053 1875 
L 1259 1875 
L 1259 0 
L 628 0 
L 628 4666 
z
" transform="scale(0.015625)"/>
      <path id="DejaVuSans-6b" d="M 581 4863 
L 1159 4863 
L 1159 1991 
L 2875 3500 
L 3609 3500 
L 1753 1863 
L 3688 0 
L 2938 0 
L 1159 1709 
L 1159 0 
L 581 0 
L 581 4863 
z
" transform="scale(0.015625)"/>
      <path id="DejaVuSans-73" d="M 2834 3397 
L 2834 2853 
Q 2591 2978 2328 3040 
Q 2066 3103 1784 3103 
Q 1356 3103 1142 2972 
Q 928 2841 928 2578 
Q 928 2378 1081 2264 
Q 1234 2150 1697 2047 
L 1894 2003 
Q 2506 1872 2764 1633 
Q 3022 1394 3022 966 
Q 3022 478 2636 193 
Q 2250 -91 1575 -91 
Q 1294 -91 989 -36 
Q 684 19 347 128 
L 347 722 
Q 666 556 975 473 
Q 1284 391 1588 391 
Q 1994 391 2212 530 
Q 2431 669 2431 922 
Q 2431 1156 2273 1281 
Q 2116 1406 1581 1522 
L 1381 1569 
Q 847 1681 609 1914 
Q 372 2147 372 2553 
Q 372 3047 722 3315 
Q 1072 3584 1716 3584 
Q 2034 3584 2315 3537 
Q 2597 3491 2834 3397 
z
" transform="scale(0.015625)"/>
     </defs>
     <use xlink:href="#DejaVuSans-53"/>
     <use xlink:href="#DejaVuSans-69" x="63.476562"/>
     <use xlink:href="#DejaVuSans-67" x="91.259766"/>
     <use xlink:href="#DejaVuSans-6e" x="154.736328"/>
     <use xlink:href="#DejaVuSans-61" x="218.115234"/>
     <use xlink:href="#DejaVuSans-6c" x="279.394531"/>
     <use xlink:href="#DejaVuSans-20" x="307.177734"/>
     <use xlink:href="#DejaVuSans-77" x="338.964844"/>
     <use xlink:href="#DejaVuSans-69" x="420.751953"/>
     <use xlink:href="#DejaVuSans-74" x="448.535156"/>
     <use xlink:href="#DejaVuSans-68" x="487.744141"/>
     <use xlink:href="#DejaVuSans-20" x="551.123047"/>
     <use xlink:href="#DejaVuSans-50" x="582.910156"/>
     <use xlink:href="#DejaVuSans-65" x="639.587891"/>
     <use xlink:href="#DejaVuSans-61" x="701.111328"/>
     <use xlink:href="#DejaVuSans-6b" x="762.390625"/>
     <use xlink:href="#DejaVuSans-73" x="820.300781"/>
    </g>
   </g>
   <g id="legend_1">
    <g id="patch_7">
     <path d="M 1228.051563 65.878125 
L 1289 65.878125 
Q 1291 65.878125 1291 63.878125 
L 1291 50.2 
Q 1291 48.2 1289 48.2 
L 1228.051563 48.2 
Q 1226.051563 48.2 1226.051563 50.2 
L 1226.051563 63.878125 
Q 1226.051563 65.878125 1228.051563 65.878125 
z
" style="fill: #ffffff; opacity: 0.8; stroke: #cccccc; stroke-linejoin: miter"/>
    </g>
    <g id="PathCollection_2">
     <g>
      <use xlink:href="#ma172a218b4" x="1240.051563" y="57.173437" style="fill: #ff0000; stroke: #ff0000"/>
     </g>
    </g>
    <g id="text_20">
     <!-- Peaks -->
     <g transform="translate(1258.051563 59.798437) scale(0.1 -0.1)">
      <use xlink:href="#DejaVuSans-50"/>
      <use xlink:href="#DejaVuSans-65" x="56.677734"/>
      <use xlink:href="#DejaVuSans-61" x="118.201172"/>
      <use xlink:href="#DejaVuSans-6b" x="179.480469"/>
      <use xlink:href="#DejaVuSans-73" x="237.390625"/>
     </g>
    </g>
   </g>
  </g>
 </g>
 <defs>
  <clipPath id="pba902e4701">
   <rect x="180" y="43.2" width="1116" height="277.2"/>
  </clipPath>
 </defs>
</svg>
