<?xml version="1.0" encoding="utf-8" standalone="no"?>
<!DOCTYPE svg PUBLIC "-//W3C//DTD SVG 1.1//EN"
  "http://www.w3.org/Graphics/SVG/1.1/DTD/svg11.dtd">
<svg xmlns:xlink="http://www.w3.org/1999/xlink" width="1440pt" height="360pt" viewBox="0 0 1440 360" xmlns="http://www.w3.org/2000/svg" version="1.1">
 <metadata>
  <rdf:RDF xmlns:dc="http://purl.org/dc/elements/1.1/" xmlns:cc="http://creativecommons.org/ns#" xmlns:rdf="http://www.w3.org/1999/02/22-rdf-syntax-ns#">
   <cc:Work>
    <dc:type rdf:resource="http://purl.org/dc/dcmitype/StillImage"/>
    <dc:date>2024-09-11T10:06:20.008991</dc:date>
    <dc:format>image/svg+xml</dc:format>
    <dc:creator>
     <cc:Agent>
      <dc:title>Matplotlib v3.9.1, https://matplotlib.org/</dc:title>
     </cc:Agent>
    </dc:creator>
   </cc:Work>
  </rdf:RDF>
 </metadata>
 <defs>
  <style type="text/css">*{stroke-linejoin: round; stroke-linecap: butt}</style>
 </defs>
 <g id="figure_1">
  <g id="patch_1">
   <path d="M 0 360 
L 1440 360 
L 1440 0 
L 0 0 
z
" style="fill: #ffffff"/>
  </g>
  <g id="axes_1">
   <g id="patch_2">
    <path d="M 180 320.4 
L 1296 320.4 
L 1296 43.2 
L 180 43.2 
z
" style="fill: #ffffff"/>
   </g>
   <g id="PathCollection_1">
    <defs>
     <path id="m476ccc90b3" d="M 0 3 
C 0.795609 3 1.55874 2.683901 2.12132 2.12132 
C 2.683901 1.55874 3 0.795609 3 0 
C 3 -0.795609 2.683901 -1.55874 2.12132 -2.12132 
C 1.55874 -2.683901 0.795609 -3 0 -3 
C -0.795609 -3 -1.55874 -2.683901 -2.12132 -2.12132 
C -2.683901 -1.55874 -3 -0.795609 -3 0 
C -3 0.795609 -2.683901 1.55874 -2.12132 2.12132 
C -1.55874 2.683901 -0.795609 3 0 3 
z
" style="stroke: #ff0000"/>
    </defs>
    <g clip-path="url(#pddd0ee98e8)">
     <use xlink:href="#m476ccc90b3" x="242.848822" y="80.252166" style="fill: #ff0000; stroke: #ff0000"/>
     <use xlink:href="#m476ccc90b3" x="293.308293" y="79.161167" style="fill: #ff0000; stroke: #ff0000"/>
     <use xlink:href="#m476ccc90b3" x="345.741039" y="67.516088" style="fill: #ff0000; stroke: #ff0000"/>
     <use xlink:href="#m476ccc90b3" x="388.871202" y="79.978699" style="fill: #ff0000; stroke: #ff0000"/>
     <use xlink:href="#m476ccc90b3" x="423.262573" y="89.771724" style="fill: #ff0000; stroke: #ff0000"/>
     <use xlink:href="#m476ccc90b3" x="463.291874" y="84.842545" style="fill: #ff0000; stroke: #ff0000"/>
     <use xlink:href="#m476ccc90b3" x="499.938417" y="55.8" style="fill: #ff0000; stroke: #ff0000"/>
     <use xlink:href="#m476ccc90b3" x="558.854783" y="86.259046" style="fill: #ff0000; stroke: #ff0000"/>
     <use xlink:href="#m476ccc90b3" x="592.964258" y="93.865466" style="fill: #ff0000; stroke: #ff0000"/>
     <use xlink:href="#m476ccc90b3" x="633.557352" y="73.525721" style="fill: #ff0000; stroke: #ff0000"/>
     <use xlink:href="#m476ccc90b3" x="668.794413" y="81.641777" style="fill: #ff0000; stroke: #ff0000"/>
     <use xlink:href="#m476ccc90b3" x="700.648716" y="76.756903" style="fill: #ff0000; stroke: #ff0000"/>
     <use xlink:href="#m476ccc90b3" x="734.75819" y="77.300478" style="fill: #ff0000; stroke: #ff0000"/>
     <use xlink:href="#m476ccc90b3" x="767.176286" y="86.395223" style="fill: #ff0000; stroke: #ff0000"/>
     <use xlink:href="#m476ccc90b3" x="796.493521" y="94.760133" style="fill: #ff0000; stroke: #ff0000"/>
     <use xlink:href="#m476ccc90b3" x="831.448685" y="81.947135" style="fill: #ff0000; stroke: #ff0000"/>
     <use xlink:href="#m476ccc90b3" x="863.021092" y="81.704492" style="fill: #ff0000; stroke: #ff0000"/>
     <use xlink:href="#m476ccc90b3" x="895.157291" y="82.467595" style="fill: #ff0000; stroke: #ff0000"/>
     <use xlink:href="#m476ccc90b3" x="925.320215" y="76.393597" style="fill: #ff0000; stroke: #ff0000"/>
     <use xlink:href="#m476ccc90b3" x="960.557276" y="73.699209" style="fill: #ff0000; stroke: #ff0000"/>
     <use xlink:href="#m476ccc90b3" x="1005.378817" y="66.969399" style="fill: #ff0000; stroke: #ff0000"/>
     <use xlink:href="#m476ccc90b3" x="1047.66329" y="78.594674" style="fill: #ff0000; stroke: #ff0000"/>
     <use xlink:href="#m476ccc90b3" x="1080.645179" y="85.419673" style="fill: #ff0000; stroke: #ff0000"/>
     <use xlink:href="#m476ccc90b3" x="1114.472758" y="76.476841" style="fill: #ff0000; stroke: #ff0000"/>
     <use xlink:href="#m476ccc90b3" x="1149.146025" y="90.307295" style="fill: #ff0000; stroke: #ff0000"/>
     <use xlink:href="#m476ccc90b3" x="1181.282225" y="83.657384" style="fill: #ff0000; stroke: #ff0000"/>
     <use xlink:href="#m476ccc90b3" x="1222.439112" y="81.493182" style="fill: #ff0000; stroke: #ff0000"/>
    </g>
   </g>
   <g id="matplotlib.axis_1">
    <g id="xtick_1">
     <g id="line2d_1">
      <defs>
       <path id="ma6189a2ac6" d="M 0 0 
L 0 3.5 
" style="stroke: #000000; stroke-width: 0.8"/>
      </defs>
      <g>
       <use xlink:href="#ma6189a2ac6" x="230.727273" y="320.4" style="stroke: #000000; stroke-width: 0.8"/>
      </g>
     </g>
     <g id="text_1">
      <!-- 0 -->
      <g transform="translate(227.546023 334.998438) scale(0.1 -0.1)">
       <defs>
        <path id="DejaVuSans-30" d="M 2034 4250 
Q 1547 4250 1301 3770 
Q 1056 3291 1056 2328 
Q 1056 1369 1301 889 
Q 1547 409 2034 409 
Q 2525 409 2770 889 
Q 3016 1369 3016 2328 
Q 3016 3291 2770 3770 
Q 2525 4250 2034 4250 
z
M 2034 4750 
Q 2819 4750 3233 4129 
Q 3647 3509 3647 2328 
Q 3647 1150 3233 529 
Q 2819 -91 2034 -91 
Q 1250 -91 836 529 
Q 422 1150 422 2328 
Q 422 3509 836 4129 
Q 1250 4750 2034 4750 
z
" transform="scale(0.015625)"/>
       </defs>
       <use xlink:href="#DejaVuSans-30"/>
      </g>
     </g>
    </g>
    <g id="xtick_2">
     <g id="line2d_2">
      <g>
       <use xlink:href="#ma6189a2ac6" x="371.675516" y="320.4" style="stroke: #000000; stroke-width: 0.8"/>
      </g>
     </g>
     <g id="text_2">
      <!-- 500 -->
      <g transform="translate(362.131766 334.998438) scale(0.1 -0.1)">
       <defs>
        <path id="DejaVuSans-35" d="M 691 4666 
L 3169 4666 
L 3169 4134 
L 1269 4134 
L 1269 2991 
Q 1406 3038 1543 3061 
Q 1681 3084 1819 3084 
Q 2600 3084 3056 2656 
Q 3513 2228 3513 1497 
Q 3513 744 3044 326 
Q 2575 -91 1722 -91 
Q 1428 -91 1123 -41 
Q 819 9 494 109 
L 494 744 
Q 775 591 1075 516 
Q 1375 441 1709 441 
Q 2250 441 2565 725 
Q 2881 1009 2881 1497 
Q 2881 1984 2565 2268 
Q 2250 2553 1709 2553 
Q 1456 2553 1204 2497 
Q 953 2441 691 2322 
L 691 4666 
z
" transform="scale(0.015625)"/>
       </defs>
       <use xlink:href="#DejaVuSans-35"/>
       <use xlink:href="#DejaVuSans-30" x="63.623047"/>
       <use xlink:href="#DejaVuSans-30" x="127.246094"/>
      </g>
     </g>
    </g>
    <g id="xtick_3">
     <g id="line2d_3">
      <g>
       <use xlink:href="#ma6189a2ac6" x="512.623759" y="320.4" style="stroke: #000000; stroke-width: 0.8"/>
      </g>
     </g>
     <g id="text_3">
      <!-- 1000 -->
      <g transform="translate(499.898759 334.998438) scale(0.1 -0.1)">
       <defs>
        <path id="DejaVuSans-31" d="M 794 531 
L 1825 531 
L 1825 4091 
L 703 3866 
L 703 4441 
L 1819 4666 
L 2450 4666 
L 2450 531 
L 3481 531 
L 3481 0 
L 794 0 
L 794 531 
z
" transform="scale(0.015625)"/>
       </defs>
       <use xlink:href="#DejaVuSans-31"/>
       <use xlink:href="#DejaVuSans-30" x="63.623047"/>
       <use xlink:href="#DejaVuSans-30" x="127.246094"/>
       <use xlink:href="#DejaVuSans-30" x="190.869141"/>
      </g>
     </g>
    </g>
    <g id="xtick_4">
     <g id="line2d_4">
      <g>
       <use xlink:href="#ma6189a2ac6" x="653.572002" y="320.4" style="stroke: #000000; stroke-width: 0.8"/>
      </g>
     </g>
     <g id="text_4">
      <!-- 1500 -->
      <g transform="translate(640.847002 334.998438) scale(0.1 -0.1)">
       <use xlink:href="#DejaVuSans-31"/>
       <use xlink:href="#DejaVuSans-35" x="63.623047"/>
       <use xlink:href="#DejaVuSans-30" x="127.246094"/>
       <use xlink:href="#DejaVuSans-30" x="190.869141"/>
      </g>
     </g>
    </g>
    <g id="xtick_5">
     <g id="line2d_5">
      <g>
       <use xlink:href="#ma6189a2ac6" x="794.520246" y="320.4" style="stroke: #000000; stroke-width: 0.8"/>
      </g>
     </g>
     <g id="text_5">
      <!-- 2000 -->
      <g transform="translate(781.795246 334.998438) scale(0.1 -0.1)">
       <defs>
        <path id="DejaVuSans-32" d="M 1228 531 
L 3431 531 
L 3431 0 
L 469 0 
L 469 531 
Q 828 903 1448 1529 
Q 2069 2156 2228 2338 
Q 2531 2678 2651 2914 
Q 2772 3150 2772 3378 
Q 2772 3750 2511 3984 
Q 2250 4219 1831 4219 
Q 1534 4219 1204 4116 
Q 875 4013 500 3803 
L 500 4441 
Q 881 4594 1212 4672 
Q 1544 4750 1819 4750 
Q 2544 4750 2975 4387 
Q 3406 4025 3406 3419 
Q 3406 3131 3298 2873 
Q 3191 2616 2906 2266 
Q 2828 2175 2409 1742 
Q 1991 1309 1228 531 
z
" transform="scale(0.015625)"/>
       </defs>
       <use xlink:href="#DejaVuSans-32"/>
       <use xlink:href="#DejaVuSans-30" x="63.623047"/>
       <use xlink:href="#DejaVuSans-30" x="127.246094"/>
       <use xlink:href="#DejaVuSans-30" x="190.869141"/>
      </g>
     </g>
    </g>
    <g id="xtick_6">
     <g id="line2d_6">
      <g>
       <use xlink:href="#ma6189a2ac6" x="935.468489" y="320.4" style="stroke: #000000; stroke-width: 0.8"/>
      </g>
     </g>
     <g id="text_6">
      <!-- 2500 -->
      <g transform="translate(922.743489 334.998438) scale(0.1 -0.1)">
       <use xlink:href="#DejaVuSans-32"/>
       <use xlink:href="#DejaVuSans-35" x="63.623047"/>
       <use xlink:href="#DejaVuSans-30" x="127.246094"/>
       <use xlink:href="#DejaVuSans-30" x="190.869141"/>
      </g>
     </g>
    </g>
    <g id="xtick_7">
     <g id="line2d_7">
      <g>
       <use xlink:href="#ma6189a2ac6" x="1076.416732" y="320.4" style="stroke: #000000; stroke-width: 0.8"/>
      </g>
     </g>
     <g id="text_7">
      <!-- 3000 -->
      <g transform="translate(1063.691732 334.998438) scale(0.1 -0.1)">
       <defs>
        <path id="DejaVuSans-33" d="M 2597 2516 
Q 3050 2419 3304 2112 
Q 3559 1806 3559 1356 
Q 3559 666 3084 287 
Q 2609 -91 1734 -91 
Q 1441 -91 1130 -33 
Q 819 25 488 141 
L 488 750 
Q 750 597 1062 519 
Q 1375 441 1716 441 
Q 2309 441 2620 675 
Q 2931 909 2931 1356 
Q 2931 1769 2642 2001 
Q 2353 2234 1838 2234 
L 1294 2234 
L 1294 2753 
L 1863 2753 
Q 2328 2753 2575 2939 
Q 2822 3125 2822 3475 
Q 2822 3834 2567 4026 
Q 2313 4219 1838 4219 
Q 1578 4219 1281 4162 
Q 984 4106 628 3988 
L 628 4550 
Q 988 4650 1302 4700 
Q 1616 4750 1894 4750 
Q 2613 4750 3031 4423 
Q 3450 4097 3450 3541 
Q 3450 3153 3228 2886 
Q 3006 2619 2597 2516 
z
" transform="scale(0.015625)"/>
       </defs>
       <use xlink:href="#DejaVuSans-33"/>
       <use xlink:href="#DejaVuSans-30" x="63.623047"/>
       <use xlink:href="#DejaVuSans-30" x="127.246094"/>
       <use xlink:href="#DejaVuSans-30" x="190.869141"/>
      </g>
     </g>
    </g>
    <g id="xtick_8">
     <g id="line2d_8">
      <g>
       <use xlink:href="#ma6189a2ac6" x="1217.364975" y="320.4" style="stroke: #000000; stroke-width: 0.8"/>
      </g>
     </g>
     <g id="text_8">
      <!-- 3500 -->
      <g transform="translate(1204.639975 334.998438) scale(0.1 -0.1)">
       <use xlink:href="#DejaVuSans-33"/>
       <use xlink:href="#DejaVuSans-35" x="63.623047"/>
       <use xlink:href="#DejaVuSans-30" x="127.246094"/>
       <use xlink:href="#DejaVuSans-30" x="190.869141"/>
      </g>
     </g>
    </g>
    <g id="text_9">
     <!-- Sample -->
     <g transform="translate(719.251562 348.676562) scale(0.1 -0.1)">
      <defs>
       <path id="DejaVuSans-53" d="M 3425 4513 
L 3425 3897 
Q 3066 4069 2747 4153 
Q 2428 4238 2131 4238 
Q 1616 4238 1336 4038 
Q 1056 3838 1056 3469 
Q 1056 3159 1242 3001 
Q 1428 2844 1947 2747 
L 2328 2669 
Q 3034 2534 3370 2195 
Q 3706 1856 3706 1288 
Q 3706 609 3251 259 
Q 2797 -91 1919 -91 
Q 1588 -91 1214 -16 
Q 841 59 441 206 
L 441 856 
Q 825 641 1194 531 
Q 1563 422 1919 422 
Q 2459 422 2753 634 
Q 3047 847 3047 1241 
Q 3047 1584 2836 1778 
Q 2625 1972 2144 2069 
L 1759 2144 
Q 1053 2284 737 2584 
Q 422 2884 422 3419 
Q 422 4038 858 4394 
Q 1294 4750 2059 4750 
Q 2388 4750 2728 4690 
Q 3069 4631 3425 4513 
z
" transform="scale(0.015625)"/>
       <path id="DejaVuSans-61" d="M 2194 1759 
Q 1497 1759 1228 1600 
Q 959 1441 959 1056 
Q 959 750 1161 570 
Q 1363 391 1709 391 
Q 2188 391 2477 730 
Q 2766 1069 2766 1631 
L 2766 1759 
L 2194 1759 
z
M 3341 1997 
L 3341 0 
L 2766 0 
L 2766 531 
Q 2569 213 2275 61 
Q 1981 -91 1556 -91 
Q 1019 -91 701 211 
Q 384 513 384 1019 
Q 384 1609 779 1909 
Q 1175 2209 1959 2209 
L 2766 2209 
L 2766 2266 
Q 2766 2663 2505 2880 
Q 2244 3097 1772 3097 
Q 1472 3097 1187 3025 
Q 903 2953 641 2809 
L 641 3341 
Q 956 3463 1253 3523 
Q 1550 3584 1831 3584 
Q 2591 3584 2966 3190 
Q 3341 2797 3341 1997 
z
" transform="scale(0.015625)"/>
       <path id="DejaVuSans-6d" d="M 3328 2828 
Q 3544 3216 3844 3400 
Q 4144 3584 4550 3584 
Q 5097 3584 5394 3201 
Q 5691 2819 5691 2113 
L 5691 0 
L 5113 0 
L 5113 2094 
Q 5113 2597 4934 2840 
Q 4756 3084 4391 3084 
Q 3944 3084 3684 2787 
Q 3425 2491 3425 1978 
L 3425 0 
L 2847 0 
L 2847 2094 
Q 2847 2600 2669 2842 
Q 2491 3084 2119 3084 
Q 1678 3084 1418 2786 
Q 1159 2488 1159 1978 
L 1159 0 
L 581 0 
L 581 3500 
L 1159 3500 
L 1159 2956 
Q 1356 3278 1631 3431 
Q 1906 3584 2284 3584 
Q 2666 3584 2933 3390 
Q 3200 3197 3328 2828 
z
" transform="scale(0.015625)"/>
       <path id="DejaVuSans-70" d="M 1159 525 
L 1159 -1331 
L 581 -1331 
L 581 3500 
L 1159 3500 
L 1159 2969 
Q 1341 3281 1617 3432 
Q 1894 3584 2278 3584 
Q 2916 3584 3314 3078 
Q 3713 2572 3713 1747 
Q 3713 922 3314 415 
Q 2916 -91 2278 -91 
Q 1894 -91 1617 61 
Q 1341 213 1159 525 
z
M 3116 1747 
Q 3116 2381 2855 2742 
Q 2594 3103 2138 3103 
Q 1681 3103 1420 2742 
Q 1159 2381 1159 1747 
Q 1159 1113 1420 752 
Q 1681 391 2138 391 
Q 2594 391 2855 752 
Q 3116 1113 3116 1747 
z
" transform="scale(0.015625)"/>
       <path id="DejaVuSans-6c" d="M 603 4863 
L 1178 4863 
L 1178 0 
L 603 0 
L 603 4863 
z
" transform="scale(0.015625)"/>
       <path id="DejaVuSans-65" d="M 3597 1894 
L 3597 1613 
L 953 1613 
Q 991 1019 1311 708 
Q 1631 397 2203 397 
Q 2534 397 2845 478 
Q 3156 559 3463 722 
L 3463 178 
Q 3153 47 2828 -22 
Q 2503 -91 2169 -91 
Q 1331 -91 842 396 
Q 353 884 353 1716 
Q 353 2575 817 3079 
Q 1281 3584 2069 3584 
Q 2775 3584 3186 3129 
Q 3597 2675 3597 1894 
z
M 3022 2063 
Q 3016 2534 2758 2815 
Q 2500 3097 2075 3097 
Q 1594 3097 1305 2825 
Q 1016 2553 972 2059 
L 3022 2063 
z
" transform="scale(0.015625)"/>
      </defs>
      <use xlink:href="#DejaVuSans-53"/>
      <use xlink:href="#DejaVuSans-61" x="63.476562"/>
      <use xlink:href="#DejaVuSans-6d" x="124.755859"/>
      <use xlink:href="#DejaVuSans-70" x="222.167969"/>
      <use xlink:href="#DejaVuSans-6c" x="285.644531"/>
      <use xlink:href="#DejaVuSans-65" x="313.427734"/>
     </g>
    </g>
   </g>
   <g id="matplotlib.axis_2">
    <g id="ytick_1">
     <g id="line2d_9">
      <defs>
       <path id="me849c700dd" d="M 0 0 
L -3.5 0 
" style="stroke: #000000; stroke-width: 0.8"/>
      </defs>
      <g>
       <use xlink:href="#me849c700dd" x="180" y="300.425922" style="stroke: #000000; stroke-width: 0.8"/>
      </g>
     </g>
     <g id="text_10">
      <!-- −1.5 -->
      <g transform="translate(148.717187 304.225141) scale(0.1 -0.1)">
       <defs>
        <path id="DejaVuSans-2212" d="M 678 2272 
L 4684 2272 
L 4684 1741 
L 678 1741 
L 678 2272 
z
" transform="scale(0.015625)"/>
        <path id="DejaVuSans-2e" d="M 684 794 
L 1344 794 
L 1344 0 
L 684 0 
L 684 794 
z
" transform="scale(0.015625)"/>
       </defs>
       <use xlink:href="#DejaVuSans-2212"/>
       <use xlink:href="#DejaVuSans-31" x="83.789062"/>
       <use xlink:href="#DejaVuSans-2e" x="147.412109"/>
       <use xlink:href="#DejaVuSans-35" x="179.199219"/>
      </g>
     </g>
    </g>
    <g id="ytick_2">
     <g id="line2d_10">
      <g>
       <use xlink:href="#me849c700dd" x="180" y="266.987475" style="stroke: #000000; stroke-width: 0.8"/>
      </g>
     </g>
     <g id="text_11">
      <!-- −1.0 -->
      <g transform="translate(148.717187 270.786694) scale(0.1 -0.1)">
       <use xlink:href="#DejaVuSans-2212"/>
       <use xlink:href="#DejaVuSans-31" x="83.789062"/>
       <use xlink:href="#DejaVuSans-2e" x="147.412109"/>
       <use xlink:href="#DejaVuSans-30" x="179.199219"/>
      </g>
     </g>
    </g>
    <g id="ytick_3">
     <g id="line2d_11">
      <g>
       <use xlink:href="#me849c700dd" x="180" y="233.549028" style="stroke: #000000; stroke-width: 0.8"/>
      </g>
     </g>
     <g id="text_12">
      <!-- −0.5 -->
      <g transform="translate(148.717187 237.348247) scale(0.1 -0.1)">
       <use xlink:href="#DejaVuSans-2212"/>
       <use xlink:href="#DejaVuSans-30" x="83.789062"/>
       <use xlink:href="#DejaVuSans-2e" x="147.412109"/>
       <use xlink:href="#DejaVuSans-35" x="179.199219"/>
      </g>
     </g>
    </g>
    <g id="ytick_4">
     <g id="line2d_12">
      <g>
       <use xlink:href="#me849c700dd" x="180" y="200.110581" style="stroke: #000000; stroke-width: 0.8"/>
      </g>
     </g>
     <g id="text_13">
      <!-- 0.0 -->
      <g transform="translate(157.096875 203.9098) scale(0.1 -0.1)">
       <use xlink:href="#DejaVuSans-30"/>
       <use xlink:href="#DejaVuSans-2e" x="63.623047"/>
       <use xlink:href="#DejaVuSans-30" x="95.410156"/>
      </g>
     </g>
    </g>
    <g id="ytick_5">
     <g id="line2d_13">
      <g>
       <use xlink:href="#me849c700dd" x="180" y="166.672134" style="stroke: #000000; stroke-width: 0.8"/>
      </g>
     </g>
     <g id="text_14">
      <!-- 0.5 -->
      <g transform="translate(157.096875 170.471353) scale(0.1 -0.1)">
       <use xlink:href="#DejaVuSans-30"/>
       <use xlink:href="#DejaVuSans-2e" x="63.623047"/>
       <use xlink:href="#DejaVuSans-35" x="95.410156"/>
      </g>
     </g>
    </g>
    <g id="ytick_6">
     <g id="line2d_14">
      <g>
       <use xlink:href="#me849c700dd" x="180" y="133.233687" style="stroke: #000000; stroke-width: 0.8"/>
      </g>
     </g>
     <g id="text_15">
      <!-- 1.0 -->
      <g transform="translate(157.096875 137.032906) scale(0.1 -0.1)">
       <use xlink:href="#DejaVuSans-31"/>
       <use xlink:href="#DejaVuSans-2e" x="63.623047"/>
       <use xlink:href="#DejaVuSans-30" x="95.410156"/>
      </g>
     </g>
    </g>
    <g id="ytick_7">
     <g id="line2d_15">
      <g>
       <use xlink:href="#me849c700dd" x="180" y="99.79524" style="stroke: #000000; stroke-width: 0.8"/>
      </g>
     </g>
     <g id="text_16">
      <!-- 1.5 -->
      <g transform="translate(157.096875 103.594459) scale(0.1 -0.1)">
       <use xlink:href="#DejaVuSans-31"/>
       <use xlink:href="#DejaVuSans-2e" x="63.623047"/>
       <use xlink:href="#DejaVuSans-35" x="95.410156"/>
      </g>
     </g>
    </g>
    <g id="ytick_8">
     <g id="line2d_16">
      <g>
       <use xlink:href="#me849c700dd" x="180" y="66.356793" style="stroke: #000000; stroke-width: 0.8"/>
      </g>
     </g>
     <g id="text_17">
      <!-- 2.0 -->
      <g transform="translate(157.096875 70.156012) scale(0.1 -0.1)">
       <use xlink:href="#DejaVuSans-32"/>
       <use xlink:href="#DejaVuSans-2e" x="63.623047"/>
       <use xlink:href="#DejaVuSans-30" x="95.410156"/>
      </g>
     </g>
    </g>
    <g id="text_18">
     <!-- Amplitude -->
     <g transform="translate(142.6375 207.422656) rotate(-90) scale(0.1 -0.1)">
      <defs>
       <path id="DejaVuSans-41" d="M 2188 4044 
L 1331 1722 
L 3047 1722 
L 2188 4044 
z
M 1831 4666 
L 2547 4666 
L 4325 0 
L 3669 0 
L 3244 1197 
L 1141 1197 
L 716 0 
L 50 0 
L 1831 4666 
z
" transform="scale(0.015625)"/>
       <path id="DejaVuSans-69" d="M 603 3500 
L 1178 3500 
L 1178 0 
L 603 0 
L 603 3500 
z
M 603 4863 
L 1178 4863 
L 1178 4134 
L 603 4134 
L 603 4863 
z
" transform="scale(0.015625)"/>
       <path id="DejaVuSans-74" d="M 1172 4494 
L 1172 3500 
L 2356 3500 
L 2356 3053 
L 1172 3053 
L 1172 1153 
Q 1172 725 1289 603 
Q 1406 481 1766 481 
L 2356 481 
L 2356 0 
L 1766 0 
Q 1100 0 847 248 
Q 594 497 594 1153 
L 594 3053 
L 172 3053 
L 172 3500 
L 594 3500 
L 594 4494 
L 1172 4494 
z
" transform="scale(0.015625)"/>
       <path id="DejaVuSans-75" d="M 544 1381 
L 544 3500 
L 1119 3500 
L 1119 1403 
Q 1119 906 1312 657 
Q 1506 409 1894 409 
Q 2359 409 2629 706 
Q 2900 1003 2900 1516 
L 2900 3500 
L 3475 3500 
L 3475 0 
L 2900 0 
L 2900 538 
Q 2691 219 2414 64 
Q 2138 -91 1772 -91 
Q 1169 -91 856 284 
Q 544 659 544 1381 
z
M 1991 3584 
L 1991 3584 
z
" transform="scale(0.015625)"/>
       <path id="DejaVuSans-64" d="M 2906 2969 
L 2906 4863 
L 3481 4863 
L 3481 0 
L 2906 0 
L 2906 525 
Q 2725 213 2448 61 
Q 2172 -91 1784 -91 
Q 1150 -91 751 415 
Q 353 922 353 1747 
Q 353 2572 751 3078 
Q 1150 3584 1784 3584 
Q 2172 3584 2448 3432 
Q 2725 3281 2906 2969 
z
M 947 1747 
Q 947 1113 1208 752 
Q 1469 391 1925 391 
Q 2381 391 2643 752 
Q 2906 1113 2906 1747 
Q 2906 2381 2643 2742 
Q 2381 3103 1925 3103 
Q 1469 3103 1208 2742 
Q 947 2381 947 1747 
z
" transform="scale(0.015625)"/>
      </defs>
      <use xlink:href="#DejaVuSans-41"/>
      <use xlink:href="#DejaVuSans-6d" x="68.408203"/>
      <use xlink:href="#DejaVuSans-70" x="165.820312"/>
      <use xlink:href="#DejaVuSans-6c" x="229.296875"/>
      <use xlink:href="#DejaVuSans-69" x="257.080078"/>
      <use xlink:href="#DejaVuSans-74" x="284.863281"/>
      <use xlink:href="#DejaVuSans-75" x="324.072266"/>
      <use xlink:href="#DejaVuSans-64" x="387.451172"/>
      <use xlink:href="#DejaVuSans-65" x="450.927734"/>
     </g>
    </g>
   </g>
   <g id="line2d_17">
    <path d="M 230.727273 220.758413 
L 231.291066 219.132133 
L 231.854859 217.008614 
L 232.418652 214.254912 
L 233.264341 208.67001 
L 234.110031 201.035661 
L 234.95572 191.152881 
L 236.083306 174.543902 
L 237.492788 149.496951 
L 239.74796 108.11015 
L 240.59365 95.589505 
L 241.439339 86.33598 
L 242.003132 82.394908 
L 242.285029 81.162855 
L 242.566925 80.44496 
L 242.848822 80.252166 
L 243.130718 80.590891 
L 243.412615 81.462947 
L 243.976408 84.791113 
L 244.540201 90.159103 
L 245.38589 101.6949 
L 246.231579 116.716534 
L 247.641062 146.735069 
L 250.17813 201.8081 
L 251.305716 221.4179 
L 252.151406 233.053462 
L 252.997095 241.914695 
L 253.842785 248.118723 
L 254.406578 250.91459 
L 254.970371 252.767439 
L 255.534164 253.80264 
L 255.81606 254.054268 
L 256.097957 254.150255 
L 256.379853 254.106545 
L 256.943646 253.661521 
L 257.507439 252.835977 
L 258.353128 251.110193 
L 260.044507 246.906159 
L 261.735886 242.886036 
L 263.145369 240.138379 
L 264.554851 237.905141 
L 267.937609 232.892891 
L 269.628988 229.812792 
L 273.011746 223.433849 
L 274.139332 221.848599 
L 274.985021 221.005168 
L 275.830711 220.505406 
L 276.6764 220.354975 
L 277.522089 220.504843 
L 279.777261 221.171831 
L 280.341054 220.962999 
L 280.904847 220.386645 
L 281.46864 219.318139 
L 282.032433 217.63276 
L 282.596226 215.212603 
L 283.160019 211.95365 
L 284.005709 205.317776 
L 284.851398 196.454458 
L 285.697088 185.383642 
L 286.824674 167.611209 
L 288.797949 131.805282 
L 290.207431 107.288797 
L 291.053121 95.079963 
L 291.89881 85.862685 
L 292.462603 81.769173 
L 293.026396 79.535869 
L 293.308293 79.161167 
L 293.590189 79.298187 
L 293.872086 79.955273 
L 294.153982 81.136971 
L 294.717775 85.072549 
L 295.281568 91.060526 
L 296.127258 103.629839 
L 296.972947 119.904587 
L 298.382429 152.620591 
L 300.919498 213.388191 
L 302.047084 234.940875 
L 302.892773 247.470019 
L 303.738463 256.641069 
L 304.302256 260.925841 
L 304.866049 263.843989 
L 305.429842 265.521421 
L 305.711738 265.941858 
L 305.993635 266.110946 
L 306.275531 266.05027 
L 306.557428 265.781815 
L 307.121221 264.709774 
L 307.685014 263.068184 
L 308.530703 259.891465 
L 311.913461 246.0778 
L 313.041047 242.695322 
L 314.168633 240.1271 
L 315.296219 238.223231 
L 316.705701 236.416207 
L 320.088459 232.351262 
L 322.343631 229.584151 
L 323.471217 228.603148 
L 324.316906 228.170882 
L 325.162596 228.029439 
L 326.008285 228.166689 
L 327.135871 228.682033 
L 328.82725 229.556977 
L 329.391043 229.642124 
L 329.954836 229.495609 
L 330.518629 229.027864 
L 331.082422 228.144696 
L 331.646215 226.751162 
L 332.210008 224.756361 
L 332.773801 222.078834 
L 333.61949 216.64193 
L 334.46518 209.385214 
L 335.310869 200.293456 
L 336.438455 185.538176 
L 337.847938 163.792313 
L 342.076385 95.679834 
L 343.203971 82.068683 
L 344.04966 74.415383 
L 344.613453 70.771055 
L 345.177246 68.434625 
L 345.459143 67.79179 
L 345.741039 67.516088 
L 346.022936 67.618789 
L 346.304832 68.109833 
L 346.586729 68.997638 
L 347.150522 71.98846 
L 347.714315 76.620987 
L 348.278108 82.888905 
L 349.123797 95.242292 
L 349.969486 110.814562 
L 351.097072 135.57901 
L 355.889313 247.234051 
L 357.016899 265.115764 
L 357.862588 275.145314 
L 358.708278 282.285526 
L 359.272071 285.519751 
L 359.835863 287.622786 
L 360.399656 288.691211 
L 360.681553 288.871256 
L 360.963449 288.834489 
L 361.245346 288.595971 
L 361.809139 287.575494 
L 362.372932 285.934948 
L 363.218621 282.58388 
L 364.628104 275.594768 
L 367.165172 262.680123 
L 368.292758 257.961003 
L 369.420344 254.209371 
L 370.266033 252.07617 
L 371.111723 250.507147 
L 371.957412 249.425844 
L 373.084998 248.479366 
L 374.212584 247.56529 
L 374.776377 246.875954 
L 375.34017 245.876861 
L 375.903963 244.44331 
L 376.467756 242.449843 
L 377.031549 239.775908 
L 377.877239 234.253625 
L 378.722928 226.664993 
L 379.568618 216.847646 
L 380.696203 200.328272 
L 382.105686 175.053035 
L 385.77034 105.3055 
L 386.61603 93.560217 
L 387.461719 85.138491 
L 388.025512 81.665089 
L 388.307409 80.621493 
L 388.589305 80.056432 
L 388.871202 79.978699 
L 389.153098 80.394082 
L 389.434995 81.305254 
L 389.998788 84.609493 
L 390.562581 89.847206 
L 391.40827 101.099746 
L 392.253959 115.915823 
L 393.381545 139.812642 
L 397.0462 222.201365 
L 398.173786 240.836079 
L 399.019475 251.283544 
L 399.865165 258.621101 
L 400.428958 261.867036 
L 400.992751 263.911875 
L 401.556543 264.889311 
L 401.83844 265.025703 
L 402.120336 264.95476 
L 402.402233 264.697923 
L 402.966026 263.713684 
L 403.811715 261.384794 
L 406.912577 251.559329 
L 407.758266 249.904577 
L 408.603956 248.806242 
L 410.859128 246.463787 
L 411.422921 245.273924 
L 411.986713 243.510408 
L 412.550506 241.004558 
L 413.114299 237.602652 
L 413.959989 230.549196 
L 414.805678 220.927557 
L 415.651368 208.70497 
L 416.778954 188.822763 
L 418.752229 148.466143 
L 420.161712 120.959305 
L 421.007401 107.372817 
L 421.853091 97.183824 
L 422.416883 92.67589 
L 422.980676 90.20476 
L 423.262573 89.771724 
L 423.544469 89.886809 
L 423.826366 90.554869 
L 424.108262 91.776651 
L 424.672055 95.863391 
L 425.235848 102.068707 
L 426.081538 115.013114 
L 426.927227 131.626455 
L 428.33671 164.600912 
L 430.591882 218.541672 
L 431.719468 240.535877 
L 432.565157 253.430525 
L 433.410846 262.905299 
L 433.974639 267.314051 
L 434.538432 270.262754 
L 435.102225 271.85382 
L 435.384122 272.181133 
L 435.666018 272.221303 
L 435.947915 271.994595 
L 436.229811 271.522145 
L 436.793604 269.927316 
L 437.357397 267.61333 
L 438.203087 263.173379 
L 440.176362 250.976378 
L 441.585845 242.890294 
L 442.71343 237.684637 
L 443.55912 234.699108 
L 444.404809 232.529038 
L 445.250499 231.120732 
L 445.814292 230.543815 
L 446.659981 230.075415 
L 448.35136 229.524378 
L 448.915153 229.075231 
L 449.478946 228.301572 
L 450.042739 227.08774 
L 450.606532 225.325149 
L 451.170325 222.917628 
L 452.016015 217.929944 
L 452.861704 211.143924 
L 453.707393 202.512622 
L 454.834979 188.312616 
L 456.244462 167.147266 
L 459.909116 109.567526 
L 461.036702 96.435977 
L 461.882392 89.48032 
L 462.446185 86.500639 
L 463.009978 85.00109 
L 463.291874 84.842545 
L 463.57377 85.094918 
L 463.855667 85.768929 
L 464.41946 88.416109 
L 464.983253 92.832756 
L 465.547046 99.031649 
L 466.392735 111.595807 
L 467.238425 127.795502 
L 468.366011 154.052863 
L 470.621183 214.393676 
L 472.030665 249.907015 
L 473.158251 273.344489 
L 474.00394 287.04085 
L 474.84963 297.133344 
L 475.413423 301.887364 
L 475.977216 305.158263 
L 476.541009 307.07583 
L 476.822905 307.576229 
L 477.104802 307.8 
L 477.386698 307.769967 
L 477.668595 307.509413 
L 478.232388 306.39015 
L 478.796181 304.625237 
L 479.64187 301.13551 
L 481.333249 292.740138 
L 484.152214 277.724916 
L 485.2798 270.512497 
L 486.125489 263.932766 
L 486.971179 255.941277 
L 487.816868 246.237068 
L 488.944454 230.337652 
L 490.07204 211.078269 
L 491.481523 183.111978 
L 495.70997 95.506809 
L 496.837556 77.754239 
L 497.683245 67.462007 
L 498.528935 60.211252 
L 499.092728 57.241002 
L 499.374624 56.349131 
L 499.656521 55.865934 
L 499.938417 55.8 
L 500.220314 56.158728 
L 500.50221 56.948175 
L 501.066003 59.835718 
L 501.629796 64.477559 
L 502.193589 70.855515 
L 503.039279 83.540771 
L 503.884968 99.611791 
L 505.012554 125.198599 
L 508.959105 220.676934 
L 510.086691 240.456472 
L 510.93238 251.564257 
L 511.77807 259.43532 
L 512.341863 262.985116 
L 512.905656 265.301346 
L 513.469449 266.520024 
L 513.751345 266.764807 
L 514.033242 266.792783 
L 514.315138 266.623876 
L 514.878931 265.774436 
L 515.442724 264.370254 
L 516.288413 261.532758 
L 517.979792 254.64221 
L 519.953068 246.790651 
L 521.36255 242.052346 
L 522.772033 238.098935 
L 524.181515 234.759399 
L 526.15479 230.697681 
L 528.691859 226.0052 
L 536.303064 212.493143 
L 537.712546 210.200012 
L 538.558236 209.205918 
L 539.122029 208.768794 
L 539.685822 208.54459 
L 540.249615 208.555243 
L 540.813408 208.815673 
L 541.377201 209.332006 
L 541.940994 210.099429 
L 542.786683 211.67715 
L 543.914269 214.349041 
L 545.323752 217.73064 
L 545.887545 218.738716 
L 546.451337 219.343842 
L 546.733234 219.448547 
L 547.01513 219.396074 
L 547.297027 219.167693 
L 547.578923 218.745186 
L 548.142716 217.249198 
L 548.706509 214.783555 
L 549.270302 211.250198 
L 550.115992 203.820966 
L 550.961681 193.824449 
L 552.089267 176.904603 
L 553.780646 146.523062 
L 555.472025 116.233062 
L 556.599611 100.0168 
L 557.4453 91.501452 
L 558.009093 87.968536 
L 558.29099 86.906188 
L 558.572886 86.332883 
L 558.854783 86.259046 
L 559.136679 86.691513 
L 559.418576 87.633429 
L 559.982369 91.03933 
L 560.546162 96.42604 
L 561.391851 107.960217 
L 562.237541 123.068279 
L 563.647023 153.735663 
L 566.465988 217.412274 
L 567.593574 237.319597 
L 568.439263 248.826194 
L 569.284953 257.234645 
L 569.848746 261.180667 
L 570.412539 263.909305 
L 570.976332 265.555905 
L 571.540125 266.281321 
L 571.822021 266.353261 
L 572.103918 266.261492 
L 572.667711 265.677162 
L 573.5134 264.12382 
L 575.768572 259.352819 
L 576.614262 258.15691 
L 577.459951 257.387543 
L 579.433226 256.092954 
L 579.997019 255.361034 
L 580.560812 254.210216 
L 581.124605 252.486544 
L 581.688398 250.039579 
L 582.252191 246.731297 
L 583.097881 239.907698 
L 583.94357 230.637578 
L 584.78926 218.877765 
L 585.916846 199.707053 
L 587.608225 166.061147 
L 589.5815 127.305065 
L 590.709086 109.786194 
L 591.554775 100.431795 
L 592.118568 96.36878 
L 592.682361 94.206217 
L 592.964258 93.865466 
L 593.246154 94.026602 
L 593.528051 94.691444 
L 593.809947 95.858275 
L 594.37374 99.673121 
L 594.937533 105.385817 
L 595.783223 117.189277 
L 596.910809 137.821796 
L 598.602187 174.599986 
L 600.575463 216.303195 
L 601.703049 235.501284 
L 602.548738 246.714086 
L 603.394428 254.97827 
L 603.958221 258.865066 
L 604.522014 261.521809 
L 605.085807 263.043597 
L 605.367703 263.415758 
L 605.6496 263.550989 
L 605.931496 263.467155 
L 606.213393 263.182796 
L 606.777186 262.088701 
L 607.340979 260.422183 
L 608.186668 257.177102 
L 611.569426 243.012086 
L 612.415115 240.563441 
L 613.260805 238.840221 
L 613.824598 238.114163 
L 614.388391 237.724457 
L 614.952184 237.657121 
L 615.515977 237.886468 
L 616.07977 238.374313 
L 616.925459 239.474318 
L 618.898734 242.400078 
L 619.462527 242.875781 
L 620.02632 242.973735 
L 620.308217 242.840933 
L 620.590113 242.56528 
L 621.153906 241.520869 
L 621.717699 239.714488 
L 622.281492 237.028818 
L 622.845285 233.361105 
L 623.690975 225.846583 
L 624.536664 215.791227 
L 625.382354 203.225374 
L 626.50994 183.026594 
L 628.483215 142.064485 
L 630.174594 108.208318 
L 631.30218 90.228226 
L 632.147869 80.563674 
L 632.711662 76.30308 
L 633.275455 73.95333 
L 633.557352 73.525721 
L 633.839248 73.606867 
L 634.121145 74.200906 
L 634.403041 75.308831 
L 634.966834 79.054188 
L 635.530627 84.785699 
L 636.376317 96.851486 
L 637.222006 112.536719 
L 638.349592 137.630827 
L 642.014246 223.973467 
L 643.141832 244.088205 
L 643.987522 255.87185 
L 644.833211 264.785807 
L 645.678901 271.026646 
L 646.242694 273.874697 
L 646.806487 275.827979 
L 647.37028 277.036063 
L 647.934073 277.654753 
L 648.497866 277.838206 
L 649.061659 277.731076 
L 650.189244 277.132532 
L 651.31683 276.569034 
L 653.853899 275.612768 
L 654.417692 274.969644 
L 654.981485 273.905239 
L 655.545278 272.274861 
L 656.109071 269.934694 
L 656.672864 266.749786 
L 657.518553 260.136416 
L 658.364243 251.072742 
L 659.209932 239.440578 
L 660.337518 220.11799 
L 661.747 191.092363 
L 665.129758 118.117937 
L 666.257344 99.761885 
L 667.103034 89.796323 
L 667.666827 85.251942 
L 668.23062 82.511977 
L 668.512516 81.840582 
L 668.794413 81.641777 
L 669.076309 81.917597 
L 669.358206 82.667528 
L 669.921999 85.574676 
L 670.485792 90.306805 
L 671.049584 96.765253 
L 671.895274 109.372213 
L 673.02286 130.595974 
L 674.714239 167.840481 
L 676.687514 210.907705 
L 677.8151 231.913103 
L 678.942686 249.050717 
L 679.788376 259.212645 
L 680.634065 267.181544 
L 681.479754 273.199282 
L 682.325444 277.575677 
L 683.171133 280.625754 
L 683.734926 282.054276 
L 684.298719 283.063082 
L 684.862512 283.678474 
L 685.426305 283.898013 
L 685.708202 283.850521 
L 686.271995 283.407884 
L 686.835788 282.439088 
L 687.399581 280.85105 
L 687.963374 278.536558 
L 688.527167 275.382531 
L 689.372856 268.839839 
L 690.218546 259.853079 
L 691.064235 248.238028 
L 692.191821 228.686239 
L 693.319407 205.071501 
L 695.574579 151.432813 
L 697.265958 113.889773 
L 698.393544 94.40786 
L 699.239233 84.092846 
L 699.803026 79.604299 
L 700.366819 77.174265 
L 700.648716 76.756903 
L 700.930612 76.879131 
L 701.212509 77.542995 
L 701.494405 78.747401 
L 702.058198 82.757448 
L 702.621991 88.835885 
L 703.46768 101.542288 
L 704.31337 117.966744 
L 705.722852 151.137598 
L 708.541817 220.739329 
L 709.669403 243.14248 
L 710.515093 256.485331 
L 711.360782 266.662426 
L 712.206471 273.785367 
L 712.770264 276.994054 
L 713.334057 279.12975 
L 713.89785 280.354126 
L 714.461643 280.840847 
L 714.74354 280.862765 
L 715.307333 280.571227 
L 715.871126 279.966133 
L 720.663366 273.518384 
L 721.227159 272.233638 
L 721.790952 270.440845 
L 722.354745 267.978375 
L 722.918538 264.690207 
L 723.764227 257.90897 
L 724.609917 248.59999 
L 725.455606 236.592018 
L 726.583192 216.525527 
L 727.992675 186.238844 
L 731.093536 116.09268 
L 732.221122 96.431984 
L 733.066811 85.762245 
L 733.630604 80.936653 
L 734.194397 78.0905 
L 734.476294 77.435542 
L 734.75819 77.300478 
L 735.040087 77.687338 
L 735.321983 78.595025 
L 735.885776 81.952693 
L 736.449569 87.301345 
L 737.295259 98.776121 
L 738.140948 113.829429 
L 739.268534 138.016703 
L 743.215085 227.138639 
L 744.342671 245.740828 
L 745.18836 256.52991 
L 746.03405 264.645286 
L 746.879739 270.323839 
L 747.443532 272.934474 
L 748.007325 274.754682 
L 748.571118 275.92041 
L 749.134911 276.56498 
L 749.698704 276.810554 
L 750.262497 276.76017 
L 750.82629 276.490902 
L 751.67198 275.767623 
L 752.517669 274.656042 
L 753.081462 273.624592 
L 753.645255 272.263356 
L 754.209048 270.461484 
L 754.772841 268.092479 
L 755.336634 265.023394 
L 756.182323 258.827021 
L 757.028013 250.395977 
L 757.873702 239.497154 
L 759.001288 221.096928 
L 760.128874 198.839732 
L 764.357321 109.933393 
L 765.203011 98.012717 
L 765.766804 92.220559 
L 766.330597 88.351339 
L 766.612493 87.176445 
L 766.89439 86.522246 
L 767.176286 86.395223 
L 767.458183 86.798407 
L 767.740079 87.731312 
L 768.303872 91.166509 
L 768.867665 96.62549 
L 769.713355 108.305421 
L 770.559044 123.563072 
L 771.968527 154.441176 
L 774.787491 218.884261 
L 775.915077 239.702929 
L 776.760767 252.31872 
L 777.606456 262.261679 
L 778.452146 269.663393 
L 779.297835 274.791318 
L 779.861628 277.108187 
L 780.425421 278.656877 
L 780.989214 279.523114 
L 781.271111 279.722474 
L 781.553007 279.775164 
L 781.834904 279.686181 
L 782.398697 279.095049 
L 782.96249 277.955951 
L 783.526283 276.248998 
L 784.090076 273.929457 
L 784.935765 269.154236 
L 785.781454 262.576777 
L 786.627144 253.916047 
L 787.472833 242.959386 
L 788.600419 224.696047 
L 790.009902 196.771919 
L 793.39266 125.147195 
L 794.238349 111.622858 
L 795.084038 101.707242 
L 795.647831 97.41842 
L 796.211624 95.131813 
L 796.493521 94.760133 
L 796.775417 94.906449 
L 797.057314 95.568705 
L 797.33921 96.741069 
L 797.903003 100.574261 
L 798.466796 106.286735 
L 799.312486 117.988266 
L 800.440072 138.188521 
L 802.413347 179.759723 
L 804.104726 213.964382 
L 805.232312 233.036192 
L 806.359898 248.087103 
L 807.205587 256.599411 
L 808.051277 262.840988 
L 808.896966 267.052104 
L 809.460759 268.894981 
L 810.024552 270.100171 
L 810.588345 270.790201 
L 811.152138 271.087978 
L 811.715931 271.110708 
L 812.561621 270.855524 
L 814.534896 270.103443 
L 815.944378 269.659885 
L 816.508171 269.309257 
L 817.071964 268.711246 
L 817.635757 267.740288 
L 818.19955 266.258449 
L 818.763343 264.12224 
L 819.327136 261.190459 
L 819.890929 257.332835 
L 820.736619 249.576963 
L 821.582308 239.25621 
L 822.427998 226.337563 
L 823.555584 205.4787 
L 825.246963 169.087713 
L 827.220238 126.772933 
L 828.347824 106.762412 
L 829.193513 95.112495 
L 830.039203 86.942933 
L 830.602996 83.612949 
L 830.884892 82.609348 
L 831.166789 82.05333 
L 831.448685 81.947135 
L 831.730582 82.290797 
L 832.012478 83.082135 
L 832.576271 85.988025 
L 833.140064 90.602958 
L 833.985754 100.507596 
L 834.831443 113.557663 
L 835.959029 134.736226 
L 840.751269 230.935797 
L 841.878855 246.73605 
L 842.724545 256.078752 
L 843.570234 263.439393 
L 844.415924 269.089379 
L 845.261613 273.341105 
L 846.107303 276.478216 
L 846.952992 278.693431 
L 847.516785 279.692557 
L 848.080578 280.288985 
L 848.644371 280.430549 
L 848.926267 280.30676 
L 849.208164 280.037395 
L 849.771957 279.006997 
L 850.33575 277.220995 
L 850.899543 274.553622 
L 851.463336 270.881376 
L 852.309025 263.252643 
L 853.154715 252.85441 
L 854.000404 239.612179 
L 855.12799 217.861914 
L 856.537473 185.822685 
L 859.074541 126.66701 
L 860.202127 105.482097 
L 861.047816 93.46663 
L 861.611609 87.655517 
L 862.175402 83.762423 
L 862.457299 82.564893 
L 862.739195 81.877358 
L 863.021092 81.704492 
L 863.302988 82.048284 
L 863.584885 82.908018 
L 864.148678 86.158778 
L 864.712471 91.396188 
L 865.276264 98.515571 
L 866.121953 112.387407 
L 867.249539 135.742196 
L 868.940918 176.790511 
L 870.914193 224.06609 
L 872.041779 246.663739 
L 873.169365 264.444945 
L 874.015055 274.421562 
L 874.860744 281.697137 
L 875.706434 286.643758 
L 876.270227 288.883368 
L 876.83402 290.451861 
L 877.397813 291.491688 
L 877.961605 292.12667 
L 878.525398 292.453248 
L 879.089191 292.53387 
L 879.652984 292.392802 
L 880.216777 292.014529 
L 880.78057 291.344824 
L 881.344363 290.294468 
L 881.908156 288.745499 
L 882.471949 286.559726 
L 883.035742 283.588982 
L 883.599535 279.686515 
L 884.445225 271.800363 
L 885.290914 261.189166 
L 886.136604 247.72077 
L 887.26419 225.573315 
L 888.673672 192.787999 
L 891.492637 125.475769 
L 892.620223 104.50517 
L 893.465912 92.910587 
L 894.029705 87.464403 
L 894.593498 83.966676 
L 894.875395 82.966045 
L 895.157291 82.467595 
L 895.439188 82.47014 
L 895.721084 82.969576 
L 896.002981 83.958943 
L 896.566774 87.36575 
L 897.130567 92.580579 
L 897.976256 103.454582 
L 898.821945 117.397712 
L 900.231428 145.268181 
L 903.614186 214.697845 
L 905.023668 237.701533 
L 906.151254 252.555024 
L 907.27884 264.420818 
L 908.406426 273.576042 
L 909.252115 278.773711 
L 910.097805 282.528388 
L 910.661598 284.174925 
L 911.225391 285.067151 
L 911.507287 285.205803 
L 911.789184 285.124311 
L 912.07108 284.810302 
L 912.352977 284.250854 
L 912.91677 282.34268 
L 913.480563 279.295215 
L 914.044356 275.012816 
L 914.890045 266.114018 
L 915.735735 254.146187 
L 916.581424 239.195772 
L 917.70901 215.234499 
L 919.682285 166.747339 
L 921.373664 126.106054 
L 922.50125 103.581394 
L 923.34694 90.516703 
L 923.910733 84.001442 
L 924.474526 79.418017 
L 925.038319 76.875779 
L 925.320215 76.393597 
L 925.602112 76.444816 
L 925.884008 77.031726 
L 926.165905 78.153901 
L 926.729698 81.988402 
L 927.293491 87.888372 
L 928.13918 100.364853 
L 928.98487 116.679512 
L 930.112455 143.016941 
L 934.059006 241.752709 
L 935.186592 262.042559 
L 936.032282 273.264525 
L 936.877971 280.98219 
L 937.441764 284.279259 
L 938.005557 286.232641 
L 938.287454 286.752718 
L 938.56935 286.997013 
L 938.851247 286.988597 
L 939.133143 286.751458 
L 939.696936 285.689727 
L 940.260729 284.01077 
L 941.388315 279.571204 
L 943.079694 272.66157 
L 943.925383 269.931083 
L 944.771073 267.891481 
L 945.616762 266.451177 
L 947.308141 264.037096 
L 947.871934 262.808571 
L 948.435727 261.05909 
L 948.99952 258.595561 
L 949.563313 255.235518 
L 950.127106 250.818511 
L 950.972795 241.943286 
L 951.818485 230.169022 
L 952.664174 215.520349 
L 953.79176 192.112369 
L 956.328829 132.052009 
L 957.738311 102.429441 
L 958.584001 88.697643 
L 959.147794 81.788871 
L 959.711587 76.912477 
L 960.27538 74.208779 
L 960.557276 73.699209 
L 960.839172 73.758032 
L 961.121069 74.385407 
L 961.402965 75.577451 
L 961.966758 79.619773 
L 962.530551 85.773392 
L 963.376241 98.565338 
L 964.503827 120.908832 
L 966.758999 173.420227 
L 968.168481 203.09791 
L 969.014171 217.350747 
L 969.85986 228.251559 
L 970.423653 233.564195 
L 970.987446 237.344623 
L 971.551239 239.68461 
L 971.833135 240.356116 
L 972.115032 240.722282 
L 972.396928 240.805632 
L 972.678825 240.630049 
L 972.960721 240.220403 
L 973.524514 238.801291 
L 974.370204 235.560093 
L 977.471065 221.925033 
L 978.034858 220.48452 
L 978.598651 219.628843 
L 978.880548 219.436337 
L 979.162444 219.405216 
L 979.444341 219.536278 
L 980.008134 220.278104 
L 980.571927 221.629313 
L 981.13572 223.530607 
L 981.981409 227.235125 
L 983.108995 233.261262 
L 986.209856 250.659948 
L 987.337442 255.748946 
L 988.183132 258.812399 
L 989.028821 261.106502 
L 989.592614 262.14283 
L 990.156407 262.726574 
L 990.438304 262.829832 
L 990.7202 262.795834 
L 991.002097 262.61506 
L 991.56589 261.771891 
L 992.129682 260.212562 
L 992.693475 257.843895 
L 993.257268 254.572645 
L 994.102958 247.787961 
L 994.948647 238.559104 
L 995.794337 226.795998 
L 996.921923 207.351522 
L 998.331405 178.199371 
L 1001.714163 104.467041 
L 1002.841749 85.686301 
L 1003.687438 75.418762 
L 1004.251231 70.71323 
L 1004.815024 67.867754 
L 1005.096921 67.171219 
L 1005.378817 66.969399 
L 1005.660714 67.267145 
L 1005.94261 68.066756 
L 1006.506403 71.16757 
L 1007.070196 76.236551 
L 1007.633989 83.193541 
L 1008.479679 96.880331 
L 1009.607265 120.177869 
L 1011.298644 161.606613 
L 1013.271919 209.734057 
L 1014.399505 232.789525 
L 1015.245194 246.836492 
L 1016.090884 257.815222 
L 1016.936573 265.730481 
L 1017.500366 269.399364 
L 1018.064159 271.892441 
L 1018.627952 273.328685 
L 1018.909849 273.691527 
L 1019.191745 273.84048 
L 1019.473642 273.793113 
L 1019.755538 273.56707 
L 1020.319331 272.649019 
L 1020.883124 271.223623 
L 1021.728814 268.416262 
L 1023.702089 260.635645 
L 1025.111571 255.47429 
L 1026.239157 252.101945 
L 1027.366743 249.527045 
L 1028.212433 248.115805 
L 1029.058122 247.111501 
L 1029.903812 246.445741 
L 1031.031398 245.88539 
L 1032.158984 245.305008 
L 1032.722777 244.822199 
L 1033.28657 244.088733 
L 1033.850362 243.002055 
L 1034.414155 241.455636 
L 1034.977948 239.343973 
L 1035.541741 236.567925 
L 1036.387431 230.971201 
L 1037.23312 223.466777 
L 1038.07881 213.952306 
L 1039.206396 198.231005 
L 1040.615878 174.520738 
L 1044.562429 103.958268 
L 1045.408118 92.759986 
L 1046.253808 84.469011 
L 1046.817601 80.840397 
L 1047.381394 78.897564 
L 1047.66329 78.594674 
L 1047.945187 78.752962 
L 1048.227083 79.38132 
L 1048.50898 80.486239 
L 1049.072773 84.138665 
L 1049.636566 89.70745 
L 1050.482255 101.525193 
L 1051.327945 117.120485 
L 1052.455531 142.568132 
L 1056.402081 238.419386 
L 1057.247771 253.324369 
L 1058.09346 264.788202 
L 1058.93915 272.755969 
L 1059.502943 276.234463 
L 1060.066736 278.393337 
L 1060.630529 279.39881 
L 1060.912425 279.527481 
L 1061.194322 279.439716 
L 1061.476218 279.160667 
L 1062.040011 278.128619 
L 1062.885701 275.753001 
L 1066.832251 263.140655 
L 1067.959837 259.579528 
L 1068.805527 256.056253 
L 1069.651216 251.197149 
L 1070.496906 244.478641 
L 1071.342595 235.490967 
L 1072.188285 224.015091 
L 1073.315871 204.928015 
L 1074.725353 176.273316 
L 1077.544318 117.010791 
L 1078.390007 103.127685 
L 1079.235697 92.798226 
L 1079.79949 88.268309 
L 1080.363283 85.82347 
L 1080.645179 85.419673 
L 1080.927076 85.573839 
L 1081.208972 86.29027 
L 1081.490869 87.569257 
L 1082.054662 91.795515 
L 1082.618455 98.172326 
L 1083.464144 111.432415 
L 1084.309834 128.432074 
L 1085.719316 162.202809 
L 1087.974488 217.638397 
L 1089.102074 240.348908 
L 1089.947763 253.749589 
L 1090.793453 263.738381 
L 1091.357246 268.527029 
L 1091.921039 271.918156 
L 1092.484832 274.047955 
L 1093.048625 275.086596 
L 1093.330521 275.256305 
L 1093.612418 275.226415 
L 1093.894314 275.022438 
L 1094.458107 274.193346 
L 1095.303797 272.257178 
L 1097.558968 266.596022 
L 1098.404658 265.07186 
L 1099.81414 263.143531 
L 1100.65983 261.859763 
L 1101.223623 260.678635 
L 1101.787416 259.056742 
L 1102.351209 256.833 
L 1102.915002 253.849875 
L 1103.478795 249.962175 
L 1104.324484 242.171153 
L 1105.170174 231.787591 
L 1106.015863 218.732535 
L 1107.143449 197.499799 
L 1108.834828 160.035341 
L 1110.808103 116.231282 
L 1111.935689 96.019314 
L 1112.781379 84.962535 
L 1113.345172 79.98308 
L 1113.908965 77.117314 
L 1114.190861 76.514196 
L 1114.472758 76.476841 
L 1114.754654 77.009929 
L 1115.036551 78.114187 
L 1115.600344 82.018816 
L 1116.164137 88.114543 
L 1117.009826 101.036866 
L 1117.855515 117.80449 
L 1119.264998 151.402966 
L 1121.802066 213.029216 
L 1122.929652 234.523439 
L 1123.775342 246.918629 
L 1124.621031 255.983853 
L 1125.184824 260.26716 
L 1125.748617 263.276107 
L 1126.31241 265.165852 
L 1126.876203 266.115084 
L 1127.158099 266.296529 
L 1127.439996 266.314898 
L 1128.003789 265.958529 
L 1128.567582 265.23229 
L 1130.822754 261.703903 
L 1131.386547 261.194348 
L 1131.95034 260.928637 
L 1132.514133 260.891679 
L 1133.359822 261.147841 
L 1134.487408 261.573959 
L 1135.051201 261.538013 
L 1135.614994 261.139729 
L 1136.178787 260.225597 
L 1136.74258 258.646684 
L 1137.306373 256.266312 
L 1137.870166 252.967122 
L 1138.715855 246.103107 
L 1139.561545 236.797378 
L 1140.407234 225.058945 
L 1141.53482 206.009429 
L 1143.226199 172.438311 
L 1145.481371 127.375324 
L 1146.608957 109.238472 
L 1147.454646 99.112526 
L 1148.018439 94.371275 
L 1148.582232 91.403487 
L 1148.864129 90.616949 
L 1149.146025 90.307295 
L 1149.427922 90.480067 
L 1149.709818 91.137949 
L 1149.991715 92.280702 
L 1150.555508 96.004882 
L 1151.119301 101.590216 
L 1151.96499 113.200614 
L 1152.81068 128.157813 
L 1154.220162 158.274588 
L 1157.039127 221.066464 
L 1158.166713 241.06839 
L 1159.012402 252.87527 
L 1159.858092 261.787973 
L 1160.703781 267.937698 
L 1161.267574 270.657129 
L 1161.831367 272.419922 
L 1162.39516 273.369119 
L 1162.677057 273.584464 
L 1162.958953 273.650947 
L 1163.24085 273.585735 
L 1163.804643 273.12379 
L 1164.368436 272.312394 
L 1165.214125 270.625256 
L 1166.341711 267.722934 
L 1167.187401 265.035738 
L 1168.03309 261.714986 
L 1168.878779 257.460103 
L 1169.724469 251.908089 
L 1170.570158 244.695318 
L 1171.415848 235.524049 
L 1172.261537 224.224965 
L 1173.389123 205.896903 
L 1174.798606 178.721874 
L 1177.899467 116.428173 
L 1179.027053 99.20796 
L 1179.872742 90.076183 
L 1180.436535 86.117344 
L 1181.000328 84.001215 
L 1181.282225 83.657384 
L 1181.564121 83.796053 
L 1181.846018 84.418062 
L 1182.127914 85.521053 
L 1182.691707 89.144337 
L 1183.2555 94.58226 
L 1184.10119 105.834308 
L 1184.946879 120.205726 
L 1186.356362 148.738719 
L 1189.175326 207.039674 
L 1190.302912 225.701409 
L 1191.430498 240.274584 
L 1192.276188 248.490393 
L 1193.121877 254.572483 
L 1193.967567 258.808573 
L 1194.53136 260.771642 
L 1195.095153 262.163793 
L 1195.658946 263.082345 
L 1196.222739 263.618474 
L 1196.786532 263.855849 
L 1197.350325 263.87002 
L 1198.196014 263.617907 
L 1201.014979 262.452361 
L 1201.860668 262.459309 
L 1202.706358 262.744726 
L 1203.552047 263.312587 
L 1204.679633 264.427785 
L 1206.371012 266.247919 
L 1206.934805 266.62996 
L 1207.498598 266.743007 
L 1208.062391 266.471419 
L 1208.626184 265.689373 
L 1209.189977 264.265787 
L 1209.75377 262.07058 
L 1210.317563 258.982108 
L 1210.881356 254.895361 
L 1211.727045 246.726887 
L 1212.572735 236.012406 
L 1213.700321 217.931324 
L 1215.109803 190.458277 
L 1218.774458 115.530097 
L 1219.902043 98.563524 
L 1220.747733 89.35056 
L 1221.311526 85.104467 
L 1221.875319 82.469241 
L 1222.157215 81.771947 
L 1222.439112 81.493182 
L 1222.721008 81.634327 
L 1223.002905 82.194833 
L 1223.284801 83.172182 
L 1223.848594 86.357234 
L 1224.412387 91.128419 
L 1225.258077 101.042526 
L 1226.103766 113.841703 
L 1227.231352 134.296018 
L 1231.177903 210.086151 
L 1232.305489 225.791728 
L 1233.151178 234.638654 
L 1233.996868 240.900423 
L 1234.560661 243.69178 
L 1235.124454 245.453171 
L 1235.688247 246.272357 
L 1235.970143 246.35969 
L 1236.25204 246.249807 
L 1236.533936 245.956283 
L 1237.097729 244.872953 
L 1237.661522 243.217893 
L 1238.507212 239.889449 
L 1239.634798 234.365464 
L 1244.145141 210.882203 
L 1245.272727 206.731591 
L 1245.272727 206.731591 
" clip-path="url(#pddd0ee98e8)" style="fill: none; stroke: #1f77b4; stroke-width: 1.5; stroke-linecap: square"/>
   </g>
   <g id="patch_3">
    <path d="M 180 320.4 
L 180 43.2 
" style="fill: none; stroke: #000000; stroke-width: 0.8; stroke-linejoin: miter; stroke-linecap: square"/>
   </g>
   <g id="patch_4">
    <path d="M 1296 320.4 
L 1296 43.2 
" style="fill: none; stroke: #000000; stroke-width: 0.8; stroke-linejoin: miter; stroke-linecap: square"/>
   </g>
   <g id="patch_5">
    <path d="M 180 320.4 
L 1296 320.4 
" style="fill: none; stroke: #000000; stroke-width: 0.8; stroke-linejoin: miter; stroke-linecap: square"/>
   </g>
   <g id="patch_6">
    <path d="M 180 43.2 
L 1296 43.2 
" style="fill: none; stroke: #000000; stroke-width: 0.8; stroke-linejoin: miter; stroke-linecap: square"/>
   </g>
   <g id="text_19">
    <!-- Signal with Peaks -->
    <g transform="translate(685.6575 37.2) scale(0.12 -0.12)">
     <defs>
      <path id="DejaVuSans-67" d="M 2906 1791 
Q 2906 2416 2648 2759 
Q 2391 3103 1925 3103 
Q 1463 3103 1205 2759 
Q 947 2416 947 1791 
Q 947 1169 1205 825 
Q 1463 481 1925 481 
Q 2391 481 2648 825 
Q 2906 1169 2906 1791 
z
M 3481 434 
Q 3481 -459 3084 -895 
Q 2688 -1331 1869 -1331 
Q 1566 -1331 1297 -1286 
Q 1028 -1241 775 -1147 
L 775 -588 
Q 1028 -725 1275 -790 
Q 1522 -856 1778 -856 
Q 2344 -856 2625 -561 
Q 2906 -266 2906 331 
L 2906 616 
Q 2728 306 2450 153 
Q 2172 0 1784 0 
Q 1141 0 747 490 
Q 353 981 353 1791 
Q 353 2603 747 3093 
Q 1141 3584 1784 3584 
Q 2172 3584 2450 3431 
Q 2728 3278 2906 2969 
L 2906 3500 
L 3481 3500 
L 3481 434 
z
" transform="scale(0.015625)"/>
      <path id="DejaVuSans-6e" d="M 3513 2113 
L 3513 0 
L 2938 0 
L 2938 2094 
Q 2938 2591 2744 2837 
Q 2550 3084 2163 3084 
Q 1697 3084 1428 2787 
Q 1159 2491 1159 1978 
L 1159 0 
L 581 0 
L 581 3500 
L 1159 3500 
L 1159 2956 
Q 1366 3272 1645 3428 
Q 1925 3584 2291 3584 
Q 2894 3584 3203 3211 
Q 3513 2838 3513 2113 
z
" transform="scale(0.015625)"/>
      <path id="DejaVuSans-20" transform="scale(0.015625)"/>
      <path id="DejaVuSans-77" d="M 269 3500 
L 844 3500 
L 1563 769 
L 2278 3500 
L 2956 3500 
L 3675 769 
L 4391 3500 
L 4966 3500 
L 4050 0 
L 3372 0 
L 2619 2869 
L 1863 0 
L 1184 0 
L 269 3500 
z
" transform="scale(0.015625)"/>
      <path id="DejaVuSans-68" d="M 3513 2113 
L 3513 0 
L 2938 0 
L 2938 2094 
Q 2938 2591 2744 2837 
Q 2550 3084 2163 3084 
Q 1697 3084 1428 2787 
Q 1159 2491 1159 1978 
L 1159 0 
L 581 0 
L 581 4863 
L 1159 4863 
L 1159 2956 
Q 1366 3272 1645 3428 
Q 1925 3584 2291 3584 
Q 2894 3584 3203 3211 
Q 3513 2838 3513 2113 
z
" transform="scale(0.015625)"/>
      <path id="DejaVuSans-50" d="M 1259 4147 
L 1259 2394 
L 2053 2394 
Q 2494 2394 2734 2622 
Q 2975 2850 2975 3272 
Q 2975 3691 2734 3919 
Q 2494 4147 2053 4147 
L 1259 4147 
z
M 628 4666 
L 2053 4666 
Q 2838 4666 3239 4311 
Q 3641 3956 3641 3272 
Q 3641 2581 3239 2228 
Q 2838 1875 2053 1875 
L 1259 1875 
L 1259 0 
L 628 0 
L 628 4666 
z
" transform="scale(0.015625)"/>
      <path id="DejaVuSans-6b" d="M 581 4863 
L 1159 4863 
L 1159 1991 
L 2875 3500 
L 3609 3500 
L 1753 1863 
L 3688 0 
L 2938 0 
L 1159 1709 
L 1159 0 
L 581 0 
L 581 4863 
z
" transform="scale(0.015625)"/>
      <path id="DejaVuSans-73" d="M 2834 3397 
L 2834 2853 
Q 2591 2978 2328 3040 
Q 2066 3103 1784 3103 
Q 1356 3103 1142 2972 
Q 928 2841 928 2578 
Q 928 2378 1081 2264 
Q 1234 2150 1697 2047 
L 1894 2003 
Q 2506 1872 2764 1633 
Q 3022 1394 3022 966 
Q 3022 478 2636 193 
Q 2250 -91 1575 -91 
Q 1294 -91 989 -36 
Q 684 19 347 128 
L 347 722 
Q 666 556 975 473 
Q 1284 391 1588 391 
Q 1994 391 2212 530 
Q 2431 669 2431 922 
Q 2431 1156 2273 1281 
Q 2116 1406 1581 1522 
L 1381 1569 
Q 847 1681 609 1914 
Q 372 2147 372 2553 
Q 372 3047 722 3315 
Q 1072 3584 1716 3584 
Q 2034 3584 2315 3537 
Q 2597 3491 2834 3397 
z
" transform="scale(0.015625)"/>
     </defs>
     <use xlink:href="#DejaVuSans-53"/>
     <use xlink:href="#DejaVuSans-69" x="63.476562"/>
     <use xlink:href="#DejaVuSans-67" x="91.259766"/>
     <use xlink:href="#DejaVuSans-6e" x="154.736328"/>
     <use xlink:href="#DejaVuSans-61" x="218.115234"/>
     <use xlink:href="#DejaVuSans-6c" x="279.394531"/>
     <use xlink:href="#DejaVuSans-20" x="307.177734"/>
     <use xlink:href="#DejaVuSans-77" x="338.964844"/>
     <use xlink:href="#DejaVuSans-69" x="420.751953"/>
     <use xlink:href="#DejaVuSans-74" x="448.535156"/>
     <use xlink:href="#DejaVuSans-68" x="487.744141"/>
     <use xlink:href="#DejaVuSans-20" x="551.123047"/>
     <use xlink:href="#DejaVuSans-50" x="582.910156"/>
     <use xlink:href="#DejaVuSans-65" x="639.587891"/>
     <use xlink:href="#DejaVuSans-61" x="701.111328"/>
     <use xlink:href="#DejaVuSans-6b" x="762.390625"/>
     <use xlink:href="#DejaVuSans-73" x="820.300781"/>
    </g>
   </g>
   <g id="legend_1">
    <g id="patch_7">
     <path d="M 1228.051563 65.878125 
L 1289 65.878125 
Q 1291 65.878125 1291 63.878125 
L 1291 50.2 
Q 1291 48.2 1289 48.2 
L 1228.051563 48.2 
Q 1226.051563 48.2 1226.051563 50.2 
L 1226.051563 63.878125 
Q 1226.051563 65.878125 1228.051563 65.878125 
z
" style="fill: #ffffff; opacity: 0.8; stroke: #cccccc; stroke-linejoin: miter"/>
    </g>
    <g id="PathCollection_2">
     <g>
      <use xlink:href="#m476ccc90b3" x="1240.051563" y="57.173437" style="fill: #ff0000; stroke: #ff0000"/>
     </g>
    </g>
    <g id="text_20">
     <!-- Peaks -->
     <g transform="translate(1258.051563 59.798437) scale(0.1 -0.1)">
      <use xlink:href="#DejaVuSans-50"/>
      <use xlink:href="#DejaVuSans-65" x="56.677734"/>
      <use xlink:href="#DejaVuSans-61" x="118.201172"/>
      <use xlink:href="#DejaVuSans-6b" x="179.480469"/>
      <use xlink:href="#DejaVuSans-73" x="237.390625"/>
     </g>
    </g>
   </g>
  </g>
 </g>
 <defs>
  <clipPath id="pddd0ee98e8">
   <rect x="180" y="43.2" width="1116" height="277.2"/>
  </clipPath>
 </defs>
</svg>
